ply
format ascii 1.0
element vertex 300
property float x
property float y
property float z
element face 596
property list uchar int vertex_indices
end_header
0.246402502 -1.0417062 0
1.22208536 -0.516179264 0
1.80428791 0.426781684 0
1.83700991 1.53451133 0
1.31148291 2.51019406 0
0.368522167 3.09239674 0
-0.739207685 3.12511849 0
-1.71489048 2.59959126 0
-2.29709291 1.65663052 0
-2.32981491 0.5489012 0
-1.80428803 -0.426781476 0
-0.861326516 -1.00898457 0
0.190827221 -1.71989393 2.5625
1.14262462 -1.20723224 2.5625
1.71057451 -0.287355632 2.5625
1.74249542 0.793255985 2.5625
1.22983372 1.74505329 2.5625
0.309957325 2.3130033 2.5625
-0.7706545 2.34492397 2.5625
-1.72245193 1.8322618 2.5625
-2.2904017 0.912385643 2.5625
-2.32232237 -0.168225706 2.5625
-1.80966091 -1.12002301 2.5625
-0.88978374 -1.68797326 2.5625
0.141242117 -2.11593437 5.125
1.12613297 -1.58544791 5.125
1.71383023 -0.633587599 5.125
1.74686086 0.484596252 5.125
1.21637428 1.46948719 5.125
0.264514267 2.0571847 5.125
-0.853669882 2.09021497 5.125
-1.83856094 1.55972815 5.125
-2.42625785 0.607867956 5.125
-2.4592886 -0.510315597 5.125
-1.92880213 -1.49520636 5.125
-0.976941168 -2.0829041 5.125
0.0938248932 -2.26460195 7.6875
0.958543777 -1.74902928 7.6875
1.45221591 -0.782496095 7.6875
1.4425621 0.376016021 7.6875
0.932169318 1.41608441 7.6875
0.0577968061 2.05902386 7.6875
-0.946268439 2.1325593 7.6875
-1.81098735 1.61698592 7.6875
-2.30465937 0.650452971 7.6875
-2.29500556 -0.508058786 7.6875
-1.78461277 -1.54812706 7.6875
-0.910239458 -2.19106674 7.6875
0.0555390716 -2.24626827 10.25
0.444889456 -1.82690978 10.25
0.583297133 -0.900072813 10.25
0.433675915 0.285897136 10.25
0.0361166894 1.41322041 10.25
-0.502854884 2.17983198 10.25
-1.03882194 2.3803184 10.25
-1.42817235 1.9609592 10.25
-1.56658006 1.03412223 10.25
-1.41695881 -0.151847363 10.25
-1.01939964 -1.27917051 10.25
-0.480427563 -2.04578233 10.25
-0.00387984514 -2.08731031 12.8125
0.371131331 -1.67929506 12.8125
0.510861516 -0.755323768 12.8125
0.377870232 0.437026143 12.8125
0.00779232383 1.57826555 12.8125
-0.500210106 2.36260033 12.8125
-1.01001835 2.57986832 12.8125
-1.38502955 2.17185259 12.8125
-1.52475977 1.24788153 12.8125
-1.39176846 0.055531919 12.8125
-1.02169061 -1.08570731 12.8125
-0.51368773 -1.87004256 12.8125
-0.0416238159 -1.90093255 15.375
0.312583804 -1.50810742 15.375
0.449142396 -0.599031091 15.375
0.331461251 0.582710326 15.375
-0.00892707705 1.72046995 15.375
-0.480815768 2.50938678 15.375
-0.957762837 2.73807001 15.375
-1.31197047 2.34524465 15.375
-1.44852901 1.43616819 15.375
-1.33084798 0.254427135 15.375
-0.990459621 -0.883332491 15.375
-0.518570483 -1.67224932 15.375
-0.0528192073 -1.74054527 17.9375
0.270716637 -1.3703649 17.9375
0.397195488 -0.49802646 17.9375
0.292727262 0.642727673 17.9375
-0.0146956444 1.74623299 17.9375
-0.442699671 2.51680684 17.9375
-0.876601577 2.74797392 17.9375
-1.20013738 2.37779307 17.9375
-1.32661605 1.50545478 17.9375
-1.22214794 0.364700973 17.9375
-0.914725065 -0.73880434 17.9375
-0.486720741 -1.50937855 17.9375
-0.0414420366 -1.63638282 20.5
0.252264202 -1.2880317 20.5
0.368819118 -0.452672303 20.5
0.276991904 0.645861566 20.5
0.00138755143 1.71321869 20.5
-0.384145856 2.46340156 20.5
-0.776305139 2.69539905 20.5
-1.0700115 2.34704757 20.5
-1.18656623 1.51168847 20.5
-1.09473908 0.41315484 20.5
-0.819134772 -0.654202044 20.5
-0.433601022 -1.40438533 20.5
-0.0155782402 -1.57260597 23.0625
0.250465035 -1.24529624 23.0625
0.358248413 -0.447533995 23.0625
0.278891563 0.606921315 23.0625
0.0336579531 1.6355288 23.0625
-0.311742187 2.36267447 23.0625
-0.664759219 2.59351969 23.0625
-0.930802524 2.26620984 23.0625
-1.0385859 1.46844769 23.0625
-0.959228992 0.413992703 23.0625
-0.713995457 -0.614614844 23.0625
-0.368595064 -1.34176087 23.0625
0.0162949488 -1.53033209 25.625
0.259925693 -1.22395372 25.625
0.362584174 -0.46689105 25.625
0.296763241 0.538001657 25.625
0.0800994411 1.52146387 25.625
-0.229352206 2.21997833 25.625
-0.548674583 2.44637823 25.625
-0.792305291 2.13999939 25.625
-0.894963741 1.38293684 25.625
-0.829142869 0.378044546 25.625
-0.612479091 -0.605417728 25.625
-0.303027153 -1.30393255 25.625
0.0472308472 -1.50114167 28.1875
0.269609451 -1.21449256 28.1875
0.367211848 -0.496813625 28.1875
0.313885599 0.459593773 28.1875
0.12391936 1.39846075 28.1875
-0.151785463 2.06821895 28.1875
-0.439354122 2.28940701 28.1875
-0.661732733 2.00275779 28.1875
-0.759335101 1.28507888 28.1875
-0.706008852 0.328671873 28.1875
-0.516042709 -0.6101951 28.1875
-0.24033761 -1.27995372 28.1875
0.0692097992 -1.47039831 30.75
0.271594822 -1.20219004 30.75
0.364273161 -0.52222836 30.75
0.322411776 0.387291729 30.75
0.157227367 1.28266478 30.75
-0.0870189741 1.92397666 30.75
-0.344881773 2.13938808 30.75
-0.547266841 1.87117934 30.75
-0.639945149 1.19121802 30.75
-0.598083735 0.281698287 30.75
-0.432899386 -0.61367476 30.75
-0.188652813 -1.254987 30.75
0.0768981725 -1.42740679 33.3125
0.260575354 -1.17601895 33.3125
0.348182797 -0.531345248 33.3125
0.316246182 0.333874702 33.3125
0.173322856 1.18780565 33.3125
-0.0422909223 1.80163813 33.3125
-0.272821724 2.01089549 33.3125
-0.456498921 1.75950718 33.3125
-0.544106305 1.11483359 33.3125
-0.512169659 0.249614 33.3125
-0.369246423 -0.604317009 33.3125
-0.153632447 -1.21814966 33.3125
0.0722432658 -1.37389135 35.875
0.238452956 -1.138129 35.875
0.321205497 -0.526969492 35.875
0.298327386 0.295827627 35.875
0.175948814 1.10979438 35.875
-0.0131389676 1.69682908 35.875
-0.218270123 1.89963627 35.875
-0.384479851 1.66387367 35.875
-0.467232317 1.05271411 35.875
-0.444354236 0.229917288 35.875
-0.321975678 -0.584049344 35.875
-0.132887736 -1.1710844 35.875
0.0599937998 -1.31560493 38.4375
0.209901676 -1.09437752 38.4375
0.288004607 -0.515099943 38.4375
0.273374945 0.267010748 38.4375
0.169932798 1.04238844 38.4375
0.00539529044 1.60327148 38.4375
-0.176149875 1.79937196 38.4375
-0.326057762 1.57814407 38.4375
-0.404160649 0.998866737 38.4375
-0.389531046 0.216756284 38.4375
-0.286088854 -0.558621407 38.4375
-0.121551231 -1.11950493 38.4375
0.0464791618 -1.25819635 41
0.187049508 -1.04981637 41
0.264150023 -0.500472546 41
0.257121623 0.242638946 41
0.167847604 0.980401874 41
0.0202488638 1.51513326 41
-0.146125689 1.70355237 41
-0.286696017 1.49517214 41
-0.363796473 0.945828438 41
-0.356768072 0.202717125 41
-0.267494082 -0.535045683 41
-0.119895242 -1.06977749 41
0.0351057276 -1.20753801 43.5625
0.168186054 -1.01118779 43.5625
0.244948864 -0.490467012 43.5625
0.244825631 0.215097785 43.5625
0.167849362 0.916450918 43.5625
0.0346458182 1.42566538 43.5625
-0.119093291 1.60629773 43.5625
-0.252173632 1.4099474 43.5625
-0.328936398 0.889226735 43.5625
-0.328813165 0.183662117 43.5625
-0.251836926 -0.517690897 43.5625
-0.118633263 -1.02690578 43.5625
0.0302397721 -1.16939688 46.125
0.156107709 -0.984519601 46.125
0.232297346 -0.491359442 46.125
0.238393769 0.17794174 46.125
0.172763392 0.844045103 46.125
0.0529918857 1.32846904 46.125
-0.0888281614 1.50141239 46.125
-0.214696094 1.316535 46.125
-0.290885717 0.823375046 46.125
-0.296982139 0.154073954 46.125
-0.231351763 -0.512029409 46.125
-0.111580163 -0.996453643 46.125
0.0344740078 -1.14664078 48.6875
0.153191164 -0.972666383 48.6875
0.228129327 -0.506161451 48.6875
0.239208892 0.127874613 48.6875
0.1834611 0.759552121 48.6875
0.0758235306 1.21961391 48.6875
-0.0548624694 1.38478649 48.6875
-0.173579618 1.21081197 48.6875
-0.248517767 0.744307041 48.6875
-0.259597331 0.110271156 48.6875
-0.203849539 -0.521406293 48.6875
-0.0962118879 -0.98146826 48.6875
0.0384631157 -1.13086665 51.25
0.150015593 -0.967516601 51.25
0.223145217 -0.527401984 51.25
0.238257006 0.0715488195 51.25
0.191301718 0.668847382 51.25
0.0948610455 1.10444808 51.25
-0.0252238903 1.2616322 51.25
-0.136776373 1.09828186 51.25
-0.209905982 0.658167303 51.25
-0.225017741 0.0592166781 51.25
-0.178062484 -0.538081825 51.25
-0.0816217363 -0.97368288 51.25
0.0299939048 -1.11098909 53.8125
0.134332046 -0.958286643 53.8125
0.205299258 -0.54493916 53.8125
0.223879933 0.0182971954 53.8125
0.18509537 0.580503702 53.8125
0.0993379056 0.991037607 53.8125
-0.0104138926 1.13989663 53.8125
-0.114752054 0.987194061 53.8125
-0.185719237 0.573846698 53.8125
-0.204299897 0.0106105208 53.8125
-0.165515348 -0.551595926 53.8125
-0.0797578022 -0.962130129 53.8125
-0.00230232999 -1.03399479 56.375
0.0866877511 -0.903336227 56.375
0.148997411 -0.548347473 56.375
0.167930856 -0.0641475022 56.375
0.138414845 0.419522643 56.375
0.0683582276 0.773064137 56.375
-0.0234674644 0.901745677 56.375
-0.112457559 0.771086931 56.375
-0.174767211 0.416098237 56.375
-0.193700656 -0.0681016147 56.375
-0.16418466 -0.55177176 56.375
-0.0941279531 -0.905313373 56.375
-0.0698860213 -0.910621405 58.9375
-0.000162445009 -0.807716489 58.9375
0.0499063283 -0.527240634 58.9375
0.0669044107 -0.144347101 58.9375
0.0462771952 0.238367975 58.9375
-0.00644828379 0.518356621 58.9375
-0.0771443024 0.620595872 58.9375
-0.146867886 0.517690837 58.9375
-0.196936652 0.237214983 58.9375
-0.213934734 -0.145678371 58.9375
-0.193307519 -0.528393447 58.9375
-0.140581995 -0.808382213 58.9375
-0.184214249 -0.659317076 61.5
-0.150360122 -0.608921587 61.5
-0.125577182 -0.471238613 61.5
-0.116506003 -0.28316015 61.5
-0.125577182 -0.0950817168 61.5
-0.150360122 0.0426012874 61.5
-0.184214249 0.0929967165 61.5
-0.218068391 0.0426011682 61.5
-0.242851317 -0.0950817764 61.5
-0.251922488 -0.28316015 61.5
-0.242851317 -0.471238583 61.5
-0.218068361 -0.608921647 61.5
3 0 1 12
3 1 13 12
3 1 2 13
3 2 14 13
3 2 3 14
3 3 15 14
3 3 4 15
3 4 16 15
3 4 5 16
3 5 17 16
3 5 6 17
3 6 18 17
3 6 7 18
3 7 19 18
3 7 8 19
3 8 20 19
3 8 9 20
3 9 21 20
3 9 10 21
3 10 22 21
3 10 11 22
3 11 23 22
3 11 0 23
3 0 12 23
3 12 13 24
3 13 25 24
3 13 14 25
3 14 26 25
3 14 15 26
3 15 27 26
3 15 16 27
3 16 28 27
3 16 17 28
3 17 29 28
3 17 18 29
3 18 30 29
3 18 19 30
3 19 31 30
3 19 20 31
3 20 32 31
3 20 21 32
3 21 33 32
3 21 22 33
3 22 34 33
3 22 23 34
3 23 35 34
3 23 12 35
3 12 24 35
3 24 25 36
3 25 37 36
3 25 26 37
3 26 38 37
3 26 27 38
3 27 39 38
3 27 28 39
3 28 40 39
3 28 29 40
3 29 41 40
3 29 30 41
3 30 42 41
3 30 31 42
3 31 43 42
3 31 32 43
3 32 44 43
3 32 33 44
3 33 45 44
3 33 34 45
3 34 46 45
3 34 35 46
3 35 47 46
3 35 24 47
3 24 36 47
3 36 37 48
3 37 49 48
3 37 38 49
3 38 50 49
3 38 39 50
3 39 51 50
3 39 40 51
3 40 52 51
3 40 41 52
3 41 53 52
3 41 42 53
3 42 54 53
3 42 43 54
3 43 55 54
3 43 44 55
3 44 56 55
3 44 45 56
3 45 57 56
3 45 46 57
3 46 58 57
3 46 47 58
3 47 59 58
3 47 36 59
3 36 48 59
3 48 49 60
3 49 61 60
3 49 50 61
3 50 62 61
3 50 51 62
3 51 63 62
3 51 52 63
3 52 64 63
3 52 53 64
3 53 65 64
3 53 54 65
3 54 66 65
3 54 55 66
3 55 67 66
3 55 56 67
3 56 68 67
3 56 57 68
3 57 69 68
3 57 58 69
3 58 70 69
3 58 59 70
3 59 71 70
3 59 48 71
3 48 60 71
3 60 61 72
3 61 73 72
3 61 62 73
3 62 74 73
3 62 63 74
3 63 75 74
3 63 64 75
3 64 76 75
3 64 65 76
3 65 77 76
3 65 66 77
3 66 78 77
3 66 67 78
3 67 79 78
3 67 68 79
3 68 80 79
3 68 69 80
3 69 81 80
3 69 70 81
3 70 82 81
3 70 71 82
3 71 83 82
3 71 60 83
3 60 72 83
3 72 73 84
3 73 85 84
3 73 74 85
3 74 86 85
3 74 75 86
3 75 87 86
3 75 76 87
3 76 88 87
3 76 77 88
3 77 89 88
3 77 78 89
3 78 90 89
3 78 79 90
3 79 91 90
3 79 80 91
3 80 92 91
3 80 81 92
3 81 93 92
3 81 82 93
3 82 94 93
3 82 83 94
3 83 95 94
3 83 72 95
3 72 84 95
3 84 85 96
3 85 97 96
3 85 86 97
3 86 98 97
3 86 87 98
3 87 99 98
3 87 88 99
3 88 100 99
3 88 89 100
3 89 101 100
3 89 90 101
3 90 102 101
3 90 91 102
3 91 103 102
3 91 92 103
3 92 104 103
3 92 93 104
3 93 105 104
3 93 94 105
3 94 106 105
3 94 95 106
3 95 107 106
3 95 84 107
3 84 96 107
3 96 97 108
3 97 109 108
3 97 98 109
3 98 110 109
3 98 99 110
3 99 111 110
3 99 100 111
3 100 112 111
3 100 101 112
3 101 113 112
3 101 102 113
3 102 114 113
3 102 103 114
3 103 115 114
3 103 104 115
3 104 116 115
3 104 105 116
3 105 117 116
3 105 106 117
3 106 118 117
3 106 107 118
3 107 119 118
3 107 96 119
3 96 108 119
3 108 109 120
3 109 121 120
3 109 110 121
3 110 122 121
3 110 111 122
3 111 123 122
3 111 112 123
3 112 124 123
3 112 113 124
3 113 125 124
3 113 114 125
3 114 126 125
3 114 115 126
3 115 127 126
3 115 116 127
3 116 128 127
3 116 117 128
3 117 129 128
3 117 118 129
3 118 130 129
3 118 119 130
3 119 131 130
3 119 108 131
3 108 120 131
3 120 121 132
3 121 133 132
3 121 122 133
3 122 134 133
3 122 123 134
3 123 135 134
3 123 124 135
3 124 136 135
3 124 125 136
3 125 137 136
3 125 126 137
3 126 138 137
3 126 127 138
3 127 139 138
3 127 128 139
3 128 140 139
3 128 129 140
3 129 141 140
3 129 130 141
3 130 142 141
3 130 131 142
3 131 143 142
3 131 120 143
3 120 132 143
3 132 133 144
3 133 145 144
3 133 134 145
3 134 146 145
3 134 135 146
3 135 147 146
3 135 136 147
3 136 148 147
3 136 137 148
3 137 149 148
3 137 138 149
3 138 150 149
3 138 139 150
3 139 151 150
3 139 140 151
3 140 152 151
3 140 141 152
3 141 153 152
3 141 142 153
3 142 154 153
3 142 143 154
3 143 155 154
3 143 132 155
3 132 144 155
3 144 145 156
3 145 157 156
3 145 146 157
3 146 158 157
3 146 147 158
3 147 159 158
3 147 148 159
3 148 160 159
3 148 149 160
3 149 161 160
3 149 150 161
3 150 162 161
3 150 151 162
3 151 163 162
3 151 152 163
3 152 164 163
3 152 153 164
3 153 165 164
3 153 154 165
3 154 166 165
3 154 155 166
3 155 167 166
3 155 144 167
3 144 156 167
3 156 157 168
3 157 169 168
3 157 158 169
3 158 170 169
3 158 159 170
3 159 171 170
3 159 160 171
3 160 172 171
3 160 161 172
3 161 173 172
3 161 162 173
3 162 174 173
3 162 163 174
3 163 175 174
3 163 164 175
3 164 176 175
3 164 165 176
3 165 177 176
3 165 166 177
3 166 178 177
3 166 167 178
3 167 179 178
3 167 156 179
3 156 168 179
3 168 169 180
3 169 181 180
3 169 170 181
3 170 182 181
3 170 171 182
3 171 183 182
3 171 172 183
3 172 184 183
3 172 173 184
3 173 185 184
3 173 174 185
3 174 186 185
3 174 175 186
3 175 187 186
3 175 176 187
3 176 188 187
3 176 177 188
3 177 189 188
3 177 178 189
3 178 190 189
3 178 179 190
3 179 191 190
3 179 168 191
3 168 180 191
3 180 181 192
3 181 193 192
3 181 182 193
3 182 194 193
3 182 183 194
3 183 195 194
3 183 184 195
3 184 196 195
3 184 185 196
3 185 197 196
3 185 186 197
3 186 198 197
3 186 187 198
3 187 199 198
3 187 188 199
3 188 200 199
3 188 189 200
3 189 201 200
3 189 190 201
3 190 202 201
3 190 191 202
3 191 203 202
3 191 180 203
3 180 192 203
3 192 193 204
3 193 205 204
3 193 194 205
3 194 206 205
3 194 195 206
3 195 207 206
3 195 196 207
3 196 208 207
3 196 197 208
3 197 209 208
3 197 198 209
3 198 210 209
3 198 199 210
3 199 211 210
3 199 200 211
3 200 212 211
3 200 201 212
3 201 213 212
3 201 202 213
3 202 214 213
3 202 203 214
3 203 215 214
3 203 192 215
3 192 204 215
3 204 205 216
3 205 217 216
3 205 206 217
3 206 218 217
3 206 207 218
3 207 219 218
3 207 208 219
3 208 220 219
3 208 209 220
3 209 221 220
3 209 210 221
3 210 222 221
3 210 211 222
3 211 223 222
3 211 212 223
3 212 224 223
3 212 213 224
3 213 225 224
3 213 214 225
3 214 226 225
3 214 215 226
3 215 227 226
3 215 204 227
3 204 216 227
3 216 217 228
3 217 229 228
3 217 218 229
3 218 230 229
3 218 219 230
3 219 231 230
3 219 220 231
3 220 232 231
3 220 221 232
3 221 233 232
3 221 222 233
3 222 234 233
3 222 223 234
3 223 235 234
3 223 224 235
3 224 236 235
3 224 225 236
3 225 237 236
3 225 226 237
3 226 238 237
3 226 227 238
3 227 239 238
3 227 216 239
3 216 228 239
3 228 229 240
3 229 241 240
3 229 230 241
3 230 242 241
3 230 231 242
3 231 243 242
3 231 232 243
3 232 244 243
3 232 233 244
3 233 245 244
3 233 234 245
3 234 246 245
3 234 235 246
3 235 247 246
3 235 236 247
3 236 248 247
3 236 237 248
3 237 249 248
3 237 238 249
3 238 250 249
3 238 239 250
3 239 251 250
3 239 228 251
3 228 240 251
3 240 241 252
3 241 253 252
3 241 242 253
3 242 254 253
3 242 243 254
3 243 255 254
3 243 244 255
3 244 256 255
3 244 245 256
3 245 257 256
3 245 246 257
3 246 258 257
3 246 247 258
3 247 259 258
3 247 248 259
3 248 260 259
3 248 249 260
3 249 261 260
3 249 250 261
3 250 262 261
3 250 251 262
3 251 263 262
3 251 240 263
3 240 252 263
3 252 253 264
3 253 265 264
3 253 254 265
3 254 266 265
3 254 255 266
3 255 267 266
3 255 256 267
3 256 268 267
3 256 257 268
3 257 269 268
3 257 258 269
3 258 270 269
3 258 259 270
3 259 271 270
3 259 260 271
3 260 272 271
3 260 261 272
3 261 273 272
3 261 262 273
3 262 274 273
3 262 263 274
3 263 275 274
3 263 252 275
3 252 264 275
3 264 265 276
3 265 277 276
3 265 266 277
3 266 278 277
3 266 267 278
3 267 279 278
3 267 268 279
3 268 280 279
3 268 269 280
3 269 281 280
3 269 270 281
3 270 282 281
3 270 271 282
3 271 283 282
3 271 272 283
3 272 284 283
3 272 273 284
3 273 285 284
3 273 274 285
3 274 286 285
3 274 275 286
3 275 287 286
3 275 264 287
3 264 276 287
3 276 277 288
3 277 289 288
3 277 278 289
3 278 290 289
3 278 279 290
3 279 291 290
3 279 280 291
3 280 292 291
3 280 281 292
3 281 293 292
3 281 282 293
3 282 294 293
3 282 283 294
3 283 295 294
3 283 284 295
3 284 296 295
3 284 285 296
3 285 297 296
3 285 286 297
3 286 298 297
3 286 287 298
3 287 299 298
3 287 276 299
3 276 288 299
3 0 2 1
3 288 289 290
3 0 3 2
3 288 290 291
3 0 4 3
3 288 291 292
3 0 5 4
3 288 292 293
3 0 6 5
3 288 293 294
3 0 7 6
3 288 294 295
3 0 8 7
3 288 295 296
3 0 9 8
3 288 296 297
3 0 10 9
3 288 297 298
3 0 11 10
3 288 298 299
