<?xml version="1.0"?>
<VTKFile type="PolyData" version="0.1" byte_order="LittleEndian">
  <PolyData>
    <Piece NumberOfPoints="    245" NumberOfVerts="  0" NumberOfLines="     48"
           NumberOfStrips="  0" NumberOfPolys="    336">
      <Points>
        <DataArray type="Float32" NumberOfComponents="3" format="ascii">
                      -5.54483                       0.61653                      88.13864
                      -5.92668                       1.79227                      90.26585
                      -4.71614                       1.97907                      90.37990
                      -4.33429                       0.80334                      88.25269
                      -4.93956                       0.70993                      88.19566
                      -5.56133                       0.78936                      88.03967
                      -5.94483                       1.96479                      90.16675
                      -4.73444                       2.15210                      90.28147
                      -4.35093                       0.97668                      88.15438
                      -4.95613                       0.88302                      88.09702
                      -5.64506                       1.65411                      87.54482
                      -6.03522                       2.82822                      89.67142
                      -4.82542                       3.01771                      89.78876
                      -4.43526                       1.84360                      87.66216
                      -5.04016                       1.74886                      87.60349
                      -5.73068                       2.51895                      87.05047
                      -6.12497                       3.69215                      89.17682
                      -4.91556                       3.88319                      89.29568
                      -4.52127                       2.70999                      87.16933
                      -5.12598                       2.61447                      87.10990
                      -5.81808                       3.38388                      86.55658
                      -6.21418                       4.55651                      88.68290
                      -5.00497                       4.74854                      88.80225
                      -4.60888                       3.57591                      86.67593
                      -5.21348                       3.47989                      86.61625
                      -5.90714                       4.24886                      86.06310
                      -6.30295                       5.42128                      88.18959
                      -5.09378                       5.61379                      88.30852
                      -4.69797                       4.44138                      86.18202
                      -5.30256                       4.34512                      86.12256
                      -5.99776                       5.11391                      85.57000
                      -6.39137                       6.28641                      87.69686
                      -5.18208                       6.47894                      87.81452
                      -4.78847                       5.30645                      85.68766
                      -5.39311                       5.21018                      85.62883
                      -6.08982                       5.97900                      85.07726
                      -6.47953                       7.15186                      87.20464
                      -5.26998                       7.34401                      87.32028
                      -4.88028                       6.17115                      85.19290
                      -5.48505                       6.07508                      85.13508
                      -6.18325                       6.84414                      84.58485
                      -6.56750                       8.01760                      86.71289
                      -5.35757                       8.20898                      86.82583
                      -4.97332                       7.03552                      84.69779
                      -5.57828                       6.93983                      84.64132
                      -6.27805                       7.71039                      84.09214
                      -6.65547                       8.88467                      86.22095
                      -5.44506                       9.07494                      86.33058
                      -5.06764                       7.90066                      84.20177
                      -5.67285                       7.80553                      84.14696
                      -6.37379                       8.57454                      83.60092
                      -6.74317                       9.74982                      85.73058
                      -5.53221                       9.93870                      85.83638
                      -5.16283                       8.76342                      83.70672
                      -5.76831                       8.66898                      83.65382
                      -6.47075                       9.43978                      83.10936
                      -6.83101                      10.61623                      85.23994
                      -5.61942                      10.80346                      85.34143
                      -5.25916                       9.62700                      83.21084
                      -5.86496                       9.53339                      83.16010
                      -6.56874                      10.30506                      82.61804
                      -6.91892                      11.48281                      84.74959
                      -5.70665                      11.66814                      84.84634
                      -5.35647                      10.49039                      82.71480
                      -5.96260                      10.39772                      82.66642
                      -6.66767                      11.17036                      82.12695
                      -7.00696                      12.34952                      84.25948
                      -5.79398                      12.53276                      84.35114
                      -5.45469                      11.35360                      82.21862
                      -6.06118                      11.26198                      82.17279
                      -6.76762                      12.03674                      81.63547
                      -7.09530                      13.21741                      83.76898
                      -5.88158                      13.39838                      83.85524
                      -5.55391                      12.21771                      81.72173
                      -6.16077                      12.12723                      81.67860
                      -6.86816                      12.90101                      81.14539
                      -7.18365                      14.08325                      83.27987
                      -5.96919                      14.26182                      83.36047
                      -5.65370                      13.07958                      81.22600
                      -6.26093                      12.99030                      81.18570
                      -6.96959                      13.76637                      80.65489
                      -7.27239                      14.95023                      82.79031
                      -6.05718                      15.12626                      82.86503
                      -5.75438                      13.94240                      80.72962
                      -6.36199                      13.85438                      80.69226
                      -7.07175                      14.63174                      80.16456
                      -7.36144                      15.81725                      82.30088
                      -6.14549                      15.99065                      82.36954
                      -5.85580                      14.80513                      80.23322
                      -6.46377                      14.71843                      80.19889
                      -7.27818                      16.36356                      79.18375
                      -7.54074                      17.55245                      81.32169
                      -6.32339                      17.72034                      81.37783
                      -6.06082                      16.53146                      79.23989
                      -6.66950                      16.44751                      79.21182
                      -7.48683                      18.09381                      78.20436
                      -7.72156                      19.28606                      80.34367
                      -6.50291                      19.44827                      80.38698
                      -6.26818                      18.25602                      78.24767
                      -6.87751                      18.17492                      78.22601
                      -7.69770                      19.82459                      77.22510
                      -7.90433                      21.02012                      79.36548
                      -6.68454                      21.17657                      79.39585
                      -6.47791                      19.98104                      77.25547
                      -7.08781                      19.90281                      77.24029
                      -7.91053                      21.55534                      76.24620
                      -8.08918                      22.75403                      78.38733
                      -6.86841                      22.90474                      78.40482
                      -6.68976                      21.70605                      76.26369
                      -7.30015                      21.63069                      76.25495
                      -8.12516                      23.28604                      75.26760
                      -8.27625                      24.48773                      77.40917
                      -7.05468                      24.63279                      77.41395
                      -6.90359                      23.43110                      75.27239
                      -7.51438                      23.35857                      75.26999
                      -8.34157                      25.01721                      74.28894
                      -8.46571                      26.22173                      76.43064
                      -7.24351                      26.36128                      76.42300
                      -7.11937                      25.15675                      74.28130
                      -7.73047                      25.08698                      74.28512
                      -8.55947                      26.74723                      73.31108
                      -8.65745                      27.95441                      75.45265
                      -7.43479                      28.08863                      75.43292
                      -7.33681                      26.88145                      73.29135
                      -7.94814                      26.81434                      73.30122
                      -8.77903                      28.47770                      72.33308
                      -8.85170                      29.68735                      74.47426
                      -7.62873                      29.81644                      74.44283
                      -7.55607                      28.60679                      72.30165
                      -8.16755                      28.54224                      72.31737
                      -9.00018                      30.20806                      71.35522
                      -9.04843                      31.42002                      73.49579
                      -7.82530                      31.54419                      73.45306
                      -7.77704                      30.33224                      71.31249
                      -8.38861                      30.27015                      71.33386
                      -9.22290                      31.93832                      70.37750
                      -9.24766                      33.15242                      72.51726
                      -8.02449                      33.27189                      72.46362
                      -7.99973                      32.05780                      70.32386
                      -8.61131                      31.99806                      70.35068
                      -9.44728                      33.66900                      69.39959
                      -9.44945                      34.88508                      71.53836
                      -8.22636                      35.00008                      71.47422
                      -8.22419                      33.78399                      69.33545
                      -8.83573                      33.72650                      69.36752
                      -9.67314                      35.39850                      68.42240
                      -9.65360                      36.61643                      70.56003
                      -8.43069                      36.72715                      70.48577
                      -8.45022                      35.50922                      68.34814
                      -9.06168                      35.45386                      68.38527
                      -9.90069                      37.12841                      67.44501
                      -9.86030                      38.34807                      69.58137
                      -8.63765                      38.45471                      69.49737
                      -8.67804                      37.23506                      67.36101
                      -9.28937                      37.18174                      67.40301
                     -10.12989                      38.85821                      66.46773
                     -10.06947                      40.07946                      68.60271
                      -8.84717                      40.18223                      68.50932
                      -8.90759                      38.96099                      66.37435
                      -9.51874                      38.90960                      66.42104
                     -10.36074                      40.58789                      65.49055
                     -10.28112                      41.81062                      67.62404
                      -9.05924                      41.90972                      67.52164
                      -9.13886                      40.68699                      65.38815
                      -9.74980                      40.63744                      65.43935
                     -10.59338                      42.31850                      64.51284
                     -10.49541                      43.54260                      66.64478
                      -9.27401                      43.63823                      66.53374
                      -9.37197                      42.41413                      64.40180
                      -9.98267                      42.36631                      64.45732
                     -10.82732                      44.04684                      63.53637
                     -10.71199                      45.27220                      65.66672
                      -9.49111                      45.36460                      65.54747
                      -9.60645                      44.13924                      63.41712
                     -10.21689                      44.09304                      63.47675
                     -11.06297                      45.77609                      62.55931
                     -10.93132                      47.00260                      64.68805
                      -9.71100                      47.09203                      64.56105
                      -9.84265                      45.86552                      62.43231
                     -10.45281                      45.82081                      62.49581
                     -11.30007                      47.50516                      61.58218
                     -11.15337                      48.73271                      63.70934
                      -9.93363                      48.81948                      63.57515
                     -10.08033                      47.59194                      61.44799
                     -10.69020                      47.54855                      61.51509
                     -11.41913                      48.36962                      61.09357
                     -11.26546                      49.59764                      63.21997
                     -10.04601                      49.68322                      63.08242
                     -10.19968                      48.45520                      60.95603
                     -10.80940                      48.41241                      61.02480
                     -11.53850                      49.23403                      60.60491
                     -11.37829                      50.46248                      62.73058
                     -10.15913                      50.54697                      62.58986
                     -10.31934                      49.31852                      60.46420
                     -10.92892                      49.27627                      60.53455
                     -11.65817                      50.09837                      60.11619
                     -11.49188                      51.32723                      62.24115
                     -10.27300                      51.41075                      62.09747
                     -10.43929                      50.18189                      59.97251
                     -11.04873                      50.14013                      60.04435
                     -11.71811                      50.53052                      59.87180
                     -11.54898                      51.75956                      61.99643
                     -10.33023                      51.84265                      61.85135
                     -10.49936                      50.61360                      59.72672
                     -11.10874                      50.57206                      59.79926
                     -11.77826                      50.96371                      59.62679
                     -11.60641                      52.19293                      61.75110
                     -10.38779                      52.27562                      61.60467
                     -10.55965                      51.04639                      59.48036
                     -11.16896                      51.00505                      59.55358
                     -11.83818                      51.39476                      59.38296
                     -11.66377                      52.62415                      61.50696
                     -10.44528                      52.70647                      61.35925
                     -10.61969                      51.47707                      59.23526
                     -11.22894                      51.43591                      59.30911
                     -11.89830                      51.82685                      59.13850
                     -11.72147                      53.05640                      61.26220
                     -10.50311                      53.13839                      61.11329
                     -10.67994                      51.90884                      58.98958
                     -11.28912                      51.86784                      59.06404
                     -11.95847                      52.25892                      58.89401
                     -11.77940                      53.48862                      61.01744
                     -10.56116                      53.57033                      60.86738
                     -10.74023                      52.34062                      58.74395
                     -11.34935                      52.29977                      58.81898
                     -12.01869                      52.69097                      58.64949
                     -11.83754                      53.92082                      60.77266
                     -10.61941                      54.00227                      60.62154
                     -10.80057                      52.77242                      58.49837
                     -11.40963                      52.73170                      58.57393
                     -12.07896                      53.12299                      58.40493
                     -11.89590                      54.35297                      60.52786
                     -10.67789                      54.43423                      60.37576
                     -10.86094                      53.20425                      58.25282
                     -11.46995                      53.16362                      58.32888
                     -12.13927                      53.55500                      58.16034
                     -11.95450                      54.78509                      60.28305
                     -10.73658                      54.86620                      60.13004
                     -10.92135                      53.63610                      58.00732
                     -11.53031                      53.59555                      58.08383
                     -12.17548                      53.81430                      58.01350
                     -11.98978                      55.04446                      60.13610
                     -10.77193                      55.12550                      59.98258
                     -10.95763                      53.89533                      57.85999
                     -11.56656                      53.85481                      57.93674
        </DataArray>
      </Points>
      <Polys>
        <DataArray type="Int32" Name="connectivity" format="ascii">
      0      1      6      5
      1      2      7      6
      2      3      8      7
      3      4      9      8
      4      0      5      9
      4      3      2      1      0
      5      6      7      8      9
      5      6     11     10
      6      7     12     11
      7      8     13     12
      8      9     14     13
      9      5     10     14
      9      8      7      6      5
     10     11     12     13     14
     10     11     16     15
     11     12     17     16
     12     13     18     17
     13     14     19     18
     14     10     15     19
     14     13     12     11     10
     15     16     17     18     19
     15     16     21     20
     16     17     22     21
     17     18     23     22
     18     19     24     23
     19     15     20     24
     19     18     17     16     15
     20     21     22     23     24
     20     21     26     25
     21     22     27     26
     22     23     28     27
     23     24     29     28
     24     20     25     29
     24     23     22     21     20
     25     26     27     28     29
     25     26     31     30
     26     27     32     31
     27     28     33     32
     28     29     34     33
     29     25     30     34
     29     28     27     26     25
     30     31     32     33     34
     30     31     36     35
     31     32     37     36
     32     33     38     37
     33     34     39     38
     34     30     35     39
     34     33     32     31     30
     35     36     37     38     39
     35     36     41     40
     36     37     42     41
     37     38     43     42
     38     39     44     43
     39     35     40     44
     39     38     37     36     35
     40     41     42     43     44
     40     41     46     45
     41     42     47     46
     42     43     48     47
     43     44     49     48
     44     40     45     49
     44     43     42     41     40
     45     46     47     48     49
     45     46     51     50
     46     47     52     51
     47     48     53     52
     48     49     54     53
     49     45     50     54
     49     48     47     46     45
     50     51     52     53     54
     50     51     56     55
     51     52     57     56
     52     53     58     57
     53     54     59     58
     54     50     55     59
     54     53     52     51     50
     55     56     57     58     59
     55     56     61     60
     56     57     62     61
     57     58     63     62
     58     59     64     63
     59     55     60     64
     59     58     57     56     55
     60     61     62     63     64
     60     61     66     65
     61     62     67     66
     62     63     68     67
     63     64     69     68
     64     60     65     69
     64     63     62     61     60
     65     66     67     68     69
     65     66     71     70
     66     67     72     71
     67     68     73     72
     68     69     74     73
     69     65     70     74
     69     68     67     66     65
     70     71     72     73     74
     70     71     76     75
     71     72     77     76
     72     73     78     77
     73     74     79     78
     74     70     75     79
     74     73     72     71     70
     75     76     77     78     79
     75     76     81     80
     76     77     82     81
     77     78     83     82
     78     79     84     83
     79     75     80     84
     79     78     77     76     75
     80     81     82     83     84
     80     81     86     85
     81     82     87     86
     82     83     88     87
     83     84     89     88
     84     80     85     89
     84     83     82     81     80
     85     86     87     88     89
     85     86     91     90
     86     87     92     91
     87     88     93     92
     88     89     94     93
     89     85     90     94
     89     88     87     86     85
     90     91     92     93     94
     90     91     96     95
     91     92     97     96
     92     93     98     97
     93     94     99     98
     94     90     95     99
     94     93     92     91     90
     95     96     97     98     99
     95     96    101    100
     96     97    102    101
     97     98    103    102
     98     99    104    103
     99     95    100    104
     99     98     97     96     95
    100    101    102    103    104
    100    101    106    105
    101    102    107    106
    102    103    108    107
    103    104    109    108
    104    100    105    109
    104    103    102    101    100
    105    106    107    108    109
    105    106    111    110
    106    107    112    111
    107    108    113    112
    108    109    114    113
    109    105    110    114
    109    108    107    106    105
    110    111    112    113    114
    110    111    116    115
    111    112    117    116
    112    113    118    117
    113    114    119    118
    114    110    115    119
    114    113    112    111    110
    115    116    117    118    119
    115    116    121    120
    116    117    122    121
    117    118    123    122
    118    119    124    123
    119    115    120    124
    119    118    117    116    115
    120    121    122    123    124
    120    121    126    125
    121    122    127    126
    122    123    128    127
    123    124    129    128
    124    120    125    129
    124    123    122    121    120
    125    126    127    128    129
    125    126    131    130
    126    127    132    131
    127    128    133    132
    128    129    134    133
    129    125    130    134
    129    128    127    126    125
    130    131    132    133    134
    130    131    136    135
    131    132    137    136
    132    133    138    137
    133    134    139    138
    134    130    135    139
    134    133    132    131    130
    135    136    137    138    139
    135    136    141    140
    136    137    142    141
    137    138    143    142
    138    139    144    143
    139    135    140    144
    139    138    137    136    135
    140    141    142    143    144
    140    141    146    145
    141    142    147    146
    142    143    148    147
    143    144    149    148
    144    140    145    149
    144    143    142    141    140
    145    146    147    148    149
    145    146    151    150
    146    147    152    151
    147    148    153    152
    148    149    154    153
    149    145    150    154
    149    148    147    146    145
    150    151    152    153    154
    150    151    156    155
    151    152    157    156
    152    153    158    157
    153    154    159    158
    154    150    155    159
    154    153    152    151    150
    155    156    157    158    159
    155    156    161    160
    156    157    162    161
    157    158    163    162
    158    159    164    163
    159    155    160    164
    159    158    157    156    155
    160    161    162    163    164
    160    161    166    165
    161    162    167    166
    162    163    168    167
    163    164    169    168
    164    160    165    169
    164    163    162    161    160
    165    166    167    168    169
    165    166    171    170
    166    167    172    171
    167    168    173    172
    168    169    174    173
    169    165    170    174
    169    168    167    166    165
    170    171    172    173    174
    170    171    176    175
    171    172    177    176
    172    173    178    177
    173    174    179    178
    174    170    175    179
    174    173    172    171    170
    175    176    177    178    179
    175    176    181    180
    176    177    182    181
    177    178    183    182
    178    179    184    183
    179    175    180    184
    179    178    177    176    175
    180    181    182    183    184
    180    181    186    185
    181    182    187    186
    182    183    188    187
    183    184    189    188
    184    180    185    189
    184    183    182    181    180
    185    186    187    188    189
    185    186    191    190
    186    187    192    191
    187    188    193    192
    188    189    194    193
    189    185    190    194
    189    188    187    186    185
    190    191    192    193    194
    190    191    196    195
    191    192    197    196
    192    193    198    197
    193    194    199    198
    194    190    195    199
    194    193    192    191    190
    195    196    197    198    199
    195    196    201    200
    196    197    202    201
    197    198    203    202
    198    199    204    203
    199    195    200    204
    199    198    197    196    195
    200    201    202    203    204
    200    201    206    205
    201    202    207    206
    202    203    208    207
    203    204    209    208
    204    200    205    209
    204    203    202    201    200
    205    206    207    208    209
    205    206    211    210
    206    207    212    211
    207    208    213    212
    208    209    214    213
    209    205    210    214
    209    208    207    206    205
    210    211    212    213    214
    210    211    216    215
    211    212    217    216
    212    213    218    217
    213    214    219    218
    214    210    215    219
    214    213    212    211    210
    215    216    217    218    219
    215    216    221    220
    216    217    222    221
    217    218    223    222
    218    219    224    223
    219    215    220    224
    219    218    217    216    215
    220    221    222    223    224
    220    221    226    225
    221    222    227    226
    222    223    228    227
    223    224    229    228
    224    220    225    229
    224    223    222    221    220
    225    226    227    228    229
    225    226    231    230
    226    227    232    231
    227    228    233    232
    228    229    234    233
    229    225    230    234
    229    228    227    226    225
    230    231    232    233    234
    230    231    236    235
    231    232    237    236
    232    233    238    237
    233    234    239    238
    234    230    235    239
    234    233    232    231    230
    235    236    237    238    239
    235    236    241    240
    236    237    242    241
    237    238    243    242
    238    239    244    243
    239    235    240    244
    239    238    237    236    235
    240    241    242    243    244
        </DataArray>
        <DataArray type="Int32" Name="offsets" format="ascii">
      4
      8
     12
     16
     20
     25
     30
     34
     38
     42
     46
     50
     55
     60
     64
     68
     72
     76
     80
     85
     90
     94
     98
    102
    106
    110
    115
    120
    124
    128
    132
    136
    140
    145
    150
    154
    158
    162
    166
    170
    175
    180
    184
    188
    192
    196
    200
    205
    210
    214
    218
    222
    226
    230
    235
    240
    244
    248
    252
    256
    260
    265
    270
    274
    278
    282
    286
    290
    295
    300
    304
    308
    312
    316
    320
    325
    330
    334
    338
    342
    346
    350
    355
    360
    364
    368
    372
    376
    380
    385
    390
    394
    398
    402
    406
    410
    415
    420
    424
    428
    432
    436
    440
    445
    450
    454
    458
    462
    466
    470
    475
    480
    484
    488
    492
    496
    500
    505
    510
    514
    518
    522
    526
    530
    535
    540
    544
    548
    552
    556
    560
    565
    570
    574
    578
    582
    586
    590
    595
    600
    604
    608
    612
    616
    620
    625
    630
    634
    638
    642
    646
    650
    655
    660
    664
    668
    672
    676
    680
    685
    690
    694
    698
    702
    706
    710
    715
    720
    724
    728
    732
    736
    740
    745
    750
    754
    758
    762
    766
    770
    775
    780
    784
    788
    792
    796
    800
    805
    810
    814
    818
    822
    826
    830
    835
    840
    844
    848
    852
    856
    860
    865
    870
    874
    878
    882
    886
    890
    895
    900
    904
    908
    912
    916
    920
    925
    930
    934
    938
    942
    946
    950
    955
    960
    964
    968
    972
    976
    980
    985
    990
    994
    998
   1002
   1006
   1010
   1015
   1020
   1024
   1028
   1032
   1036
   1040
   1045
   1050
   1054
   1058
   1062
   1066
   1070
   1075
   1080
   1084
   1088
   1092
   1096
   1100
   1105
   1110
   1114
   1118
   1122
   1126
   1130
   1135
   1140
   1144
   1148
   1152
   1156
   1160
   1165
   1170
   1174
   1178
   1182
   1186
   1190
   1195
   1200
   1204
   1208
   1212
   1216
   1220
   1225
   1230
   1234
   1238
   1242
   1246
   1250
   1255
   1260
   1264
   1268
   1272
   1276
   1280
   1285
   1290
   1294
   1298
   1302
   1306
   1310
   1315
   1320
   1324
   1328
   1332
   1336
   1340
   1345
   1350
   1354
   1358
   1362
   1366
   1370
   1375
   1380
   1384
   1388
   1392
   1396
   1400
   1405
   1410
   1414
   1418
   1422
   1426
   1430
   1435
   1440
        </DataArray>
      </Polys>
    </Piece>
  </PolyData>
</VTKFile>
