<?xml version="1.0"?>
<VTKFile type="PolyData" version="0.1" byte_order="LittleEndian">
  <PolyData>
    <Piece NumberOfPoints="    625" NumberOfVerts="  0" NumberOfLines="      0"
           NumberOfStrips="  0" NumberOfPolys="    600">
      <Points>
        <DataArray type="Float32" NumberOfComponents="3" format="ascii">
                      -5.13073                      -0.00000                      88.50571
                      -5.13073                      -0.00000                      88.50571
                      -5.13073                      -0.00000                      88.50571
                      -5.13073                      -0.00000                      88.50571
                      -5.13073                      -0.00000                      88.50571
                      -5.13073                      -0.00000                      88.50571
                      -5.13073                      -0.00000                      88.50571
                      -5.13073                      -0.00000                      88.50571
                      -5.13073                      -0.00000                      88.50571
                      -5.13073                      -0.00000                      88.50571
                      -5.13073                      -0.00000                      88.50571
                      -5.13073                      -0.00000                      88.50571
                      -5.13073                      -0.00000                      88.50571
                      -5.13073                      -0.00000                      88.50571
                      -5.13073                      -0.00000                      88.50571
                      -5.13073                      -0.00000                      88.50571
                      -5.13073                      -0.00000                      88.50571
                      -5.13073                      -0.00000                      88.50571
                      -5.13073                      -0.00000                      88.50571
                      -5.13073                      -0.00000                      88.50571
                      -5.13073                      -0.00000                      88.50571
                      -5.13073                      -0.00000                      88.50571
                      -5.13073                      -0.00000                      88.50571
                      -5.13073                      -0.00000                      88.50571
                      -5.13073                      -0.00000                      88.50571
                      -4.52264                      -0.00000                      88.57799
                      -4.54140                       0.14908                      88.57963
                      -4.59651                       0.28880                      88.58445
                      -4.68450                       0.41037                      88.59215
                      -4.79985                       0.50616                      88.60224
                      -4.93530                       0.57014                      88.61409
                      -5.08234                       0.59830                      88.62695
                      -5.23174                       0.58886                      88.64002
                      -5.37411                       0.54242                      88.65248
                      -5.50051                       0.46191                      88.66354
                      -5.60298                       0.35236                      88.67250
                      -5.67510                       0.22068                      88.67881
                      -5.71233                       0.07513                      88.68207
                      -5.71233                      -0.07513                      88.68207
                      -5.67510                      -0.22068                      88.67881
                      -5.60298                      -0.35236                      88.67250
                      -5.50051                      -0.46191                      88.66354
                      -5.37411                      -0.54242                      88.65248
                      -5.23174                      -0.58886                      88.64002
                      -5.08234                      -0.59830                      88.62695
                      -4.93530                      -0.57014                      88.61409
                      -4.79985                      -0.50616                      88.60224
                      -4.68450                      -0.41037                      88.59215
                      -4.59651                      -0.28880                      88.58445
                      -4.54140                      -0.14908                      88.57963
                      -4.28294                      -0.00000                      88.68249
                      -4.30890                       0.20620                      88.68476
                      -4.38512                       0.39945                      88.69143
                      -4.50682                       0.56760                      88.70208
                      -4.66635                       0.70008                      88.71604
                      -4.85370                       0.78857                      88.73243
                      -5.05708                       0.82752                      88.75022
                      -5.26372                       0.81447                      88.76830
                      -5.46064                       0.75024                      88.78553
                      -5.63546                       0.63888                      88.80082
                      -5.77719                       0.48737                      88.81322
                      -5.87694                       0.30523                      88.82195
                      -5.92843                       0.10392                      88.82645
                      -5.92843                      -0.10392                      88.82645
                      -5.87694                      -0.30523                      88.82195
                      -5.77719                      -0.48737                      88.81322
                      -5.63546                      -0.63888                      88.80082
                      -5.46064                      -0.75024                      88.78553
                      -5.26372                      -0.81447                      88.76830
                      -5.05708                      -0.82752                      88.75022
                      -4.85370                      -0.78857                      88.73243
                      -4.66635                      -0.70008                      88.71604
                      -4.50682                      -0.56760                      88.70208
                      -4.38512                      -0.39945                      88.69143
                      -4.30890                      -0.20620                      88.68476
                      -4.10967                      -0.00000                      88.79281
                      -4.14072                       0.24674                      88.79553
                      -4.23193                       0.47798                      88.80351
                      -4.37755                       0.67918                      88.81625
                      -4.56845                       0.83771                      88.83295
                      -4.79262                       0.94360                      88.85256
                      -5.03599                       0.99020                      88.87385
                      -5.28326                       0.97458                      88.89549
                      -5.51888                       0.89773                      88.91610
                      -5.72807                       0.76447                      88.93440
                      -5.89767                       0.58318                      88.94924
                      -6.01702                       0.36524                      88.95968
                      -6.07864                       0.12435                      88.96507
                      -6.07864                      -0.12435                      88.96507
                      -6.01702                      -0.36524                      88.95968
                      -5.89767                      -0.58318                      88.94924
                      -5.72807                      -0.76447                      88.93440
                      -5.51888                      -0.89773                      88.91610
                      -5.28326                      -0.97458                      88.89549
                      -5.03599                      -0.99020                      88.87385
                      -4.79262                      -0.94360                      88.85256
                      -4.56845                      -0.83771                      88.83295
                      -4.37755                      -0.67918                      88.81625
                      -4.23193                      -0.47798                      88.80351
                      -4.14072                      -0.24674                      88.79553
                      -3.97338                      -0.00000                      88.90636
                      -4.00837                       0.27804                      88.90943
                      -4.11114                       0.53862                      88.91842
                      -4.27525                       0.76535                      88.93277
                      -4.49036                       0.94399                      88.95159
                      -4.74298                       1.06331                      88.97370
                      -5.01722                       1.11583                      88.99769
                      -5.29586                       1.09823                      89.02207
                      -5.56138                       1.01163                      89.04530
                      -5.79711                       0.86146                      89.06592
                      -5.98822                       0.65716                      89.08264
                      -6.12272                       0.41158                      89.09441
                      -6.19215                       0.14013                      89.10048
                      -6.19215                      -0.14013                      89.10048
                      -6.12272                      -0.41158                      89.09441
                      -5.98822                      -0.65716                      89.08264
                      -5.79711                      -0.86146                      89.06592
                      -5.56138                      -1.01163                      89.04530
                      -5.29586                      -1.09823                      89.02207
                      -5.01722                      -1.11583                      88.99769
                      -4.74298                      -1.06331                      88.97370
                      -4.49036                      -0.94399                      88.95159
                      -4.27525                      -0.76535                      88.93277
                      -4.11114                      -0.53862                      88.91842
                      -4.00837                      -0.27804                      88.90943
                      -3.86255                      -0.00000                      89.02215
                      -3.90068                       0.30299                      89.02548
                      -4.01268                       0.58694                      89.03528
                      -4.19150                       0.83402                      89.05093
                      -4.42592                       1.02869                      89.07143
                      -4.70120                       1.15872                      89.09552
                      -5.00005                       1.21595                      89.12166
                      -5.30369                       1.19677                      89.14823
                      -5.59304                       1.10240                      89.17354
                      -5.84991                       0.93875                      89.19602
                      -6.05818                       0.71613                      89.21424
                      -6.20474                       0.44850                      89.22706
                      -6.28040                       0.15270                      89.23368
                      -6.28040                      -0.15270                      89.23368
                      -6.20474                      -0.44850                      89.22706
                      -6.05818                      -0.71613                      89.21424
                      -5.84991                      -0.93875                      89.19602
                      -5.59304                      -1.10240                      89.17354
                      -5.30369                      -1.19677                      89.14823
                      -5.00005                      -1.21595                      89.12166
                      -4.70120                      -1.15872                      89.09552
                      -4.42592                      -1.02869                      89.07143
                      -4.19150                      -0.83402                      89.05093
                      -4.01268                      -0.58694                      89.03528
                      -3.90068                      -0.30299                      89.02548
                      -3.77127                      -0.00000                      89.13964
                      -3.81193                       0.32306                      89.14319
                      -3.93134                       0.62582                      89.15364
                      -4.12201                       0.88925                      89.17032
                      -4.37196                       1.09681                      89.19219
                      -4.66547                       1.23546                      89.21787
                      -4.98411                       1.29647                      89.24575
                      -5.30786                       1.27603                      89.27407
                      -5.61637                       1.17540                      89.30106
                      -5.89025                       1.00093                      89.32502
                      -6.11231                       0.76356                      89.34445
                      -6.26859                       0.47821                      89.35812
                      -6.34926                       0.16281                      89.36518
                      -6.34926                      -0.16281                      89.36518
                      -6.26859                      -0.47821                      89.35812
                      -6.11231                      -0.76356                      89.34445
                      -5.89025                      -1.00093                      89.32502
                      -5.61637                      -1.17540                      89.30106
                      -5.30786                      -1.27603                      89.27407
                      -4.98411                      -1.29647                      89.24575
                      -4.66547                      -1.23546                      89.21787
                      -4.37196                      -1.09681                      89.19219
                      -4.12201                      -0.88925                      89.17032
                      -3.93134                      -0.62582                      89.15364
                      -3.81193                      -0.32306                      89.14319
                      -3.69607                      -0.00000                      89.25854
                      -3.73875                       0.33911                      89.26227
                      -3.86410                       0.65691                      89.27324
                      -4.06424                       0.93344                      89.29075
                      -4.32661                       1.15132                      89.31370
                      -4.63470                       1.29685                      89.34066
                      -4.96918                       1.36090                      89.36992
                      -5.30901                       1.33944                      89.39965
                      -5.63285                       1.23381                      89.42798
                      -5.92035                       1.05066                      89.45313
                      -6.15344                       0.80150                      89.47353
                      -6.31748                       0.50197                      89.48788
                      -6.40216                       0.17090                      89.49529
                      -6.40216                      -0.17090                      89.49529
                      -6.31748                      -0.50197                      89.48788
                      -6.15344                      -0.80150                      89.47353
                      -5.92035                      -1.05066                      89.45313
                      -5.63285                      -1.23381                      89.42798
                      -5.30901                      -1.33944                      89.39965
                      -4.96918                      -1.36090                      89.36992
                      -4.63470                      -1.29685                      89.34066
                      -4.32661                      -1.15132                      89.31370
                      -4.06424                      -0.93344                      89.29075
                      -3.86410                      -0.65691                      89.27324
                      -3.73875                      -0.33911                      89.26227
                      -3.63475                      -0.00000                      89.37865
                      -3.67901                       0.35170                      89.38252
                      -3.80901                       0.68130                      89.39389
                      -4.01658                       0.96810                      89.41205
                      -4.28869                       1.19406                      89.43586
                      -4.60823                       1.34500                      89.46382
                      -4.95512                       1.41142                      89.49417
                      -5.30757                       1.38916                      89.52500
                      -5.64343                       1.27962                      89.55438
                      -5.94160                       1.08967                      89.58047
                      -6.18335                       0.83125                      89.60162
                      -6.35348                       0.52061                      89.61651
                      -6.44130                       0.17725                      89.62419
                      -6.44130                      -0.17725                      89.62419
                      -6.35348                      -0.52061                      89.61651
                      -6.18335                      -0.83125                      89.60162
                      -5.94160                      -1.08967                      89.58047
                      -5.64343                      -1.27962                      89.55438
                      -5.30757                      -1.38916                      89.52500
                      -4.95512                      -1.41142                      89.49417
                      -4.60823                      -1.34500                      89.46382
                      -4.28869                      -1.19406                      89.43586
                      -4.01658                      -0.96810                      89.41205
                      -3.80901                      -0.68130                      89.39389
                      -3.67901                      -0.35170                      89.38252
                      -3.58584                      -0.00000                      89.49985
                      -3.63130                       0.36119                      89.50382
                      -3.76481                       0.69968                      89.51550
                      -3.97798                       0.99421                      89.53415
                      -4.25743                       1.22628                      89.55860
                      -4.58559                       1.38128                      89.58731
                      -4.94184                       1.44950                      89.61848
                      -5.30380                       1.42664                      89.65015
                      -5.64872                       1.31414                      89.68033
                      -5.95494                       1.11907                      89.70712
                      -6.20320                       0.85368                      89.72884
                      -6.37792                       0.53465                      89.74412
                      -6.46812                       0.18203                      89.75201
                      -6.46812                      -0.18203                      89.75201
                      -6.37792                      -0.53465                      89.74412
                      -6.20320                      -0.85368                      89.72884
                      -5.95494                      -1.11907                      89.70712
                      -5.64872                      -1.31414                      89.68032
                      -5.30380                      -1.42664                      89.65015
                      -4.94184                      -1.44950                      89.61848
                      -4.58559                      -1.38128                      89.58731
                      -4.25743                      -1.22628                      89.55860
                      -3.97798                      -0.99421                      89.53415
                      -3.76481                      -0.69968                      89.51550
                      -3.63130                      -0.36119                      89.50382
                      -3.54840                      -0.00000                      89.62205
                      -3.59469                       0.36782                      89.62610
                      -3.73065                       0.71252                      89.63799
                      -3.94773                       1.01246                      89.65699
                      -4.23231                       1.24878                      89.68188
                      -4.56649                       1.40663                      89.71112
                      -4.92927                       1.47610                      89.74286
                      -5.29788                       1.45282                      89.77511
                      -5.64913                       1.33826                      89.80584
                      -5.96097                       1.13960                      89.83312
                      -6.21379                       0.86935                      89.85524
                      -6.39171                       0.54446                      89.87081
                      -6.48356                       0.18537                      89.87884
                      -6.48356                      -0.18537                      89.87884
                      -6.39171                      -0.54446                      89.87081
                      -6.21379                      -0.86935                      89.85524
                      -5.96096                      -1.13960                      89.83312
                      -5.64913                      -1.33826                      89.80584
                      -5.29788                      -1.45282                      89.77511
                      -4.92927                      -1.47610                      89.74286
                      -4.56649                      -1.40663                      89.71112
                      -4.23231                      -1.24878                      89.68188
                      -3.94773                      -1.01246                      89.65699
                      -3.73065                      -0.71252                      89.63799
                      -3.59469                      -0.36782                      89.62610
                      -3.52180                      -0.00000                      89.74520
                      -3.56858                       0.37174                      89.74929
                      -3.70599                       0.72012                      89.76131
                      -3.92539                       1.02325                      89.78051
                      -4.21300                       1.26209                      89.80567
                      -4.55074                       1.42162                      89.83522
                      -4.91739                       1.49183                      89.86730
                      -5.28992                       1.46831                      89.89989
                      -5.64492                       1.35252                      89.93095
                      -5.96008                       1.15175                      89.95852
                      -6.21560                       0.87861                      89.98088
                      -6.39542                       0.55027                      89.99661
                      -6.48825                       0.18735                      90.00473
                      -6.48825                      -0.18735                      90.00473
                      -6.39542                      -0.55027                      89.99661
                      -6.21560                      -0.87861                      89.98088
                      -5.96008                      -1.15175                      89.95852
                      -5.64492                      -1.35252                      89.93095
                      -5.28992                      -1.46831                      89.89989
                      -4.91739                      -1.49183                      89.86730
                      -4.55074                      -1.42162                      89.83522
                      -4.21300                      -1.26209                      89.80567
                      -3.92539                      -1.02325                      89.78051
                      -3.70599                      -0.72012                      89.76131
                      -3.56858                      -0.37174                      89.74929
                      -3.50571                       0.00000                      89.86927
                      -3.55265                       0.37303                      89.87338
                      -3.69054                       0.72263                      89.88544
                      -3.91071                       1.02682                      89.90470
                      -4.19932                       1.26649                      89.92995
                      -4.53824                       1.42658                      89.95960
                      -4.90617                       1.49704                      89.99179
                      -5.28000                       1.47343                      90.02450
                      -5.63624                       1.35724                      90.05567
                      -5.95250                       1.15577                      90.08333
                      -6.20891                       0.88168                      90.10577
                      -6.38936                       0.55219                      90.12155
                      -6.48251                       0.18800                      90.12970
                      -6.48251                      -0.18800                      90.12970
                      -6.38936                      -0.55219                      90.12155
                      -6.20891                      -0.88168                      90.10577
                      -5.95250                      -1.15577                      90.08333
                      -5.63624                      -1.35724                      90.05567
                      -5.28000                      -1.47343                      90.02450
                      -4.90617                      -1.49704                      89.99179
                      -4.53824                      -1.42658                      89.95960
                      -4.19932                      -1.26649                      89.92995
                      -3.91071                      -1.02682                      89.90470
                      -3.69054                      -0.72263                      89.88544
                      -3.55265                      -0.37303                      89.87338
                      -3.50001                       0.00000                      89.99425
                      -3.54679                       0.37174                      89.99834
                      -3.68420                       0.72012                      90.01036
                      -3.90360                       1.02325                      90.02956
                      -4.19121                       1.26209                      90.05472
                      -4.52895                       1.42162                      90.08427
                      -4.89561                       1.49183                      90.11635
                      -5.26814                       1.46831                      90.14894
                      -5.62313                       1.35252                      90.18000
                      -5.93829                       1.15175                      90.20757
                      -6.19381                       0.87861                      90.22992
                      -6.37363                       0.55027                      90.24566
                      -6.46646                       0.18735                      90.25378
                      -6.46646                      -0.18735                      90.25378
                      -6.37363                      -0.55027                      90.24566
                      -6.19381                      -0.87861                      90.22992
                      -5.93829                      -1.15175                      90.20757
                      -5.62313                      -1.35252                      90.18000
                      -5.26814                      -1.46831                      90.14894
                      -4.89561                      -1.49183                      90.11635
                      -4.52895                      -1.42162                      90.08427
                      -4.19121                      -1.26209                      90.05472
                      -3.90360                      -1.02325                      90.02956
                      -3.68420                      -0.72012                      90.01036
                      -3.54679                      -0.37174                      89.99834
                      -3.50482                       0.00000                      90.12015
                      -3.55111                       0.36782                      90.12420
                      -3.68707                       0.71252                      90.13609
                      -3.90416                       1.01246                      90.15508
                      -4.18873                       1.24878                      90.17998
                      -4.52291                       1.40663                      90.20922
                      -4.88570                       1.47610                      90.24096
                      -5.25430                       1.45282                      90.27320
                      -5.60555                       1.33826                      90.30394
                      -5.91739                       1.13960                      90.33122
                      -6.17021                       0.86935                      90.35334
                      -6.34814                       0.54446                      90.36890
                      -6.43999                       0.18537                      90.37694
                      -6.43999                      -0.18537                      90.37694
                      -6.34814                      -0.54446                      90.36890
                      -6.17021                      -0.86935                      90.35334
                      -5.91739                      -1.13960                      90.33122
                      -5.60555                      -1.33826                      90.30394
                      -5.25430                      -1.45282                      90.27320
                      -4.88570                      -1.47610                      90.24096
                      -4.52291                      -1.40663                      90.20922
                      -4.18873                      -1.24878                      90.17998
                      -3.90416                      -1.01246                      90.15508
                      -3.68707                      -0.71252                      90.13609
                      -3.55111                      -0.36782                      90.12420
                      -3.52048                       0.00000                      90.24699
                      -3.56593                       0.36119                      90.25097
                      -3.69944                       0.69968                      90.26265
                      -3.91262                       0.99421                      90.28130
                      -4.19206                       1.22628                      90.30575
                      -4.52022                       1.38128                      90.33446
                      -4.87647                       1.44950                      90.36563
                      -5.23843                       1.42664                      90.39729
                      -5.58335                       1.31414                      90.42747
                      -5.88957                       1.11907                      90.45426
                      -6.13784                       0.85368                      90.47598
                      -6.31256                       0.53465                      90.49127
                      -6.40275                       0.18203                      90.49916
                      -6.40275                      -0.18203                      90.49916
                      -6.31256                      -0.53465                      90.49127
                      -6.13784                      -0.85368                      90.47598
                      -5.88957                      -1.11907                      90.45426
                      -5.58335                      -1.31414                      90.42747
                      -5.23843                      -1.42664                      90.39729
                      -4.87647                      -1.44950                      90.36563
                      -4.52022                      -1.38128                      90.33446
                      -4.19206                      -1.22628                      90.30575
                      -3.91261                      -0.99421                      90.28130
                      -3.69944                      -0.69968                      90.26265
                      -3.56593                      -0.36119                      90.25097
                      -3.54759                       0.00000                      90.37484
                      -3.59185                       0.35170                      90.37871
                      -3.72185                       0.68130                      90.39009
                      -3.92943                       0.96810                      90.40825
                      -4.20153                       1.19406                      90.43206
                      -4.52107                       1.34500                      90.46001
                      -4.86796                       1.41142                      90.49036
                      -5.22041                       1.38916                      90.52120
                      -5.55627                       1.27962                      90.55058
                      -5.85445                       1.08967                      90.57667
                      -6.09619                       0.83125                      90.59782
                      -6.26632                       0.52061                      90.61270
                      -6.35415                       0.17725                      90.62038
                      -6.35415                      -0.17725                      90.62038
                      -6.26632                      -0.52061                      90.61270
                      -6.09619                      -0.83125                      90.59782
                      -5.85445                      -1.08967                      90.57667
                      -5.55627                      -1.27962                      90.55058
                      -5.22041                      -1.38916                      90.52120
                      -4.86796                      -1.41142                      90.49036
                      -4.52107                      -1.34500                      90.46001
                      -4.20153                      -1.19406                      90.43206
                      -3.92943                      -0.96810                      90.40825
                      -3.72185                      -0.68130                      90.39009
                      -3.59185                      -0.35170                      90.37871
                      -3.58713                       0.00000                      90.50378
                      -3.62981                       0.33911                      90.50751
                      -3.75515                       0.65691                      90.51848
                      -3.95530                       0.93344                      90.53599
                      -4.21766                       1.15132                      90.55894
                      -4.52576                       1.29685                      90.58590
                      -4.86023                       1.36090                      90.61516
                      -5.20007                       1.33944                      90.64489
                      -5.52391                       1.23381                      90.67323
                      -5.81141                       1.05066                      90.69838
                      -6.04450                       0.80150                      90.71877
                      -6.20854                       0.50197                      90.73312
                      -6.29322                       0.17090                      90.74053
                      -6.29322                      -0.17090                      90.74053
                      -6.20854                      -0.50197                      90.73312
                      -6.04450                      -0.80150                      90.71877
                      -5.81141                      -1.05066                      90.69838
                      -5.52391                      -1.23381                      90.67323
                      -5.20007                      -1.33944                      90.64489
                      -4.86023                      -1.36090                      90.61516
                      -4.52576                      -1.29685                      90.58590
                      -4.21766                      -1.15132                      90.55894
                      -3.95530                      -0.93344                      90.53599
                      -3.75515                      -0.65691                      90.51848
                      -3.62981                      -0.33911                      90.50751
                      -3.64054                       0.00000                      90.63393
                      -3.68120                       0.32306                      90.63749
                      -3.80061                       0.62582                      90.64793
                      -3.99128                       0.88925                      90.66462
                      -4.24122                       1.09681                      90.68648
                      -4.53474                       1.23546                      90.71216
                      -4.85338                       1.29647                      90.74004
                      -5.17712                       1.27603                      90.76836
                      -5.48563                       1.17540                      90.79535
                      -5.75952                       1.00093                      90.81932
                      -5.98158                       0.76356                      90.83874
                      -6.13785                       0.47821                      90.85242
                      -6.21852                       0.16281                      90.85947
                      -6.21852                      -0.16281                      90.85947
                      -6.13785                      -0.47821                      90.85242
                      -5.98158                      -0.76356                      90.83874
                      -5.75952                      -1.00093                      90.81932
                      -5.48563                      -1.17540                      90.79535
                      -5.17712                      -1.27603                      90.76836
                      -4.85338                      -1.29647                      90.74004
                      -4.53474                      -1.23546                      90.71216
                      -4.24122                      -1.09681                      90.68648
                      -3.99128                      -0.88925                      90.66462
                      -3.80061                      -0.62582                      90.64793
                      -3.68120                      -0.32306                      90.63749
                      -3.71003                       0.00000                      90.76549
                      -3.74816                       0.30299                      90.76882
                      -3.86015                       0.58694                      90.77862
                      -4.03898                       0.83402                      90.79427
                      -4.27340                       1.02869                      90.81477
                      -4.54868                       1.15872                      90.83886
                      -4.84753                       1.21595                      90.86500
                      -5.15117                       1.19677                      90.89157
                      -5.44051                       1.10240                      90.91688
                      -5.69739                       0.93875                      90.93936
                      -5.90565                       0.71613                      90.95758
                      -6.05222                       0.44850                      90.97040
                      -6.12788                       0.15270                      90.97702
                      -6.12788                      -0.15270                      90.97702
                      -6.05222                      -0.44850                      90.97040
                      -5.90565                      -0.71613                      90.95758
                      -5.69739                      -0.93875                      90.93936
                      -5.44051                      -1.10240                      90.91688
                      -5.15117                      -1.19677                      90.89157
                      -4.84753                      -1.21595                      90.86500
                      -4.54868                      -1.15872                      90.83886
                      -4.27340                      -1.02869                      90.81477
                      -4.03898                      -0.83402                      90.79427
                      -3.86015                      -0.58694                      90.77862
                      -3.74816                      -0.30299                      90.76882
                      -3.79907                       0.00000                      90.89875
                      -3.83406                       0.27804                      90.90181
                      -3.93683                       0.53862                      90.91081
                      -4.10093                       0.76535                      90.92516
                      -4.31605                       0.94399                      90.94398
                      -4.56867                       1.06331                      90.96608
                      -4.84291                       1.11583                      90.99008
                      -5.12155                       1.09823                      91.01446
                      -5.38707                       1.01163                      91.03769
                      -5.62280                       0.86146                      91.05831
                      -5.81391                       0.65716                      91.07503
                      -5.94841                       0.41158                      91.08680
                      -6.01784                       0.14013                      91.09287
                      -6.01784                      -0.14013                      91.09287
                      -5.94841                      -0.41158                      91.08680
                      -5.81391                      -0.65716                      91.07503
                      -5.62279                      -0.86146                      91.05831
                      -5.38707                      -1.01163                      91.03769
                      -5.12155                      -1.09823                      91.01446
                      -4.84291                      -1.11583                      90.99008
                      -4.56867                      -1.06331                      90.96608
                      -4.31605                      -0.94399                      90.94398
                      -4.10093                      -0.76535                      90.92516
                      -3.93683                      -0.53862                      90.91081
                      -3.83406                      -0.27804                      90.90181
                      -3.91357                       0.00000                      91.03425
                      -3.94462                       0.24674                      91.03697
                      -4.03583                       0.47798                      91.04494
                      -4.18145                       0.67918                      91.05769
                      -4.37235                       0.83771                      91.07439
                      -4.59652                       0.94360                      91.09400
                      -4.83989                       0.99020                      91.11529
                      -5.08716                       0.97458                      91.13692
                      -5.32278                       0.89773                      91.15754
                      -5.53197                       0.76447                      91.17584
                      -5.70157                       0.58318                      91.19068
                      -5.82092                       0.36524                      91.20112
                      -5.88254                       0.12435                      91.20651
                      -5.88254                      -0.12435                      91.20651
                      -5.82092                      -0.36524                      91.20112
                      -5.70157                      -0.58318                      91.19068
                      -5.53197                      -0.76447                      91.17584
                      -5.32278                      -0.89773                      91.15754
                      -5.08716                      -0.97458                      91.13692
                      -4.83989                      -0.99020                      91.11529
                      -4.59652                      -0.94360                      91.09400
                      -4.37235                      -0.83771                      91.07439
                      -4.18145                      -0.67918                      91.05769
                      -4.03583                      -0.47798                      91.04494
                      -3.94462                      -0.24674                      91.03697
                      -4.06506                       0.00000                      91.17298
                      -4.09101                       0.20620                      91.17525
                      -4.16723                       0.39945                      91.18192
                      -4.28893                       0.56760                      91.19257
                      -4.44846                       0.70008                      91.20652
                      -4.63581                       0.78857                      91.22291
                      -4.83919                       0.82752                      91.24071
                      -5.04583                       0.81447                      91.25879
                      -5.24275                       0.75024                      91.27601
                      -5.41757                       0.63888                      91.29131
                      -5.55931                       0.48737                      91.30371
                      -5.65905                       0.30523                      91.31244
                      -5.71054                       0.10392                      91.31694
                      -5.71054                      -0.10392                      91.31694
                      -5.65905                      -0.30523                      91.31244
                      -5.55931                      -0.48737                      91.30371
                      -5.41757                      -0.63888                      91.29131
                      -5.24275                      -0.75024                      91.27601
                      -5.04583                      -0.81447                      91.25879
                      -4.83919                      -0.82752                      91.24071
                      -4.63581                      -0.78857                      91.22291
                      -4.44846                      -0.70008                      91.20652
                      -4.28893                      -0.56760                      91.19257
                      -4.16723                      -0.39945                      91.18192
                      -4.09101                      -0.20620                      91.17525
                      -4.28296                       0.00000                      91.31752
                      -4.30173                       0.14908                      91.31916
                      -4.35683                       0.28880                      91.32398
                      -4.44482                       0.41037                      91.33168
                      -4.56017                       0.50616                      91.34177
                      -4.69562                       0.57014                      91.35362
                      -4.84266                       0.59830                      91.36649
                      -4.99207                       0.58886                      91.37956
                      -5.13444                       0.54242                      91.39202
                      -5.26083                       0.46191                      91.40307
                      -5.36331                       0.35236                      91.41204
                      -5.43542                       0.22068                      91.41835
                      -5.47265                       0.07513                      91.42161
                      -5.47265                      -0.07513                      91.42161
                      -5.43542                      -0.22068                      91.41835
                      -5.36331                      -0.35237                      91.41204
                      -5.26083                      -0.46191                      91.40307
                      -5.13444                      -0.54242                      91.39202
                      -4.99207                      -0.58886                      91.37956
                      -4.84266                      -0.59830                      91.36649
                      -4.69562                      -0.57014                      91.35362
                      -4.56017                      -0.50616                      91.34177
                      -4.44482                      -0.41037                      91.33168
                      -4.35683                      -0.28880                      91.32398
                      -4.30173                      -0.14908                      91.31916
                      -4.86927                       0.00000                      91.49429
                      -4.86927                       0.00000                      91.49429
                      -4.86927                       0.00000                      91.49429
                      -4.86927                       0.00000                      91.49429
                      -4.86927                       0.00000                      91.49429
                      -4.86927                       0.00000                      91.49429
                      -4.86927                       0.00000                      91.49429
                      -4.86927                       0.00000                      91.49429
                      -4.86927                       0.00000                      91.49429
                      -4.86927                       0.00000                      91.49429
                      -4.86927                       0.00000                      91.49429
                      -4.86927                       0.00000                      91.49429
                      -4.86927                       0.00000                      91.49429
                      -4.86927                       0.00000                      91.49429
                      -4.86927                       0.00000                      91.49429
                      -4.86927                       0.00000                      91.49429
                      -4.86927                       0.00000                      91.49429
                      -4.86927                       0.00000                      91.49429
                      -4.86927                       0.00000                      91.49429
                      -4.86927                       0.00000                      91.49429
                      -4.86927                       0.00000                      91.49429
                      -4.86927                       0.00000                      91.49429
                      -4.86927                       0.00000                      91.49429
                      -4.86927                       0.00000                      91.49429
                      -4.86927                       0.00000                      91.49429
        </DataArray>
      </Points>
      <Polys>
        <DataArray type="Int32" Name="connectivity" format="ascii">
      0      1     26     25
      1      2     27     26
      2      3     28     27
      3      4     29     28
      4      5     30     29
      5      6     31     30
      6      7     32     31
      7      8     33     32
      8      9     34     33
      9     10     35     34
     10     11     36     35
     11     12     37     36
     12     13     38     37
     13     14     39     38
     14     15     40     39
     15     16     41     40
     16     17     42     41
     17     18     43     42
     18     19     44     43
     19     20     45     44
     20     21     46     45
     21     22     47     46
     22     23     48     47
     23     24     49     48
     24      0     25     49
     25     26     51     50
     26     27     52     51
     27     28     53     52
     28     29     54     53
     29     30     55     54
     30     31     56     55
     31     32     57     56
     32     33     58     57
     33     34     59     58
     34     35     60     59
     35     36     61     60
     36     37     62     61
     37     38     63     62
     38     39     64     63
     39     40     65     64
     40     41     66     65
     41     42     67     66
     42     43     68     67
     43     44     69     68
     44     45     70     69
     45     46     71     70
     46     47     72     71
     47     48     73     72
     48     49     74     73
     49     25     50     74
     50     51     76     75
     51     52     77     76
     52     53     78     77
     53     54     79     78
     54     55     80     79
     55     56     81     80
     56     57     82     81
     57     58     83     82
     58     59     84     83
     59     60     85     84
     60     61     86     85
     61     62     87     86
     62     63     88     87
     63     64     89     88
     64     65     90     89
     65     66     91     90
     66     67     92     91
     67     68     93     92
     68     69     94     93
     69     70     95     94
     70     71     96     95
     71     72     97     96
     72     73     98     97
     73     74     99     98
     74     50     75     99
     75     76    101    100
     76     77    102    101
     77     78    103    102
     78     79    104    103
     79     80    105    104
     80     81    106    105
     81     82    107    106
     82     83    108    107
     83     84    109    108
     84     85    110    109
     85     86    111    110
     86     87    112    111
     87     88    113    112
     88     89    114    113
     89     90    115    114
     90     91    116    115
     91     92    117    116
     92     93    118    117
     93     94    119    118
     94     95    120    119
     95     96    121    120
     96     97    122    121
     97     98    123    122
     98     99    124    123
     99     75    100    124
    100    101    126    125
    101    102    127    126
    102    103    128    127
    103    104    129    128
    104    105    130    129
    105    106    131    130
    106    107    132    131
    107    108    133    132
    108    109    134    133
    109    110    135    134
    110    111    136    135
    111    112    137    136
    112    113    138    137
    113    114    139    138
    114    115    140    139
    115    116    141    140
    116    117    142    141
    117    118    143    142
    118    119    144    143
    119    120    145    144
    120    121    146    145
    121    122    147    146
    122    123    148    147
    123    124    149    148
    124    100    125    149
    125    126    151    150
    126    127    152    151
    127    128    153    152
    128    129    154    153
    129    130    155    154
    130    131    156    155
    131    132    157    156
    132    133    158    157
    133    134    159    158
    134    135    160    159
    135    136    161    160
    136    137    162    161
    137    138    163    162
    138    139    164    163
    139    140    165    164
    140    141    166    165
    141    142    167    166
    142    143    168    167
    143    144    169    168
    144    145    170    169
    145    146    171    170
    146    147    172    171
    147    148    173    172
    148    149    174    173
    149    125    150    174
    150    151    176    175
    151    152    177    176
    152    153    178    177
    153    154    179    178
    154    155    180    179
    155    156    181    180
    156    157    182    181
    157    158    183    182
    158    159    184    183
    159    160    185    184
    160    161    186    185
    161    162    187    186
    162    163    188    187
    163    164    189    188
    164    165    190    189
    165    166    191    190
    166    167    192    191
    167    168    193    192
    168    169    194    193
    169    170    195    194
    170    171    196    195
    171    172    197    196
    172    173    198    197
    173    174    199    198
    174    150    175    199
    175    176    201    200
    176    177    202    201
    177    178    203    202
    178    179    204    203
    179    180    205    204
    180    181    206    205
    181    182    207    206
    182    183    208    207
    183    184    209    208
    184    185    210    209
    185    186    211    210
    186    187    212    211
    187    188    213    212
    188    189    214    213
    189    190    215    214
    190    191    216    215
    191    192    217    216
    192    193    218    217
    193    194    219    218
    194    195    220    219
    195    196    221    220
    196    197    222    221
    197    198    223    222
    198    199    224    223
    199    175    200    224
    200    201    226    225
    201    202    227    226
    202    203    228    227
    203    204    229    228
    204    205    230    229
    205    206    231    230
    206    207    232    231
    207    208    233    232
    208    209    234    233
    209    210    235    234
    210    211    236    235
    211    212    237    236
    212    213    238    237
    213    214    239    238
    214    215    240    239
    215    216    241    240
    216    217    242    241
    217    218    243    242
    218    219    244    243
    219    220    245    244
    220    221    246    245
    221    222    247    246
    222    223    248    247
    223    224    249    248
    224    200    225    249
    225    226    251    250
    226    227    252    251
    227    228    253    252
    228    229    254    253
    229    230    255    254
    230    231    256    255
    231    232    257    256
    232    233    258    257
    233    234    259    258
    234    235    260    259
    235    236    261    260
    236    237    262    261
    237    238    263    262
    238    239    264    263
    239    240    265    264
    240    241    266    265
    241    242    267    266
    242    243    268    267
    243    244    269    268
    244    245    270    269
    245    246    271    270
    246    247    272    271
    247    248    273    272
    248    249    274    273
    249    225    250    274
    250    251    276    275
    251    252    277    276
    252    253    278    277
    253    254    279    278
    254    255    280    279
    255    256    281    280
    256    257    282    281
    257    258    283    282
    258    259    284    283
    259    260    285    284
    260    261    286    285
    261    262    287    286
    262    263    288    287
    263    264    289    288
    264    265    290    289
    265    266    291    290
    266    267    292    291
    267    268    293    292
    268    269    294    293
    269    270    295    294
    270    271    296    295
    271    272    297    296
    272    273    298    297
    273    274    299    298
    274    250    275    299
    275    276    301    300
    276    277    302    301
    277    278    303    302
    278    279    304    303
    279    280    305    304
    280    281    306    305
    281    282    307    306
    282    283    308    307
    283    284    309    308
    284    285    310    309
    285    286    311    310
    286    287    312    311
    287    288    313    312
    288    289    314    313
    289    290    315    314
    290    291    316    315
    291    292    317    316
    292    293    318    317
    293    294    319    318
    294    295    320    319
    295    296    321    320
    296    297    322    321
    297    298    323    322
    298    299    324    323
    299    275    300    324
    300    301    326    325
    301    302    327    326
    302    303    328    327
    303    304    329    328
    304    305    330    329
    305    306    331    330
    306    307    332    331
    307    308    333    332
    308    309    334    333
    309    310    335    334
    310    311    336    335
    311    312    337    336
    312    313    338    337
    313    314    339    338
    314    315    340    339
    315    316    341    340
    316    317    342    341
    317    318    343    342
    318    319    344    343
    319    320    345    344
    320    321    346    345
    321    322    347    346
    322    323    348    347
    323    324    349    348
    324    300    325    349
    325    326    351    350
    326    327    352    351
    327    328    353    352
    328    329    354    353
    329    330    355    354
    330    331    356    355
    331    332    357    356
    332    333    358    357
    333    334    359    358
    334    335    360    359
    335    336    361    360
    336    337    362    361
    337    338    363    362
    338    339    364    363
    339    340    365    364
    340    341    366    365
    341    342    367    366
    342    343    368    367
    343    344    369    368
    344    345    370    369
    345    346    371    370
    346    347    372    371
    347    348    373    372
    348    349    374    373
    349    325    350    374
    350    351    376    375
    351    352    377    376
    352    353    378    377
    353    354    379    378
    354    355    380    379
    355    356    381    380
    356    357    382    381
    357    358    383    382
    358    359    384    383
    359    360    385    384
    360    361    386    385
    361    362    387    386
    362    363    388    387
    363    364    389    388
    364    365    390    389
    365    366    391    390
    366    367    392    391
    367    368    393    392
    368    369    394    393
    369    370    395    394
    370    371    396    395
    371    372    397    396
    372    373    398    397
    373    374    399    398
    374    350    375    399
    375    376    401    400
    376    377    402    401
    377    378    403    402
    378    379    404    403
    379    380    405    404
    380    381    406    405
    381    382    407    406
    382    383    408    407
    383    384    409    408
    384    385    410    409
    385    386    411    410
    386    387    412    411
    387    388    413    412
    388    389    414    413
    389    390    415    414
    390    391    416    415
    391    392    417    416
    392    393    418    417
    393    394    419    418
    394    395    420    419
    395    396    421    420
    396    397    422    421
    397    398    423    422
    398    399    424    423
    399    375    400    424
    400    401    426    425
    401    402    427    426
    402    403    428    427
    403    404    429    428
    404    405    430    429
    405    406    431    430
    406    407    432    431
    407    408    433    432
    408    409    434    433
    409    410    435    434
    410    411    436    435
    411    412    437    436
    412    413    438    437
    413    414    439    438
    414    415    440    439
    415    416    441    440
    416    417    442    441
    417    418    443    442
    418    419    444    443
    419    420    445    444
    420    421    446    445
    421    422    447    446
    422    423    448    447
    423    424    449    448
    424    400    425    449
    425    426    451    450
    426    427    452    451
    427    428    453    452
    428    429    454    453
    429    430    455    454
    430    431    456    455
    431    432    457    456
    432    433    458    457
    433    434    459    458
    434    435    460    459
    435    436    461    460
    436    437    462    461
    437    438    463    462
    438    439    464    463
    439    440    465    464
    440    441    466    465
    441    442    467    466
    442    443    468    467
    443    444    469    468
    444    445    470    469
    445    446    471    470
    446    447    472    471
    447    448    473    472
    448    449    474    473
    449    425    450    474
    450    451    476    475
    451    452    477    476
    452    453    478    477
    453    454    479    478
    454    455    480    479
    455    456    481    480
    456    457    482    481
    457    458    483    482
    458    459    484    483
    459    460    485    484
    460    461    486    485
    461    462    487    486
    462    463    488    487
    463    464    489    488
    464    465    490    489
    465    466    491    490
    466    467    492    491
    467    468    493    492
    468    469    494    493
    469    470    495    494
    470    471    496    495
    471    472    497    496
    472    473    498    497
    473    474    499    498
    474    450    475    499
    475    476    501    500
    476    477    502    501
    477    478    503    502
    478    479    504    503
    479    480    505    504
    480    481    506    505
    481    482    507    506
    482    483    508    507
    483    484    509    508
    484    485    510    509
    485    486    511    510
    486    487    512    511
    487    488    513    512
    488    489    514    513
    489    490    515    514
    490    491    516    515
    491    492    517    516
    492    493    518    517
    493    494    519    518
    494    495    520    519
    495    496    521    520
    496    497    522    521
    497    498    523    522
    498    499    524    523
    499    475    500    524
    500    501    526    525
    501    502    527    526
    502    503    528    527
    503    504    529    528
    504    505    530    529
    505    506    531    530
    506    507    532    531
    507    508    533    532
    508    509    534    533
    509    510    535    534
    510    511    536    535
    511    512    537    536
    512    513    538    537
    513    514    539    538
    514    515    540    539
    515    516    541    540
    516    517    542    541
    517    518    543    542
    518    519    544    543
    519    520    545    544
    520    521    546    545
    521    522    547    546
    522    523    548    547
    523    524    549    548
    524    500    525    549
    525    526    551    550
    526    527    552    551
    527    528    553    552
    528    529    554    553
    529    530    555    554
    530    531    556    555
    531    532    557    556
    532    533    558    557
    533    534    559    558
    534    535    560    559
    535    536    561    560
    536    537    562    561
    537    538    563    562
    538    539    564    563
    539    540    565    564
    540    541    566    565
    541    542    567    566
    542    543    568    567
    543    544    569    568
    544    545    570    569
    545    546    571    570
    546    547    572    571
    547    548    573    572
    548    549    574    573
    549    525    550    574
    550    551    576    575
    551    552    577    576
    552    553    578    577
    553    554    579    578
    554    555    580    579
    555    556    581    580
    556    557    582    581
    557    558    583    582
    558    559    584    583
    559    560    585    584
    560    561    586    585
    561    562    587    586
    562    563    588    587
    563    564    589    588
    564    565    590    589
    565    566    591    590
    566    567    592    591
    567    568    593    592
    568    569    594    593
    569    570    595    594
    570    571    596    595
    571    572    597    596
    572    573    598    597
    573    574    599    598
    574    550    575    599
    575    576    601    600
    576    577    602    601
    577    578    603    602
    578    579    604    603
    579    580    605    604
    580    581    606    605
    581    582    607    606
    582    583    608    607
    583    584    609    608
    584    585    610    609
    585    586    611    610
    586    587    612    611
    587    588    613    612
    588    589    614    613
    589    590    615    614
    590    591    616    615
    591    592    617    616
    592    593    618    617
    593    594    619    618
    594    595    620    619
    595    596    621    620
    596    597    622    621
    597    598    623    622
    598    599    624    623
    599    575    600    624
        </DataArray>
        <DataArray type="Int32" Name="offsets" format="ascii">
      4
      8
     12
     16
     20
     24
     28
     32
     36
     40
     44
     48
     52
     56
     60
     64
     68
     72
     76
     80
     84
     88
     92
     96
    100
    104
    108
    112
    116
    120
    124
    128
    132
    136
    140
    144
    148
    152
    156
    160
    164
    168
    172
    176
    180
    184
    188
    192
    196
    200
    204
    208
    212
    216
    220
    224
    228
    232
    236
    240
    244
    248
    252
    256
    260
    264
    268
    272
    276
    280
    284
    288
    292
    296
    300
    304
    308
    312
    316
    320
    324
    328
    332
    336
    340
    344
    348
    352
    356
    360
    364
    368
    372
    376
    380
    384
    388
    392
    396
    400
    404
    408
    412
    416
    420
    424
    428
    432
    436
    440
    444
    448
    452
    456
    460
    464
    468
    472
    476
    480
    484
    488
    492
    496
    500
    504
    508
    512
    516
    520
    524
    528
    532
    536
    540
    544
    548
    552
    556
    560
    564
    568
    572
    576
    580
    584
    588
    592
    596
    600
    604
    608
    612
    616
    620
    624
    628
    632
    636
    640
    644
    648
    652
    656
    660
    664
    668
    672
    676
    680
    684
    688
    692
    696
    700
    704
    708
    712
    716
    720
    724
    728
    732
    736
    740
    744
    748
    752
    756
    760
    764
    768
    772
    776
    780
    784
    788
    792
    796
    800
    804
    808
    812
    816
    820
    824
    828
    832
    836
    840
    844
    848
    852
    856
    860
    864
    868
    872
    876
    880
    884
    888
    892
    896
    900
    904
    908
    912
    916
    920
    924
    928
    932
    936
    940
    944
    948
    952
    956
    960
    964
    968
    972
    976
    980
    984
    988
    992
    996
   1000
   1004
   1008
   1012
   1016
   1020
   1024
   1028
   1032
   1036
   1040
   1044
   1048
   1052
   1056
   1060
   1064
   1068
   1072
   1076
   1080
   1084
   1088
   1092
   1096
   1100
   1104
   1108
   1112
   1116
   1120
   1124
   1128
   1132
   1136
   1140
   1144
   1148
   1152
   1156
   1160
   1164
   1168
   1172
   1176
   1180
   1184
   1188
   1192
   1196
   1200
   1204
   1208
   1212
   1216
   1220
   1224
   1228
   1232
   1236
   1240
   1244
   1248
   1252
   1256
   1260
   1264
   1268
   1272
   1276
   1280
   1284
   1288
   1292
   1296
   1300
   1304
   1308
   1312
   1316
   1320
   1324
   1328
   1332
   1336
   1340
   1344
   1348
   1352
   1356
   1360
   1364
   1368
   1372
   1376
   1380
   1384
   1388
   1392
   1396
   1400
   1404
   1408
   1412
   1416
   1420
   1424
   1428
   1432
   1436
   1440
   1444
   1448
   1452
   1456
   1460
   1464
   1468
   1472
   1476
   1480
   1484
   1488
   1492
   1496
   1500
   1504
   1508
   1512
   1516
   1520
   1524
   1528
   1532
   1536
   1540
   1544
   1548
   1552
   1556
   1560
   1564
   1568
   1572
   1576
   1580
   1584
   1588
   1592
   1596
   1600
   1604
   1608
   1612
   1616
   1620
   1624
   1628
   1632
   1636
   1640
   1644
   1648
   1652
   1656
   1660
   1664
   1668
   1672
   1676
   1680
   1684
   1688
   1692
   1696
   1700
   1704
   1708
   1712
   1716
   1720
   1724
   1728
   1732
   1736
   1740
   1744
   1748
   1752
   1756
   1760
   1764
   1768
   1772
   1776
   1780
   1784
   1788
   1792
   1796
   1800
   1804
   1808
   1812
   1816
   1820
   1824
   1828
   1832
   1836
   1840
   1844
   1848
   1852
   1856
   1860
   1864
   1868
   1872
   1876
   1880
   1884
   1888
   1892
   1896
   1900
   1904
   1908
   1912
   1916
   1920
   1924
   1928
   1932
   1936
   1940
   1944
   1948
   1952
   1956
   1960
   1964
   1968
   1972
   1976
   1980
   1984
   1988
   1992
   1996
   2000
   2004
   2008
   2012
   2016
   2020
   2024
   2028
   2032
   2036
   2040
   2044
   2048
   2052
   2056
   2060
   2064
   2068
   2072
   2076
   2080
   2084
   2088
   2092
   2096
   2100
   2104
   2108
   2112
   2116
   2120
   2124
   2128
   2132
   2136
   2140
   2144
   2148
   2152
   2156
   2160
   2164
   2168
   2172
   2176
   2180
   2184
   2188
   2192
   2196
   2200
   2204
   2208
   2212
   2216
   2220
   2224
   2228
   2232
   2236
   2240
   2244
   2248
   2252
   2256
   2260
   2264
   2268
   2272
   2276
   2280
   2284
   2288
   2292
   2296
   2300
   2304
   2308
   2312
   2316
   2320
   2324
   2328
   2332
   2336
   2340
   2344
   2348
   2352
   2356
   2360
   2364
   2368
   2372
   2376
   2380
   2384
   2388
   2392
   2396
   2400
        </DataArray>
      </Polys>
    </Piece>
  </PolyData>
</VTKFile>
