<?xml version="1.0"?>
<VTKFile type="PolyData" version="0.1" byte_order="LittleEndian">
  <PolyData>
    <Piece NumberOfPoints="    245" NumberOfVerts="  0" NumberOfLines="     48"
           NumberOfStrips="  0" NumberOfPolys="    336">
      <Points>
        <DataArray type="Float32" NumberOfComponents="3" format="ascii">
                      -5.34274                      -1.95524                      90.44853
                      -6.08602                      -0.73672                      88.44455
                      -4.91823                      -0.64036                      88.07001
                      -4.17495                      -1.85888                      90.07399
                      -4.75885                      -1.90706                      90.26126
                      -5.35921                      -2.12829                      90.34993
                      -6.10408                      -0.90985                      88.34650
                      -4.93656                      -0.81318                      87.97120
                      -4.19168                      -2.03162                      89.97464
                      -4.77544                      -2.07996                      90.16229
                      -5.44281                      -2.99390                      89.85658
                      -6.19411                      -1.77573                      87.85538
                      -5.02767                      -1.67792                      87.47701
                      -4.27637                      -2.89610                      89.47821
                      -4.85959                      -2.94500                      89.66739
                      -5.52835                      -3.85928                      89.36314
                      -6.28362                      -2.64117                      87.36340
                      -5.11789                      -2.54286                      86.98300
                      -4.36262                      -3.76097                      88.98275
                      -4.94549                      -3.81012                      89.17294
                      -5.61572                      -4.72443                      88.86965
                      -6.37273                      -3.50621                      86.87064
                      -5.20734                      -3.40799                      86.48917
                      -4.45033                      -4.62621                      88.48818
                      -5.03302                      -4.67532                      88.67892
                      -5.70478                      -5.58939                      88.37612
                      -6.46152                      -4.37088                      86.37717
                      -5.29614                      -4.27327                      85.99550
                      -4.53941                      -5.49178                      87.99444
                      -5.12209                      -5.54058                      88.18528
                      -5.79544                      -6.45416                      87.88255
                      -6.55006                      -5.23521                      85.88307
                      -5.38440                      -5.13870                      85.50198
                      -4.62978                      -6.35764                      87.50146
                      -5.21261                      -6.40590                      87.69200
                      -5.88758                      -7.31875                      87.38895
                      -6.63843                      -6.09924                      85.38839
                      -5.47222                      -6.00426                      85.00860
                      -4.72137                      -7.22377                      87.00915
                      -5.30448                      -7.27126                      87.19905
                      -5.98110                      -8.18319                      86.89533
                      -6.72670                      -6.96301                      84.89322
                      -5.55971                      -6.86993                      84.51535
                      -4.81412                      -8.09012                      86.51746
                      -5.39761                      -8.13666                      86.70639
                      -6.07604                      -9.04855                      86.40108
                      -6.81504                      -7.82759                      84.39700
                      -5.64707                      -7.73678                      84.02164
                      -4.90807                      -8.95774                      86.02572
                      -5.49206                      -9.00315                      86.21340
                      -6.17195                      -9.91164                      85.90804
                      -6.90319                      -8.68984                      83.90162
                      -5.73406                      -8.60160                      83.52927
                      -5.00282                      -9.82340                      85.53568
                      -5.58738                      -9.86752                      85.72186
                      -6.26909                     -10.77567                      85.41437
                      -6.99152                      -9.55297                      83.40532
                      -5.82108                      -9.46757                      83.03642
                      -5.09865                     -10.69027                      85.04547
                      -5.68387                     -10.73297                      85.22992
                      -6.36728                     -11.63957                      84.92069
                      -7.07997                     -10.41593                      82.90874
                      -5.90811                     -10.33362                      82.54369
                      -5.19542                     -11.55726                      84.55565
                      -5.78135                     -11.59842                      84.73817
                      -6.46645                     -12.50337                      84.42701
                      -7.16860                     -11.27876                      82.41194
                      -5.99521                     -11.19975                      82.05109
                      -5.29306                     -12.42435                      84.06616
                      -5.87975                     -12.46386                      84.24659
                      -6.56664                     -13.36812                      83.93271
                      -7.25756                     -12.14254                      81.91435
                      -6.08257                     -12.06700                      81.55800
                      -5.39165                     -13.29258                      83.57636
                      -5.97915                     -13.33035                      83.75454
                      -6.66744                     -14.23065                      83.43963
                      -7.34656                     -13.00410                      81.41785
                      -6.16991                     -12.93218                      81.06624
                      -5.49079                     -14.15873                      83.08802
                      -6.07911                     -14.19469                      83.26382
                      -6.76915                     -15.09415                      82.94593
                      -7.43596                     -13.86665                      80.92064
                      -6.25762                     -13.79848                      80.57400
                      -5.59081                     -15.02598                      82.59929
                      -6.17998                     -15.06006                      82.77261
                      -6.87160                     -15.95757                      82.45223
                      -7.52570                     -14.72913                      80.42337
                      -6.34564                     -14.66482                      80.08186
                      -5.69154                     -15.89325                      82.11073
                      -6.28157                     -15.92541                      82.28148
                      -7.07866                     -17.68524                      81.46425
                      -7.70641                     -16.45503                      79.42815
                      -6.52290                     -16.39866                      79.09733
                      -5.89516                     -17.62887                      81.13343
                      -6.48691                     -17.65706                      81.29884
                      -7.28798                     -19.41107                      80.47723
                      -7.88864                     -18.17926                      78.43393
                      -6.70176                     -18.13101                      78.11411
                      -6.10110                     -19.36282                      80.15741
                      -6.69454                     -19.38694                      80.31732
                      -7.49955                     -21.13720                      79.48997
                      -8.07282                     -19.90400                      77.43966
                      -6.88269                     -19.86395                      77.13098
                      -6.30942                     -21.09716                      79.18129
                      -6.90449                     -21.11718                      79.33563
                      -7.71310                     -22.86316                      78.50281
                      -8.25905                     -21.62878                      76.44576
                      -7.06584                     -21.59691                      76.14821
                      -6.51990                     -22.83129                      78.20526
                      -7.11650                     -22.84723                      78.35403
                      -7.92847                     -24.58899                      77.51579
                      -8.44745                     -23.35365                      75.45234
                      -7.25137                     -23.32984                      75.16577
                      -6.73239                     -24.56518                      77.22921
                      -7.33043                     -24.57708                      77.37250
                      -8.14562                     -26.31523                      76.52862
                      -8.63819                     -25.07915                      74.45915
                      -7.43946                     -25.06326                      74.18332
                      -6.94689                     -26.29934                      76.25279
                      -7.54625                     -26.30728                      76.39070
                      -8.36427                     -28.04032                      75.54224
                      -8.83116                     -26.80371                      73.46715
                      -7.62999                     -26.79555                      73.20176
                      -7.16310                     -28.03216                      75.27685
                      -7.76369                     -28.03624                      75.40955
                      -8.58457                     -29.76587                      74.55577
                      -9.02657                     -28.52892                      72.47543
                      -7.82319                     -28.52827                      72.22014
                      -7.38119                     -29.76522                      74.30048
                      -7.98288                     -29.76554                      74.42812
                      -8.80645                     -31.49137                      73.56952
                      -9.22442                     -30.25426                      71.48432
                      -8.01903                     -30.26089                      71.23877
                      -7.60106                     -31.49800                      73.32397
                      -8.20376                     -31.49468                      73.44674
                      -9.02990                     -33.21682                      72.58350
                      -9.42469                     -31.97971                      70.49379
                      -8.21749                     -31.99339                      70.25762
                      -7.82270                     -33.23051                      72.34733
                      -8.42630                     -33.22366                      72.46541
                      -9.25500                     -34.94277                      71.59743
                      -9.62748                     -33.70579                      69.50354
                      -8.41864                     -33.72631                      69.27638
                      -8.04616                     -34.96328                      71.37027
                      -8.65058                     -34.95302                      71.48385
                      -9.48155                     -36.66762                      70.61221
                      -9.83257                     -35.43091                      68.51446
                      -8.62227                     -35.45803                      68.29596
                      -8.27126                     -36.69474                      70.39371
                      -8.87640                     -36.68118                      70.50296
                      -9.70980                     -38.39297                      69.62695
                     -10.04015                     -37.15665                      67.52563
                      -8.82854                     -37.19016                      67.31543
                      -8.49819                     -38.42648                      69.41676
                      -9.10399                     -38.40973                      69.52185
                      -9.93967                     -40.11830                      68.64196
                     -10.25017                     -38.88246                      66.53732
                      -9.03739                     -38.92215                      66.33510
                      -8.72690                     -40.15799                      68.43973
                      -9.33329                     -40.13814                      68.54085
                     -10.17118                     -41.84361                      67.65724
                     -10.46262                     -40.60833                      65.54955
                      -9.24880                     -40.65400                      65.35495
                      -8.95737                     -41.88927                      67.46264
                      -9.56428                     -41.86644                      67.55994
                     -10.40446                     -43.56997                      66.67221
                     -10.67766                     -42.33534                      64.56170
                      -9.46293                     -42.38676                      64.37437
                      -9.18973                     -43.62139                      66.48488
                      -9.79709                     -43.59568                      66.57854
                     -10.63902                     -45.29423                      65.68869
                     -10.89494                     -44.06029                      63.57561
                      -9.67942                     -44.11722                      63.39515
                      -9.42350                     -45.35116                      65.50823
                     -10.03126                     -45.32269                      65.59846
                     -10.87525                     -47.01958                      64.70490
                     -11.11492                     -45.78637                      62.58949
                      -9.89872                     -45.84854                      62.41546
                      -9.65905                     -47.08175                      64.53087
                     -10.26715                     -47.05067                      64.61788
                     -11.11290                     -48.74501                      63.72149
                     -11.33757                     -47.51254                      61.60400
                     -10.12080                     -47.57963                      61.43585
                      -9.89613                     -48.81210                      63.55334
                     -10.50452                     -48.77855                      63.63741
                     -11.23222                     -49.60776                      63.22993
                     -11.44993                     -48.37566                      61.11151
                     -10.23292                     -48.44508                      60.94606
                     -10.01521                     -49.67718                      63.06449
                     -10.62371                     -49.64247                      63.14721
                     -11.35184                     -50.47056                      62.73849
                     -11.56301                     -49.23882                      60.61920
                     -10.34579                     -49.31044                      60.45628
                     -10.13462                     -50.54218                      62.57558
                     -10.74323                     -50.50637                      62.65703
                     -11.47174                     -51.33339                      62.24718
                     -11.67684                     -50.10200                      60.12708
                     -10.45944                     -50.17573                      59.96649
                     -10.25433                     -51.40712                      62.08658
                     -10.86304                     -51.37026                      62.16688
                     -11.53178                     -51.76483                      62.00157
                     -11.73404                     -50.53361                      59.88110
                     -10.51656                     -50.60833                      59.72158
                     -10.31430                     -51.83956                      61.84205
                     -10.92304                     -51.80219                      61.92181
                     -11.59204                     -52.19735                      61.75539
                     -11.79158                     -50.96629                      59.63457
                     -10.57402                     -51.04198                      59.47607
                     -10.37448                     -52.27304                      61.59689
                     -10.98326                     -52.23519                      61.67614
                     -11.65205                     -52.62776                      61.51045
                     -11.84904                     -51.39685                      59.38930
                     -10.63141                     -51.47347                      59.23176
                     -10.43442                     -52.70437                      61.35291
                     -11.04323                     -52.66606                      61.43168
                     -11.71226                     -53.05924                      61.26495
                     -11.90684                     -51.82849                      59.14349
                     -10.68915                     -51.90600                      58.98684
                     -10.49457                     -53.13675                      61.10830
                     -11.10342                     -53.09800                      61.18662
                     -11.77252                     -53.49075                      61.01948
                     -11.96485                     -52.26014                      58.89774
                     -10.74711                     -52.33850                      58.74191
                     -10.55478                     -53.56910                      60.86366
                     -11.16365                     -53.52993                      60.94157
                     -11.83282                     -53.92228                      60.77406
                     -12.02307                     -52.69180                      58.65205
                     -10.80529                     -52.77096                      58.49696
                     -10.61504                     -54.00144                      60.61898
                     -11.22393                     -53.96186                      60.69652
                     -11.89316                     -54.35382                      60.52868
                     -12.08150                     -53.12348                      58.40642
                     -10.86369                     -53.20340                      58.25201
                     -10.67534                     -54.43375                      60.37426
                     -11.28425                     -54.39379                      60.45147
                     -11.95353                     -54.78540                      60.28334
                     -12.14016                     -53.55517                      58.16086
                     -10.92232                     -53.63580                      58.00704
                     -10.73569                     -54.86603                      60.12951
                     -11.34461                     -54.82571                      60.20643
                     -11.98978                     -55.04446                      60.13610
                     -12.17548                     -53.81430                      58.01350
                     -10.95763                     -53.89533                      57.85999
                     -10.77193                     -55.12550                      59.98258
                     -11.38085                     -55.08498                      60.05934
        </DataArray>
      </Points>
      <Polys>
        <DataArray type="Int32" Name="connectivity" format="ascii">
      0      1      6      5
      1      2      7      6
      2      3      8      7
      3      4      9      8
      4      0      5      9
      4      3      2      1      0
      5      6      7      8      9
      5      6     11     10
      6      7     12     11
      7      8     13     12
      8      9     14     13
      9      5     10     14
      9      8      7      6      5
     10     11     12     13     14
     10     11     16     15
     11     12     17     16
     12     13     18     17
     13     14     19     18
     14     10     15     19
     14     13     12     11     10
     15     16     17     18     19
     15     16     21     20
     16     17     22     21
     17     18     23     22
     18     19     24     23
     19     15     20     24
     19     18     17     16     15
     20     21     22     23     24
     20     21     26     25
     21     22     27     26
     22     23     28     27
     23     24     29     28
     24     20     25     29
     24     23     22     21     20
     25     26     27     28     29
     25     26     31     30
     26     27     32     31
     27     28     33     32
     28     29     34     33
     29     25     30     34
     29     28     27     26     25
     30     31     32     33     34
     30     31     36     35
     31     32     37     36
     32     33     38     37
     33     34     39     38
     34     30     35     39
     34     33     32     31     30
     35     36     37     38     39
     35     36     41     40
     36     37     42     41
     37     38     43     42
     38     39     44     43
     39     35     40     44
     39     38     37     36     35
     40     41     42     43     44
     40     41     46     45
     41     42     47     46
     42     43     48     47
     43     44     49     48
     44     40     45     49
     44     43     42     41     40
     45     46     47     48     49
     45     46     51     50
     46     47     52     51
     47     48     53     52
     48     49     54     53
     49     45     50     54
     49     48     47     46     45
     50     51     52     53     54
     50     51     56     55
     51     52     57     56
     52     53     58     57
     53     54     59     58
     54     50     55     59
     54     53     52     51     50
     55     56     57     58     59
     55     56     61     60
     56     57     62     61
     57     58     63     62
     58     59     64     63
     59     55     60     64
     59     58     57     56     55
     60     61     62     63     64
     60     61     66     65
     61     62     67     66
     62     63     68     67
     63     64     69     68
     64     60     65     69
     64     63     62     61     60
     65     66     67     68     69
     65     66     71     70
     66     67     72     71
     67     68     73     72
     68     69     74     73
     69     65     70     74
     69     68     67     66     65
     70     71     72     73     74
     70     71     76     75
     71     72     77     76
     72     73     78     77
     73     74     79     78
     74     70     75     79
     74     73     72     71     70
     75     76     77     78     79
     75     76     81     80
     76     77     82     81
     77     78     83     82
     78     79     84     83
     79     75     80     84
     79     78     77     76     75
     80     81     82     83     84
     80     81     86     85
     81     82     87     86
     82     83     88     87
     83     84     89     88
     84     80     85     89
     84     83     82     81     80
     85     86     87     88     89
     85     86     91     90
     86     87     92     91
     87     88     93     92
     88     89     94     93
     89     85     90     94
     89     88     87     86     85
     90     91     92     93     94
     90     91     96     95
     91     92     97     96
     92     93     98     97
     93     94     99     98
     94     90     95     99
     94     93     92     91     90
     95     96     97     98     99
     95     96    101    100
     96     97    102    101
     97     98    103    102
     98     99    104    103
     99     95    100    104
     99     98     97     96     95
    100    101    102    103    104
    100    101    106    105
    101    102    107    106
    102    103    108    107
    103    104    109    108
    104    100    105    109
    104    103    102    101    100
    105    106    107    108    109
    105    106    111    110
    106    107    112    111
    107    108    113    112
    108    109    114    113
    109    105    110    114
    109    108    107    106    105
    110    111    112    113    114
    110    111    116    115
    111    112    117    116
    112    113    118    117
    113    114    119    118
    114    110    115    119
    114    113    112    111    110
    115    116    117    118    119
    115    116    121    120
    116    117    122    121
    117    118    123    122
    118    119    124    123
    119    115    120    124
    119    118    117    116    115
    120    121    122    123    124
    120    121    126    125
    121    122    127    126
    122    123    128    127
    123    124    129    128
    124    120    125    129
    124    123    122    121    120
    125    126    127    128    129
    125    126    131    130
    126    127    132    131
    127    128    133    132
    128    129    134    133
    129    125    130    134
    129    128    127    126    125
    130    131    132    133    134
    130    131    136    135
    131    132    137    136
    132    133    138    137
    133    134    139    138
    134    130    135    139
    134    133    132    131    130
    135    136    137    138    139
    135    136    141    140
    136    137    142    141
    137    138    143    142
    138    139    144    143
    139    135    140    144
    139    138    137    136    135
    140    141    142    143    144
    140    141    146    145
    141    142    147    146
    142    143    148    147
    143    144    149    148
    144    140    145    149
    144    143    142    141    140
    145    146    147    148    149
    145    146    151    150
    146    147    152    151
    147    148    153    152
    148    149    154    153
    149    145    150    154
    149    148    147    146    145
    150    151    152    153    154
    150    151    156    155
    151    152    157    156
    152    153    158    157
    153    154    159    158
    154    150    155    159
    154    153    152    151    150
    155    156    157    158    159
    155    156    161    160
    156    157    162    161
    157    158    163    162
    158    159    164    163
    159    155    160    164
    159    158    157    156    155
    160    161    162    163    164
    160    161    166    165
    161    162    167    166
    162    163    168    167
    163    164    169    168
    164    160    165    169
    164    163    162    161    160
    165    166    167    168    169
    165    166    171    170
    166    167    172    171
    167    168    173    172
    168    169    174    173
    169    165    170    174
    169    168    167    166    165
    170    171    172    173    174
    170    171    176    175
    171    172    177    176
    172    173    178    177
    173    174    179    178
    174    170    175    179
    174    173    172    171    170
    175    176    177    178    179
    175    176    181    180
    176    177    182    181
    177    178    183    182
    178    179    184    183
    179    175    180    184
    179    178    177    176    175
    180    181    182    183    184
    180    181    186    185
    181    182    187    186
    182    183    188    187
    183    184    189    188
    184    180    185    189
    184    183    182    181    180
    185    186    187    188    189
    185    186    191    190
    186    187    192    191
    187    188    193    192
    188    189    194    193
    189    185    190    194
    189    188    187    186    185
    190    191    192    193    194
    190    191    196    195
    191    192    197    196
    192    193    198    197
    193    194    199    198
    194    190    195    199
    194    193    192    191    190
    195    196    197    198    199
    195    196    201    200
    196    197    202    201
    197    198    203    202
    198    199    204    203
    199    195    200    204
    199    198    197    196    195
    200    201    202    203    204
    200    201    206    205
    201    202    207    206
    202    203    208    207
    203    204    209    208
    204    200    205    209
    204    203    202    201    200
    205    206    207    208    209
    205    206    211    210
    206    207    212    211
    207    208    213    212
    208    209    214    213
    209    205    210    214
    209    208    207    206    205
    210    211    212    213    214
    210    211    216    215
    211    212    217    216
    212    213    218    217
    213    214    219    218
    214    210    215    219
    214    213    212    211    210
    215    216    217    218    219
    215    216    221    220
    216    217    222    221
    217    218    223    222
    218    219    224    223
    219    215    220    224
    219    218    217    216    215
    220    221    222    223    224
    220    221    226    225
    221    222    227    226
    222    223    228    227
    223    224    229    228
    224    220    225    229
    224    223    222    221    220
    225    226    227    228    229
    225    226    231    230
    226    227    232    231
    227    228    233    232
    228    229    234    233
    229    225    230    234
    229    228    227    226    225
    230    231    232    233    234
    230    231    236    235
    231    232    237    236
    232    233    238    237
    233    234    239    238
    234    230    235    239
    234    233    232    231    230
    235    236    237    238    239
    235    236    241    240
    236    237    242    241
    237    238    243    242
    238    239    244    243
    239    235    240    244
    239    238    237    236    235
    240    241    242    243    244
        </DataArray>
        <DataArray type="Int32" Name="offsets" format="ascii">
      4
      8
     12
     16
     20
     25
     30
     34
     38
     42
     46
     50
     55
     60
     64
     68
     72
     76
     80
     85
     90
     94
     98
    102
    106
    110
    115
    120
    124
    128
    132
    136
    140
    145
    150
    154
    158
    162
    166
    170
    175
    180
    184
    188
    192
    196
    200
    205
    210
    214
    218
    222
    226
    230
    235
    240
    244
    248
    252
    256
    260
    265
    270
    274
    278
    282
    286
    290
    295
    300
    304
    308
    312
    316
    320
    325
    330
    334
    338
    342
    346
    350
    355
    360
    364
    368
    372
    376
    380
    385
    390
    394
    398
    402
    406
    410
    415
    420
    424
    428
    432
    436
    440
    445
    450
    454
    458
    462
    466
    470
    475
    480
    484
    488
    492
    496
    500
    505
    510
    514
    518
    522
    526
    530
    535
    540
    544
    548
    552
    556
    560
    565
    570
    574
    578
    582
    586
    590
    595
    600
    604
    608
    612
    616
    620
    625
    630
    634
    638
    642
    646
    650
    655
    660
    664
    668
    672
    676
    680
    685
    690
    694
    698
    702
    706
    710
    715
    720
    724
    728
    732
    736
    740
    745
    750
    754
    758
    762
    766
    770
    775
    780
    784
    788
    792
    796
    800
    805
    810
    814
    818
    822
    826
    830
    835
    840
    844
    848
    852
    856
    860
    865
    870
    874
    878
    882
    886
    890
    895
    900
    904
    908
    912
    916
    920
    925
    930
    934
    938
    942
    946
    950
    955
    960
    964
    968
    972
    976
    980
    985
    990
    994
    998
   1002
   1006
   1010
   1015
   1020
   1024
   1028
   1032
   1036
   1040
   1045
   1050
   1054
   1058
   1062
   1066
   1070
   1075
   1080
   1084
   1088
   1092
   1096
   1100
   1105
   1110
   1114
   1118
   1122
   1126
   1130
   1135
   1140
   1144
   1148
   1152
   1156
   1160
   1165
   1170
   1174
   1178
   1182
   1186
   1190
   1195
   1200
   1204
   1208
   1212
   1216
   1220
   1225
   1230
   1234
   1238
   1242
   1246
   1250
   1255
   1260
   1264
   1268
   1272
   1276
   1280
   1285
   1290
   1294
   1298
   1302
   1306
   1310
   1315
   1320
   1324
   1328
   1332
   1336
   1340
   1345
   1350
   1354
   1358
   1362
   1366
   1370
   1375
   1380
   1384
   1388
   1392
   1396
   1400
   1405
   1410
   1414
   1418
   1422
   1426
   1430
   1435
   1440
        </DataArray>
      </Polys>
    </Piece>
  </PolyData>
</VTKFile>
