<?xml version="1.0"?>
<VTKFile type="PolyData" version="0.1" byte_order="LittleEndian">
  <PolyData>
    <Piece NumberOfPoints="    245" NumberOfVerts="  0" NumberOfLines="     48"
           NumberOfStrips="  0" NumberOfPolys="    336">
      <Points>
        <DataArray type="Float32" NumberOfComponents="3" format="ascii">
                      -5.24967                       1.33871                      91.51233
                      -5.81546                      -1.05555                      91.53703
                      -4.61947                      -1.33871                      91.48482
                      -4.05368                       1.05555                      91.46011
                      -4.65168                       1.19713                      91.48622
                      -5.24005                       1.33893                      91.71195
                      -5.80748                      -1.05494                      91.73666
                      -4.61168                      -1.33893                      91.68457
                      -4.04425                       1.05494                      91.65986
                      -4.64215                       1.19693                      91.68590
                      -5.19311                       1.33979                      92.71068
                      -5.76716                      -1.05250                      92.73537
                      -4.57212                      -1.33979                      92.68395
                      -3.99807                       1.05250                      92.65926
                      -4.59559                       1.19614                      92.68497
                      -5.14809                       1.34032                      93.70950
                      -5.72626                      -1.05098                      93.73405
                      -4.53169                      -1.34032                      93.68328
                      -3.95352                       1.05098                      93.65873
                      -4.55081                       1.19565                      93.68412
                      -5.10489                       1.34056                      94.70839
                      -5.68489                      -1.05030                      94.73272
                      -4.49051                      -1.34056                      94.68259
                      -3.91051                       1.05030                      94.65827
                      -4.50770                       1.19543                      94.68333
                      -5.06338                       1.34052                      95.70736
                      -5.64313                      -1.05040                      95.73137
                      -4.44869                      -1.34052                      95.68187
                      -3.86894                       1.05040                      95.65786
                      -4.46616                       1.19546                      95.68261
                      -5.02345                       1.34025                      96.70639
                      -5.60107                      -1.05120                      96.73001
                      -4.40635                      -1.34025                      96.68113
                      -3.82873                       1.05120                      96.65752
                      -4.42609                       1.19572                      96.68195
                      -4.98500                       1.33975                      97.70548
                      -5.55880                      -1.05262                      97.72864
                      -4.36359                      -1.33975                      97.68038
                      -3.78979                       1.05262                      97.65722
                      -4.38739                       1.19618                      97.68135
                      -4.94793                       1.33905                      98.70463
                      -5.51638                      -1.05460                      98.72728
                      -4.32050                      -1.33905                      98.67962
                      -3.75205                       1.05460                      98.65697
                      -4.34999                       1.19682                      98.68080
                      -4.91209                       1.33816                      99.70505
                      -5.47383                      -1.05708                      99.72714
                      -4.27713                      -1.33816                      99.68009
                      -3.71540                       1.05708                      99.65800
                      -4.31375                       1.19762                      99.68152
                      -4.87755                       1.33710                     100.70306
                      -5.43137                      -1.05998                     100.72455
                      -4.23373                      -1.33710                     100.67810
                      -3.67991                       1.05998                     100.65661
                      -4.27873                       1.19854                     100.67983
                      -4.84408                       1.33588                     101.70234
                      -5.38891                      -1.06327                     101.72320
                      -4.19021                      -1.33588                     101.67734
                      -3.64538                       1.06327                     101.65648
                      -4.24473                       1.19958                     101.67941
                      -4.81165                       1.33452                     102.70166
                      -5.34655                      -1.06687                     102.72186
                      -4.14671                      -1.33452                     102.67659
                      -3.61181                       1.06687                     102.65639
                      -4.21173                       1.20069                     102.67902
                      -4.78019                       1.33301                     103.70101
                      -5.30434                      -1.07075                     103.72053
                      -4.10329                      -1.33301                     103.67586
                      -3.57914                       1.07075                     103.65634
                      -4.17966                       1.20188                     103.67867
                      -4.74960                       1.33138                     104.70162
                      -5.26228                      -1.07486                     104.72045
                      -4.05997                      -1.33138                     104.67637
                      -3.54728                       1.07486                     104.65754
                      -4.14844                       1.20312                     104.67958
                      -4.71992                       1.32963                     105.69981
                      -5.22057                      -1.07915                     105.71793
                      -4.01697                      -1.32963                     105.67443
                      -3.51632                       1.07915                     105.65631
                      -4.11812                       1.20439                     105.67806
                      -4.69100                       1.32778                     106.69925
                      -5.17910                      -1.08358                     106.71665
                      -3.97418                      -1.32778                     106.67375
                      -3.48609                       1.08358                     106.65634
                      -4.08855                       1.20568                     106.67779
                      -4.66282                       1.32583                     107.69871
                      -5.13795                      -1.08812                     107.71540
                      -3.93172                      -1.32583                     107.67309
                      -3.45659                       1.08812                     107.65639
                      -4.05970                       1.20698                     107.67755
                      -4.60845                       1.32168                     109.69892
                      -5.05672                      -1.09741                     109.71419
                      -3.84787                      -1.32168                     109.67307
                      -3.39960                       1.09741                     109.65780
                      -4.00403                       1.20955                     109.67836
                      -4.55658                       1.31725                     111.69737
                      -4.97725                      -1.10680                     111.71125
                      -3.76589                      -1.31725                     111.67132
                      -3.34521                       1.10680                     111.65744
                      -3.95089                       1.21203                     111.67741
                      -4.50687                       1.31262                     113.69650
                      -4.89966                      -1.11612                     113.70903
                      -3.68591                      -1.31262                     113.67030
                      -3.29312                       1.11612                     113.65777
                      -3.90000                       1.21437                     113.67713
                      -4.45915                       1.30783                     115.69568
                      -4.82414                      -1.12525                     115.70692
                      -3.60818                      -1.30783                     115.66941
                      -3.24319                       1.12525                     115.65817
                      -3.85117                       1.21654                     115.67692
                      -4.41326                       1.30295                     117.69491
                      -4.75083                      -1.13409                     117.70494
                      -3.53285                      -1.30295                     117.66866
                      -3.19528                       1.13409                     117.65862
                      -3.80427                       1.21852                     117.67677
                      -4.36907                       1.29802                     119.69480
                      -4.67981                      -1.14259                     119.70370
                      -3.46000                      -1.29802                     119.66866
                      -3.14927                       1.14259                     119.65976
                      -3.75917                       1.22030                     119.67728
                      -4.32656                       1.29309                     121.69352
                      -4.61121                      -1.15070                     121.70136
                      -3.38978                      -1.29309                     121.66756
                      -3.10513                       1.15070                     121.65971
                      -3.71584                       1.22190                     121.67662
                      -4.28563                       1.28817                     123.69289
                      -4.54503                      -1.15843                     123.69977
                      -3.32216                      -1.28817                     123.66722
                      -3.06276                       1.15843                     123.66034
                      -3.67420                       1.22330                     123.67662
                      -4.24630                       1.28331                     125.69231
                      -4.48131                      -1.16576                     125.69830
                      -3.25717                      -1.28331                     125.66701
                      -3.02216                       1.16576                     125.66103
                      -3.63423                       1.22453                     125.67667
                      -4.20855                       1.27850                     127.69179
                      -4.42007                      -1.17271                     127.69695
                      -3.19483                      -1.27850                     127.66694
                      -2.98331                       1.17271                     127.66177
                      -3.59593                       1.22561                     127.67678
                      -4.17238                       1.27377                     129.69193
                      -4.36129                      -1.17929                     129.69635
                      -3.13510                      -1.27377                     129.66761
                      -2.94619                       1.17929                     129.66319
                      -3.55929                       1.22653                     129.67756
                      -4.13786                       1.26912                     131.69090
                      -4.30502                      -1.18552                     131.69464
                      -3.07801                      -1.26912                     131.66718
                      -2.91085                       1.18552                     131.66344
                      -3.52435                       1.22732                     131.67717
                      -4.10496                       1.26455                     133.69054
                      -4.25120                      -1.19142                     133.69367
                      -3.02349                      -1.26455                     133.66749
                      -2.87725                       1.19142                     133.66436
                      -3.49111                       1.22799                     133.67745
                      -4.07371                       1.26008                     135.69024
                      -4.19984                      -1.19700                     135.69282
                      -2.97155                      -1.26008                     135.66793
                      -2.84542                       1.19700                     135.66535
                      -3.45956                       1.22854                     135.67780
                      -4.04411                       1.25572                     137.69001
                      -4.15096                      -1.20228                     137.69209
                      -2.92219                      -1.25572                     137.66849
                      -2.81534                       1.20228                     137.66641
                      -3.42972                       1.22900                     137.67821
                      -4.01613                       1.25148                     139.69107
                      -4.10455                      -1.20726                     139.69270
                      -2.87538                      -1.25148                     139.67039
                      -2.78697                       1.20726                     139.66876
                      -3.40155                       1.22937                     139.67992
                      -3.98979                       1.24739                     141.68974
                      -4.06073                      -1.21191                     141.69097
                      -2.83126                      -1.24739                     141.66996
                      -2.76032                       1.21191                     141.66872
                      -3.37506                       1.22965                     141.67923
                      -3.96498                       1.24349                     143.68970
                      -4.01949                      -1.21623                     143.69059
                      -2.78979                      -1.24349                     143.67087
                      -2.73527                       1.21623                     143.66998
                      -3.35012                       1.22986                     143.67984
                      -3.94161                       1.23985                     145.68973
                      -3.98097                      -1.22016                     145.69032
                      -2.75110                      -1.23985                     145.67190
                      -2.71174                       1.22016                     145.67131
                      -3.32668                       1.23001                     145.68052
                      -3.93043                       1.23814                     146.68977
                      -3.96276                      -1.22197                     146.69024
                      -2.73283                      -1.23814                     146.67246
                      -2.70050                       1.22197                     146.67200
                      -3.31547                       1.23006                     146.68089
                      -3.91956                       1.23653                     147.68983
                      -3.94529                      -1.22366                     147.69018
                      -2.71531                      -1.23653                     147.67305
                      -2.68958                       1.22366                     147.67270
                      -3.30457                       1.23010                     147.68127
                      -3.90898                       1.23502                     148.68990
                      -3.92858                      -1.22522                     148.69015
                      -2.69856                      -1.23502                     148.67367
                      -2.67897                       1.22522                     148.67342
                      -3.29397                       1.23012                     148.68166
                      -3.90379                       1.23432                     149.18994
                      -3.92051                      -1.22595                     149.19014
                      -2.69049                      -1.23432                     149.17399
                      -2.67376                       1.22595                     149.17379
                      -3.28877                       1.23013                     149.18187
                      -3.89865                       1.23364                     149.69122
                      -3.91263                      -1.22665                     149.69138
                      -2.68259                      -1.23364                     149.67555
                      -2.66861                       1.22665                     149.67539
                      -3.28363                       1.23014                     149.68330
                      -3.89359                       1.23300                     150.19004
                      -3.90499                      -1.22730                     150.19016
                      -2.67494                      -1.23300                     150.17466
                      -2.66354                       1.22730                     150.17453
                      -3.27856                       1.23015                     150.18229
                      -3.88857                       1.23240                     150.69009
                      -3.89754                      -1.22791                     150.69018
                      -2.66748                      -1.23240                     150.67500
                      -2.65851                       1.22791                     150.67491
                      -3.27354                       1.23015                     150.68250
                      -3.88361                       1.23183                     151.19015
                      -3.89030                      -1.22848                     151.19021
                      -2.66023                      -1.23183                     151.17536
                      -2.65354                       1.22848                     151.17529
                      -3.26857                       1.23016                     151.18272
                      -3.87869                       1.23131                     151.69021
                      -3.88328                      -1.22901                     151.69025
                      -2.65320                      -1.23131                     151.67572
                      -2.64861                       1.22901                     151.67568
                      -3.26365                       1.23016                     151.68294
                      -3.87381                       1.23083                     152.19027
                      -3.87648                      -1.22949                     152.19029
                      -2.64640                      -1.23083                     152.17609
                      -2.64373                       1.22949                     152.17607
                      -3.25877                       1.23016                     152.18317
                      -3.86896                       1.23040                     152.69034
                      -3.86991                      -1.22993                     152.69034
                      -2.63982                      -1.23040                     152.67646
                      -2.63888                       1.22993                     152.67646
                      -3.25392                       1.23016                     152.68340
                      -3.86607                       1.23016                     152.99050
                      -3.86607                      -1.23016                     152.99050
                      -2.63598                      -1.23016                     152.97682
                      -2.63598                       1.23016                     152.97682
                      -3.25103                       1.23016                     152.98366
        </DataArray>
      </Points>
      <Polys>
        <DataArray type="Int32" Name="connectivity" format="ascii">
      0      1      6      5
      1      2      7      6
      2      3      8      7
      3      4      9      8
      4      0      5      9
      4      3      2      1      0
      5      6      7      8      9
      5      6     11     10
      6      7     12     11
      7      8     13     12
      8      9     14     13
      9      5     10     14
      9      8      7      6      5
     10     11     12     13     14
     10     11     16     15
     11     12     17     16
     12     13     18     17
     13     14     19     18
     14     10     15     19
     14     13     12     11     10
     15     16     17     18     19
     15     16     21     20
     16     17     22     21
     17     18     23     22
     18     19     24     23
     19     15     20     24
     19     18     17     16     15
     20     21     22     23     24
     20     21     26     25
     21     22     27     26
     22     23     28     27
     23     24     29     28
     24     20     25     29
     24     23     22     21     20
     25     26     27     28     29
     25     26     31     30
     26     27     32     31
     27     28     33     32
     28     29     34     33
     29     25     30     34
     29     28     27     26     25
     30     31     32     33     34
     30     31     36     35
     31     32     37     36
     32     33     38     37
     33     34     39     38
     34     30     35     39
     34     33     32     31     30
     35     36     37     38     39
     35     36     41     40
     36     37     42     41
     37     38     43     42
     38     39     44     43
     39     35     40     44
     39     38     37     36     35
     40     41     42     43     44
     40     41     46     45
     41     42     47     46
     42     43     48     47
     43     44     49     48
     44     40     45     49
     44     43     42     41     40
     45     46     47     48     49
     45     46     51     50
     46     47     52     51
     47     48     53     52
     48     49     54     53
     49     45     50     54
     49     48     47     46     45
     50     51     52     53     54
     50     51     56     55
     51     52     57     56
     52     53     58     57
     53     54     59     58
     54     50     55     59
     54     53     52     51     50
     55     56     57     58     59
     55     56     61     60
     56     57     62     61
     57     58     63     62
     58     59     64     63
     59     55     60     64
     59     58     57     56     55
     60     61     62     63     64
     60     61     66     65
     61     62     67     66
     62     63     68     67
     63     64     69     68
     64     60     65     69
     64     63     62     61     60
     65     66     67     68     69
     65     66     71     70
     66     67     72     71
     67     68     73     72
     68     69     74     73
     69     65     70     74
     69     68     67     66     65
     70     71     72     73     74
     70     71     76     75
     71     72     77     76
     72     73     78     77
     73     74     79     78
     74     70     75     79
     74     73     72     71     70
     75     76     77     78     79
     75     76     81     80
     76     77     82     81
     77     78     83     82
     78     79     84     83
     79     75     80     84
     79     78     77     76     75
     80     81     82     83     84
     80     81     86     85
     81     82     87     86
     82     83     88     87
     83     84     89     88
     84     80     85     89
     84     83     82     81     80
     85     86     87     88     89
     85     86     91     90
     86     87     92     91
     87     88     93     92
     88     89     94     93
     89     85     90     94
     89     88     87     86     85
     90     91     92     93     94
     90     91     96     95
     91     92     97     96
     92     93     98     97
     93     94     99     98
     94     90     95     99
     94     93     92     91     90
     95     96     97     98     99
     95     96    101    100
     96     97    102    101
     97     98    103    102
     98     99    104    103
     99     95    100    104
     99     98     97     96     95
    100    101    102    103    104
    100    101    106    105
    101    102    107    106
    102    103    108    107
    103    104    109    108
    104    100    105    109
    104    103    102    101    100
    105    106    107    108    109
    105    106    111    110
    106    107    112    111
    107    108    113    112
    108    109    114    113
    109    105    110    114
    109    108    107    106    105
    110    111    112    113    114
    110    111    116    115
    111    112    117    116
    112    113    118    117
    113    114    119    118
    114    110    115    119
    114    113    112    111    110
    115    116    117    118    119
    115    116    121    120
    116    117    122    121
    117    118    123    122
    118    119    124    123
    119    115    120    124
    119    118    117    116    115
    120    121    122    123    124
    120    121    126    125
    121    122    127    126
    122    123    128    127
    123    124    129    128
    124    120    125    129
    124    123    122    121    120
    125    126    127    128    129
    125    126    131    130
    126    127    132    131
    127    128    133    132
    128    129    134    133
    129    125    130    134
    129    128    127    126    125
    130    131    132    133    134
    130    131    136    135
    131    132    137    136
    132    133    138    137
    133    134    139    138
    134    130    135    139
    134    133    132    131    130
    135    136    137    138    139
    135    136    141    140
    136    137    142    141
    137    138    143    142
    138    139    144    143
    139    135    140    144
    139    138    137    136    135
    140    141    142    143    144
    140    141    146    145
    141    142    147    146
    142    143    148    147
    143    144    149    148
    144    140    145    149
    144    143    142    141    140
    145    146    147    148    149
    145    146    151    150
    146    147    152    151
    147    148    153    152
    148    149    154    153
    149    145    150    154
    149    148    147    146    145
    150    151    152    153    154
    150    151    156    155
    151    152    157    156
    152    153    158    157
    153    154    159    158
    154    150    155    159
    154    153    152    151    150
    155    156    157    158    159
    155    156    161    160
    156    157    162    161
    157    158    163    162
    158    159    164    163
    159    155    160    164
    159    158    157    156    155
    160    161    162    163    164
    160    161    166    165
    161    162    167    166
    162    163    168    167
    163    164    169    168
    164    160    165    169
    164    163    162    161    160
    165    166    167    168    169
    165    166    171    170
    166    167    172    171
    167    168    173    172
    168    169    174    173
    169    165    170    174
    169    168    167    166    165
    170    171    172    173    174
    170    171    176    175
    171    172    177    176
    172    173    178    177
    173    174    179    178
    174    170    175    179
    174    173    172    171    170
    175    176    177    178    179
    175    176    181    180
    176    177    182    181
    177    178    183    182
    178    179    184    183
    179    175    180    184
    179    178    177    176    175
    180    181    182    183    184
    180    181    186    185
    181    182    187    186
    182    183    188    187
    183    184    189    188
    184    180    185    189
    184    183    182    181    180
    185    186    187    188    189
    185    186    191    190
    186    187    192    191
    187    188    193    192
    188    189    194    193
    189    185    190    194
    189    188    187    186    185
    190    191    192    193    194
    190    191    196    195
    191    192    197    196
    192    193    198    197
    193    194    199    198
    194    190    195    199
    194    193    192    191    190
    195    196    197    198    199
    195    196    201    200
    196    197    202    201
    197    198    203    202
    198    199    204    203
    199    195    200    204
    199    198    197    196    195
    200    201    202    203    204
    200    201    206    205
    201    202    207    206
    202    203    208    207
    203    204    209    208
    204    200    205    209
    204    203    202    201    200
    205    206    207    208    209
    205    206    211    210
    206    207    212    211
    207    208    213    212
    208    209    214    213
    209    205    210    214
    209    208    207    206    205
    210    211    212    213    214
    210    211    216    215
    211    212    217    216
    212    213    218    217
    213    214    219    218
    214    210    215    219
    214    213    212    211    210
    215    216    217    218    219
    215    216    221    220
    216    217    222    221
    217    218    223    222
    218    219    224    223
    219    215    220    224
    219    218    217    216    215
    220    221    222    223    224
    220    221    226    225
    221    222    227    226
    222    223    228    227
    223    224    229    228
    224    220    225    229
    224    223    222    221    220
    225    226    227    228    229
    225    226    231    230
    226    227    232    231
    227    228    233    232
    228    229    234    233
    229    225    230    234
    229    228    227    226    225
    230    231    232    233    234
    230    231    236    235
    231    232    237    236
    232    233    238    237
    233    234    239    238
    234    230    235    239
    234    233    232    231    230
    235    236    237    238    239
    235    236    241    240
    236    237    242    241
    237    238    243    242
    238    239    244    243
    239    235    240    244
    239    238    237    236    235
    240    241    242    243    244
        </DataArray>
        <DataArray type="Int32" Name="offsets" format="ascii">
      4
      8
     12
     16
     20
     25
     30
     34
     38
     42
     46
     50
     55
     60
     64
     68
     72
     76
     80
     85
     90
     94
     98
    102
    106
    110
    115
    120
    124
    128
    132
    136
    140
    145
    150
    154
    158
    162
    166
    170
    175
    180
    184
    188
    192
    196
    200
    205
    210
    214
    218
    222
    226
    230
    235
    240
    244
    248
    252
    256
    260
    265
    270
    274
    278
    282
    286
    290
    295
    300
    304
    308
    312
    316
    320
    325
    330
    334
    338
    342
    346
    350
    355
    360
    364
    368
    372
    376
    380
    385
    390
    394
    398
    402
    406
    410
    415
    420
    424
    428
    432
    436
    440
    445
    450
    454
    458
    462
    466
    470
    475
    480
    484
    488
    492
    496
    500
    505
    510
    514
    518
    522
    526
    530
    535
    540
    544
    548
    552
    556
    560
    565
    570
    574
    578
    582
    586
    590
    595
    600
    604
    608
    612
    616
    620
    625
    630
    634
    638
    642
    646
    650
    655
    660
    664
    668
    672
    676
    680
    685
    690
    694
    698
    702
    706
    710
    715
    720
    724
    728
    732
    736
    740
    745
    750
    754
    758
    762
    766
    770
    775
    780
    784
    788
    792
    796
    800
    805
    810
    814
    818
    822
    826
    830
    835
    840
    844
    848
    852
    856
    860
    865
    870
    874
    878
    882
    886
    890
    895
    900
    904
    908
    912
    916
    920
    925
    930
    934
    938
    942
    946
    950
    955
    960
    964
    968
    972
    976
    980
    985
    990
    994
    998
   1002
   1006
   1010
   1015
   1020
   1024
   1028
   1032
   1036
   1040
   1045
   1050
   1054
   1058
   1062
   1066
   1070
   1075
   1080
   1084
   1088
   1092
   1096
   1100
   1105
   1110
   1114
   1118
   1122
   1126
   1130
   1135
   1140
   1144
   1148
   1152
   1156
   1160
   1165
   1170
   1174
   1178
   1182
   1186
   1190
   1195
   1200
   1204
   1208
   1212
   1216
   1220
   1225
   1230
   1234
   1238
   1242
   1246
   1250
   1255
   1260
   1264
   1268
   1272
   1276
   1280
   1285
   1290
   1294
   1298
   1302
   1306
   1310
   1315
   1320
   1324
   1328
   1332
   1336
   1340
   1345
   1350
   1354
   1358
   1362
   1366
   1370
   1375
   1380
   1384
   1388
   1392
   1396
   1400
   1405
   1410
   1414
   1418
   1422
   1426
   1430
   1435
   1440
        </DataArray>
      </Polys>
    </Piece>
  </PolyData>
</VTKFile>
