ply
format ascii 1.0
element vertex 300
property float x
property float y
property float z
element face 596
property list uchar int vertex_indices
end_header
0.243212759 -1.02822101 0
1.20626509 -0.509497225 0
1.780931 0.4212569 0
1.8132292 1.51464665 0
1.29450548 2.4776988 0
0.363751471 3.05236483 0
-0.729638457 3.08466315 0
-1.69269085 2.56593871 0
-2.26735663 1.63518488 0
-2.29965472 0.541795492 0
-1.78093123 -0.421256721 0
-0.850176334 -0.995922983 0
0.098277837 -1.79703009 2.5625
1.05615997 -1.28109109 2.5625
1.62774074 -0.355333835 2.5625
1.6598655 0.73218596 2.5625
1.14392662 1.69006801 2.5625
0.218169436 2.26164889 2.5625
-0.869350493 2.29377365 2.5625
-1.82723272 1.77783418 2.5625
-2.39881349 0.852077007 2.5625
-2.43093824 -0.2354424 2.5625
-1.91499925 -1.19332433 2.5625
-0.989241302 -1.76490545 2.5625
-0.00414431095 -2.24795246 5.125
0.999930203 -1.70713305 5.125
1.5990746 -0.736732483 5.125
1.6327486 0.403231263 5.125
1.0919292 1.4073056 5.125
0.121528924 2.00645018 5.125
-1.018435 2.04012394 5.125
-2.02250957 1.49930418 5.125
-2.6216538 0.52890408 5.125
-2.6553278 -0.611059427 5.125
-2.11450863 -1.61513376 5.125
-1.14410734 -2.2142787 5.125
-0.0751170218 -2.42331886 7.6875
0.813182473 -1.89368677 7.6875
1.32031691 -0.900796413 7.6875
1.31039989 0.289307952 7.6875
0.786088824 1.35773861 7.6875
-0.112127632 2.01821089 7.6875
-1.1435734 2.09375143 7.6875
-2.03187299 1.56411898 7.6875
-2.53900719 0.571228743 7.6875
-2.52909017 -0.618875265 7.6875
-2.0047791 -1.68730593 7.6875
-1.10656202 -2.34777856 7.6875
-0.115105987 -2.41026354 10.25
0.28625989 -1.97796321 10.25
0.428938866 -1.02252376 10.25
0.274700284 0.200045824 10.25
-0.135127783 1.36215854 10.25
-0.690732121 2.15242791 10.25
-1.24323928 2.3591013 10.25
-1.64460516 1.92680049 10.25
-1.78728414 0.971361637 10.25
-1.63304567 -0.25120765 10.25
-1.22321761 -1.41332042 10.25
-0.667612731 -2.20359039 10.25
-0.162971199 -2.24024248 12.8125
0.223823547 -1.81940651 12.8125
0.36794436 -0.866402209 12.8125
0.230774164 0.363413811 12.8125
-0.150932312 1.54051316 12.8125
-0.674897134 2.34949303 12.8125
-1.2007246 2.57358837 12.8125
-1.58751941 2.15275192 12.8125
-1.7316401 1.19974792 12.8125
-1.59447002 -0.0300678015 12.8125
-1.21276355 -1.20716703 12.8125
-0.688798249 -2.01614761 12.8125
-0.182066098 -2.03461218 15.375
0.182826012 -1.62993765 15.375
0.323503822 -0.693439364 15.375
0.202272922 0.523948789 15.375
-0.148383081 1.69602847 15.375
-0.634505987 2.50874209 15.375
-1.12583995 2.74432373 15.375
-1.49073207 2.33964872 15.375
-1.63140976 1.40315104 15.375
-1.51017892 0.185763121 15.375
-1.15952301 -0.986316562 15.375
-0.673399687 -1.79903078 15.375
-0.173585907 -1.85280764 17.9375
0.159050316 -1.47221494 17.9375
0.28908667 -0.575339437 17.9375
0.181680053 0.597501516 17.9375
-0.134390056 1.73204613 17.9375
-0.57443285 2.52429461 17.9375
-1.0205394 2.76196384 17.9375
-1.35317564 2.38137054 17.9375
-1.48321187 1.4844954 17.9375
-1.37580526 0.311654687 17.9375
-1.0597353 -0.822889864 17.9375
-0.619692087 -1.61513865 17.9375
-0.142981529 -1.72780776 20.5
0.158253163 -1.37052751 20.5
0.277795702 -0.5137555 20.5
0.183614641 0.612936795 20.5
-0.0990541279 1.70765305 20.5
-0.494469821 2.47706509 20.5
-0.89668119 2.71500945 20.5
-1.19791591 2.35772896 20.5
-1.31745839 1.50095725 20.5
-1.22327745 0.374265134 20.5
-0.940608621 -0.720450997 20.5
-0.545192599 -1.48986363 20.5
-0.0987273455 -1.64442468 23.0625
0.173386812 -1.30964589 23.0625
0.283629775 -0.493679315 23.0625
0.202462018 0.584837854 23.0625
-0.0483676195 1.63691759 23.0625
-0.401649535 2.38065624 23.0625
-0.762722194 2.61676908 23.0625
-1.03483629 2.28199005 23.0625
-1.14507926 1.46602368 23.0625
-1.06391144 0.387506783 23.0625
-0.813081861 -0.664572775 23.0625
-0.459799737 -1.40831184 23.0625
-0.0497101396 -1.58435464 25.625
0.198751092 -1.27190173 25.625
0.303445011 -0.499828756 25.625
0.236319035 0.524987876 25.625
0.0153594613 1.52794933 25.625
-0.300227731 2.24031329 25.625
-0.625881314 2.47120166 25.625
-0.874342561 2.15874839 25.625
-0.97903645 1.3866756 25.625
-0.911910415 0.361859322 25.625
-0.69095093 -0.641102016 25.625
-0.375363469 -1.35346627 25.625
-0.00326792151 -1.5399549 28.1875
0.222845182 -1.248492 28.1875
0.322086632 -0.518760741 28.1875
0.267864883 0.453707933 28.1875
0.0747084618 1.40834165 28.1875
-0.205626383 2.0893476 28.1875
-0.498024344 2.31424999 28.1875
-0.724137425 2.02278686 28.1875
-0.823378861 1.29305577 28.1875
-0.769157112 0.320587397 28.1875
-0.57600075 -0.634046257 28.1875
-0.295665652 -1.31505251 28.1875
0.0321489871 -1.49717283 30.75
0.237338006 -1.22524858 30.75
0.331300408 -0.535866082 30.75
0.288859069 0.386255383 30.75
0.121386021 1.29403377 30.75
-0.126244321 1.94423103 30.75
-0.387679815 2.16262674 30.75
-0.592868865 1.89070225 30.75
-0.686831176 1.20131993 30.75
-0.644389868 0.279198885 30.75
-0.476916879 -0.628579497 30.75
-0.229286283 -1.27877712 30.75
0.0508762598 -1.44564581 33.3125
0.236596704 -1.19146156 33.3125
0.325178742 -0.539616227 33.3125
0.292886853 0.335228622 33.3125
0.148373634 1.19865894 33.3125
-0.0696386918 1.81931973 33.3125
-0.302734017 2.03090501 33.3125
-0.488454461 1.77672005 33.3125
-0.5770365 1.12487507 33.3125
-0.544744611 0.250030577 33.3125
-0.400231421 -0.613399744 33.3125
-0.182218879 -1.23406076 33.3125
0.0549240708 -1.38649654 35.875
0.222567648 -1.14870036 35.875
0.306034088 -0.532268226 35.875
0.282958597 0.297627211 35.875
0.159524292 1.11861598 35.875
-0.0311947539 1.71071506 35.875
-0.238095582 1.915272 35.875
-0.405739188 1.67747545 35.875
-0.489205569 1.06104338 35.875
-0.466130108 0.231148243 35.875
-0.342695802 -0.589840472 35.875
-0.151976615 -1.18194008 35.875
0.0492205434 -1.32466221 38.4375
0.200082853 -1.1020261 38.4375
0.278683096 -0.519060433 38.4375
0.263960302 0.268029869 38.4375
0.159859508 1.04834437 38.4375
-0.00572558865 1.61279845 38.4375
-0.188426629 1.81014729 38.4375
-0.33928892 1.58751082 38.4375
-0.417889118 1.00454545 38.4375
-0.403166354 0.217455447 38.4375
-0.29906556 -0.562858939 38.4375
-0.13348037 -1.12731361 38.4375
0.0402835906 -1.26497817 41
0.181465119 -1.05569208 41
0.258900821 -0.503959835 41
0.251841873 0.242382526 41
0.162179708 0.983353019 41
0.0139392633 1.52040923 41
-0.15315865 1.70964754 41
-0.294340193 1.50036132 41
-0.371775866 0.948629379 41
-0.364716917 0.202287138 41
-0.275054753 -0.538683295 41
-0.126814187 -1.0757401 41
0.031691514 -1.21250725 43.5625
0.165114343 -1.0156517 43.5625
0.242074713 -0.493590832 43.5625
0.241951168 0.213789701 43.5625
0.164776802 0.916947842 43.5625
0.0312304292 1.42747295 43.5625
-0.122904353 1.60857034 43.5625
-0.256327182 1.41171443 43.5625
-0.333287507 0.889653563 43.5625
-0.333163977 0.182273209 43.5625
-0.255989611 -0.520884812 43.5625
-0.122443147 -1.03141022 43.5625
0.0279960558 -1.17220843 46.125
0.153995916 -0.987137377 46.125
0.230265439 -0.493460268 46.125
0.236368224 0.176542521 46.125
0.170669079 0.843344152 46.125
0.0507720113 1.32827592 46.125
-0.091196686 1.50140071 46.125
-0.217196569 1.31632924 46.125
-0.293466061 0.8226524 46.125
-0.299568832 0.152649701 46.125
-0.233869717 -0.514151931 46.125
-0.113972537 -0.999083996 46.125
0.0320765227 -1.14644456 48.6875
0.150768742 -0.972506762 48.6875
0.225691155 -0.506099761 48.6875
0.23676841 0.127803087 48.6875
0.181032315 0.759347856 48.6875
0.0734173656 1.21931291 48.6875
-0.057241179 1.38445091 48.6875
-0.175933406 1.21051288 48.6875
-0.250855774 0.744106114 48.6875
-0.261933029 0.110203326 48.6875
-0.206196964 -0.521341443 48.6875
-0.098581925 -0.981306791 48.6875
0.0352623127 -1.12750947 51.25
0.146688685 -0.964344025 51.25
0.219735652 -0.524726927 51.25
0.23483035 0.0735468268 51.25
0.187928155 0.670170188 51.25
0.0915964991 1.10527873 51.25
-0.0283527002 1.26228487 51.25
-0.139779106 1.09911931 51.25
-0.212826043 0.659502268 51.25
-0.227920726 0.0612286329 51.25
-0.181018546 -0.535394728 51.25
-0.0846868008 -0.97050333 51.25
0.0261136442 -1.10530877 53.8125
0.130282 -0.952854753 53.8125
0.201133713 -0.540180027 53.8125
0.219684154 0.0221397281 53.8125
0.180962697 0.583431244 53.8125
0.0953447968 0.993297219 53.8125
-0.0142283943 1.14191401 53.8125
-0.118396774 0.989459753 53.8125
-0.189248472 0.576785207 53.8125
-0.207798898 0.0144655704 53.8125
-0.169077456 -0.546825945 53.8125
-0.0834594667 -0.95669204 53.8125
-0.00596557558 -1.02787614 56.375
0.0828807056 -0.897428751 56.375
0.145089686 -0.543013632 56.375
0.163992539 -0.0595960617 56.375
0.134524226 0.423292577 56.375
0.0645808056 0.77626276 56.375
-0.0270965099 0.90473628 56.375
-0.115942806 0.774288654 56.375
-0.178151771 0.419873655 56.375
-0.19705461 -0.0635437369 56.375
-0.167586312 -0.546432316 56.375
-0.0976428166 -0.899402738 56.375
-0.0716621578 -0.906814575 58.9375
-0.00200901181 -0.80401361 58.9375
0.0480091721 -0.523821115 58.9375
0.0649900958 -0.141314447 58.9375
0.0443837047 0.241013944 58.9375
-0.00828850269 0.520719767 58.9375
-0.0789131075 0.622855663 58.9375
-0.148566261 0.520054579 58.9375
-0.198584437 0.239862144 58.9375
-0.215565354 -0.142644405 58.9375
-0.194958955 -0.524972796 58.9375
-0.142286718 -0.804678679 58.9375
-0.181655735 -0.661331534 61.5
-0.14779225 -0.610922098 61.5
-0.123002447 -0.473201036 61.5
-0.11392875 -0.285070479 61.5
-0.123002447 -0.0969400108 61.5
-0.147792235 0.0407810807 61.5
-0.181655735 0.0911905169 61.5
-0.215519235 0.0407810211 61.5
-0.24030903 -0.0969400704 61.5
-0.249382719 -0.285070539 61.5
-0.24030903 -0.473201007 61.5
-0.21551922 -0.610922217 61.5
3 0 1 12
3 1 13 12
3 1 2 13
3 2 14 13
3 2 3 14
3 3 15 14
3 3 4 15
3 4 16 15
3 4 5 16
3 5 17 16
3 5 6 17
3 6 18 17
3 6 7 18
3 7 19 18
3 7 8 19
3 8 20 19
3 8 9 20
3 9 21 20
3 9 10 21
3 10 22 21
3 10 11 22
3 11 23 22
3 11 0 23
3 0 12 23
3 12 13 24
3 13 25 24
3 13 14 25
3 14 26 25
3 14 15 26
3 15 27 26
3 15 16 27
3 16 28 27
3 16 17 28
3 17 29 28
3 17 18 29
3 18 30 29
3 18 19 30
3 19 31 30
3 19 20 31
3 20 32 31
3 20 21 32
3 21 33 32
3 21 22 33
3 22 34 33
3 22 23 34
3 23 35 34
3 23 12 35
3 12 24 35
3 24 25 36
3 25 37 36
3 25 26 37
3 26 38 37
3 26 27 38
3 27 39 38
3 27 28 39
3 28 40 39
3 28 29 40
3 29 41 40
3 29 30 41
3 30 42 41
3 30 31 42
3 31 43 42
3 31 32 43
3 32 44 43
3 32 33 44
3 33 45 44
3 33 34 45
3 34 46 45
3 34 35 46
3 35 47 46
3 35 24 47
3 24 36 47
3 36 37 48
3 37 49 48
3 37 38 49
3 38 50 49
3 38 39 50
3 39 51 50
3 39 40 51
3 40 52 51
3 40 41 52
3 41 53 52
3 41 42 53
3 42 54 53
3 42 43 54
3 43 55 54
3 43 44 55
3 44 56 55
3 44 45 56
3 45 57 56
3 45 46 57
3 46 58 57
3 46 47 58
3 47 59 58
3 47 36 59
3 36 48 59
3 48 49 60
3 49 61 60
3 49 50 61
3 50 62 61
3 50 51 62
3 51 63 62
3 51 52 63
3 52 64 63
3 52 53 64
3 53 65 64
3 53 54 65
3 54 66 65
3 54 55 66
3 55 67 66
3 55 56 67
3 56 68 67
3 56 57 68
3 57 69 68
3 57 58 69
3 58 70 69
3 58 59 70
3 59 71 70
3 59 48 71
3 48 60 71
3 60 61 72
3 61 73 72
3 61 62 73
3 62 74 73
3 62 63 74
3 63 75 74
3 63 64 75
3 64 76 75
3 64 65 76
3 65 77 76
3 65 66 77
3 66 78 77
3 66 67 78
3 67 79 78
3 67 68 79
3 68 80 79
3 68 69 80
3 69 81 80
3 69 70 81
3 70 82 81
3 70 71 82
3 71 83 82
3 71 60 83
3 60 72 83
3 72 73 84
3 73 85 84
3 73 74 85
3 74 86 85
3 74 75 86
3 75 87 86
3 75 76 87
3 76 88 87
3 76 77 88
3 77 89 88
3 77 78 89
3 78 90 89
3 78 79 90
3 79 91 90
3 79 80 91
3 80 92 91
3 80 81 92
3 81 93 92
3 81 82 93
3 82 94 93
3 82 83 94
3 83 95 94
3 83 72 95
3 72 84 95
3 84 85 96
3 85 97 96
3 85 86 97
3 86 98 97
3 86 87 98
3 87 99 98
3 87 88 99
3 88 100 99
3 88 89 100
3 89 101 100
3 89 90 101
3 90 102 101
3 90 91 102
3 91 103 102
3 91 92 103
3 92 104 103
3 92 93 104
3 93 105 104
3 93 94 105
3 94 106 105
3 94 95 106
3 95 107 106
3 95 84 107
3 84 96 107
3 96 97 108
3 97 109 108
3 97 98 109
3 98 110 109
3 98 99 110
3 99 111 110
3 99 100 111
3 100 112 111
3 100 101 112
3 101 113 112
3 101 102 113
3 102 114 113
3 102 103 114
3 103 115 114
3 103 104 115
3 104 116 115
3 104 105 116
3 105 117 116
3 105 106 117
3 106 118 117
3 106 107 118
3 107 119 118
3 107 96 119
3 96 108 119
3 108 109 120
3 109 121 120
3 109 110 121
3 110 122 121
3 110 111 122
3 111 123 122
3 111 112 123
3 112 124 123
3 112 113 124
3 113 125 124
3 113 114 125
3 114 126 125
3 114 115 126
3 115 127 126
3 115 116 127
3 116 128 127
3 116 117 128
3 117 129 128
3 117 118 129
3 118 130 129
3 118 119 130
3 119 131 130
3 119 108 131
3 108 120 131
3 120 121 132
3 121 133 132
3 121 122 133
3 122 134 133
3 122 123 134
3 123 135 134
3 123 124 135
3 124 136 135
3 124 125 136
3 125 137 136
3 125 126 137
3 126 138 137
3 126 127 138
3 127 139 138
3 127 128 139
3 128 140 139
3 128 129 140
3 129 141 140
3 129 130 141
3 130 142 141
3 130 131 142
3 131 143 142
3 131 120 143
3 120 132 143
3 132 133 144
3 133 145 144
3 133 134 145
3 134 146 145
3 134 135 146
3 135 147 146
3 135 136 147
3 136 148 147
3 136 137 148
3 137 149 148
3 137 138 149
3 138 150 149
3 138 139 150
3 139 151 150
3 139 140 151
3 140 152 151
3 140 141 152
3 141 153 152
3 141 142 153
3 142 154 153
3 142 143 154
3 143 155 154
3 143 132 155
3 132 144 155
3 144 145 156
3 145 157 156
3 145 146 157
3 146 158 157
3 146 147 158
3 147 159 158
3 147 148 159
3 148 160 159
3 148 149 160
3 149 161 160
3 149 150 161
3 150 162 161
3 150 151 162
3 151 163 162
3 151 152 163
3 152 164 163
3 152 153 164
3 153 165 164
3 153 154 165
3 154 166 165
3 154 155 166
3 155 167 166
3 155 144 167
3 144 156 167
3 156 157 168
3 157 169 168
3 157 158 169
3 158 170 169
3 158 159 170
3 159 171 170
3 159 160 171
3 160 172 171
3 160 161 172
3 161 173 172
3 161 162 173
3 162 174 173
3 162 163 174
3 163 175 174
3 163 164 175
3 164 176 175
3 164 165 176
3 165 177 176
3 165 166 177
3 166 178 177
3 166 167 178
3 167 179 178
3 167 156 179
3 156 168 179
3 168 169 180
3 169 181 180
3 169 170 181
3 170 182 181
3 170 171 182
3 171 183 182
3 171 172 183
3 172 184 183
3 172 173 184
3 173 185 184
3 173 174 185
3 174 186 185
3 174 175 186
3 175 187 186
3 175 176 187
3 176 188 187
3 176 177 188
3 177 189 188
3 177 178 189
3 178 190 189
3 178 179 190
3 179 191 190
3 179 168 191
3 168 180 191
3 180 181 192
3 181 193 192
3 181 182 193
3 182 194 193
3 182 183 194
3 183 195 194
3 183 184 195
3 184 196 195
3 184 185 196
3 185 197 196
3 185 186 197
3 186 198 197
3 186 187 198
3 187 199 198
3 187 188 199
3 188 200 199
3 188 189 200
3 189 201 200
3 189 190 201
3 190 202 201
3 190 191 202
3 191 203 202
3 191 180 203
3 180 192 203
3 192 193 204
3 193 205 204
3 193 194 205
3 194 206 205
3 194 195 206
3 195 207 206
3 195 196 207
3 196 208 207
3 196 197 208
3 197 209 208
3 197 198 209
3 198 210 209
3 198 199 210
3 199 211 210
3 199 200 211
3 200 212 211
3 200 201 212
3 201 213 212
3 201 202 213
3 202 214 213
3 202 203 214
3 203 215 214
3 203 192 215
3 192 204 215
3 204 205 216
3 205 217 216
3 205 206 217
3 206 218 217
3 206 207 218
3 207 219 218
3 207 208 219
3 208 220 219
3 208 209 220
3 209 221 220
3 209 210 221
3 210 222 221
3 210 211 222
3 211 223 222
3 211 212 223
3 212 224 223
3 212 213 224
3 213 225 224
3 213 214 225
3 214 226 225
3 214 215 226
3 215 227 226
3 215 204 227
3 204 216 227
3 216 217 228
3 217 229 228
3 217 218 229
3 218 230 229
3 218 219 230
3 219 231 230
3 219 220 231
3 220 232 231
3 220 221 232
3 221 233 232
3 221 222 233
3 222 234 233
3 222 223 234
3 223 235 234
3 223 224 235
3 224 236 235
3 224 225 236
3 225 237 236
3 225 226 237
3 226 238 237
3 226 227 238
3 227 239 238
3 227 216 239
3 216 228 239
3 228 229 240
3 229 241 240
3 229 230 241
3 230 242 241
3 230 231 242
3 231 243 242
3 231 232 243
3 232 244 243
3 232 233 244
3 233 245 244
3 233 234 245
3 234 246 245
3 234 235 246
3 235 247 246
3 235 236 247
3 236 248 247
3 236 237 248
3 237 249 248
3 237 238 249
3 238 250 249
3 238 239 250
3 239 251 250
3 239 228 251
3 228 240 251
3 240 241 252
3 241 253 252
3 241 242 253
3 242 254 253
3 242 243 254
3 243 255 254
3 243 244 255
3 244 256 255
3 244 245 256
3 245 257 256
3 245 246 257
3 246 258 257
3 246 247 258
3 247 259 258
3 247 248 259
3 248 260 259
3 248 249 260
3 249 261 260
3 249 250 261
3 250 262 261
3 250 251 262
3 251 263 262
3 251 240 263
3 240 252 263
3 252 253 264
3 253 265 264
3 253 254 265
3 254 266 265
3 254 255 266
3 255 267 266
3 255 256 267
3 256 268 267
3 256 257 268
3 257 269 268
3 257 258 269
3 258 270 269
3 258 259 270
3 259 271 270
3 259 260 271
3 260 272 271
3 260 261 272
3 261 273 272
3 261 262 273
3 262 274 273
3 262 263 274
3 263 275 274
3 263 252 275
3 252 264 275
3 264 265 276
3 265 277 276
3 265 266 277
3 266 278 277
3 266 267 278
3 267 279 278
3 267 268 279
3 268 280 279
3 268 269 280
3 269 281 280
3 269 270 281
3 270 282 281
3 270 271 282
3 271 283 282
3 271 272 283
3 272 284 283
3 272 273 284
3 273 285 284
3 273 274 285
3 274 286 285
3 274 275 286
3 275 287 286
3 275 264 287
3 264 276 287
3 276 277 288
3 277 289 288
3 277 278 289
3 278 290 289
3 278 279 290
3 279 291 290
3 279 280 291
3 280 292 291
3 280 281 292
3 281 293 292
3 281 282 293
3 282 294 293
3 282 283 294
3 283 295 294
3 283 284 295
3 284 296 295
3 284 285 296
3 285 297 296
3 285 286 297
3 286 298 297
3 286 287 298
3 287 299 298
3 287 276 299
3 276 288 299
3 0 2 1
3 288 289 290
3 0 3 2
3 288 290 291
3 0 4 3
3 288 291 292
3 0 5 4
3 288 292 293
3 0 6 5
3 288 293 294
3 0 7 6
3 288 294 295
3 0 8 7
3 288 295 296
3 0 9 8
3 288 296 297
3 0 10 9
3 288 297 298
3 0 11 10
3 288 298 299
