<?xml version="1.0"?>
<VTKFile type="PolyData" version="0.1" byte_order="LittleEndian">
  <PolyData>
    <Piece NumberOfPoints="    245" NumberOfVerts="  0" NumberOfLines="     48"
           NumberOfStrips="  0" NumberOfPolys="    336">
      <Points>
        <DataArray type="Float32" NumberOfComponents="3" format="ascii">
                      -5.24963                       1.33853                      91.51233
                      -5.81535                      -1.05541                      91.53703
                      -4.61952                      -1.33853                      91.48482
                      -4.05380                       1.05541                      91.46012
                      -4.65171                       1.19697                      91.48622
                      -5.23999                       1.33875                      91.71197
                      -5.80735                      -1.05480                      91.73675
                      -4.61171                      -1.33875                      91.68454
                      -4.04436                       1.05480                      91.65977
                      -4.64217                       1.19678                      91.68587
                      -5.19268                       1.33961                      92.71085
                      -5.76664                      -1.05236                      92.73591
                      -4.57179                      -1.33961                      92.68374
                      -3.99783                       1.05236                      92.65868
                      -4.59525                       1.19599                      92.68477
                      -5.14676                       1.34015                      93.70979
                      -5.72482                      -1.05084                      93.73503
                      -4.53047                      -1.34015                      93.68288
                      -3.95241                       1.05084                      93.65764
                      -4.54958                       1.19549                      93.68372
                      -5.10212                       1.34038                      94.70878
                      -5.68200                      -1.05016                      94.73410
                      -4.48787                      -1.34038                      94.68196
                      -3.90799                       1.05016                      94.65665
                      -4.50506                       1.19527                      94.68271
                      -5.05865                       1.34035                      95.70783
                      -5.63827                      -1.05026                      95.73313
                      -4.44410                      -1.34035                      95.68100
                      -3.86449                       1.05026                      95.65569
                      -4.46157                       1.19530                      95.68176
                      -5.01623                       1.34007                      96.70692
                      -5.59371                      -1.05106                      96.73213
                      -4.39928                      -1.34007                      96.67998
                      -3.82181                       1.05106                      96.65477
                      -4.41902                       1.19556                      96.68084
                      -4.97476                       1.33957                      97.70605
                      -5.54840                      -1.05248                      97.73110
                      -4.35352                      -1.33957                      97.67893
                      -3.77988                       1.05248                      97.65388
                      -4.37732                       1.19603                      97.67997
                      -4.93414                       1.33887                      98.70522
                      -5.50243                      -1.05446                      98.73003
                      -4.30690                      -1.33887                      98.67783
                      -3.73861                       1.05446                      98.65302
                      -4.33638                       1.19667                      98.67912
                      -4.89423                       1.33798                      99.70565
                      -5.45579                      -1.05694                      99.73017
                      -4.25947                      -1.33798                      99.67794
                      -3.69791                       1.05694                      99.65342
                      -4.29607                       1.19746                      99.67953
                      -4.85509                       1.33693                     100.70365
                      -5.40872                      -1.05984                     100.72783
                      -4.21148                      -1.33693                     100.67555
                      -3.65784                       1.05984                     100.65138
                      -4.25646                       1.19838                     100.67752
                      -4.81648                       1.33571                     101.70291
                      -5.36112                      -1.06313                     101.72669
                      -4.16285                      -1.33571                     101.67437
                      -3.61821                       1.06313                     101.65059
                      -4.21734                       1.19942                     101.67675
                      -4.77839                       1.33434                     102.70219
                      -5.31309                      -1.06673                     102.72554
                      -4.11370                      -1.33434                     102.67317
                      -3.57900                       1.06673                     102.64982
                      -4.17869                       1.20054                     102.67601
                      -4.74074                       1.33283                     103.70149
                      -5.26469                      -1.07061                     103.72437
                      -4.06411                      -1.33283                     103.67195
                      -3.54016                       1.07061                     103.64907
                      -4.14045                       1.20172                     103.67528
                      -4.70342                       1.33120                     104.70203
                      -5.21590                      -1.07472                     104.72441
                      -4.01408                      -1.33120                     104.67194
                      -3.50161                       1.07472                     104.64956
                      -4.10252                       1.20296                     104.67580
                      -4.66651                       1.32946                     105.70013
                      -5.16695                      -1.07900                     105.72198
                      -3.96386                      -1.32946                     105.66946
                      -3.46343                       1.07900                     105.64761
                      -4.06497                       1.20423                     105.67387
                      -4.62982                       1.32761                     106.69947
                      -5.11770                      -1.08343                     106.72078
                      -3.91332                      -1.32761                     106.66819
                      -3.42544                       1.08343                     106.64689
                      -4.02763                       1.20552                     106.67318
                      -4.59333                       1.32566                     107.69882
                      -5.06824                      -1.08798                     107.71956
                      -3.86257                      -1.32566                     107.66692
                      -3.38766                       1.08798                     107.64618
                      -3.99049                       1.20682                     107.67250
                      -4.52075                       1.32151                     109.69877
                      -4.96880                      -1.09727                     109.71833
                      -3.76056                      -1.32151                     109.66558
                      -3.31252                       1.09727                     109.64602
                      -3.91664                       1.20939                     109.67239
                      -4.44858                       1.31708                     111.69689
                      -4.86903                      -1.10665                     111.71525
                      -3.65832                      -1.31708                     111.66239
                      -3.23787                       1.10665                     111.64403
                      -3.84322                       1.21187                     111.67046
                      -4.37645                       1.31244                     113.69563
                      -4.76902                      -1.11597                     113.71277
                      -3.55597                      -1.31244                     113.65980
                      -3.16340                       1.11597                     113.64266
                      -3.76993                       1.21421                     113.66914
                      -4.30420                       1.30766                     115.69436
                      -4.66897                      -1.12510                     115.71028
                      -3.45375                      -1.30766                     115.65723
                      -3.08898                       1.12510                     115.64130
                      -3.69659                       1.21638                     115.66783
                      -4.23165                       1.30278                     117.69307
                      -4.56901                      -1.13394                     117.70780
                      -3.35181                      -1.30278                     117.65466
                      -3.01446                       1.13394                     117.63993
                      -3.62306                       1.21836                     117.66650
                      -4.15870                       1.29785                     119.69239
                      -4.46922                      -1.14244                     119.70595
                      -3.25024                      -1.29785                     119.65273
                      -2.93972                       1.14244                     119.63917
                      -3.54921                       1.22014                     119.66578
                      -4.08532                       1.29291                     121.69046
                      -4.36977                      -1.15055                     121.70288
                      -3.14920                      -1.29291                     121.64958
                      -2.86475                       1.15055                     121.63717
                      -3.47503                       1.22173                     121.66381
                      -4.01141                       1.28800                     123.68911
                      -4.27061                      -1.15828                     123.70043
                      -3.04863                      -1.28800                     123.64708
                      -2.78943                       1.15828                     123.63576
                      -3.40042                       1.22314                     123.66244
                      -3.93697                       1.28314                     125.68775
                      -4.17180                      -1.16561                     125.69800
                      -2.94859                      -1.28314                     125.64460
                      -2.71376                       1.16561                     125.63434
                      -3.32537                       1.22437                     125.66105
                      -3.86201                       1.27833                     127.68636
                      -4.07336                      -1.17255                     127.69559
                      -2.84908                      -1.27833                     127.64214
                      -2.63773                       1.17255                     127.63291
                      -3.24987                       1.22544                     127.65964
                      -3.78650                       1.27360                     129.68557
                      -3.97525                      -1.17913                     129.69381
                      -2.75005                      -1.27360                     129.64031
                      -2.56131                       1.17913                     129.63207
                      -3.17390                       1.22637                     129.65882
                      -3.71055                       1.26895                     131.68352
                      -3.87757                      -1.18536                     131.69081
                      -2.65158                      -1.26895                     131.63728
                      -2.48457                       1.18536                     131.62999
                      -3.09756                       1.22716                     131.65676
                      -3.63410                       1.26439                     133.68207
                      -3.78021                      -1.19126                     133.68845
                      -2.55356                      -1.26439                     133.63489
                      -2.40745                       1.19126                     133.62851
                      -3.02077                       1.22782                     133.65529
                      -3.55719                       1.25992                     135.68060
                      -3.68321                      -1.19685                     135.68610
                      -2.45600                      -1.25992                     135.63252
                      -2.32997                       1.19685                     135.62701
                      -2.94358                       1.22838                     135.65380
                      -3.47981                       1.25555                     137.67910
                      -3.58657                      -1.20212                     137.68376
                      -2.35890                      -1.25555                     137.63016
                      -2.25214                       1.20212                     137.62550
                      -2.86598                       1.22884                     137.65230
                      -3.40191                       1.25131                     139.67882
                      -3.49025                      -1.20710                     139.68267
                      -2.26221                      -1.25131                     139.62906
                      -2.17388                       1.20710                     139.62520
                      -2.78790                       1.22920                     139.65201
                      -3.32360                       1.24722                     141.67605
                      -3.39447                      -1.21175                     141.67915
                      -2.16616                      -1.24722                     141.62552
                      -2.09528                       1.21175                     141.62242
                      -2.70944                       1.22949                     141.64924
                      -3.24467                       1.24333                     143.67449
                      -3.29914                      -1.21607                     143.67687
                      -2.07061                      -1.24333                     143.62323
                      -2.01614                       1.21607                     143.62085
                      -2.63041                       1.22970                     143.64767
                      -3.16508                       1.23968                     145.67290
                      -3.20440                      -1.22000                     145.67462
                      -1.97573                      -1.23968                     145.62097
                      -1.93641                       1.22000                     145.61926
                      -2.55074                       1.22984                     145.64608
                      -3.12500                       1.23798                     146.67209
                      -3.15730                      -1.22181                     146.67350
                      -1.92857                      -1.23798                     146.61986
                      -1.89627                       1.22181                     146.61845
                      -2.51063                       1.22989                     146.64527
                      -3.08469                       1.23636                     147.67128
                      -3.11040                      -1.22350                     147.67240
                      -1.88164                      -1.23636                     147.61875
                      -1.85593                       1.22350                     147.61763
                      -2.47031                       1.22993                     147.64445
                      -3.04415                       1.23486                     148.67045
                      -3.06373                      -1.22506                     148.67131
                      -1.83494                      -1.23486                     148.61765
                      -1.81536                       1.22506                     148.61680
                      -2.42976                       1.22996                     148.64363
                      -3.02378                       1.23415                     149.17003
                      -3.04049                      -1.22579                     149.17076
                      -1.81169                      -1.23415                     149.11711
                      -1.79498                       1.22579                     149.11638
                      -2.40938                       1.22997                     149.14321
                      -3.00329                       1.23348                     149.67084
                      -3.01726                      -1.22648                     149.67145
                      -1.78845                      -1.23348                     149.61780
                      -1.77448                       1.22648                     149.61719
                      -2.38889                       1.22998                     149.64401
                      -2.98283                       1.23284                     150.16919
                      -2.99422                      -1.22714                     150.16968
                      -1.76541                      -1.23284                     150.11603
                      -1.75402                       1.22714                     150.11554
                      -2.36842                       1.22999                     150.14236
                      -2.96224                       1.23223                     150.66876
                      -2.97120                      -1.22775                     150.66915
                      -1.74238                      -1.23223                     150.61550
                      -1.73342                       1.22775                     150.61511
                      -2.34783                       1.22999                     150.64193
                      -2.94157                       1.23167                     151.16833
                      -2.94825                      -1.22832                     151.16862
                      -1.71943                      -1.23167                     151.11497
                      -1.71274                       1.22832                     151.11468
                      -2.32716                       1.23000                     151.14150
                      -2.92081                       1.23115                     151.66789
                      -2.92540                      -1.22885                     151.66809
                      -1.69657                      -1.23115                     151.61444
                      -1.69198                       1.22885                     151.61424
                      -2.30640                       1.23000                     151.64107
                      -2.89996                       1.23067                     152.16745
                      -2.90263                      -1.22933                     152.16757
                      -1.67380                      -1.23067                     152.11392
                      -1.67113                       1.22933                     152.11380
                      -2.28555                       1.23000                     152.14063
                      -2.87901                       1.23024                     152.66701
                      -2.87996                      -1.22976                     152.66705
                      -1.65113                      -1.23024                     152.61340
                      -1.65019                       1.22976                     152.61336
                      -2.26460                       1.23000                     152.64018
                      -2.86639                       1.23000                     152.96687
                      -2.86639                      -1.23000                     152.96687
                      -1.63757                      -1.23000                     152.91321
                      -1.63757                       1.23000                     152.91321
                      -2.25198                       1.23000                     152.94004
        </DataArray>
      </Points>
      <Polys>
        <DataArray type="Int32" Name="connectivity" format="ascii">
      0      1      6      5
      1      2      7      6
      2      3      8      7
      3      4      9      8
      4      0      5      9
      4      3      2      1      0
      5      6      7      8      9
      5      6     11     10
      6      7     12     11
      7      8     13     12
      8      9     14     13
      9      5     10     14
      9      8      7      6      5
     10     11     12     13     14
     10     11     16     15
     11     12     17     16
     12     13     18     17
     13     14     19     18
     14     10     15     19
     14     13     12     11     10
     15     16     17     18     19
     15     16     21     20
     16     17     22     21
     17     18     23     22
     18     19     24     23
     19     15     20     24
     19     18     17     16     15
     20     21     22     23     24
     20     21     26     25
     21     22     27     26
     22     23     28     27
     23     24     29     28
     24     20     25     29
     24     23     22     21     20
     25     26     27     28     29
     25     26     31     30
     26     27     32     31
     27     28     33     32
     28     29     34     33
     29     25     30     34
     29     28     27     26     25
     30     31     32     33     34
     30     31     36     35
     31     32     37     36
     32     33     38     37
     33     34     39     38
     34     30     35     39
     34     33     32     31     30
     35     36     37     38     39
     35     36     41     40
     36     37     42     41
     37     38     43     42
     38     39     44     43
     39     35     40     44
     39     38     37     36     35
     40     41     42     43     44
     40     41     46     45
     41     42     47     46
     42     43     48     47
     43     44     49     48
     44     40     45     49
     44     43     42     41     40
     45     46     47     48     49
     45     46     51     50
     46     47     52     51
     47     48     53     52
     48     49     54     53
     49     45     50     54
     49     48     47     46     45
     50     51     52     53     54
     50     51     56     55
     51     52     57     56
     52     53     58     57
     53     54     59     58
     54     50     55     59
     54     53     52     51     50
     55     56     57     58     59
     55     56     61     60
     56     57     62     61
     57     58     63     62
     58     59     64     63
     59     55     60     64
     59     58     57     56     55
     60     61     62     63     64
     60     61     66     65
     61     62     67     66
     62     63     68     67
     63     64     69     68
     64     60     65     69
     64     63     62     61     60
     65     66     67     68     69
     65     66     71     70
     66     67     72     71
     67     68     73     72
     68     69     74     73
     69     65     70     74
     69     68     67     66     65
     70     71     72     73     74
     70     71     76     75
     71     72     77     76
     72     73     78     77
     73     74     79     78
     74     70     75     79
     74     73     72     71     70
     75     76     77     78     79
     75     76     81     80
     76     77     82     81
     77     78     83     82
     78     79     84     83
     79     75     80     84
     79     78     77     76     75
     80     81     82     83     84
     80     81     86     85
     81     82     87     86
     82     83     88     87
     83     84     89     88
     84     80     85     89
     84     83     82     81     80
     85     86     87     88     89
     85     86     91     90
     86     87     92     91
     87     88     93     92
     88     89     94     93
     89     85     90     94
     89     88     87     86     85
     90     91     92     93     94
     90     91     96     95
     91     92     97     96
     92     93     98     97
     93     94     99     98
     94     90     95     99
     94     93     92     91     90
     95     96     97     98     99
     95     96    101    100
     96     97    102    101
     97     98    103    102
     98     99    104    103
     99     95    100    104
     99     98     97     96     95
    100    101    102    103    104
    100    101    106    105
    101    102    107    106
    102    103    108    107
    103    104    109    108
    104    100    105    109
    104    103    102    101    100
    105    106    107    108    109
    105    106    111    110
    106    107    112    111
    107    108    113    112
    108    109    114    113
    109    105    110    114
    109    108    107    106    105
    110    111    112    113    114
    110    111    116    115
    111    112    117    116
    112    113    118    117
    113    114    119    118
    114    110    115    119
    114    113    112    111    110
    115    116    117    118    119
    115    116    121    120
    116    117    122    121
    117    118    123    122
    118    119    124    123
    119    115    120    124
    119    118    117    116    115
    120    121    122    123    124
    120    121    126    125
    121    122    127    126
    122    123    128    127
    123    124    129    128
    124    120    125    129
    124    123    122    121    120
    125    126    127    128    129
    125    126    131    130
    126    127    132    131
    127    128    133    132
    128    129    134    133
    129    125    130    134
    129    128    127    126    125
    130    131    132    133    134
    130    131    136    135
    131    132    137    136
    132    133    138    137
    133    134    139    138
    134    130    135    139
    134    133    132    131    130
    135    136    137    138    139
    135    136    141    140
    136    137    142    141
    137    138    143    142
    138    139    144    143
    139    135    140    144
    139    138    137    136    135
    140    141    142    143    144
    140    141    146    145
    141    142    147    146
    142    143    148    147
    143    144    149    148
    144    140    145    149
    144    143    142    141    140
    145    146    147    148    149
    145    146    151    150
    146    147    152    151
    147    148    153    152
    148    149    154    153
    149    145    150    154
    149    148    147    146    145
    150    151    152    153    154
    150    151    156    155
    151    152    157    156
    152    153    158    157
    153    154    159    158
    154    150    155    159
    154    153    152    151    150
    155    156    157    158    159
    155    156    161    160
    156    157    162    161
    157    158    163    162
    158    159    164    163
    159    155    160    164
    159    158    157    156    155
    160    161    162    163    164
    160    161    166    165
    161    162    167    166
    162    163    168    167
    163    164    169    168
    164    160    165    169
    164    163    162    161    160
    165    166    167    168    169
    165    166    171    170
    166    167    172    171
    167    168    173    172
    168    169    174    173
    169    165    170    174
    169    168    167    166    165
    170    171    172    173    174
    170    171    176    175
    171    172    177    176
    172    173    178    177
    173    174    179    178
    174    170    175    179
    174    173    172    171    170
    175    176    177    178    179
    175    176    181    180
    176    177    182    181
    177    178    183    182
    178    179    184    183
    179    175    180    184
    179    178    177    176    175
    180    181    182    183    184
    180    181    186    185
    181    182    187    186
    182    183    188    187
    183    184    189    188
    184    180    185    189
    184    183    182    181    180
    185    186    187    188    189
    185    186    191    190
    186    187    192    191
    187    188    193    192
    188    189    194    193
    189    185    190    194
    189    188    187    186    185
    190    191    192    193    194
    190    191    196    195
    191    192    197    196
    192    193    198    197
    193    194    199    198
    194    190    195    199
    194    193    192    191    190
    195    196    197    198    199
    195    196    201    200
    196    197    202    201
    197    198    203    202
    198    199    204    203
    199    195    200    204
    199    198    197    196    195
    200    201    202    203    204
    200    201    206    205
    201    202    207    206
    202    203    208    207
    203    204    209    208
    204    200    205    209
    204    203    202    201    200
    205    206    207    208    209
    205    206    211    210
    206    207    212    211
    207    208    213    212
    208    209    214    213
    209    205    210    214
    209    208    207    206    205
    210    211    212    213    214
    210    211    216    215
    211    212    217    216
    212    213    218    217
    213    214    219    218
    214    210    215    219
    214    213    212    211    210
    215    216    217    218    219
    215    216    221    220
    216    217    222    221
    217    218    223    222
    218    219    224    223
    219    215    220    224
    219    218    217    216    215
    220    221    222    223    224
    220    221    226    225
    221    222    227    226
    222    223    228    227
    223    224    229    228
    224    220    225    229
    224    223    222    221    220
    225    226    227    228    229
    225    226    231    230
    226    227    232    231
    227    228    233    232
    228    229    234    233
    229    225    230    234
    229    228    227    226    225
    230    231    232    233    234
    230    231    236    235
    231    232    237    236
    232    233    238    237
    233    234    239    238
    234    230    235    239
    234    233    232    231    230
    235    236    237    238    239
    235    236    241    240
    236    237    242    241
    237    238    243    242
    238    239    244    243
    239    235    240    244
    239    238    237    236    235
    240    241    242    243    244
        </DataArray>
        <DataArray type="Int32" Name="offsets" format="ascii">
      4
      8
     12
     16
     20
     25
     30
     34
     38
     42
     46
     50
     55
     60
     64
     68
     72
     76
     80
     85
     90
     94
     98
    102
    106
    110
    115
    120
    124
    128
    132
    136
    140
    145
    150
    154
    158
    162
    166
    170
    175
    180
    184
    188
    192
    196
    200
    205
    210
    214
    218
    222
    226
    230
    235
    240
    244
    248
    252
    256
    260
    265
    270
    274
    278
    282
    286
    290
    295
    300
    304
    308
    312
    316
    320
    325
    330
    334
    338
    342
    346
    350
    355
    360
    364
    368
    372
    376
    380
    385
    390
    394
    398
    402
    406
    410
    415
    420
    424
    428
    432
    436
    440
    445
    450
    454
    458
    462
    466
    470
    475
    480
    484
    488
    492
    496
    500
    505
    510
    514
    518
    522
    526
    530
    535
    540
    544
    548
    552
    556
    560
    565
    570
    574
    578
    582
    586
    590
    595
    600
    604
    608
    612
    616
    620
    625
    630
    634
    638
    642
    646
    650
    655
    660
    664
    668
    672
    676
    680
    685
    690
    694
    698
    702
    706
    710
    715
    720
    724
    728
    732
    736
    740
    745
    750
    754
    758
    762
    766
    770
    775
    780
    784
    788
    792
    796
    800
    805
    810
    814
    818
    822
    826
    830
    835
    840
    844
    848
    852
    856
    860
    865
    870
    874
    878
    882
    886
    890
    895
    900
    904
    908
    912
    916
    920
    925
    930
    934
    938
    942
    946
    950
    955
    960
    964
    968
    972
    976
    980
    985
    990
    994
    998
   1002
   1006
   1010
   1015
   1020
   1024
   1028
   1032
   1036
   1040
   1045
   1050
   1054
   1058
   1062
   1066
   1070
   1075
   1080
   1084
   1088
   1092
   1096
   1100
   1105
   1110
   1114
   1118
   1122
   1126
   1130
   1135
   1140
   1144
   1148
   1152
   1156
   1160
   1165
   1170
   1174
   1178
   1182
   1186
   1190
   1195
   1200
   1204
   1208
   1212
   1216
   1220
   1225
   1230
   1234
   1238
   1242
   1246
   1250
   1255
   1260
   1264
   1268
   1272
   1276
   1280
   1285
   1290
   1294
   1298
   1302
   1306
   1310
   1315
   1320
   1324
   1328
   1332
   1336
   1340
   1345
   1350
   1354
   1358
   1362
   1366
   1370
   1375
   1380
   1384
   1388
   1392
   1396
   1400
   1405
   1410
   1414
   1418
   1422
   1426
   1430
   1435
   1440
        </DataArray>
      </Polys>
    </Piece>
  </PolyData>
</VTKFile>
