<?xml version="1.0"?>
<VTKFile type="PolyData" version="0.1" byte_order="LittleEndian">
  <PolyData>
    <Piece NumberOfPoints="    245" NumberOfVerts="  0" NumberOfLines="     48"
           NumberOfStrips="  0" NumberOfPolys="    336">
      <Points>
        <DataArray type="Float32" NumberOfComponents="3" format="ascii">
                      -5.54478                       0.61662                      88.13879
                      -5.92657                       1.79220                      90.26572
                      -4.71620                       1.97898                      90.37975
                      -4.33440                       0.80340                      88.25282
                      -4.93959                       0.71001                      88.19580
                      -5.56127                       0.78948                      88.03980
                      -5.94472                       1.96480                      90.16657
                      -4.73448                       2.15199                      90.28134
                      -4.35102                       0.97666                      88.15456
                      -4.95614                       0.88307                      88.09718
                      -5.64464                       1.65438                      87.54483
                      -6.03479                       2.82866                      89.67097
                      -4.82508                       3.01747                      89.78867
                      -4.43493                       1.84319                      87.66253
                      -5.03979                       1.74878                      87.60368
                      -5.72939                       2.51939                      87.05031
                      -6.12369                       3.69303                      89.17603
                      -4.91431                       3.88284                      89.29556
                      -4.52002                       2.70921                      87.16983
                      -5.12470                       2.61430                      87.11007
                      -5.81539                       3.38451                      86.55618
                      -6.21152                       4.55785                      88.68172
                      -5.00229                       4.74811                      88.80206
                      -4.60616                       3.57477                      86.67651
                      -5.21077                       3.47964                      86.61634
                      -5.90252                       4.24971                      86.06241
                      -6.29838                       5.42310                      88.18798
                      -5.08914                       5.61330                      88.30819
                      -4.69327                       4.43991                      86.18262
                      -5.29789                       4.34481                      86.12252
                      -5.99068                       5.11500                      85.56896
                      -6.38438                       6.28873                      87.69474
                      -5.17496                       6.47840                      87.81401
                      -4.78126                       5.30467                      85.68822
                      -5.38597                       5.20983                      85.62859
                      -6.07977                       5.98036                      85.07581
                      -6.46958                       7.15469                      87.20197
                      -5.25985                       7.34342                      87.31953
                      -4.87003                       6.16908                      85.19336
                      -5.47490                       6.07472                      85.13458
                      -6.16968                       6.84579                      84.58292
                      -6.55408                       8.02096                      86.70961
                      -5.34391                       8.20838                      86.82478
                      -4.95951                       7.03320                      84.69809
                      -5.56460                       6.93949                      84.64051
                      -6.26045                       7.71235                      84.08967
                      -6.63804                       8.88857                      86.21700
                      -5.42733                       9.07433                      86.32918
                      -5.04975                       7.89810                      84.20186
                      -5.65510                       7.80522                      84.14576
                      -6.35165                       8.57684                      83.59786
                      -6.72122                       9.75429                      85.72591
                      -5.50990                       9.93810                      85.83458
                      -5.14033                       8.76065                      83.70652
                      -5.74599                       8.66874                      83.65219
                      -6.44353                       9.44245                      83.10564
                      -6.80400                      10.62127                      85.23450
                      -5.59199                      10.80287                      85.33916
                      -5.23152                       9.62405                      83.21030
                      -5.83753                       9.53325                      83.15797
                      -6.53591                      10.30812                      82.61360
                      -6.88633                      11.48843                      84.74331
                      -5.67359                      11.66759                      84.84356
                      -5.32317                      10.48727                      82.71386
                      -5.92954                      10.39769                      82.66373
                      -6.62873                      11.17383                      82.12173
                      -6.96827                      12.35575                      84.25232
                      -5.75475                      12.53225                      84.34780
                      -5.41521                      11.35034                      82.21722
                      -6.02197                      11.26209                      82.16947
                      -6.72202                      12.04067                      81.62941
                      -7.04997                      13.22425                      83.76088
                      -5.83565                      13.39793                      83.85128
                      -5.50770                      12.21435                      81.71980
                      -6.11486                      12.12751                      81.67461
                      -6.81538                      12.90542                      81.13843
                      -7.13117                      14.09072                      83.27078
                      -5.91605                      14.26144                      83.35584
                      -5.60026                      13.07613                      81.22349
                      -6.20782                      12.99077                      81.18096
                      -6.90912                      13.77127                      80.64697
                      -7.21223                      14.95835                      82.78017
                      -5.99630                      15.12597                      82.85967
                      -5.69319                      13.93890                      80.72646
                      -6.30115                      13.85508                      80.68671
                      -7.00305                      14.63717                      80.15561
                      -7.29307                      15.82603                      82.28964
                      -6.07634                      15.99046                      82.36339
                      -5.78632                      14.80160                      80.22936
                      -6.39468                      14.71938                      80.19248
                      -7.19145                      16.37014                      79.17255
                      -7.45437                      17.56258                      81.30809
                      -6.23611                      17.72039                      81.36997
                      -5.97319                      16.52794                      79.23443
                      -6.58232                      16.44904                      79.20349
                      -7.37999                      18.10164                      78.19068
                      -7.61510                      19.29760                      80.32749
                      -6.39542                      19.44860                      80.37718
                      -6.16031                      18.25263                      78.24037
                      -6.77015                      18.17713                      78.21552
                      -7.56865                      19.83377                      77.20869
                      -7.77568                      21.03313                      79.34651
                      -6.55472                      21.17723                      79.38390
                      -6.34769                      19.97787                      77.24609
                      -6.95817                      19.90582                      77.22739
                      -7.75716                      21.56598                      76.22682
                      -7.93623                      22.76856                      78.36535
                      -6.71416                      22.90579                      78.39051
                      -6.53510                      21.70321                      76.25198
                      -7.14613                      21.63459                      76.23940
                      -7.94538                      23.29825                      75.24499
                      -8.09689                      24.50385                      77.38396
                      -6.87390                      24.63429                      77.39707
                      -6.72239                      23.42869                      75.25810
                      -7.33388                      23.36347                      75.25155
                      -8.13326                      25.03109                      74.26287
                      -8.25783                      26.23949                      76.40199
                      -7.03407                      26.36329                      76.40332
                      -6.90951                      25.15489                      74.26419
                      -7.52139                      25.09299                      74.26353
                      -8.32057                      26.76289                      73.28130
                      -8.41897                      27.97386                      75.42033
                      -7.19462                      28.09120                      75.41023
                      -7.09622                      26.88022                      73.27120
                      -7.70840                      26.82155                      73.27625
                      -8.50743                      28.49522                      72.29936
                      -8.58051                      29.70856                      74.43806
                      -7.35572                      29.81963                      74.41690
                      -7.28264                      28.60629                      72.27820
                      -7.89503                      28.55076                      72.28878
                      -8.69377                      30.22756                      71.31732
                      -8.74243                      31.44305                      73.45549
                      -7.51733                      31.54806                      73.42368
                      -7.46867                      30.33257                      71.28550
                      -8.08122                      30.28006                      71.30141
                      -8.87959                      31.95988                      70.33516
                      -8.90474                      33.17733                      72.47263
                      -7.67947                      33.27651                      72.43056
                      -7.65431                      32.05906                      70.29309
                      -8.26695                      32.00947                      70.31413
                      -9.06496                      33.69272                      69.35259
                      -9.06750                      34.91195                      71.48919
                      -7.84216                      35.00551                      71.43726
                      -7.83962                      33.78628                      69.30066
                      -8.45229                      33.73950                      69.32663
                      -9.24973                      35.42447                      68.37050
                      -9.23054                      36.64531                      70.50610
                      -8.00524                      36.73346                      70.44470
                      -8.02443                      35.51262                      68.30910
                      -8.63708                      35.46854                      68.33980
                      -9.43408                      37.15673                      67.38798
                      -9.39401                      38.37903                      69.52245
                      -8.16884                      38.46197                      69.45195
                      -8.20891                      37.23967                      67.31748
                      -8.82150                      37.19820                      67.35273
                      -9.61799                      38.88896                      66.40532
                      -9.55786                      40.11257                      68.53857
                      -8.33289                      40.19051                      68.45934
                      -8.39302                      38.96690                      66.32609
                      -9.00550                      38.92793                      66.36571
                      -9.80144                      40.62115                      65.42253
                      -9.72209                      41.84595                      67.55447
                      -8.49739                      41.91909                      67.46687
                      -8.57675                      40.69429                      65.33493
                      -9.18909                      40.65772                      65.37873
                      -9.98455                      42.35437                      64.43897
                      -9.88682                      43.58023                      66.56954
                      -8.66246                      43.64877                      66.47394
                      -8.76018                      42.42291                      64.34338
                      -9.37236                      42.38864                      64.39117
                     -10.16693                      44.08540                      63.45644
                     -10.05180                      45.31220                      65.58559
                      -8.82781                      45.37638                      65.48242
                      -8.94295                      44.14958                      63.35327
                      -9.55494                      44.11749                      63.40485
                     -10.34888                      45.81742                      62.47307
                     -10.21740                      47.04505                      64.60080
                      -8.99382                      47.10514                      64.49052
                      -9.12530                      45.87750                      62.36280
                      -9.73709                      45.84746                      62.41793
                     -10.53018                      47.54933                      61.48942
                     -10.38362                      48.77769                      63.61574
                      -9.16048                      48.83399                      63.49891
                      -9.30704                      47.60563                      61.37259
                      -9.91861                      47.57748                      61.43100
                     -10.62056                      48.41525                      60.99746
                     -10.46701                      49.64392                      63.12311
                      -9.24408                      49.69846                      63.00324
                      -9.39763                      48.46979                      60.87759
                     -10.00909                      48.44252                      60.93752
                     -10.71072                      49.28112                      60.50539
                     -10.55061                      50.51008                      62.63039
                      -9.32789                      50.56297                      62.50767
                      -9.48800                      49.33401                      60.38267
                     -10.09936                      49.30756                      60.44403
                     -10.80066                      50.14695                      60.01321
                     -10.63445                      51.37617                      62.13759
                      -9.41193                      51.42753                      62.01222
                      -9.57814                      50.19831                      59.88784
                     -10.18940                      50.17263                      59.95052
                     -10.84553                      50.57984                      59.76707
                     -10.67647                      51.80918                      61.89115
                      -9.45405                      51.85983                      61.76455
                      -9.62311                      50.63049                      59.64046
                     -10.23432                      50.60516                      59.70376
                     -10.89045                      51.01379                      59.52028
                     -10.71866                      52.24324                      61.64409
                      -9.49634                      52.29320                      61.51630
                      -9.66812                      51.06375                      59.39249
                     -10.27928                      51.03877                      59.45639
                     -10.93507                      51.44559                      59.27467
                     -10.76072                      52.67515                      61.39821
                      -9.53849                      52.72446                      61.26930
                      -9.71284                      51.49491                      59.14577
                     -10.32395                      51.47025                      59.21022
                     -10.97973                      51.87844                      59.02842
                     -10.80296                      53.10810                      61.15170
                      -9.58081                      53.15680                      61.02174
                      -9.75759                      51.92715                      58.89846
                     -10.36866                      51.90280                      58.96344
                     -11.02431                      52.31128                      58.78212
                     -10.84528                      53.54102                      60.90516
                      -9.62322                      53.58916                      60.77422
                      -9.80225                      52.35942                      58.65119
                     -10.41328                      52.33535                      58.71665
                     -11.06881                      52.74410                      58.53578
                     -10.88770                      53.97392                      60.65859
                      -9.66571                      54.02153                      60.52675
                      -9.84683                      52.79171                      58.40394
                     -10.45782                      52.76790                      58.46986
                     -11.11323                      53.17690                      58.28939
                     -10.93020                      54.40679                      60.41199
                      -9.70829                      54.45393                      60.27932
                      -9.89131                      53.22403                      58.15672
                     -10.50227                      53.20046                      58.22305
                     -11.15755                      53.60968                      58.04295
                     -10.97280                      54.83964                      60.16536
                      -9.75095                      54.88634                      60.03195
                      -9.93570                      53.65638                      57.90953
                     -10.54662                      53.63303                      57.97624
                     -11.18410                      53.86944                      57.89500
                     -10.99843                      55.09944                      60.01731
                      -9.77661                      55.14590                      59.88349
                      -9.96229                      53.91590                      57.76117
                     -10.57320                      53.89267                      57.82808
        </DataArray>
      </Points>
      <Polys>
        <DataArray type="Int32" Name="connectivity" format="ascii">
      0      1      6      5
      1      2      7      6
      2      3      8      7
      3      4      9      8
      4      0      5      9
      4      3      2      1      0
      5      6      7      8      9
      5      6     11     10
      6      7     12     11
      7      8     13     12
      8      9     14     13
      9      5     10     14
      9      8      7      6      5
     10     11     12     13     14
     10     11     16     15
     11     12     17     16
     12     13     18     17
     13     14     19     18
     14     10     15     19
     14     13     12     11     10
     15     16     17     18     19
     15     16     21     20
     16     17     22     21
     17     18     23     22
     18     19     24     23
     19     15     20     24
     19     18     17     16     15
     20     21     22     23     24
     20     21     26     25
     21     22     27     26
     22     23     28     27
     23     24     29     28
     24     20     25     29
     24     23     22     21     20
     25     26     27     28     29
     25     26     31     30
     26     27     32     31
     27     28     33     32
     28     29     34     33
     29     25     30     34
     29     28     27     26     25
     30     31     32     33     34
     30     31     36     35
     31     32     37     36
     32     33     38     37
     33     34     39     38
     34     30     35     39
     34     33     32     31     30
     35     36     37     38     39
     35     36     41     40
     36     37     42     41
     37     38     43     42
     38     39     44     43
     39     35     40     44
     39     38     37     36     35
     40     41     42     43     44
     40     41     46     45
     41     42     47     46
     42     43     48     47
     43     44     49     48
     44     40     45     49
     44     43     42     41     40
     45     46     47     48     49
     45     46     51     50
     46     47     52     51
     47     48     53     52
     48     49     54     53
     49     45     50     54
     49     48     47     46     45
     50     51     52     53     54
     50     51     56     55
     51     52     57     56
     52     53     58     57
     53     54     59     58
     54     50     55     59
     54     53     52     51     50
     55     56     57     58     59
     55     56     61     60
     56     57     62     61
     57     58     63     62
     58     59     64     63
     59     55     60     64
     59     58     57     56     55
     60     61     62     63     64
     60     61     66     65
     61     62     67     66
     62     63     68     67
     63     64     69     68
     64     60     65     69
     64     63     62     61     60
     65     66     67     68     69
     65     66     71     70
     66     67     72     71
     67     68     73     72
     68     69     74     73
     69     65     70     74
     69     68     67     66     65
     70     71     72     73     74
     70     71     76     75
     71     72     77     76
     72     73     78     77
     73     74     79     78
     74     70     75     79
     74     73     72     71     70
     75     76     77     78     79
     75     76     81     80
     76     77     82     81
     77     78     83     82
     78     79     84     83
     79     75     80     84
     79     78     77     76     75
     80     81     82     83     84
     80     81     86     85
     81     82     87     86
     82     83     88     87
     83     84     89     88
     84     80     85     89
     84     83     82     81     80
     85     86     87     88     89
     85     86     91     90
     86     87     92     91
     87     88     93     92
     88     89     94     93
     89     85     90     94
     89     88     87     86     85
     90     91     92     93     94
     90     91     96     95
     91     92     97     96
     92     93     98     97
     93     94     99     98
     94     90     95     99
     94     93     92     91     90
     95     96     97     98     99
     95     96    101    100
     96     97    102    101
     97     98    103    102
     98     99    104    103
     99     95    100    104
     99     98     97     96     95
    100    101    102    103    104
    100    101    106    105
    101    102    107    106
    102    103    108    107
    103    104    109    108
    104    100    105    109
    104    103    102    101    100
    105    106    107    108    109
    105    106    111    110
    106    107    112    111
    107    108    113    112
    108    109    114    113
    109    105    110    114
    109    108    107    106    105
    110    111    112    113    114
    110    111    116    115
    111    112    117    116
    112    113    118    117
    113    114    119    118
    114    110    115    119
    114    113    112    111    110
    115    116    117    118    119
    115    116    121    120
    116    117    122    121
    117    118    123    122
    118    119    124    123
    119    115    120    124
    119    118    117    116    115
    120    121    122    123    124
    120    121    126    125
    121    122    127    126
    122    123    128    127
    123    124    129    128
    124    120    125    129
    124    123    122    121    120
    125    126    127    128    129
    125    126    131    130
    126    127    132    131
    127    128    133    132
    128    129    134    133
    129    125    130    134
    129    128    127    126    125
    130    131    132    133    134
    130    131    136    135
    131    132    137    136
    132    133    138    137
    133    134    139    138
    134    130    135    139
    134    133    132    131    130
    135    136    137    138    139
    135    136    141    140
    136    137    142    141
    137    138    143    142
    138    139    144    143
    139    135    140    144
    139    138    137    136    135
    140    141    142    143    144
    140    141    146    145
    141    142    147    146
    142    143    148    147
    143    144    149    148
    144    140    145    149
    144    143    142    141    140
    145    146    147    148    149
    145    146    151    150
    146    147    152    151
    147    148    153    152
    148    149    154    153
    149    145    150    154
    149    148    147    146    145
    150    151    152    153    154
    150    151    156    155
    151    152    157    156
    152    153    158    157
    153    154    159    158
    154    150    155    159
    154    153    152    151    150
    155    156    157    158    159
    155    156    161    160
    156    157    162    161
    157    158    163    162
    158    159    164    163
    159    155    160    164
    159    158    157    156    155
    160    161    162    163    164
    160    161    166    165
    161    162    167    166
    162    163    168    167
    163    164    169    168
    164    160    165    169
    164    163    162    161    160
    165    166    167    168    169
    165    166    171    170
    166    167    172    171
    167    168    173    172
    168    169    174    173
    169    165    170    174
    169    168    167    166    165
    170    171    172    173    174
    170    171    176    175
    171    172    177    176
    172    173    178    177
    173    174    179    178
    174    170    175    179
    174    173    172    171    170
    175    176    177    178    179
    175    176    181    180
    176    177    182    181
    177    178    183    182
    178    179    184    183
    179    175    180    184
    179    178    177    176    175
    180    181    182    183    184
    180    181    186    185
    181    182    187    186
    182    183    188    187
    183    184    189    188
    184    180    185    189
    184    183    182    181    180
    185    186    187    188    189
    185    186    191    190
    186    187    192    191
    187    188    193    192
    188    189    194    193
    189    185    190    194
    189    188    187    186    185
    190    191    192    193    194
    190    191    196    195
    191    192    197    196
    192    193    198    197
    193    194    199    198
    194    190    195    199
    194    193    192    191    190
    195    196    197    198    199
    195    196    201    200
    196    197    202    201
    197    198    203    202
    198    199    204    203
    199    195    200    204
    199    198    197    196    195
    200    201    202    203    204
    200    201    206    205
    201    202    207    206
    202    203    208    207
    203    204    209    208
    204    200    205    209
    204    203    202    201    200
    205    206    207    208    209
    205    206    211    210
    206    207    212    211
    207    208    213    212
    208    209    214    213
    209    205    210    214
    209    208    207    206    205
    210    211    212    213    214
    210    211    216    215
    211    212    217    216
    212    213    218    217
    213    214    219    218
    214    210    215    219
    214    213    212    211    210
    215    216    217    218    219
    215    216    221    220
    216    217    222    221
    217    218    223    222
    218    219    224    223
    219    215    220    224
    219    218    217    216    215
    220    221    222    223    224
    220    221    226    225
    221    222    227    226
    222    223    228    227
    223    224    229    228
    224    220    225    229
    224    223    222    221    220
    225    226    227    228    229
    225    226    231    230
    226    227    232    231
    227    228    233    232
    228    229    234    233
    229    225    230    234
    229    228    227    226    225
    230    231    232    233    234
    230    231    236    235
    231    232    237    236
    232    233    238    237
    233    234    239    238
    234    230    235    239
    234    233    232    231    230
    235    236    237    238    239
    235    236    241    240
    236    237    242    241
    237    238    243    242
    238    239    244    243
    239    235    240    244
    239    238    237    236    235
    240    241    242    243    244
        </DataArray>
        <DataArray type="Int32" Name="offsets" format="ascii">
      4
      8
     12
     16
     20
     25
     30
     34
     38
     42
     46
     50
     55
     60
     64
     68
     72
     76
     80
     85
     90
     94
     98
    102
    106
    110
    115
    120
    124
    128
    132
    136
    140
    145
    150
    154
    158
    162
    166
    170
    175
    180
    184
    188
    192
    196
    200
    205
    210
    214
    218
    222
    226
    230
    235
    240
    244
    248
    252
    256
    260
    265
    270
    274
    278
    282
    286
    290
    295
    300
    304
    308
    312
    316
    320
    325
    330
    334
    338
    342
    346
    350
    355
    360
    364
    368
    372
    376
    380
    385
    390
    394
    398
    402
    406
    410
    415
    420
    424
    428
    432
    436
    440
    445
    450
    454
    458
    462
    466
    470
    475
    480
    484
    488
    492
    496
    500
    505
    510
    514
    518
    522
    526
    530
    535
    540
    544
    548
    552
    556
    560
    565
    570
    574
    578
    582
    586
    590
    595
    600
    604
    608
    612
    616
    620
    625
    630
    634
    638
    642
    646
    650
    655
    660
    664
    668
    672
    676
    680
    685
    690
    694
    698
    702
    706
    710
    715
    720
    724
    728
    732
    736
    740
    745
    750
    754
    758
    762
    766
    770
    775
    780
    784
    788
    792
    796
    800
    805
    810
    814
    818
    822
    826
    830
    835
    840
    844
    848
    852
    856
    860
    865
    870
    874
    878
    882
    886
    890
    895
    900
    904
    908
    912
    916
    920
    925
    930
    934
    938
    942
    946
    950
    955
    960
    964
    968
    972
    976
    980
    985
    990
    994
    998
   1002
   1006
   1010
   1015
   1020
   1024
   1028
   1032
   1036
   1040
   1045
   1050
   1054
   1058
   1062
   1066
   1070
   1075
   1080
   1084
   1088
   1092
   1096
   1100
   1105
   1110
   1114
   1118
   1122
   1126
   1130
   1135
   1140
   1144
   1148
   1152
   1156
   1160
   1165
   1170
   1174
   1178
   1182
   1186
   1190
   1195
   1200
   1204
   1208
   1212
   1216
   1220
   1225
   1230
   1234
   1238
   1242
   1246
   1250
   1255
   1260
   1264
   1268
   1272
   1276
   1280
   1285
   1290
   1294
   1298
   1302
   1306
   1310
   1315
   1320
   1324
   1328
   1332
   1336
   1340
   1345
   1350
   1354
   1358
   1362
   1366
   1370
   1375
   1380
   1384
   1388
   1392
   1396
   1400
   1405
   1410
   1414
   1418
   1422
   1426
   1430
   1435
   1440
        </DataArray>
      </Polys>
    </Piece>
  </PolyData>
</VTKFile>
