<?xml version="1.0"?>
<VTKFile type="PolyData" version="0.1" byte_order="LittleEndian">
  <PolyData>
    <Piece NumberOfPoints="    245" NumberOfVerts="  0" NumberOfLines="     48"
           NumberOfStrips="  0" NumberOfPolys="    336">
      <Points>
        <DataArray type="Float32" NumberOfComponents="3" format="ascii">
                      -5.34271                      -1.95516                      90.44837
                      -6.08589                      -0.73680                      88.44466
                      -4.91826                      -0.64045                      88.07016
                      -4.17508                      -1.85881                      90.07388
                      -4.75890                      -1.90698                      90.26113
                      -5.35917                      -2.12823                      90.34976
                      -6.10395                      -0.91000                      88.34656
                      -4.93657                      -0.81324                      87.97138
                      -4.19179                      -2.03146                      89.97458
                      -4.77548                      -2.07985                      90.16217
                      -5.44242                      -2.99400                      89.85628
                      -6.19365                      -1.77631                      87.85516
                      -5.02731                      -1.67786                      87.47722
                      -4.27607                      -2.89555                      89.47834
                      -4.85924                      -2.94477                      89.66731
                      -5.52708                      -3.85954                      89.36268
                      -6.28232                      -2.64219                      87.36285
                      -5.11662                      -2.54270                      86.98319
                      -4.36138                      -3.76005                      88.98301
                      -4.94423                      -3.80979                      89.17284
                      -5.61304                      -4.72489                      88.86895
                      -6.37005                      -3.50769                      86.86971
                      -5.20464                      -3.40773                      86.48928
                      -4.44763                      -4.62493                      88.48853
                      -5.03034                      -4.67491                      88.67874
                      -5.70018                      -5.59006                      88.37512
                      -6.45693                      -4.37284                      86.37579
                      -5.29148                      -4.27295                      85.99548
                      -4.53473                      -5.49017                      87.99481
                      -5.11745                      -5.54011                      88.18496
                      -5.78838                      -6.45507                      87.88120
                      -6.54304                      -5.23767                      85.88119
                      -5.37725                      -5.13833                      85.50177
                      -4.62259                      -6.35572                      87.50178
                      -5.20549                      -6.40540                      87.69149
                      -5.87755                      -7.31993                      87.38718
                      -6.62846                      -6.10221                      85.38596
                      -5.46207                      -6.00385                      85.00815
                      -4.71115                      -7.22156                      87.00937
                      -5.29435                      -7.27075                      87.19828
                      -5.96757                      -8.18466                      86.89309
                      -6.71326                      -6.96651                      84.89018
                      -5.54602                      -6.86950                      84.51461
                      -4.80033                      -8.08766                      86.51752
                      -5.38395                      -8.13616                      86.70531
                      -6.05847                      -9.05033                      86.39831
                      -6.79759                      -7.83163                      84.39329
                      -5.62931                      -7.73635                      84.02054
                      -4.89019                      -8.95504                      86.02556
                      -5.47433                      -9.00269                      86.21193
                      -6.14983                      -9.91376                      85.90467
                      -6.88121                      -8.69444                      83.89720
                      -5.71172                      -8.60117                      83.52777
                      -4.98033                      -9.82049                      85.53524
                      -5.56508                      -9.86713                      85.71995
                      -6.24190                     -10.77815                      85.41035
                      -6.96449                      -9.55814                      83.40011
                      -5.79363                      -9.46716                      83.03446
                      -5.07104                     -10.68717                      85.04469
                      -5.65647                     -10.73266                      85.22752
                      -6.33449                     -11.64245                      84.91595
                      -7.04737                     -10.42170                      82.90270
                      -5.87502                     -10.33325                      82.54122
                      -5.16214                     -11.55400                      84.55446
                      -5.74831                     -11.59823                      84.73521
                      -6.42752                     -12.50667                      84.42149
                      -7.12989                     -11.28513                      82.40502
                      -5.95596                     -11.19942                      82.04805
                      -5.25359                     -12.42095                      84.06451
                      -5.84056                     -12.46381                      84.24300
                      -6.52106                     -13.37187                      83.92635
                      -7.21221                     -12.14953                      81.90650
                      -6.03661                     -12.06673                      81.55434
                      -5.34546                     -13.28907                      83.57419
                      -5.93326                     -13.33047                      83.75027
                      -6.61469                     -14.23487                      83.43236
                      -7.29406                     -13.01172                      81.40900
                      -6.11674                     -12.93198                      81.06191
                      -5.43738                     -14.15514                      83.08526
                      -6.02603                     -14.19501                      83.25881
                      -6.70870                     -15.09888                      82.93770
                      -7.37578                     -13.87491                      80.91075
                      -6.19671                     -13.79836                      80.56894
                      -5.52963                     -15.02233                      82.59588
                      -6.11917                     -15.06061                      82.76679
                      -6.80293                     -15.96283                      82.44298
                      -7.45731                     -14.73805                      80.41238
                      -6.27646                     -14.66480                      80.07602
                      -5.62208                     -15.88957                      82.10662
                      -6.21251                     -15.92620                      82.27480
                      -6.99196                     -17.69164                      81.45276
                      -7.62002                     -16.46531                      79.41480
                      -6.43560                     -16.39888                      79.08976
                      -5.80755                     -17.62521                      81.12772
                      -6.39975                     -17.65843                      81.29024
                      -7.18117                     -19.41872                      80.46325
                      -7.78216                     -18.19095                      78.41801
                      -6.59424                     -18.13152                      78.10462
                      -5.99325                     -19.35928                      80.14985
                      -6.58721                     -19.38900                      80.30655
                      -7.37052                     -21.14621                      79.47326
                      -7.94414                     -19.91716                      77.42094
                      -6.75284                     -19.86479                      77.11934
                      -6.17922                     -21.09384                      79.17165
                      -6.77487                     -21.12003                      79.32245
                      -7.55976                     -22.87364                      78.48313
                      -8.10607                     -21.64347                      76.42404
                      -6.91156                     -21.59814                      76.13420
                      -6.36525                     -22.82830                      78.19329
                      -6.96250                     -22.85097                      78.33821
                      -7.74872                     -24.60102                      77.49288
                      -8.26807                     -23.36991                      75.42740
                      -7.07056                     -23.33152                      75.14918
                      -6.55121                     -24.56263                      77.21466
                      -7.14996                     -24.58183                      77.35377
                      -7.93734                     -26.32894                      76.50225
                      -8.43029                     -25.09705                      74.43076
                      -7.23000                     -25.06544                      74.16393
                      -6.73705                     -26.29732                      76.23542
                      -7.33720                     -26.31313                      76.36884
                      -8.12539                     -28.05580                      75.51217
                      -8.59265                     -26.82331                      73.43510
                      -7.38979                     -26.79828                      73.17935
                      -6.92254                     -28.03077                      75.25643
                      -7.52396                     -28.04329                      75.38430
                      -8.31299                     -29.78322                      74.52175
                      -8.75536                     -28.55028                      72.43950
                      -7.55015                     -28.53163                      72.19451
                      -7.10778                     -29.76457                      74.27676
                      -7.71039                     -29.77390                      74.39926
                      -8.50007                     -31.51069                      73.53132
                      -8.91839                     -30.27744                      71.44428
                      -7.71103                     -30.26493                      71.20968
                      -7.29271                     -31.49818                      73.29671
                      -7.89639                     -31.50444                      73.41401
                      -8.68661                     -33.23821                      72.54087
                      -9.08175                     -32.00478                      70.44944
                      -7.87244                     -31.99818                      70.22485
                      -7.47731                     -33.23161                      72.31629
                      -8.08196                     -33.23491                      72.42858
                      -8.87270                     -34.96632                      71.55014
                      -9.24550                     -33.73281                      69.45464
                      -8.03442                     -33.73191                      69.23972
                      -7.66162                     -34.96541                      71.33521
                      -8.26716                     -34.96586                      71.44267
                      -9.05817                     -36.69342                      70.56002
                      -9.40948                     -35.45995                      68.46080
                      -8.19680                     -35.46451                      68.25517
                      -7.84549                     -36.69798                      70.35439
                      -8.45183                     -36.69570                      70.45721
                      -9.24321                     -38.42112                      69.56963
                      -9.57384                     -37.18777                      67.46698
                      -8.35971                     -37.19759                      67.27030
                      -8.02908                     -38.43093                      69.37295
                      -8.63615                     -38.42602                      69.47129
                      -9.42779                     -40.14888                      68.57926
                      -9.73853                     -38.91573                      66.47346
                      -8.52308                     -38.93060                      66.28540
                      -8.21235                     -40.16374                      68.39120
                      -8.82007                     -40.15631                      68.48523
                      -9.61191                     -41.87671                      67.58894
                      -9.90356                     -40.64383                      65.48025
                      -8.68693                     -40.66354                      65.30046
                      -8.39528                     -41.89641                      67.40914
                      -9.00359                     -41.88656                      67.49904
                      -9.79565                     -43.60568                      66.59806
                     -10.06904                     -42.37313                      64.48673
                      -8.85135                     -42.39746                      64.31486
                      -8.57796                     -43.63001                      66.42618
                      -9.18681                     -43.61784                      66.51212
                      -9.97865                     -45.33262                      65.60847
                     -10.23472                     -44.10045                      63.49476
                      -9.01609                     -44.12916                      63.33039
                      -8.76002                     -45.36133                      65.44410
                      -9.36934                     -45.34697                      65.52629
                     -10.16119                     -47.06074                      64.61838
                     -10.40097                     -45.82899                      62.50252
                      -9.18152                     -45.86181                      62.34521
                      -8.94173                     -47.09357                      64.46108
                      -9.55146                     -47.07715                      64.53973
                     -10.34304                     -48.78902                      63.62844
                     -10.56779                     -47.55769                      61.51067
                      -9.34762                     -47.59430                      61.35989
                      -9.12287                     -48.82563                      63.47765
                      -9.73295                     -48.80732                      63.55305
                     -10.43367                     -49.65322                      63.13353
                     -10.65145                     -48.42211                      61.01492
                      -9.43096                     -48.46048                      60.86716
                      -9.21318                     -49.69160                      62.98578
                      -9.82343                     -49.67241                      63.05965
                     -10.52408                     -50.51748                      62.63869
                     -10.73531                     -49.28658                      60.51929
                      -9.51453                     -49.32661                      60.37437
                      -9.30330                     -50.55751                      62.49377
                      -9.91369                     -50.53750                      62.56623
                     -10.61424                     -51.38181                      62.14391
                     -10.81938                     -50.15111                      60.02379
                      -9.59835                     -50.19267                      59.88152
                      -9.39321                     -51.42337                      62.00164
                     -10.00373                     -51.40259                      62.07277
                     -10.65922                     -51.81399                      61.89655
                     -10.86151                     -50.58339                      59.77610
                      -9.64036                     -50.62567                      59.63506
                      -9.43807                     -51.85628                      61.75551
                     -10.04865                     -51.83514                      61.82603
                     -10.70424                     -52.24726                      61.64860
                     -10.90381                     -51.01676                      59.52784
                      -9.68254                     -51.05972                      59.38798
                      -9.48297                     -52.29023                      61.50874
                     -10.09361                     -52.26875                      61.57867
                     -10.74896                     -52.67843                      61.40189
                     -10.94596                     -51.44801                      59.28083
                      -9.72459                     -51.49162                      59.14209
                      -9.52759                     -52.72204                      61.26315
                     -10.13828                     -52.70024                      61.33252
                     -10.79372                     -53.11068                      61.15459
                     -10.98830                     -51.88035                      59.03326
                      -9.76683                     -51.92457                      58.89557
                      -9.57225                     -53.15490                      61.01690
                     -10.18298                     -53.13279                      61.08574
                     -10.83838                     -53.54295                      60.90732
                     -11.03071                     -52.31270                      58.78574
                      -9.80915                     -52.35749                      58.64903
                      -9.61683                     -53.58774                      60.77061
                     -10.22760                     -53.56534                      60.83896
                     -10.88296                     -53.97524                      60.66007
                     -11.07320                     -52.74507                      58.53826
                      -9.85156                     -52.79039                      58.40246
                      -9.66132                     -54.02056                      60.52427
                     -10.27214                     -53.99790                      60.59217
                     -10.92745                     -54.40756                      60.41286
                     -11.11578                     -53.17746                      58.29083
                      -9.89407                     -53.22326                      58.15586
                      -9.70573                     -54.45336                      60.27788
                     -10.31659                     -54.43046                      60.34537
                     -10.97183                     -54.83991                      60.16567
                     -11.15845                     -53.60988                      58.04346
                      -9.93667                     -53.65610                      57.90923
                      -9.75005                     -54.88614                      60.03144
                     -10.36094                     -54.86303                      60.09855
                     -10.99843                     -55.09944                      60.01731
                     -11.18410                     -53.86944                      57.89500
                      -9.96229                     -53.91590                      57.76117
                      -9.77661                     -55.14590                      59.88349
                     -10.38752                     -55.12267                      59.95040
        </DataArray>
      </Points>
      <Polys>
        <DataArray type="Int32" Name="connectivity" format="ascii">
      0      1      6      5
      1      2      7      6
      2      3      8      7
      3      4      9      8
      4      0      5      9
      4      3      2      1      0
      5      6      7      8      9
      5      6     11     10
      6      7     12     11
      7      8     13     12
      8      9     14     13
      9      5     10     14
      9      8      7      6      5
     10     11     12     13     14
     10     11     16     15
     11     12     17     16
     12     13     18     17
     13     14     19     18
     14     10     15     19
     14     13     12     11     10
     15     16     17     18     19
     15     16     21     20
     16     17     22     21
     17     18     23     22
     18     19     24     23
     19     15     20     24
     19     18     17     16     15
     20     21     22     23     24
     20     21     26     25
     21     22     27     26
     22     23     28     27
     23     24     29     28
     24     20     25     29
     24     23     22     21     20
     25     26     27     28     29
     25     26     31     30
     26     27     32     31
     27     28     33     32
     28     29     34     33
     29     25     30     34
     29     28     27     26     25
     30     31     32     33     34
     30     31     36     35
     31     32     37     36
     32     33     38     37
     33     34     39     38
     34     30     35     39
     34     33     32     31     30
     35     36     37     38     39
     35     36     41     40
     36     37     42     41
     37     38     43     42
     38     39     44     43
     39     35     40     44
     39     38     37     36     35
     40     41     42     43     44
     40     41     46     45
     41     42     47     46
     42     43     48     47
     43     44     49     48
     44     40     45     49
     44     43     42     41     40
     45     46     47     48     49
     45     46     51     50
     46     47     52     51
     47     48     53     52
     48     49     54     53
     49     45     50     54
     49     48     47     46     45
     50     51     52     53     54
     50     51     56     55
     51     52     57     56
     52     53     58     57
     53     54     59     58
     54     50     55     59
     54     53     52     51     50
     55     56     57     58     59
     55     56     61     60
     56     57     62     61
     57     58     63     62
     58     59     64     63
     59     55     60     64
     59     58     57     56     55
     60     61     62     63     64
     60     61     66     65
     61     62     67     66
     62     63     68     67
     63     64     69     68
     64     60     65     69
     64     63     62     61     60
     65     66     67     68     69
     65     66     71     70
     66     67     72     71
     67     68     73     72
     68     69     74     73
     69     65     70     74
     69     68     67     66     65
     70     71     72     73     74
     70     71     76     75
     71     72     77     76
     72     73     78     77
     73     74     79     78
     74     70     75     79
     74     73     72     71     70
     75     76     77     78     79
     75     76     81     80
     76     77     82     81
     77     78     83     82
     78     79     84     83
     79     75     80     84
     79     78     77     76     75
     80     81     82     83     84
     80     81     86     85
     81     82     87     86
     82     83     88     87
     83     84     89     88
     84     80     85     89
     84     83     82     81     80
     85     86     87     88     89
     85     86     91     90
     86     87     92     91
     87     88     93     92
     88     89     94     93
     89     85     90     94
     89     88     87     86     85
     90     91     92     93     94
     90     91     96     95
     91     92     97     96
     92     93     98     97
     93     94     99     98
     94     90     95     99
     94     93     92     91     90
     95     96     97     98     99
     95     96    101    100
     96     97    102    101
     97     98    103    102
     98     99    104    103
     99     95    100    104
     99     98     97     96     95
    100    101    102    103    104
    100    101    106    105
    101    102    107    106
    102    103    108    107
    103    104    109    108
    104    100    105    109
    104    103    102    101    100
    105    106    107    108    109
    105    106    111    110
    106    107    112    111
    107    108    113    112
    108    109    114    113
    109    105    110    114
    109    108    107    106    105
    110    111    112    113    114
    110    111    116    115
    111    112    117    116
    112    113    118    117
    113    114    119    118
    114    110    115    119
    114    113    112    111    110
    115    116    117    118    119
    115    116    121    120
    116    117    122    121
    117    118    123    122
    118    119    124    123
    119    115    120    124
    119    118    117    116    115
    120    121    122    123    124
    120    121    126    125
    121    122    127    126
    122    123    128    127
    123    124    129    128
    124    120    125    129
    124    123    122    121    120
    125    126    127    128    129
    125    126    131    130
    126    127    132    131
    127    128    133    132
    128    129    134    133
    129    125    130    134
    129    128    127    126    125
    130    131    132    133    134
    130    131    136    135
    131    132    137    136
    132    133    138    137
    133    134    139    138
    134    130    135    139
    134    133    132    131    130
    135    136    137    138    139
    135    136    141    140
    136    137    142    141
    137    138    143    142
    138    139    144    143
    139    135    140    144
    139    138    137    136    135
    140    141    142    143    144
    140    141    146    145
    141    142    147    146
    142    143    148    147
    143    144    149    148
    144    140    145    149
    144    143    142    141    140
    145    146    147    148    149
    145    146    151    150
    146    147    152    151
    147    148    153    152
    148    149    154    153
    149    145    150    154
    149    148    147    146    145
    150    151    152    153    154
    150    151    156    155
    151    152    157    156
    152    153    158    157
    153    154    159    158
    154    150    155    159
    154    153    152    151    150
    155    156    157    158    159
    155    156    161    160
    156    157    162    161
    157    158    163    162
    158    159    164    163
    159    155    160    164
    159    158    157    156    155
    160    161    162    163    164
    160    161    166    165
    161    162    167    166
    162    163    168    167
    163    164    169    168
    164    160    165    169
    164    163    162    161    160
    165    166    167    168    169
    165    166    171    170
    166    167    172    171
    167    168    173    172
    168    169    174    173
    169    165    170    174
    169    168    167    166    165
    170    171    172    173    174
    170    171    176    175
    171    172    177    176
    172    173    178    177
    173    174    179    178
    174    170    175    179
    174    173    172    171    170
    175    176    177    178    179
    175    176    181    180
    176    177    182    181
    177    178    183    182
    178    179    184    183
    179    175    180    184
    179    178    177    176    175
    180    181    182    183    184
    180    181    186    185
    181    182    187    186
    182    183    188    187
    183    184    189    188
    184    180    185    189
    184    183    182    181    180
    185    186    187    188    189
    185    186    191    190
    186    187    192    191
    187    188    193    192
    188    189    194    193
    189    185    190    194
    189    188    187    186    185
    190    191    192    193    194
    190    191    196    195
    191    192    197    196
    192    193    198    197
    193    194    199    198
    194    190    195    199
    194    193    192    191    190
    195    196    197    198    199
    195    196    201    200
    196    197    202    201
    197    198    203    202
    198    199    204    203
    199    195    200    204
    199    198    197    196    195
    200    201    202    203    204
    200    201    206    205
    201    202    207    206
    202    203    208    207
    203    204    209    208
    204    200    205    209
    204    203    202    201    200
    205    206    207    208    209
    205    206    211    210
    206    207    212    211
    207    208    213    212
    208    209    214    213
    209    205    210    214
    209    208    207    206    205
    210    211    212    213    214
    210    211    216    215
    211    212    217    216
    212    213    218    217
    213    214    219    218
    214    210    215    219
    214    213    212    211    210
    215    216    217    218    219
    215    216    221    220
    216    217    222    221
    217    218    223    222
    218    219    224    223
    219    215    220    224
    219    218    217    216    215
    220    221    222    223    224
    220    221    226    225
    221    222    227    226
    222    223    228    227
    223    224    229    228
    224    220    225    229
    224    223    222    221    220
    225    226    227    228    229
    225    226    231    230
    226    227    232    231
    227    228    233    232
    228    229    234    233
    229    225    230    234
    229    228    227    226    225
    230    231    232    233    234
    230    231    236    235
    231    232    237    236
    232    233    238    237
    233    234    239    238
    234    230    235    239
    234    233    232    231    230
    235    236    237    238    239
    235    236    241    240
    236    237    242    241
    237    238    243    242
    238    239    244    243
    239    235    240    244
    239    238    237    236    235
    240    241    242    243    244
        </DataArray>
        <DataArray type="Int32" Name="offsets" format="ascii">
      4
      8
     12
     16
     20
     25
     30
     34
     38
     42
     46
     50
     55
     60
     64
     68
     72
     76
     80
     85
     90
     94
     98
    102
    106
    110
    115
    120
    124
    128
    132
    136
    140
    145
    150
    154
    158
    162
    166
    170
    175
    180
    184
    188
    192
    196
    200
    205
    210
    214
    218
    222
    226
    230
    235
    240
    244
    248
    252
    256
    260
    265
    270
    274
    278
    282
    286
    290
    295
    300
    304
    308
    312
    316
    320
    325
    330
    334
    338
    342
    346
    350
    355
    360
    364
    368
    372
    376
    380
    385
    390
    394
    398
    402
    406
    410
    415
    420
    424
    428
    432
    436
    440
    445
    450
    454
    458
    462
    466
    470
    475
    480
    484
    488
    492
    496
    500
    505
    510
    514
    518
    522
    526
    530
    535
    540
    544
    548
    552
    556
    560
    565
    570
    574
    578
    582
    586
    590
    595
    600
    604
    608
    612
    616
    620
    625
    630
    634
    638
    642
    646
    650
    655
    660
    664
    668
    672
    676
    680
    685
    690
    694
    698
    702
    706
    710
    715
    720
    724
    728
    732
    736
    740
    745
    750
    754
    758
    762
    766
    770
    775
    780
    784
    788
    792
    796
    800
    805
    810
    814
    818
    822
    826
    830
    835
    840
    844
    848
    852
    856
    860
    865
    870
    874
    878
    882
    886
    890
    895
    900
    904
    908
    912
    916
    920
    925
    930
    934
    938
    942
    946
    950
    955
    960
    964
    968
    972
    976
    980
    985
    990
    994
    998
   1002
   1006
   1010
   1015
   1020
   1024
   1028
   1032
   1036
   1040
   1045
   1050
   1054
   1058
   1062
   1066
   1070
   1075
   1080
   1084
   1088
   1092
   1096
   1100
   1105
   1110
   1114
   1118
   1122
   1126
   1130
   1135
   1140
   1144
   1148
   1152
   1156
   1160
   1165
   1170
   1174
   1178
   1182
   1186
   1190
   1195
   1200
   1204
   1208
   1212
   1216
   1220
   1225
   1230
   1234
   1238
   1242
   1246
   1250
   1255
   1260
   1264
   1268
   1272
   1276
   1280
   1285
   1290
   1294
   1298
   1302
   1306
   1310
   1315
   1320
   1324
   1328
   1332
   1336
   1340
   1345
   1350
   1354
   1358
   1362
   1366
   1370
   1375
   1380
   1384
   1388
   1392
   1396
   1400
   1405
   1410
   1414
   1418
   1422
   1426
   1430
   1435
   1440
        </DataArray>
      </Polys>
    </Piece>
  </PolyData>
</VTKFile>
