ply
format ascii 1.0
element vertex 300
property float x
property float y
property float z
element face 596
property list uchar int vertex_indices
end_header
0.203829378 -0.861721456 0
1.01093495 -0.426994473 0
1.49254525 0.353042901 0
1.5196135 1.26938033 0
1.08488655 2.07648563 0
0.304849327 2.55809641 0
-0.611488342 2.58516431 0
-1.41859388 2.15043688 0
-1.90020406 1.37039983 0
-1.92727232 0.4540627 0
-1.49254537 -0.353042722 0
-0.712507486 -0.834653437 0
0.211696923 -0.894982755 2.5625
1.04995561 -0.443475962 2.5625
1.55015564 0.366669893 2.5625
1.57826853 1.31837678 2.5625
1.12676179 2.15663528 2.5625
0.316616118 2.65683532 2.5625
-0.635090947 2.68494844 2.5625
-1.47334981 2.23344111 2.5625
-1.9735496 1.42329538 2.5625
-2.00166249 0.47158891 2.5625
-1.55015576 -0.366669714 2.5625
-0.740009427 -0.866869926 2.5625
0.228556424 -0.966259062 5.125
1.13357401 -0.478794307 5.125
1.67360973 0.395871401 5.125
1.70396161 1.42337203 5.125
1.21649694 2.32838941 5.125
0.341831386 2.86842537 5.125
-0.685669482 2.89877701 5.125
-1.59068716 2.4113121 5.125
-2.13072276 1.53664649 5.125
-2.16107464 0.509146214 5.125
-1.67360985 -0.395871192 5.125
-0.798943579 -0.935907364 5.125
0.245406821 -1.03749681 7.6875
1.06151795 -0.550905645 7.6875
1.52743959 0.361296713 7.6875
1.51832855 1.4546864 7.6875
1.03662598 2.43629026 7.6875
0.211403906 3.04308867 7.6875
-0.736220598 3.11249018 7.6875
-1.55233181 2.6258986 7.6875
-2.01825333 1.71369672 7.6875
-2.00914216 0.620307326 7.6875
-1.52743971 -0.361296505 7.6875
-0.702216923 -0.968095303 7.6875
0.262238979 -1.10865748 10.25
0.635435224 -0.706698 10.25
0.768100381 0.181684554 10.25
0.624686956 1.31844878 10.25
0.243622422 2.39899945 10.25
-0.272987187 3.13380408 10.25
-0.786716998 3.32597232 10.25
-1.15991318 2.92401242 10.25
-1.29257834 2.03563023 10.25
-1.14916492 0.898866296 10.25
-0.7681005 -0.181684315 10.25
-0.251490444 -0.916489482 10.25
0.243209347 -1.12817621 12.8125
0.605808437 -0.733665466 12.8125
0.740913868 0.159724385 12.8125
0.612324297 1.31261015 12.8125
0.254495174 2.41607666 12.8125
-0.236693412 3.17445183 12.8125
-0.729628086 3.38452888 12.8125
-1.09222722 2.99001741 12.8125
-1.22733259 2.09662795 12.8125
-1.09874296 0.943742454 12.8125
-0.740913987 -0.159724116 12.8125
-0.249724954 -0.918099523 12.8125
0.22288458 -1.12860847 15.375
0.567580819 -0.746331692 15.375
0.700472534 0.138333723 15.375
0.585951447 1.28834248 15.375
0.254703373 2.39555049 15.375
-0.204513937 3.16328263 15.375
-0.668653786 3.38582516 15.375
-1.01335013 3.00354838 15.375
-1.14624166 2.11888313 15.375
-1.03172064 0.968874514 15.375
-0.700472653 -0.138333455 15.375
-0.241254911 -0.906066 15.375
0.201983228 -1.10054028 17.9375
0.519294322 -0.737482071 17.9375
0.643339694 0.118072823 17.9375
0.540881515 1.23687911 17.9375
0.239373237 2.31915331 17.9375
-0.18039602 3.07490158 17.9375
-0.605949759 3.30162096 17.9375
-0.923260927 2.93856239 17.9375
-1.04730606 2.08300757 17.9375
-0.944847941 0.96420157 17.9375
-0.643339753 -0.118072562 17.9375
-0.223570138 -0.87382108 17.9375
0.181879207 -1.07211947 20.5
0.472649336 -0.727250874 20.5
0.588039041 0.0997576714 20.5
0.497129798 1.18730974 20.5
0.224280626 2.24399662 20.5
-0.157398731 2.98668003 20.5
-0.545637667 3.21635842 20.5
-0.836407781 2.87148976 20.5
-0.951797485 2.04448128 20.5
-0.860888243 0.956929326 20.5
-0.58803916 -0.099757418 20.5
-0.206359446 -0.84244138 20.5
0.162344754 -1.04184926 23.0625
0.428469181 -0.714439631 23.0625
0.53628552 0.0835660249 23.0625
0.456904411 1.13834298 23.0625
0.211596012 2.16726446 23.0625
-0.133909523 2.89463186 23.0625
-0.487034321 3.12554765 23.0625
-0.753158689 2.79813766 23.0625
-0.860975027 2.00013232 23.0625
-0.781593919 0.945355594 23.0625
-0.53628552 -0.083565779 23.0625
-0.190779775 -0.810933709 23.0625
0.14280656 -1.00518763 25.625
0.38913542 -0.695416272 25.625
0.492930859 0.0700305328 25.625
0.426380932 1.08605194 25.625
0.20731774 2.08040571 25.625
-0.105561018 2.7866559 25.625
-0.428419769 3.01556301 25.625
-0.6747486 2.705791 25.625
-0.778543949 1.94034457 25.625
-0.711994052 0.92432344 25.625
-0.492930919 -0.0700302944 25.625
-0.180051908 -0.77628082 25.625
0.12428534 -0.968196094 28.1875
0.351488441 -0.675328135 28.1875
0.451208323 0.0579207428 28.1875
0.396725178 1.03507721 28.1875
0.202637643 1.99431288 28.1875
-0.0790486038 2.6786015 28.1875
-0.37285611 2.90458846 28.1875
-0.600059152 2.61171985 28.1875
-0.699779034 1.87847126 28.1875
-0.645295858 0.901315033 28.1875
-0.451208383 -0.0579205193 28.1875
-0.169521913 -0.742209554 28.1875
0.106786318 -0.93089509 30.75
0.315551251 -0.654231966 30.75
0.411151171 0.0471646823 30.75
0.367970139 0.985356212 30.75
0.197578534 1.90895486 30.75
-0.0543673635 2.57048297 30.75
-0.320358962 2.79268503 30.75
-0.529123902 2.51602173 30.75
-0.624723792 1.81462526 30.75
-0.58154279 0.876434088 30.75
-0.41115123 -0.0471644625 30.75
-0.159205079 -0.708693326 30.75
0.0909263194 -0.893950164 33.3125
0.281948805 -0.632509351 33.3125
0.37305972 0.0379450582 33.3125
0.339845955 0.937765419 33.3125
0.191207081 1.82584536 33.3125
-0.0330291539 2.46422482 33.3125
-0.272778988 2.68185067 33.3125
-0.463801503 2.42040944 33.3125
-0.554912329 1.74995518 33.3125
-0.521698594 0.850135028 33.3125
-0.373059779 -0.0379448496 33.3125
-0.148823321 -0.676324844 33.3125
0.0760340467 -0.85675776 35.875
0.25003773 -0.609939933 35.875
0.336670697 0.0298783164 35.875
0.312719792 0.891258359 35.875
0.184602603 1.74339378 35.875
-0.0133519322 2.35795617 35.875
-0.228102177 2.57027316 35.875
-0.402105868 2.3234551 35.875
-0.488738805 1.68363702 35.875
-0.4647879 0.82225728 35.875
-0.336670727 -0.0298781171 35.875
-0.138716027 -0.644440711 35.875
0.062113177 -0.819336534 38.4375
0.219835058 -0.586577415 38.4375
0.302009135 0.022895094 38.4375
0.286616921 0.845773578 38.4375
0.177782774 1.66156816 38.4375
0.00466871262 2.25168753 38.4375
-0.186339572 2.45800948 38.4375
-0.344061434 2.22525024 38.4375
-0.426235467 1.61577773 38.4375
-0.410843283 0.792899609 38.4375
-0.302009135 -0.0228948984 38.4375
-0.128894955 -0.613014638 38.4375
0.0508279875 -0.781599045 41
0.199212819 -0.561634958 41
0.280599415 0.0182476435 41
0.273180306 0.802669644 41
0.17894344 1.58144569 41
0.0231395215 2.14590359 41
-0.152484 2.34479713 41
-0.300868869 2.12483287 41
-0.382255375 1.54495025 41
-0.374836296 0.760528564 41
-0.280599415 -0.0182474572 41
-0.124795392 -0.582705736 41
0.0407547839 -0.74369663 43.5625
0.181447268 -0.536115289 43.5625
0.262600899 0.0143906483 43.5625
0.262470603 0.760313511 43.5625
0.181091338 1.50178385 43.5625
0.0402685702 2.04012537 43.5625
-0.122264385 2.23108983 43.5625
-0.262956887 2.02350831 43.5625
-0.344110459 1.47300255 43.5625
-0.343980193 0.727079809 43.5625
-0.262600899 -0.0143904705 43.5625
-0.121778041 -0.552732348 43.5625
0.0314598046 -0.705674112 46.125
0.164485753 -0.510282993 46.125
0.245008245 0.0109228063 46.125
0.251451343 0.718286693 46.125
0.182088643 1.42227101 46.125
0.0555057973 1.93424392 46.125
-0.0943794325 2.11702228 46.125
-0.227405399 1.92163098 46.125
-0.307927847 1.40042531 46.125
-0.31437096 0.69306159 46.125
-0.24500826 -0.0109226387 46.125
-0.118425317 -0.522895753 46.125
0.0235574804 -0.667522013 48.6875
0.14877747 -0.484018117 48.6875
0.227820426 0.00804003701 48.6875
0.2395069 0.676805854 48.6875
0.180705458 1.34308398 48.6875
0.0671719685 1.82834601 48.6875
-0.0706724674 2.0025661 48.6875
-0.195892453 1.81906188 48.6875
-0.274935395 1.32700396 48.6875
-0.286621869 0.658238232 48.6875
-0.227820441 -0.00803987868 48.6875
-0.114286855 -0.493302137 48.6875
0.0167510137 -0.629277349 51.25
0.134113565 -0.457419366 51.25
0.211052075 0.00561812613 51.25
0.226950943 0.635764599 51.25
0.177550048 1.26417279 51.25
0.0760863721 1.72246134 51.25
-0.0502530597 1.88783205 51.25
-0.167615622 1.71597385 51.25
-0.244554117 1.25293648 51.25
-0.260452956 0.622790158 51.25
-0.21105209 -0.00561797619 51.25
-0.109588318 -0.463906795 51.25
0.0106090214 -0.590967715 53.8125
0.120184526 -0.430600256 53.8125
0.194713995 0.00349553046 53.8125
0.214227349 0.595004022 53.8125
0.173495948 1.18543088 53.8125
0.0834338143 1.61657202 53.8125
-0.031827081 1.7729032 53.8125
-0.141402602 1.6125356 53.8125
-0.215932041 1.17843986 53.8125
-0.23544538 0.586931467 53.8125
-0.19471401 -0.00349538983 53.8125
-0.104651786 -0.434636742 53.8125
0.0055585173 -0.50837636 56.375
0.0990430713 -0.371118873 56.375
0.1644997 0.00179864746 56.375
0.184389383 0.510453284 56.375
0.153382659 1.01855135 56.375
0.0797878131 1.38994849 56.375
-0.0166755691 1.52512908 56.375
-0.110160142 1.38787138 56.375
-0.175616741 1.01495397 56.375
-0.195506424 0.506299496 56.375
-0.164499715 -0.00179852638 56.375
-0.0909047872 -0.373195916 56.375
0.00191331038 -0.403635323 58.9375
0.075431034 -0.29513064 58.9375
0.128224403 0.000607832742 58.9375
0.146147475 0.404337227 58.9375
0.124397784 0.807878435 58.9375
0.068803139 1.10310316 58.9375
-0.00573994452 1.21090603 58.9375
-0.079257682 1.10240114 58.9375
-0.132051021 0.806662738 58.9375
-0.149974093 0.402933478 58.9375
-0.128224403 -0.000607736525 58.9375
-0.0726297125 -0.295832634 58.9375
0 -0.200000003 61.5
0.0360000022 -0.146410152 61.5
0.0623538308 1.19209291e-08 61.5
0.0720000044 0.200000033 61.5
0.0623538308 0.400000006 61.5
0.0360000059 0.546410203 61.5
-6.29444008e-09 0.600000024 61.5
-0.0360000134 0.546410084 61.5
-0.0623538345 0.399999946 61.5
-0.0720000044 0.200000003 61.5
-0.0623538345 3.57627883e-08 61.5
-0.0359999835 -0.146410227 61.5
3 0 1 12
3 1 13 12
3 1 2 13
3 2 14 13
3 2 3 14
3 3 15 14
3 3 4 15
3 4 16 15
3 4 5 16
3 5 17 16
3 5 6 17
3 6 18 17
3 6 7 18
3 7 19 18
3 7 8 19
3 8 20 19
3 8 9 20
3 9 21 20
3 9 10 21
3 10 22 21
3 10 11 22
3 11 23 22
3 11 0 23
3 0 12 23
3 12 13 24
3 13 25 24
3 13 14 25
3 14 26 25
3 14 15 26
3 15 27 26
3 15 16 27
3 16 28 27
3 16 17 28
3 17 29 28
3 17 18 29
3 18 30 29
3 18 19 30
3 19 31 30
3 19 20 31
3 20 32 31
3 20 21 32
3 21 33 32
3 21 22 33
3 22 34 33
3 22 23 34
3 23 35 34
3 23 12 35
3 12 24 35
3 24 25 36
3 25 37 36
3 25 26 37
3 26 38 37
3 26 27 38
3 27 39 38
3 27 28 39
3 28 40 39
3 28 29 40
3 29 41 40
3 29 30 41
3 30 42 41
3 30 31 42
3 31 43 42
3 31 32 43
3 32 44 43
3 32 33 44
3 33 45 44
3 33 34 45
3 34 46 45
3 34 35 46
3 35 47 46
3 35 24 47
3 24 36 47
3 36 37 48
3 37 49 48
3 37 38 49
3 38 50 49
3 38 39 50
3 39 51 50
3 39 40 51
3 40 52 51
3 40 41 52
3 41 53 52
3 41 42 53
3 42 54 53
3 42 43 54
3 43 55 54
3 43 44 55
3 44 56 55
3 44 45 56
3 45 57 56
3 45 46 57
3 46 58 57
3 46 47 58
3 47 59 58
3 47 36 59
3 36 48 59
3 48 49 60
3 49 61 60
3 49 50 61
3 50 62 61
3 50 51 62
3 51 63 62
3 51 52 63
3 52 64 63
3 52 53 64
3 53 65 64
3 53 54 65
3 54 66 65
3 54 55 66
3 55 67 66
3 55 56 67
3 56 68 67
3 56 57 68
3 57 69 68
3 57 58 69
3 58 70 69
3 58 59 70
3 59 71 70
3 59 48 71
3 48 60 71
3 60 61 72
3 61 73 72
3 61 62 73
3 62 74 73
3 62 63 74
3 63 75 74
3 63 64 75
3 64 76 75
3 64 65 76
3 65 77 76
3 65 66 77
3 66 78 77
3 66 67 78
3 67 79 78
3 67 68 79
3 68 80 79
3 68 69 80
3 69 81 80
3 69 70 81
3 70 82 81
3 70 71 82
3 71 83 82
3 71 60 83
3 60 72 83
3 72 73 84
3 73 85 84
3 73 74 85
3 74 86 85
3 74 75 86
3 75 87 86
3 75 76 87
3 76 88 87
3 76 77 88
3 77 89 88
3 77 78 89
3 78 90 89
3 78 79 90
3 79 91 90
3 79 80 91
3 80 92 91
3 80 81 92
3 81 93 92
3 81 82 93
3 82 94 93
3 82 83 94
3 83 95 94
3 83 72 95
3 72 84 95
3 84 85 96
3 85 97 96
3 85 86 97
3 86 98 97
3 86 87 98
3 87 99 98
3 87 88 99
3 88 100 99
3 88 89 100
3 89 101 100
3 89 90 101
3 90 102 101
3 90 91 102
3 91 103 102
3 91 92 103
3 92 104 103
3 92 93 104
3 93 105 104
3 93 94 105
3 94 106 105
3 94 95 106
3 95 107 106
3 95 84 107
3 84 96 107
3 96 97 108
3 97 109 108
3 97 98 109
3 98 110 109
3 98 99 110
3 99 111 110
3 99 100 111
3 100 112 111
3 100 101 112
3 101 113 112
3 101 102 113
3 102 114 113
3 102 103 114
3 103 115 114
3 103 104 115
3 104 116 115
3 104 105 116
3 105 117 116
3 105 106 117
3 106 118 117
3 106 107 118
3 107 119 118
3 107 96 119
3 96 108 119
3 108 109 120
3 109 121 120
3 109 110 121
3 110 122 121
3 110 111 122
3 111 123 122
3 111 112 123
3 112 124 123
3 112 113 124
3 113 125 124
3 113 114 125
3 114 126 125
3 114 115 126
3 115 127 126
3 115 116 127
3 116 128 127
3 116 117 128
3 117 129 128
3 117 118 129
3 118 130 129
3 118 119 130
3 119 131 130
3 119 108 131
3 108 120 131
3 120 121 132
3 121 133 132
3 121 122 133
3 122 134 133
3 122 123 134
3 123 135 134
3 123 124 135
3 124 136 135
3 124 125 136
3 125 137 136
3 125 126 137
3 126 138 137
3 126 127 138
3 127 139 138
3 127 128 139
3 128 140 139
3 128 129 140
3 129 141 140
3 129 130 141
3 130 142 141
3 130 131 142
3 131 143 142
3 131 120 143
3 120 132 143
3 132 133 144
3 133 145 144
3 133 134 145
3 134 146 145
3 134 135 146
3 135 147 146
3 135 136 147
3 136 148 147
3 136 137 148
3 137 149 148
3 137 138 149
3 138 150 149
3 138 139 150
3 139 151 150
3 139 140 151
3 140 152 151
3 140 141 152
3 141 153 152
3 141 142 153
3 142 154 153
3 142 143 154
3 143 155 154
3 143 132 155
3 132 144 155
3 144 145 156
3 145 157 156
3 145 146 157
3 146 158 157
3 146 147 158
3 147 159 158
3 147 148 159
3 148 160 159
3 148 149 160
3 149 161 160
3 149 150 161
3 150 162 161
3 150 151 162
3 151 163 162
3 151 152 163
3 152 164 163
3 152 153 164
3 153 165 164
3 153 154 165
3 154 166 165
3 154 155 166
3 155 167 166
3 155 144 167
3 144 156 167
3 156 157 168
3 157 169 168
3 157 158 169
3 158 170 169
3 158 159 170
3 159 171 170
3 159 160 171
3 160 172 171
3 160 161 172
3 161 173 172
3 161 162 173
3 162 174 173
3 162 163 174
3 163 175 174
3 163 164 175
3 164 176 175
3 164 165 176
3 165 177 176
3 165 166 177
3 166 178 177
3 166 167 178
3 167 179 178
3 167 156 179
3 156 168 179
3 168 169 180
3 169 181 180
3 169 170 181
3 170 182 181
3 170 171 182
3 171 183 182
3 171 172 183
3 172 184 183
3 172 173 184
3 173 185 184
3 173 174 185
3 174 186 185
3 174 175 186
3 175 187 186
3 175 176 187
3 176 188 187
3 176 177 188
3 177 189 188
3 177 178 189
3 178 190 189
3 178 179 190
3 179 191 190
3 179 168 191
3 168 180 191
3 180 181 192
3 181 193 192
3 181 182 193
3 182 194 193
3 182 183 194
3 183 195 194
3 183 184 195
3 184 196 195
3 184 185 196
3 185 197 196
3 185 186 197
3 186 198 197
3 186 187 198
3 187 199 198
3 187 188 199
3 188 200 199
3 188 189 200
3 189 201 200
3 189 190 201
3 190 202 201
3 190 191 202
3 191 203 202
3 191 180 203
3 180 192 203
3 192 193 204
3 193 205 204
3 193 194 205
3 194 206 205
3 194 195 206
3 195 207 206
3 195 196 207
3 196 208 207
3 196 197 208
3 197 209 208
3 197 198 209
3 198 210 209
3 198 199 210
3 199 211 210
3 199 200 211
3 200 212 211
3 200 201 212
3 201 213 212
3 201 202 213
3 202 214 213
3 202 203 214
3 203 215 214
3 203 192 215
3 192 204 215
3 204 205 216
3 205 217 216
3 205 206 217
3 206 218 217
3 206 207 218
3 207 219 218
3 207 208 219
3 208 220 219
3 208 209 220
3 209 221 220
3 209 210 221
3 210 222 221
3 210 211 222
3 211 223 222
3 211 212 223
3 212 224 223
3 212 213 224
3 213 225 224
3 213 214 225
3 214 226 225
3 214 215 226
3 215 227 226
3 215 204 227
3 204 216 227
3 216 217 228
3 217 229 228
3 217 218 229
3 218 230 229
3 218 219 230
3 219 231 230
3 219 220 231
3 220 232 231
3 220 221 232
3 221 233 232
3 221 222 233
3 222 234 233
3 222 223 234
3 223 235 234
3 223 224 235
3 224 236 235
3 224 225 236
3 225 237 236
3 225 226 237
3 226 238 237
3 226 227 238
3 227 239 238
3 227 216 239
3 216 228 239
3 228 229 240
3 229 241 240
3 229 230 241
3 230 242 241
3 230 231 242
3 231 243 242
3 231 232 243
3 232 244 243
3 232 233 244
3 233 245 244
3 233 234 245
3 234 246 245
3 234 235 246
3 235 247 246
3 235 236 247
3 236 248 247
3 236 237 248
3 237 249 248
3 237 238 249
3 238 250 249
3 238 239 250
3 239 251 250
3 239 228 251
3 228 240 251
3 240 241 252
3 241 253 252
3 241 242 253
3 242 254 253
3 242 243 254
3 243 255 254
3 243 244 255
3 244 256 255
3 244 245 256
3 245 257 256
3 245 246 257
3 246 258 257
3 246 247 258
3 247 259 258
3 247 248 259
3 248 260 259
3 248 249 260
3 249 261 260
3 249 250 261
3 250 262 261
3 250 251 262
3 251 263 262
3 251 240 263
3 240 252 263
3 252 253 264
3 253 265 264
3 253 254 265
3 254 266 265
3 254 255 266
3 255 267 266
3 255 256 267
3 256 268 267
3 256 257 268
3 257 269 268
3 257 258 269
3 258 270 269
3 258 259 270
3 259 271 270
3 259 260 271
3 260 272 271
3 260 261 272
3 261 273 272
3 261 262 273
3 262 274 273
3 262 263 274
3 263 275 274
3 263 252 275
3 252 264 275
3 264 265 276
3 265 277 276
3 265 266 277
3 266 278 277
3 266 267 278
3 267 279 278
3 267 268 279
3 268 280 279
3 268 269 280
3 269 281 280
3 269 270 281
3 270 282 281
3 270 271 282
3 271 283 282
3 271 272 283
3 272 284 283
3 272 273 284
3 273 285 284
3 273 274 285
3 274 286 285
3 274 275 286
3 275 287 286
3 275 264 287
3 264 276 287
3 276 277 288
3 277 289 288
3 277 278 289
3 278 290 289
3 278 279 290
3 279 291 290
3 279 280 291
3 280 292 291
3 280 281 292
3 281 293 292
3 281 282 293
3 282 294 293
3 282 283 294
3 283 295 294
3 283 284 295
3 284 296 295
3 284 285 296
3 285 297 296
3 285 286 297
3 286 298 297
3 286 287 298
3 287 299 298
3 287 276 299
3 276 288 299
3 0 2 1
3 288 289 290
3 0 3 2
3 288 290 291
3 0 4 3
3 288 291 292
3 0 5 4
3 288 292 293
3 0 6 5
3 288 293 294
3 0 7 6
3 288 294 295
3 0 8 7
3 288 295 296
3 0 9 8
3 288 296 297
3 0 10 9
3 288 297 298
3 0 11 10
3 288 298 299
