ply
format ascii 1.0
element vertex 300
property float x
property float y
property float z
element face 596
property list uchar int vertex_indices
end_header
0.247321144 -1.04558992 0
1.22664154 -0.518103778 0
1.81101477 0.42837283 0
1.84385872 1.5402323 0
1.31637251 2.51955271 0
0.369896114 3.1039257 0
-0.741963625 3.13676953 0
-1.72128391 2.60928297 0
-2.30565715 1.66280675 0
-2.33850098 0.550947666 0
-1.81101489 -0.428372622 0
-0.864537716 -1.01274633 0
0.175847217 -1.73677397 2.5625
1.13142598 -1.22207582 2.5625
1.70163226 -0.298544616 2.5625
1.73367977 0.786359966 2.5625
1.21898162 1.74193859 2.5625
0.295450538 2.31214476 2.5625
-0.789454341 2.3441925 2.5625
-1.74503303 1.82949376 2.5625
-2.31523919 0.905962765 2.5625
-2.3472867 -0.178941429 2.5625
-1.83258855 -1.13452005 2.5625
-0.909056783 -1.7047267 2.5625
0.117990434 -2.13922143 5.125
1.10671508 -1.6066699 5.125
1.69669998 -0.651104391 5.125
1.72985923 0.47143209 5.125
1.19730771 1.46015656 5.125
0.241742358 2.05014181 5.125
-0.880794346 2.08330107 5.125
-1.86951923 1.55074894 5.125
-2.45950389 0.595183611 5.125
-2.49266315 -0.527352571 5.125
-1.96011162 -1.51607716 5.125
-1.00454545 -2.10606241 5.125
0.0681580305 -2.2891233 7.6875
0.935970426 -1.77170622 7.6875
1.43140864 -0.801715076 7.6875
1.42172039 0.360941648 7.6875
0.909501553 1.40473104 7.6875
0.0320009589 2.04997063 7.6875
-0.97565639 2.12376904 7.6875
-1.8434689 1.60635138 7.6875
-2.33890676 0.636360645 7.6875
-2.32921863 -0.526295841 7.6875
-1.81699979 -1.57008505 7.6875
-0.939498425 -2.21532512 7.6875
0.0315826833 -2.26843596 10.25
0.422146469 -1.84777033 10.25
0.560985446 -0.918045044 10.25
0.410898 0.271620989 10.25
0.0120997727 1.40245736 10.25
-0.528551459 2.17145824 10.25
-1.06618881 2.37256908 10.25
-1.45675254 1.95190299 10.25
-1.59559155 1.02217805 10.25
-1.44550407 -0.167487741 10.25
-1.04670596 -1.29832411 10.25
-0.506054282 -2.06732512 10.25
-0.0238240957 -2.10499644 12.8125
0.352161616 -1.69592083 12.8125
0.492255002 -0.769548297 12.8125
0.358918041 0.425900459 12.8125
-0.012121588 1.57010555 12.8125
-0.521444201 2.35647869 12.8125
-1.0325774 2.57431149 12.8125
-1.40856314 2.16523552 12.8125
-1.54865646 1.23886323 12.8125
-1.41531944 0.043414712 12.8125
-1.04427993 -1.10079038 12.8125
-0.534956813 -1.88716388 12.8125
-0.0568459183 -1.91378117 15.375
0.298110455 -1.52012563 15.375
0.434957772 -0.609127522 15.375
0.317027777 0.575112045 15.375
-0.0240800381 1.71527696 15.375
-0.496966302 2.50586128 15.375
-0.974921584 2.73502779 15.375
-1.32987785 2.34137201 15.375
-1.46672523 1.43037415 15.375
-1.34879529 0.246134818 15.375
-1.00768757 -0.894029915 15.375
-0.534800828 -1.68461466 15.375
-0.0640230924 -1.74952793 17.9375
0.260073394 -1.3787061 17.9375
0.386771291 -0.50485611 17.9375
0.282122105 0.637874663 17.9375
-0.0258335471 1.74329233 17.9375
-0.454579085 2.51520109 17.9375
-0.889232874 2.74676871 17.9375
-1.21332932 2.37594652 17.9375
-1.34002721 1.50209689 17.9375
-1.23537803 0.359366298 17.9375
-0.927422404 -0.746051192 17.9375
-0.498676449 -1.51796055 17.9375
-0.0495005101 -1.64261913 20.5
0.244632632 -1.29376173 20.5
0.361356944 -0.45718798 20.5
0.269396216 0.642942727 20.5
-0.00660872459 1.71185112 20.5
-0.39270255 2.46312451 20.5
-0.785431862 2.6954596 20.5
-1.07956505 2.34660172 20.5
-1.19628918 1.51002812 20.5
-1.10432863 0.409897745 20.5
-0.828323722 -0.659010649 20.5
-0.442229509 -1.41028452 20.5
-0.0212235004 -1.57697701 23.0625
0.245154023 -1.24925625 23.0625
0.353072852 -0.450491577 23.0625
0.273616225 0.605288446 23.0625
0.0280745625 1.63518834 23.0625
-0.317759514 2.36324763 23.0625
-0.671220183 2.594383 23.0625
-0.937597632 2.26666188 23.0625
-1.04551649 1.46789742 23.0625
-0.966059804 0.412117481 23.0625
-0.720518231 -0.617782354 23.0625
-0.374683827 -1.345842 23.0625
0.0124731809 -1.53348076 25.625
0.25637728 -1.22675872 25.625
0.359150946 -0.468846738 25.625
0.293256164 0.537173212 25.625
0.0763493329 1.52173877 25.625
-0.233449534 2.22103691 25.625
-0.55313015 2.44769049 25.625
-0.797034204 2.14096832 25.625
-0.89980787 1.3830564 25.625
-0.833913088 0.377036691 25.625
-0.617006302 -0.607528865 25.625
-0.307207167 -1.30682731 25.625
0.0447889417 -1.50348639 28.1875
0.267396599 -1.21654212 28.1875
0.365099519 -0.498124003 28.1875
0.311718345 0.459268332 28.1875
0.121556483 1.39910233 28.1875
-0.154432327 2.06955051 28.1875
-0.442297161 2.29096627 28.1875
-0.664904833 2.00402164 28.1875
-0.762607694 1.28560364 28.1875
-0.709226549 0.328211665 28.1875
-0.519064724 -0.611622214 28.1875
-0.243075728 -1.28207076 28.1875
0.0678506494 -1.47212839 30.75
0.270430148 -1.2036624 30.75
0.363197565 -0.523047209 30.75
0.321295917 0.387346923 30.75
0.155952781 1.28358054 30.75
-0.0885283053 1.92550874 30.75
-0.346638918 2.14112711 30.75
-0.549218416 1.87266088 30.75
-0.641985774 1.19204593 30.75
-0.600084186 0.281652033 30.75
-0.43474108 -0.614581525 30.75
-0.190259784 -1.25651002 30.75
0.0764451027 -1.42853475 33.3125
0.260287195 -1.17692113 33.3125
0.347973317 -0.531668603 33.3125
0.316008002 0.334328234 33.3125
0.172956377 1.189026 33.3125
-0.042851001 1.80340946 33.3125
-0.273588806 2.01285458 33.3125
-0.457430929 1.76124084 33.3125
-0.545116961 1.11598837 33.3125
-0.513151646 0.249991834 33.3125
-0.370100111 -0.60470587 33.3125
-0.154292524 -1.21908975 33.3125
0.0725270733 -1.37445045 35.875
0.23887521 -1.13849175 35.875
0.321696699 -0.526823044 35.875
0.298799515 0.29665947 35.875
0.176319018 1.11130404 35.875
-0.0129262945 1.69882798 35.875
-0.218228295 1.90180397 35.875
-0.38457644 1.66584516 35.875
-0.467397928 1.05417633 35.875
-0.444500744 0.230694175 35.875
-0.322020262 -0.58395046 35.875
-0.1327748 -1.1714747 35.875
0.0608255826 -1.31569934 38.4375
0.210847557 -1.09430337 38.4375
0.289009929 -0.514585018 38.4375
0.27436918 0.268120885 38.4375
0.17084825 1.0440886 38.4375
0.0061855251 1.60539889 38.4375
-0.175497815 1.80164838 38.4375
-0.32551977 1.58025193 38.4375
-0.403682113 1.00053382 38.4375
-0.389041364 0.217828155 38.4375
-0.285520464 -0.558139563 38.4375
-0.120857626 -1.11944997 38.4375
0.0476516448 -1.25800192 41
0.188317135 -1.04948092 41
0.265469819 -0.499765188 41
0.25843665 0.243849218 41
0.169102222 0.982111514 41
0.0214035958 1.51720476 41
-0.145083562 1.70575142 41
-0.285749078 1.49723029 41
-0.362901688 0.947514713 41
-0.355868548 0.203900456 41
-0.26653412 -0.53436172 41
-0.118835375 -1.06945539 41
0.0363911651 -1.20730329 43.5625
0.169548064 -1.01084018 43.5625
0.246355027 -0.489819854 43.5625
0.246231735 0.216150761 43.5625
0.169211179 0.917907298 43.5625
0.0359310023 1.42741489 43.5625
-0.117896542 1.60815096 43.5625
-0.251053452 1.41168785 43.5625
-0.327860385 0.890667617 43.5625
-0.327737093 0.184697092 43.5625
-0.250716567 -0.517059445 43.5625
-0.117436267 -1.02656722 43.5625
0.0313910097 -1.16944385 46.125
0.157315686 -0.984483242 46.125
0.233539671 -0.491100758 46.125
0.239638835 0.178502142 46.125
0.17397888 0.844905913 46.125
0.0541533828 1.32954812 46.125
-0.087730594 1.50256944 46.125
-0.213655278 1.31760859 46.125
-0.289879233 0.82422632 46.125
-0.295978397 0.154623628 46.125
-0.230318442 -0.511780024 46.125
-0.110492863 -0.996422648 46.125
0.0352508649 -1.14728117 48.6875
0.154004633 -0.973253131 48.6875
0.228965908 -0.506604254 48.6875
0.2400489 0.127627313 48.6875
0.184283912 0.759499729 48.6875
0.0766131505 1.21970344 48.6875
-0.0541131571 1.3849268 48.6875
-0.17286694 1.21089864 48.6875
-0.247828215 0.74424988 48.6875
-0.258911192 0.110018492 48.6875
-0.203146204 -0.521853805 48.6875
-0.0954753384 -0.982057691 48.6875
0.0387345627 -1.13206351 51.25
0.150308371 -0.96868217 51.25
0.223451987 -0.528483391 51.25
0.238566652 0.0705820322 51.25
0.191602409 0.667994797 51.25
0.0951432884 1.10367894 51.25
-0.0249646194 1.26089287 51.25
-0.136538446 1.09751129 51.25
-0.209682032 0.65731281 51.25
-0.224796697 0.0582475066 51.25
-0.177832454 -0.539165258 51.25
-0.081373252 -0.974849582 51.25
0.0297628306 -1.11226618 53.8125
0.134116888 -0.959540486 53.8125
0.205094904 -0.546130061 53.8125
0.22367841 0.0171920657 53.8125
0.184887946 0.579484165 53.8125
0.0991174057 0.990080893 53.8125
-0.0106511228 1.13896251 53.8125
-0.115005188 0.986236513 53.8125
-0.185983211 0.572826207 53.8125
-0.204566687 0.00950419903 53.8125
-0.165776223 -0.55278784 53.8125
-0.0800056085 -0.963384628 53.8125
-0.00289984746 -1.03441906 56.375
0.0861120149 -0.903728604 56.375
0.148436934 -0.548652947 56.375
0.167374998 -0.0643344522 56.375
0.13785179 0.419454098 56.375
0.0677779987 0.773082137 56.375
-0.0240701623 0.901795149 56.375
-0.113082029 0.771104455 56.375
-0.175406933 0.416028857 56.375
-0.194344997 -0.0682895184 56.375
-0.164821789 -0.552078068 56.375
-0.0947479382 -0.905706286 56.375
-0.0705810189 -0.908780634 58.9375
-0.000821076334 -0.805822015 58.9375
0.0492738113 -0.52519995 58.9375
0.0662807673 -0.142106712 58.9375
0.0456427857 0.24080795 58.9375
-0.00711019337 0.520942628 58.9375
-0.0778430849 0.623235166 58.9375
-0.147603035 0.520276487 58.9375
-0.197697923 0.239654362 58.9375
-0.214704856 -0.143438697 58.9375
-0.194066882 -0.526353359 58.9375
-0.141313851 -0.806488156 58.9375
-0.184603989 -0.653198183 61.5
-0.1507148 -0.60275054 61.5
-0.125906184 -0.464924902 61.5
-0.116825603 -0.276651561 61.5
-0.125906184 -0.0883783102 61.5
-0.150714785 0.0494473279 61.5
-0.184603989 0.0998949707 61.5
-0.218493193 0.0494472086 61.5
-0.243301794 -0.0883783698 61.5
-0.252382368 -0.276651621 61.5
-0.243301794 -0.464924872 61.5
-0.218493164 -0.602750599 61.5
3 0 1 12
3 1 13 12
3 1 2 13
3 2 14 13
3 2 3 14
3 3 15 14
3 3 4 15
3 4 16 15
3 4 5 16
3 5 17 16
3 5 6 17
3 6 18 17
3 6 7 18
3 7 19 18
3 7 8 19
3 8 20 19
3 8 9 20
3 9 21 20
3 9 10 21
3 10 22 21
3 10 11 22
3 11 23 22
3 11 0 23
3 0 12 23
3 12 13 24
3 13 25 24
3 13 14 25
3 14 26 25
3 14 15 26
3 15 27 26
3 15 16 27
3 16 28 27
3 16 17 28
3 17 29 28
3 17 18 29
3 18 30 29
3 18 19 30
3 19 31 30
3 19 20 31
3 20 32 31
3 20 21 32
3 21 33 32
3 21 22 33
3 22 34 33
3 22 23 34
3 23 35 34
3 23 12 35
3 12 24 35
3 24 25 36
3 25 37 36
3 25 26 37
3 26 38 37
3 26 27 38
3 27 39 38
3 27 28 39
3 28 40 39
3 28 29 40
3 29 41 40
3 29 30 41
3 30 42 41
3 30 31 42
3 31 43 42
3 31 32 43
3 32 44 43
3 32 33 44
3 33 45 44
3 33 34 45
3 34 46 45
3 34 35 46
3 35 47 46
3 35 24 47
3 24 36 47
3 36 37 48
3 37 49 48
3 37 38 49
3 38 50 49
3 38 39 50
3 39 51 50
3 39 40 51
3 40 52 51
3 40 41 52
3 41 53 52
3 41 42 53
3 42 54 53
3 42 43 54
3 43 55 54
3 43 44 55
3 44 56 55
3 44 45 56
3 45 57 56
3 45 46 57
3 46 58 57
3 46 47 58
3 47 59 58
3 47 36 59
3 36 48 59
3 48 49 60
3 49 61 60
3 49 50 61
3 50 62 61
3 50 51 62
3 51 63 62
3 51 52 63
3 52 64 63
3 52 53 64
3 53 65 64
3 53 54 65
3 54 66 65
3 54 55 66
3 55 67 66
3 55 56 67
3 56 68 67
3 56 57 68
3 57 69 68
3 57 58 69
3 58 70 69
3 58 59 70
3 59 71 70
3 59 48 71
3 48 60 71
3 60 61 72
3 61 73 72
3 61 62 73
3 62 74 73
3 62 63 74
3 63 75 74
3 63 64 75
3 64 76 75
3 64 65 76
3 65 77 76
3 65 66 77
3 66 78 77
3 66 67 78
3 67 79 78
3 67 68 79
3 68 80 79
3 68 69 80
3 69 81 80
3 69 70 81
3 70 82 81
3 70 71 82
3 71 83 82
3 71 60 83
3 60 72 83
3 72 73 84
3 73 85 84
3 73 74 85
3 74 86 85
3 74 75 86
3 75 87 86
3 75 76 87
3 76 88 87
3 76 77 88
3 77 89 88
3 77 78 89
3 78 90 89
3 78 79 90
3 79 91 90
3 79 80 91
3 80 92 91
3 80 81 92
3 81 93 92
3 81 82 93
3 82 94 93
3 82 83 94
3 83 95 94
3 83 72 95
3 72 84 95
3 84 85 96
3 85 97 96
3 85 86 97
3 86 98 97
3 86 87 98
3 87 99 98
3 87 88 99
3 88 100 99
3 88 89 100
3 89 101 100
3 89 90 101
3 90 102 101
3 90 91 102
3 91 103 102
3 91 92 103
3 92 104 103
3 92 93 104
3 93 105 104
3 93 94 105
3 94 106 105
3 94 95 106
3 95 107 106
3 95 84 107
3 84 96 107
3 96 97 108
3 97 109 108
3 97 98 109
3 98 110 109
3 98 99 110
3 99 111 110
3 99 100 111
3 100 112 111
3 100 101 112
3 101 113 112
3 101 102 113
3 102 114 113
3 102 103 114
3 103 115 114
3 103 104 115
3 104 116 115
3 104 105 116
3 105 117 116
3 105 106 117
3 106 118 117
3 106 107 118
3 107 119 118
3 107 96 119
3 96 108 119
3 108 109 120
3 109 121 120
3 109 110 121
3 110 122 121
3 110 111 122
3 111 123 122
3 111 112 123
3 112 124 123
3 112 113 124
3 113 125 124
3 113 114 125
3 114 126 125
3 114 115 126
3 115 127 126
3 115 116 127
3 116 128 127
3 116 117 128
3 117 129 128
3 117 118 129
3 118 130 129
3 118 119 130
3 119 131 130
3 119 108 131
3 108 120 131
3 120 121 132
3 121 133 132
3 121 122 133
3 122 134 133
3 122 123 134
3 123 135 134
3 123 124 135
3 124 136 135
3 124 125 136
3 125 137 136
3 125 126 137
3 126 138 137
3 126 127 138
3 127 139 138
3 127 128 139
3 128 140 139
3 128 129 140
3 129 141 140
3 129 130 141
3 130 142 141
3 130 131 142
3 131 143 142
3 131 120 143
3 120 132 143
3 132 133 144
3 133 145 144
3 133 134 145
3 134 146 145
3 134 135 146
3 135 147 146
3 135 136 147
3 136 148 147
3 136 137 148
3 137 149 148
3 137 138 149
3 138 150 149
3 138 139 150
3 139 151 150
3 139 140 151
3 140 152 151
3 140 141 152
3 141 153 152
3 141 142 153
3 142 154 153
3 142 143 154
3 143 155 154
3 143 132 155
3 132 144 155
3 144 145 156
3 145 157 156
3 145 146 157
3 146 158 157
3 146 147 158
3 147 159 158
3 147 148 159
3 148 160 159
3 148 149 160
3 149 161 160
3 149 150 161
3 150 162 161
3 150 151 162
3 151 163 162
3 151 152 163
3 152 164 163
3 152 153 164
3 153 165 164
3 153 154 165
3 154 166 165
3 154 155 166
3 155 167 166
3 155 144 167
3 144 156 167
3 156 157 168
3 157 169 168
3 157 158 169
3 158 170 169
3 158 159 170
3 159 171 170
3 159 160 171
3 160 172 171
3 160 161 172
3 161 173 172
3 161 162 173
3 162 174 173
3 162 163 174
3 163 175 174
3 163 164 175
3 164 176 175
3 164 165 176
3 165 177 176
3 165 166 177
3 166 178 177
3 166 167 178
3 167 179 178
3 167 156 179
3 156 168 179
3 168 169 180
3 169 181 180
3 169 170 181
3 170 182 181
3 170 171 182
3 171 183 182
3 171 172 183
3 172 184 183
3 172 173 184
3 173 185 184
3 173 174 185
3 174 186 185
3 174 175 186
3 175 187 186
3 175 176 187
3 176 188 187
3 176 177 188
3 177 189 188
3 177 178 189
3 178 190 189
3 178 179 190
3 179 191 190
3 179 168 191
3 168 180 191
3 180 181 192
3 181 193 192
3 181 182 193
3 182 194 193
3 182 183 194
3 183 195 194
3 183 184 195
3 184 196 195
3 184 185 196
3 185 197 196
3 185 186 197
3 186 198 197
3 186 187 198
3 187 199 198
3 187 188 199
3 188 200 199
3 188 189 200
3 189 201 200
3 189 190 201
3 190 202 201
3 190 191 202
3 191 203 202
3 191 180 203
3 180 192 203
3 192 193 204
3 193 205 204
3 193 194 205
3 194 206 205
3 194 195 206
3 195 207 206
3 195 196 207
3 196 208 207
3 196 197 208
3 197 209 208
3 197 198 209
3 198 210 209
3 198 199 210
3 199 211 210
3 199 200 211
3 200 212 211
3 200 201 212
3 201 213 212
3 201 202 213
3 202 214 213
3 202 203 214
3 203 215 214
3 203 192 215
3 192 204 215
3 204 205 216
3 205 217 216
3 205 206 217
3 206 218 217
3 206 207 218
3 207 219 218
3 207 208 219
3 208 220 219
3 208 209 220
3 209 221 220
3 209 210 221
3 210 222 221
3 210 211 222
3 211 223 222
3 211 212 223
3 212 224 223
3 212 213 224
3 213 225 224
3 213 214 225
3 214 226 225
3 214 215 226
3 215 227 226
3 215 204 227
3 204 216 227
3 216 217 228
3 217 229 228
3 217 218 229
3 218 230 229
3 218 219 230
3 219 231 230
3 219 220 231
3 220 232 231
3 220 221 232
3 221 233 232
3 221 222 233
3 222 234 233
3 222 223 234
3 223 235 234
3 223 224 235
3 224 236 235
3 224 225 236
3 225 237 236
3 225 226 237
3 226 238 237
3 226 227 238
3 227 239 238
3 227 216 239
3 216 228 239
3 228 229 240
3 229 241 240
3 229 230 241
3 230 242 241
3 230 231 242
3 231 243 242
3 231 232 243
3 232 244 243
3 232 233 244
3 233 245 244
3 233 234 245
3 234 246 245
3 234 235 246
3 235 247 246
3 235 236 247
3 236 248 247
3 236 237 248
3 237 249 248
3 237 238 249
3 238 250 249
3 238 239 250
3 239 251 250
3 239 228 251
3 228 240 251
3 240 241 252
3 241 253 252
3 241 242 253
3 242 254 253
3 242 243 254
3 243 255 254
3 243 244 255
3 244 256 255
3 244 245 256
3 245 257 256
3 245 246 257
3 246 258 257
3 246 247 258
3 247 259 258
3 247 248 259
3 248 260 259
3 248 249 260
3 249 261 260
3 249 250 261
3 250 262 261
3 250 251 262
3 251 263 262
3 251 240 263
3 240 252 263
3 252 253 264
3 253 265 264
3 253 254 265
3 254 266 265
3 254 255 266
3 255 267 266
3 255 256 267
3 256 268 267
3 256 257 268
3 257 269 268
3 257 258 269
3 258 270 269
3 258 259 270
3 259 271 270
3 259 260 271
3 260 272 271
3 260 261 272
3 261 273 272
3 261 262 273
3 262 274 273
3 262 263 274
3 263 275 274
3 263 252 275
3 252 264 275
3 264 265 276
3 265 277 276
3 265 266 277
3 266 278 277
3 266 267 278
3 267 279 278
3 267 268 279
3 268 280 279
3 268 269 280
3 269 281 280
3 269 270 281
3 270 282 281
3 270 271 282
3 271 283 282
3 271 272 283
3 272 284 283
3 272 273 284
3 273 285 284
3 273 274 285
3 274 286 285
3 274 275 286
3 275 287 286
3 275 264 287
3 264 276 287
3 276 277 288
3 277 289 288
3 277 278 289
3 278 290 289
3 278 279 290
3 279 291 290
3 279 280 291
3 280 292 291
3 280 281 292
3 281 293 292
3 281 282 293
3 282 294 293
3 282 283 294
3 283 295 294
3 283 284 295
3 284 296 295
3 284 285 296
3 285 297 296
3 285 286 297
3 286 298 297
3 286 287 298
3 287 299 298
3 287 276 299
3 276 288 299
3 0 2 1
3 288 289 290
3 0 3 2
3 288 290 291
3 0 4 3
3 288 291 292
3 0 5 4
3 288 292 293
3 0 6 5
3 288 293 294
3 0 7 6
3 288 294 295
3 0 8 7
3 288 295 296
3 0 9 8
3 288 296 297
3 0 10 9
3 288 297 298
3 0 11 10
3 288 298 299
