ply
format ascii 1.0
element vertex 300
property float x
property float y
property float z
element face 596
property list uchar int vertex_indices
end_header
0.24335511 -1.0288229 0
1.20697117 -0.509795487 0
1.78197336 0.421503484 0
1.81429064 1.51553321 0
1.29526317 2.47914934 0
0.363964438 3.05415154 0
-0.730065584 3.0864687 0
-1.69368172 2.56744075 0
-2.26868367 1.63614213 0
-2.30100083 0.542112708 0
-1.78197348 -0.421503246 0
-0.850674033 -0.996505976 0
0.0786865652 -1.39765251 2.5625
1.02302694 -0.889007509 2.5625
1.58652699 0.0236620903 2.5625
1.6181978 1.09580731 2.5625
1.10955274 2.04014754 2.5625
0.196883291 2.60364795 2.5625
-0.875262141 2.63531828 2.5625
-1.81960249 2.12667298 2.5625
-2.38310242 1.21400356 2.5625
-2.41477299 0.141858697 2.5625
-1.90612817 -0.802481413 2.5625
-0.993458033 -1.36598206 2.5625
-0.07664904 -1.80593848 5.125
0.885371029 -1.28777075 5.125
1.45942116 -0.358014166 5.125
1.49168468 0.734203577 5.125
0.973516881 1.69622374 5.125
0.0437604785 2.27027392 5.125
-1.04845762 2.30253744 5.125
-2.01047754 1.78436899 5.125
-2.58452749 0.854612708 5.125
-2.61679101 -0.237604797 5.125
-2.09862351 -1.19962478 5.125
-1.16886616 -1.77367508 5.125
-0.233256981 -2.20884562 7.6875
0.585307956 -1.72079134 7.6875
1.05263054 -0.805846334 7.6875
1.04349208 0.290830851 7.6875
0.56034112 1.2753861 7.6875
-0.267362207 1.88400912 7.6875
-1.21783602 1.95361948 7.6875
-2.03640079 1.46556473 7.6875
-2.50372338 0.55061996 7.6875
-2.4945848 -0.546056867 7.6875
-2.01143408 -1.53061223 7.6875
-1.18373001 -2.1392355 7.6875
-0.391015947 -2.60688663 10.25
-0.037818253 -2.22646713 10.25
0.0877377391 -1.38569057 10.25
-0.0479905605 -0.309842467 10.25
-0.408634871 0.712804317 10.25
-0.897560775 1.40823317 10.25
-1.38376117 1.59010315 10.25
-1.73695886 1.20968342 10.25
-1.86251485 0.368907094 10.25
-1.72678661 -0.706940651 10.25
-1.36614227 -1.72958744 10.25
-0.877215981 -2.4250164 10.25
-0.350666881 -2.34731627 12.8125
-0.0111387968 -1.9779067 12.8125
0.115370333 -1.14136028 12.8125
-0.00503748655 -0.0618287325 12.8125
-0.340099156 0.971428156 12.8125
-0.800035 1.68155026 12.8125
-1.26160598 1.87826037 12.8125
-1.60113406 1.50885081 12.8125
-1.72764301 0.67230463 12.8125
-1.60723519 -0.407226562 12.8125
-1.27217364 -1.44048333 12.8125
-0.812237382 -2.15060568 12.8125
-0.311111629 -2.06979346 15.375
0.00822895765 -1.71563673 15.375
0.131345212 -0.896046758 15.375
0.0252482295 0.169368029 15.375
-0.281633437 1.19513059 15.375
-0.707071006 1.90638876 15.375
-1.13706899 2.11256123 15.375
-1.45640969 1.75840425 15.375
-1.57952571 0.93881464 15.375
-1.47342873 -0.126600027 15.375
-1.16654718 -1.15236247 15.375
-0.741109252 -1.863621 15.375
-0.271659881 -1.76625717 17.9375
0.0191916525 -1.43347323 17.9375
0.132893264 -0.649260461 17.9375
0.0389786959 0.376252055 17.9375
-0.237387657 1.36827874 17.9375
-0.622153759 2.0610075 17.9375
-1.01222181 2.26882124 17.9375
-1.30307329 1.93603706 17.9375
-1.41677487 1.15182447 17.9375
-1.32286036 0.126312256 17.9375
-1.04649401 -0.865714371 17.9375
-0.661727667 -1.55844331 17.9375
-0.231055275 -1.46306467 20.5
0.0326412022 -1.15030682 20.5
0.137286931 -0.400301099 20.5
0.0548422933 0.585988998 20.5
-0.192601919 1.54428768 20.5
-0.538743019 2.21781993 20.5
-0.89083302 2.42611289 20.5
-1.15452945 2.11335444 20.5
-1.25917518 1.36334908 20.5
-1.17673051 0.377059251 20.5
-0.929286361 -0.581239343 20.5
-0.583145022 -1.25477195 20.5
0.0253503621 -1.4255439 23.0625
0.271410406 -1.1228193 23.0625
0.371097922 -0.384979039 23.0625
0.297701746 0.590273261 23.0625
0.0708882809 1.54161942 23.0625
-0.248567939 2.21414757 23.0625
-0.575068951 2.42765331 23.0625
-0.821128964 2.12492847 23.0625
-0.920816541 1.38708818 23.0625
-0.847420335 0.411836088 23.0625
-0.620606899 -0.539510012 23.0625
-0.301150411 -1.21203828 23.0625
0.28110981 -1.38127589 25.625
0.513315797 -1.08926487 25.625
0.611160278 -0.367703527 25.625
0.548425913 0.590066135 25.625
0.341922283 1.52741027 25.625
0.0469819456 2.19316912 25.625
-0.2573663 2.408952 25.625
-0.489572287 2.1169405 25.625
-0.587416708 1.3953793 25.625
-0.524682343 0.437609971 25.625
-0.318178773 -0.499734223 25.625
-0.0232381672 -1.16549325 25.625
0.537184358 -1.33570826 28.1875
0.755544901 -1.05423844 28.1875
0.851383805 -0.349526793 28.1875
0.799021065 0.589599848 28.1875
0.612487257 1.51150298 28.1875
0.341763914 2.16915989 28.1875
0.0593911707 2.38635135 28.1875
-0.158969462 2.10488129 28.1875
-0.254808307 1.40016985 28.1875
-0.202445567 0.461043477 28.1875
-0.0159117877 -0.460859656 28.1875
0.254811764 -1.11851692 28.1875
0.793616414 -1.28881001 30.75
0.9981758 -1.01772022 30.75
1.0918498 -0.330453128 30.75
1.04953873 0.588838637 30.75
0.882579565 1.4938314 30.75
0.635709167 2.14203334 30.75
0.375075907 2.35975909 30.75
0.170516491 2.08866906 30.75
0.0768425465 1.40140224 30.75
0.119153619 0.482110679 30.75
0.286112696 -0.42288202 30.75
0.532983363 -1.07108438 30.75
0.454543889 -1.14473271 33.3125
0.641028285 -0.889502883 33.3125
0.729974747 -0.234976172 33.3125
0.697549999 0.643467546 33.3125
0.552442312 1.51044977 33.3125
0.333533168 2.13366342 33.3125
0.0994789898 2.34611917 33.3125
-0.0870054364 2.09088874 33.3125
-0.175951779 1.43636239 33.3125
-0.143527091 0.557919025 33.3125
0.00158056617 -0.309063166 33.3125
0.220489919 -0.932277441 33.3125
0.116528191 -1.00069308 35.875
0.285771966 -0.760626972 35.875
0.370035142 -0.138310879 35.875
0.346739411 0.699506104 35.875
0.222126856 1.5283314 35.875
0.0295873433 2.12608218 35.875
-0.179288402 2.33259153 35.875
-0.3485322 2.09252501 35.875
-0.432795346 1.47020924 35.875
-0.409499586 0.632392585 35.875
-0.284887075 -0.19643268 35.875
-0.0923473984 -0.794183969 35.875
-0.220438182 -0.856710136 38.4375
-0.0675962418 -0.631152749 38.4375
0.0120353699 -0.0405372605 38.4375
-0.00288060308 0.756881237 38.4375
-0.108347416 1.54743493 38.4375
-0.276105314 2.11929607 38.4375
-0.461203754 2.31923461 38.4375
-0.614045739 2.09367681 38.4375
-0.693677306 1.50306141 38.4375
-0.678761363 0.705643177 38.4375
-0.57329452 -0.084910512 38.4375
-0.405536503 -0.656771898 38.4375
-0.554759383 -0.712700546 41
-0.411495626 -0.500327826 41
-0.332917809 0.0595417991 41
-0.340080887 0.816891849 41
-0.43106544 1.56879067 41
-0.581492305 2.1137681 41
-0.751054645 2.30579734 41
-0.894318461 2.09342456 41
-0.972896218 1.53355479 41
-0.965733171 0.776205122 41
-0.874748588 0.0243062153 41
-0.724321663 -0.520671368 41
-0.394549221 -0.869855881 43.5625
-0.259330451 -0.670350552 43.5625
-0.181334138 -0.141262338 43.5625
-0.181459337 0.575640082 43.5625
-0.259672523 1.2882632 43.5625
-0.395016521 1.80566049 43.5625
-0.55122602 1.98919547 43.5625
-0.686444879 1.78968966 43.5625
-0.764441133 1.26060152 43.5625
-0.764315844 0.543699265 43.5625
-0.686102748 -0.168923706 43.5625
-0.5507586 -0.686321259 43.5625
-0.233505338 -1.02724349 46.125
-0.106236592 -0.840308726 46.125
-0.0291990042 -0.341660023 46.125
-0.0230347514 0.335090011 46.125
-0.0893955231 1.00860667 46.125
-0.210500017 1.49842191 46.125
-0.353898406 1.67329001 46.125
-0.481167167 1.48635507 46.125
-0.55820477 0.987706542 46.125
-0.564368963 0.310956627 46.125
-0.498008192 -0.362560034 46.125
-0.376903623 -0.852375627 46.125
-0.0710534304 -1.18485355 48.6875
0.0482020378 -1.01009035 48.6875
0.123479992 -0.54147011 48.6875
0.134609833 0.0954408646 48.6875
0.0786092281 0.729982674 48.6875
-0.0295163915 1.19213057 48.6875
-0.160794973 1.35805202 48.6875
-0.280050457 1.18328857 48.6875
-0.355328381 0.714668453 48.6875
-0.366458237 0.0777576566 48.6875
-0.310457647 -0.556784093 48.6875
-0.202331915 -1.01893222 48.6875
0.092506513 -1.34272051 51.25
0.203770205 -1.17979336 51.25
0.27671054 -0.740818024 51.25
0.291783214 -0.143417776 51.25
0.244949475 0.452334523 51.25
0.148758456 0.88680768 51.25
0.0289843827 1.0435847 51.25
-0.0822793394 0.880657434 51.25
-0.155219629 0.4416821 51.25
-0.170292273 -0.155717969 51.25
-0.123458579 -0.751470208 51.25
-0.027267471 -1.1859436 51.25
0.0491723791 -1.38337684 53.8125
0.15352872 -1.2306478 53.8125
0.224508315 -0.817228258 53.8125
0.243092224 -0.253893673 53.8125
0.20430091 0.308410823 53.8125
0.11852847 0.719016492 53.8125
0.00875753537 0.867901385 53.8125
-0.0955988318 0.715172231 53.8125
-0.166578397 0.301752627 53.8125
-0.185162291 -0.261581779 53.8125
-0.146370992 -0.823886216 53.8125
-0.060598474 -1.23449206 53.8125
0.0068293279 -1.38134658 56.375
0.0962682888 -1.25002909 56.375
0.158892274 -0.893249691 56.375
0.177921206 -0.4066073 56.375
0.148256332 0.0795025826 56.375
0.0778463036 0.434827507 56.375
-0.0144425686 0.564157903 56.375
-0.103881538 0.432840288 56.375
-0.166505486 0.0760608912 56.375
-0.185534418 -0.410581321 56.375
-0.155869544 -0.896691144 56.375
-0.0854594782 -1.25201619 56.375
-0.0342070758 -1.35731733 58.9375
0.0364507772 -1.25303352 58.9375
0.0871904641 -0.968799412 58.9375
0.104416326 -0.580775261 58.9375
0.0835126936 -0.19293195 58.9375
0.0300807096 0.0908082724 58.9375
-0.0415626168 0.194417715 58.9375
-0.112220481 0.090133667 58.9375
-0.162960142 -0.19410044 58.9375
-0.180185989 -0.582124412 58.9375
-0.159282386 -0.969967663 58.9375
-0.105850339 -1.25370812 58.9375
-0.0736032724 -1.23689568 61.5
-0.0388454609 -1.18515503 61.5
-0.0134009793 -1.04379678 61.5
-0.00408764929 -0.850697815 61.5
-0.0134009793 -0.657598853 61.5
-0.0388454571 -0.516240597 61.5
-0.0736032799 -0.46449995 61.5
-0.108361095 -0.516240716 61.5
-0.133805573 -0.657598972 61.5
-0.143118888 -0.850697815 61.5
-0.133805573 -1.04379678 61.5
-0.108361065 -1.18515503 61.5
3 0 1 12
3 1 13 12
3 1 2 13
3 2 14 13
3 2 3 14
3 3 15 14
3 3 4 15
3 4 16 15
3 4 5 16
3 5 17 16
3 5 6 17
3 6 18 17
3 6 7 18
3 7 19 18
3 7 8 19
3 8 20 19
3 8 9 20
3 9 21 20
3 9 10 21
3 10 22 21
3 10 11 22
3 11 23 22
3 11 0 23
3 0 12 23
3 12 13 24
3 13 25 24
3 13 14 25
3 14 26 25
3 14 15 26
3 15 27 26
3 15 16 27
3 16 28 27
3 16 17 28
3 17 29 28
3 17 18 29
3 18 30 29
3 18 19 30
3 19 31 30
3 19 20 31
3 20 32 31
3 20 21 32
3 21 33 32
3 21 22 33
3 22 34 33
3 22 23 34
3 23 35 34
3 23 12 35
3 12 24 35
3 24 25 36
3 25 37 36
3 25 26 37
3 26 38 37
3 26 27 38
3 27 39 38
3 27 28 39
3 28 40 39
3 28 29 40
3 29 41 40
3 29 30 41
3 30 42 41
3 30 31 42
3 31 43 42
3 31 32 43
3 32 44 43
3 32 33 44
3 33 45 44
3 33 34 45
3 34 46 45
3 34 35 46
3 35 47 46
3 35 24 47
3 24 36 47
3 36 37 48
3 37 49 48
3 37 38 49
3 38 50 49
3 38 39 50
3 39 51 50
3 39 40 51
3 40 52 51
3 40 41 52
3 41 53 52
3 41 42 53
3 42 54 53
3 42 43 54
3 43 55 54
3 43 44 55
3 44 56 55
3 44 45 56
3 45 57 56
3 45 46 57
3 46 58 57
3 46 47 58
3 47 59 58
3 47 36 59
3 36 48 59
3 48 49 60
3 49 61 60
3 49 50 61
3 50 62 61
3 50 51 62
3 51 63 62
3 51 52 63
3 52 64 63
3 52 53 64
3 53 65 64
3 53 54 65
3 54 66 65
3 54 55 66
3 55 67 66
3 55 56 67
3 56 68 67
3 56 57 68
3 57 69 68
3 57 58 69
3 58 70 69
3 58 59 70
3 59 71 70
3 59 48 71
3 48 60 71
3 60 61 72
3 61 73 72
3 61 62 73
3 62 74 73
3 62 63 74
3 63 75 74
3 63 64 75
3 64 76 75
3 64 65 76
3 65 77 76
3 65 66 77
3 66 78 77
3 66 67 78
3 67 79 78
3 67 68 79
3 68 80 79
3 68 69 80
3 69 81 80
3 69 70 81
3 70 82 81
3 70 71 82
3 71 83 82
3 71 60 83
3 60 72 83
3 72 73 84
3 73 85 84
3 73 74 85
3 74 86 85
3 74 75 86
3 75 87 86
3 75 76 87
3 76 88 87
3 76 77 88
3 77 89 88
3 77 78 89
3 78 90 89
3 78 79 90
3 79 91 90
3 79 80 91
3 80 92 91
3 80 81 92
3 81 93 92
3 81 82 93
3 82 94 93
3 82 83 94
3 83 95 94
3 83 72 95
3 72 84 95
3 84 85 96
3 85 97 96
3 85 86 97
3 86 98 97
3 86 87 98
3 87 99 98
3 87 88 99
3 88 100 99
3 88 89 100
3 89 101 100
3 89 90 101
3 90 102 101
3 90 91 102
3 91 103 102
3 91 92 103
3 92 104 103
3 92 93 104
3 93 105 104
3 93 94 105
3 94 106 105
3 94 95 106
3 95 107 106
3 95 84 107
3 84 96 107
3 96 97 108
3 97 109 108
3 97 98 109
3 98 110 109
3 98 99 110
3 99 111 110
3 99 100 111
3 100 112 111
3 100 101 112
3 101 113 112
3 101 102 113
3 102 114 113
3 102 103 114
3 103 115 114
3 103 104 115
3 104 116 115
3 104 105 116
3 105 117 116
3 105 106 117
3 106 118 117
3 106 107 118
3 107 119 118
3 107 96 119
3 96 108 119
3 108 109 120
3 109 121 120
3 109 110 121
3 110 122 121
3 110 111 122
3 111 123 122
3 111 112 123
3 112 124 123
3 112 113 124
3 113 125 124
3 113 114 125
3 114 126 125
3 114 115 126
3 115 127 126
3 115 116 127
3 116 128 127
3 116 117 128
3 117 129 128
3 117 118 129
3 118 130 129
3 118 119 130
3 119 131 130
3 119 108 131
3 108 120 131
3 120 121 132
3 121 133 132
3 121 122 133
3 122 134 133
3 122 123 134
3 123 135 134
3 123 124 135
3 124 136 135
3 124 125 136
3 125 137 136
3 125 126 137
3 126 138 137
3 126 127 138
3 127 139 138
3 127 128 139
3 128 140 139
3 128 129 140
3 129 141 140
3 129 130 141
3 130 142 141
3 130 131 142
3 131 143 142
3 131 120 143
3 120 132 143
3 132 133 144
3 133 145 144
3 133 134 145
3 134 146 145
3 134 135 146
3 135 147 146
3 135 136 147
3 136 148 147
3 136 137 148
3 137 149 148
3 137 138 149
3 138 150 149
3 138 139 150
3 139 151 150
3 139 140 151
3 140 152 151
3 140 141 152
3 141 153 152
3 141 142 153
3 142 154 153
3 142 143 154
3 143 155 154
3 143 132 155
3 132 144 155
3 144 145 156
3 145 157 156
3 145 146 157
3 146 158 157
3 146 147 158
3 147 159 158
3 147 148 159
3 148 160 159
3 148 149 160
3 149 161 160
3 149 150 161
3 150 162 161
3 150 151 162
3 151 163 162
3 151 152 163
3 152 164 163
3 152 153 164
3 153 165 164
3 153 154 165
3 154 166 165
3 154 155 166
3 155 167 166
3 155 144 167
3 144 156 167
3 156 157 168
3 157 169 168
3 157 158 169
3 158 170 169
3 158 159 170
3 159 171 170
3 159 160 171
3 160 172 171
3 160 161 172
3 161 173 172
3 161 162 173
3 162 174 173
3 162 163 174
3 163 175 174
3 163 164 175
3 164 176 175
3 164 165 176
3 165 177 176
3 165 166 177
3 166 178 177
3 166 167 178
3 167 179 178
3 167 156 179
3 156 168 179
3 168 169 180
3 169 181 180
3 169 170 181
3 170 182 181
3 170 171 182
3 171 183 182
3 171 172 183
3 172 184 183
3 172 173 184
3 173 185 184
3 173 174 185
3 174 186 185
3 174 175 186
3 175 187 186
3 175 176 187
3 176 188 187
3 176 177 188
3 177 189 188
3 177 178 189
3 178 190 189
3 178 179 190
3 179 191 190
3 179 168 191
3 168 180 191
3 180 181 192
3 181 193 192
3 181 182 193
3 182 194 193
3 182 183 194
3 183 195 194
3 183 184 195
3 184 196 195
3 184 185 196
3 185 197 196
3 185 186 197
3 186 198 197
3 186 187 198
3 187 199 198
3 187 188 199
3 188 200 199
3 188 189 200
3 189 201 200
3 189 190 201
3 190 202 201
3 190 191 202
3 191 203 202
3 191 180 203
3 180 192 203
3 192 193 204
3 193 205 204
3 193 194 205
3 194 206 205
3 194 195 206
3 195 207 206
3 195 196 207
3 196 208 207
3 196 197 208
3 197 209 208
3 197 198 209
3 198 210 209
3 198 199 210
3 199 211 210
3 199 200 211
3 200 212 211
3 200 201 212
3 201 213 212
3 201 202 213
3 202 214 213
3 202 203 214
3 203 215 214
3 203 192 215
3 192 204 215
3 204 205 216
3 205 217 216
3 205 206 217
3 206 218 217
3 206 207 218
3 207 219 218
3 207 208 219
3 208 220 219
3 208 209 220
3 209 221 220
3 209 210 221
3 210 222 221
3 210 211 222
3 211 223 222
3 211 212 223
3 212 224 223
3 212 213 224
3 213 225 224
3 213 214 225
3 214 226 225
3 214 215 226
3 215 227 226
3 215 204 227
3 204 216 227
3 216 217 228
3 217 229 228
3 217 218 229
3 218 230 229
3 218 219 230
3 219 231 230
3 219 220 231
3 220 232 231
3 220 221 232
3 221 233 232
3 221 222 233
3 222 234 233
3 222 223 234
3 223 235 234
3 223 224 235
3 224 236 235
3 224 225 236
3 225 237 236
3 225 226 237
3 226 238 237
3 226 227 238
3 227 239 238
3 227 216 239
3 216 228 239
3 228 229 240
3 229 241 240
3 229 230 241
3 230 242 241
3 230 231 242
3 231 243 242
3 231 232 243
3 232 244 243
3 232 233 244
3 233 245 244
3 233 234 245
3 234 246 245
3 234 235 246
3 235 247 246
3 235 236 247
3 236 248 247
3 236 237 248
3 237 249 248
3 237 238 249
3 238 250 249
3 238 239 250
3 239 251 250
3 239 228 251
3 228 240 251
3 240 241 252
3 241 253 252
3 241 242 253
3 242 254 253
3 242 243 254
3 243 255 254
3 243 244 255
3 244 256 255
3 244 245 256
3 245 257 256
3 245 246 257
3 246 258 257
3 246 247 258
3 247 259 258
3 247 248 259
3 248 260 259
3 248 249 260
3 249 261 260
3 249 250 261
3 250 262 261
3 250 251 262
3 251 263 262
3 251 240 263
3 240 252 263
3 252 253 264
3 253 265 264
3 253 254 265
3 254 266 265
3 254 255 266
3 255 267 266
3 255 256 267
3 256 268 267
3 256 257 268
3 257 269 268
3 257 258 269
3 258 270 269
3 258 259 270
3 259 271 270
3 259 260 271
3 260 272 271
3 260 261 272
3 261 273 272
3 261 262 273
3 262 274 273
3 262 263 274
3 263 275 274
3 263 252 275
3 252 264 275
3 264 265 276
3 265 277 276
3 265 266 277
3 266 278 277
3 266 267 278
3 267 279 278
3 267 268 279
3 268 280 279
3 268 269 280
3 269 281 280
3 269 270 281
3 270 282 281
3 270 271 282
3 271 283 282
3 271 272 283
3 272 284 283
3 272 273 284
3 273 285 284
3 273 274 285
3 274 286 285
3 274 275 286
3 275 287 286
3 275 264 287
3 264 276 287
3 276 277 288
3 277 289 288
3 277 278 289
3 278 290 289
3 278 279 290
3 279 291 290
3 279 280 291
3 280 292 291
3 280 281 292
3 281 293 292
3 281 282 293
3 282 294 293
3 282 283 294
3 283 295 294
3 283 284 295
3 284 296 295
3 284 285 296
3 285 297 296
3 285 286 297
3 286 298 297
3 286 287 298
3 287 299 298
3 287 276 299
3 276 288 299
3 0 2 1
3 288 289 290
3 0 3 2
3 288 290 291
3 0 4 3
3 288 291 292
3 0 5 4
3 288 292 293
3 0 6 5
3 288 293 294
3 0 7 6
3 288 294 295
3 0 8 7
3 288 295 296
3 0 9 8
3 288 296 297
3 0 10 9
3 288 297 298
3 0 11 10
3 288 298 299
