ply
format ascii 1.0
element vertex 300
property float x
property float y
property float z
element face 596
property list uchar int vertex_indices
end_header
0.219611868 -0.928444445 0
1.08921146 -0.460056603 0
1.60811293 0.380378962 0
1.63727701 1.36766827 0
1.16888916 2.23726773 0
0.328453779 2.75616932 0
-0.658835769 2.7853334 0
-1.52843547 2.31694508 0
-2.04733682 1.47650969 0
-2.07650065 0.489220709 0
-1.60811305 -0.380378753 0
-0.76767683 -0.899280548 0
0.129030079 -1.71853709 2.5625
0.967645466 -1.26683807 2.5625
1.46805823 -0.456347585 2.5625
1.49618328 0.495764196 2.5625
1.04448426 1.33437943 2.5625
0.233993918 1.83479214 2.5625
-0.718118131 1.86291718 2.5625
-1.55673361 1.41121793 2.5625
-2.05714607 0.600727618 2.5625
-2.08527112 -0.351383895 2.5625
-1.6335721 -1.1899991 2.5625
-0.823081195 -1.69041228 2.5625
0.0324205756 -2.18027043 5.125
0.893392801 -1.71652961 5.125
1.4071461 -0.884432077 5.125
1.43602085 0.0930621624 5.125
0.972280025 0.954034209 5.125
0.140182599 1.46778762 5.125
-0.837311804 1.49666226 5.125
-1.69828403 1.03292096 5.125
-2.21203732 0.200823784 5.125
-2.24091196 -0.776670098 5.125
-1.77717113 -1.63764215 5.125
-0.945073068 -2.1513958 5.125
-0.0649333596 -2.36097789 7.6875
0.68784523 -1.91214752 7.6875
1.11760998 -1.07073474 7.6875
1.10920596 -0.0621954203 7.6875
0.664884925 0.843233109 7.6875
-0.0962975025 1.40294218 7.6875
-0.970383584 1.46695805 7.6875
-1.72316217 1.01812744 7.6875
-2.15292692 0.176714897 7.6875
-2.14452267 -0.831824183 7.6875
-1.70020187 -1.73725271 7.6875
-0.939018726 -2.29696226 7.6875
-0.148054615 -2.34897423 10.25
0.190763026 -1.98404312 10.25
0.311207145 -1.17749786 10.25
0.181004852 -0.145451665 10.25
-0.164956272 0.835559249 10.25
-0.633976161 1.5026747 10.25
-1.10038149 1.67714012 10.25
-1.43919921 1.31220877 10.25
-1.55964315 0.505663395 10.25
-1.42944098 -0.526382446 10.25
-1.08347988 -1.50739336 10.25
-0.614459574 -2.17450881 10.25
-0.234412655 -2.18568754 12.8125
0.0930623412 -1.82939208 12.8125
0.2150805 -1.02254272 12.8125
0.0989470482 0.0186659098 12.8125
-0.224220067 1.01524258 12.8125
-0.6678285 1.70015597 12.8125
-1.11301374 1.88988304 12.8125
-1.44048882 1.53358722 12.8125
-1.56250691 0.726737857 12.8125
-1.44637346 -0.31447047 12.8125
-1.12320638 -1.31104708 12.8125
-0.679597616 -1.99596059 12.8125
-0.278115302 -1.9877162 15.375
0.0334932506 -1.64213455 15.375
0.153628558 -0.842388928 15.375
0.0501004159 0.197229445 15.375
-0.249350816 1.1981554 15.375
-0.664487481 1.89219236 15.375
-1.08407414 2.09337306 15.375
-1.39568257 1.74779081 15.375
-1.51581788 0.948045552 15.375
-1.41228974 -0.0915725827 15.375
-1.11283863 -1.09249854 15.375
-0.697701573 -1.78653574 15.375
-0.269078016 -1.81592119 17.9375
0.0187580884 -1.48658741 17.9375
0.131280899 -0.710505009 17.9375
0.0383400023 0.30437535 17.9375
-0.235161096 1.28611708 17.9375
-0.615938067 1.97166395 17.9375
-1.00196207 2.17732334 17.9375
-1.28979814 1.84798908 17.9375
-1.40232086 1.07190681 17.9375
-1.30938005 0.0570268631 17.9375
-1.0358789 -0.924714923 17.9375
-0.655101717 -1.61026192 17.9375
-0.215949059 -1.69888723 20.5
0.0490550995 -1.38457823 20.5
0.154219776 -0.630853295 20.5
0.0713662803 0.36032778 20.5
-0.177305013 1.32337856 20.5
-0.525162637 2.00025105 20.5
-0.878998637 2.20957685 20.5
-1.14400291 1.89526772 20.5
-1.24916744 1.14154291 20.5
-1.16631401 0.150362015 20.5
-0.917642713 -0.812688828 20.5
-0.56978488 -1.48956156 20.5
-0.133648008 -1.62194228 23.0625
0.110221118 -1.321913 23.0625
0.209021032 -0.590642452 23.0625
0.136278361 0.375926435 23.0625
-0.0885155797 1.31880188 23.0625
-0.405127376 1.98534155 23.0625
-0.728721261 2.19694638 23.0625
-0.972590446 1.89691687 23.0625
-1.07139027 1.16564655 23.0625
-0.998647571 0.199077964 23.0625
-0.773853779 -0.743797481 23.0625
-0.457241654 -1.41033745 23.0625
-0.0373781323 -1.56762123 25.625
0.189636275 -1.28213882 25.625
0.285293221 -0.576710045 25.625
0.223961428 0.359645963 25.625
0.0220747739 1.27603328 25.625
-0.266271412 1.92690694 25.625
-0.563815117 2.13786554 25.625
-0.79082948 1.85238254 25.625
-0.886486351 1.14695418 25.625
-0.825154543 0.210598409 25.625
-0.623267949 -0.705788791 25.625
-0.334921539 -1.35666275 25.625
0.0591587387 -1.52823961 28.1875
0.269674957 -1.25688124 28.1875
0.362070948 -0.577485681 28.1875
0.311589241 0.327903807 28.1875
0.13175647 1.21668863 28.1875
-0.129241407 1.85071969 28.1875
-0.401470244 2.06010914 28.1875
-0.611986458 1.78875041 28.1875
-0.70438242 1.10935497 28.1875
-0.653900743 0.203965724 28.1875
-0.474068016 -0.684818983 28.1875
-0.213069886 -1.31885052 28.1875
0.14136979 -1.49067032 30.75
0.335681856 -1.23316073 30.75
0.424663335 -0.580322027 30.75
0.384471774 0.292918086 30.75
0.225876421 1.15257549 30.75
-0.00862718374 1.76830626 30.75
-0.256204069 1.97512507 30.75
-0.450516135 1.71761513 30.75
-0.539497554 1.06477642 30.75
-0.499306023 0.191536665 30.75
-0.3407107 -0.668120742 30.75
-0.106206916 -1.28385162 30.75
0.197137147 -1.44455874 33.3125
0.375532329 -1.20040011 33.3125
0.460620433 -0.574265301 33.3125
0.429602206 0.266073525 33.3125
0.290788949 1.09544802 33.3125
0.0813755915 1.69162822 33.3125
-0.142525822 1.8948679 33.3125
-0.320921004 1.65070891 33.3125
-0.406009078 1.02457428 33.3125
-0.37499088 0.184235871 33.3125
-0.236177653 -0.645138621 33.3125
-0.0267641023 -1.24131918 33.3125
0.220641196 -1.3867985 35.875
0.38355431 -1.15571225 35.875
0.464665532 -0.556674361 35.875
0.442241162 0.249803483 35.875
0.322289884 1.04762602 35.875
0.13695243 1.62301755 35.875
-0.064110145 1.82180214 35.875
-0.227023244 1.59071565 35.875
-0.308134466 0.99167794 35.875
-0.285710096 0.185200393 35.875
-0.165758818 -0.612622082 35.875
0.0195787698 -1.18801403 35.875
0.208532035 -1.31690693 38.4375
0.356533349 -1.0984931 38.4375
0.433642954 -0.526582956 38.4375
0.419199377 0.245580614 38.4375
0.317072809 1.01109695 38.4375
0.154627919 1.56484652 38.4375
-0.024608314 1.75845289 38.4375
-0.172609657 1.54003882 38.4375
-0.249719203 0.968128622 38.4375
-0.235275656 0.19596535 38.4375
-0.133149058 -0.569550872 38.4375
0.0292959213 -1.12330103 38.4375
0.158991873 -1.23423219 41
0.298580766 -1.02730715 41
0.375142902 -0.481798857 41
0.368163615 0.256124049 41
0.279512882 0.988735795 41
0.132944748 1.51973367 41
-0.0322681516 1.70683718 41
-0.171857029 1.4999119 41
-0.248419166 0.954403877 41
-0.241439849 0.21648106 41
-0.152789176 -0.516130626 41
-0.00622089207 -1.04712892 41
0.0672836453 -1.13827324 43.5625
0.200073719 -0.942351282 43.5625
0.276669115 -0.422766209 43.5625
0.276546121 0.281259656 43.5625
0.199737787 0.981083155 43.5625
0.0668247342 1.489187 43.5625
-0.0865790546 1.66942537 43.5625
-0.219369113 1.47350323 43.5625
-0.295964509 0.953918338 43.5625
-0.295841515 0.249892592 43.5625
-0.219033182 -0.449930757 43.5625
-0.0861200243 -0.958035052 43.5625
-0.0704243183 -1.02835798 46.125
0.0557133704 -0.843084574 46.125
0.132066295 -0.348867536 46.125
0.138175786 0.321868062 46.125
0.0724047571 0.989399016 46.125
-0.0476234406 1.47486115 46.125
-0.189747423 1.648175 46.125
-0.315885127 1.46290159 46.125
-0.392238021 0.968684614 46.125
-0.398347497 0.297949135 46.125
-0.332576483 -0.369581789 46.125
-0.212548196 -0.855044246 46.125
-0.248858839 -0.910241008 48.6875
-0.129318982 -0.735061049 48.6875
-0.0538614988 -0.265323192 48.6875
-0.0427051485 0.373106718 48.6875
-0.098839283 1.00916171 48.6875
-0.20722276 1.47241187 48.6875
-0.338814408 1.63872886 48.6875
-0.458354294 1.4635489 48.6875
-0.533811748 0.993811071 48.6875
-0.544968128 0.35538131 48.6875
-0.488833964 -0.280673683 48.6875
-0.380450398 -0.743923903 48.6875
-0.431125075 -0.815787494 51.25
-0.317895144 -0.649981022 51.25
-0.243665844 -0.203248248 51.25
-0.228326812 0.40470928 51.25
-0.275988162 1.01098955 51.25
-0.373879075 1.45314062 51.25
-0.495769769 1.6126883 51.25
-0.608999729 1.44688165 51.25
-0.68322897 1.00014901 51.25
-0.698567986 0.392191648 51.25
-0.650906682 -0.214088693 51.25
-0.553015709 -0.656240046 51.25
-0.572373152 -0.783189893 53.8125
-0.46491316 -0.625918567 53.8125
-0.391822636 -0.200203747 53.8125
-0.372686028 0.37988469 53.8125
-0.412631005 0.958912373 53.8125
-0.50095433 1.3817296 53.8125
-0.613989949 1.53504252 53.8125
-0.721449912 1.37777102 53.8125
-0.794540405 0.952056289 53.8125
-0.813677013 0.371967942 53.8125
-0.773732066 -0.207059696 53.8125
-0.685408592 -0.62987709 53.8125
-0.626943409 -0.805997491 56.375
-0.533029318 -0.668109298 56.375
-0.467271984 -0.2934784 56.375
-0.447290897 0.217513293 56.375
-0.478440076 0.727945805 56.375
-0.552373052 1.1010493 56.375
-0.649279654 1.2368511 56.375
-0.743193746 1.09896266 56.375
-0.80895108 0.724331975 56.375
-0.828932166 0.213340431 56.375
-0.797783017 -0.29709211 56.375
-0.723849893 -0.670195937 56.375
-0.549255133 -0.940438032 58.9375
-0.472863913 -0.82769233 58.9375
-0.418007016 -0.520394564 58.9375
-0.399383426 -0.100884914 58.9375
-0.421983212 0.318429232 58.9375
-0.479750872 0.625193119 58.9375
-0.557207525 0.737209558 58.9375
-0.633598804 0.624463677 58.9375
-0.688455641 0.317165971 58.9375
-0.707079291 -0.1023435 58.9375
-0.684479475 -0.521657646 58.9375
-0.626711786 -0.828421712 58.9375
-0.293631226 -1.13571787 61.5
-0.254487216 -1.07744789 61.5
-0.225831836 -0.918251216 61.5
-0.215343237 -0.700784564 61.5
-0.225831836 -0.483317971 61.5
-0.254487216 -0.324121356 61.5
-0.293631226 -0.265851319 61.5
-0.332775235 -0.324121416 61.5
-0.361430615 -0.483318031 61.5
-0.371919215 -0.700784564 61.5
-0.361430615 -0.918251157 61.5
-0.332775205 -1.07744789 61.5
3 0 1 12
3 1 13 12
3 1 2 13
3 2 14 13
3 2 3 14
3 3 15 14
3 3 4 15
3 4 16 15
3 4 5 16
3 5 17 16
3 5 6 17
3 6 18 17
3 6 7 18
3 7 19 18
3 7 8 19
3 8 20 19
3 8 9 20
3 9 21 20
3 9 10 21
3 10 22 21
3 10 11 22
3 11 23 22
3 11 0 23
3 0 12 23
3 12 13 24
3 13 25 24
3 13 14 25
3 14 26 25
3 14 15 26
3 15 27 26
3 15 16 27
3 16 28 27
3 16 17 28
3 17 29 28
3 17 18 29
3 18 30 29
3 18 19 30
3 19 31 30
3 19 20 31
3 20 32 31
3 20 21 32
3 21 33 32
3 21 22 33
3 22 34 33
3 22 23 34
3 23 35 34
3 23 12 35
3 12 24 35
3 24 25 36
3 25 37 36
3 25 26 37
3 26 38 37
3 26 27 38
3 27 39 38
3 27 28 39
3 28 40 39
3 28 29 40
3 29 41 40
3 29 30 41
3 30 42 41
3 30 31 42
3 31 43 42
3 31 32 43
3 32 44 43
3 32 33 44
3 33 45 44
3 33 34 45
3 34 46 45
3 34 35 46
3 35 47 46
3 35 24 47
3 24 36 47
3 36 37 48
3 37 49 48
3 37 38 49
3 38 50 49
3 38 39 50
3 39 51 50
3 39 40 51
3 40 52 51
3 40 41 52
3 41 53 52
3 41 42 53
3 42 54 53
3 42 43 54
3 43 55 54
3 43 44 55
3 44 56 55
3 44 45 56
3 45 57 56
3 45 46 57
3 46 58 57
3 46 47 58
3 47 59 58
3 47 36 59
3 36 48 59
3 48 49 60
3 49 61 60
3 49 50 61
3 50 62 61
3 50 51 62
3 51 63 62
3 51 52 63
3 52 64 63
3 52 53 64
3 53 65 64
3 53 54 65
3 54 66 65
3 54 55 66
3 55 67 66
3 55 56 67
3 56 68 67
3 56 57 68
3 57 69 68
3 57 58 69
3 58 70 69
3 58 59 70
3 59 71 70
3 59 48 71
3 48 60 71
3 60 61 72
3 61 73 72
3 61 62 73
3 62 74 73
3 62 63 74
3 63 75 74
3 63 64 75
3 64 76 75
3 64 65 76
3 65 77 76
3 65 66 77
3 66 78 77
3 66 67 78
3 67 79 78
3 67 68 79
3 68 80 79
3 68 69 80
3 69 81 80
3 69 70 81
3 70 82 81
3 70 71 82
3 71 83 82
3 71 60 83
3 60 72 83
3 72 73 84
3 73 85 84
3 73 74 85
3 74 86 85
3 74 75 86
3 75 87 86
3 75 76 87
3 76 88 87
3 76 77 88
3 77 89 88
3 77 78 89
3 78 90 89
3 78 79 90
3 79 91 90
3 79 80 91
3 80 92 91
3 80 81 92
3 81 93 92
3 81 82 93
3 82 94 93
3 82 83 94
3 83 95 94
3 83 72 95
3 72 84 95
3 84 85 96
3 85 97 96
3 85 86 97
3 86 98 97
3 86 87 98
3 87 99 98
3 87 88 99
3 88 100 99
3 88 89 100
3 89 101 100
3 89 90 101
3 90 102 101
3 90 91 102
3 91 103 102
3 91 92 103
3 92 104 103
3 92 93 104
3 93 105 104
3 93 94 105
3 94 106 105
3 94 95 106
3 95 107 106
3 95 84 107
3 84 96 107
3 96 97 108
3 97 109 108
3 97 98 109
3 98 110 109
3 98 99 110
3 99 111 110
3 99 100 111
3 100 112 111
3 100 101 112
3 101 113 112
3 101 102 113
3 102 114 113
3 102 103 114
3 103 115 114
3 103 104 115
3 104 116 115
3 104 105 116
3 105 117 116
3 105 106 117
3 106 118 117
3 106 107 118
3 107 119 118
3 107 96 119
3 96 108 119
3 108 109 120
3 109 121 120
3 109 110 121
3 110 122 121
3 110 111 122
3 111 123 122
3 111 112 123
3 112 124 123
3 112 113 124
3 113 125 124
3 113 114 125
3 114 126 125
3 114 115 126
3 115 127 126
3 115 116 127
3 116 128 127
3 116 117 128
3 117 129 128
3 117 118 129
3 118 130 129
3 118 119 130
3 119 131 130
3 119 108 131
3 108 120 131
3 120 121 132
3 121 133 132
3 121 122 133
3 122 134 133
3 122 123 134
3 123 135 134
3 123 124 135
3 124 136 135
3 124 125 136
3 125 137 136
3 125 126 137
3 126 138 137
3 126 127 138
3 127 139 138
3 127 128 139
3 128 140 139
3 128 129 140
3 129 141 140
3 129 130 141
3 130 142 141
3 130 131 142
3 131 143 142
3 131 120 143
3 120 132 143
3 132 133 144
3 133 145 144
3 133 134 145
3 134 146 145
3 134 135 146
3 135 147 146
3 135 136 147
3 136 148 147
3 136 137 148
3 137 149 148
3 137 138 149
3 138 150 149
3 138 139 150
3 139 151 150
3 139 140 151
3 140 152 151
3 140 141 152
3 141 153 152
3 141 142 153
3 142 154 153
3 142 143 154
3 143 155 154
3 143 132 155
3 132 144 155
3 144 145 156
3 145 157 156
3 145 146 157
3 146 158 157
3 146 147 158
3 147 159 158
3 147 148 159
3 148 160 159
3 148 149 160
3 149 161 160
3 149 150 161
3 150 162 161
3 150 151 162
3 151 163 162
3 151 152 163
3 152 164 163
3 152 153 164
3 153 165 164
3 153 154 165
3 154 166 165
3 154 155 166
3 155 167 166
3 155 144 167
3 144 156 167
3 156 157 168
3 157 169 168
3 157 158 169
3 158 170 169
3 158 159 170
3 159 171 170
3 159 160 171
3 160 172 171
3 160 161 172
3 161 173 172
3 161 162 173
3 162 174 173
3 162 163 174
3 163 175 174
3 163 164 175
3 164 176 175
3 164 165 176
3 165 177 176
3 165 166 177
3 166 178 177
3 166 167 178
3 167 179 178
3 167 156 179
3 156 168 179
3 168 169 180
3 169 181 180
3 169 170 181
3 170 182 181
3 170 171 182
3 171 183 182
3 171 172 183
3 172 184 183
3 172 173 184
3 173 185 184
3 173 174 185
3 174 186 185
3 174 175 186
3 175 187 186
3 175 176 187
3 176 188 187
3 176 177 188
3 177 189 188
3 177 178 189
3 178 190 189
3 178 179 190
3 179 191 190
3 179 168 191
3 168 180 191
3 180 181 192
3 181 193 192
3 181 182 193
3 182 194 193
3 182 183 194
3 183 195 194
3 183 184 195
3 184 196 195
3 184 185 196
3 185 197 196
3 185 186 197
3 186 198 197
3 186 187 198
3 187 199 198
3 187 188 199
3 188 200 199
3 188 189 200
3 189 201 200
3 189 190 201
3 190 202 201
3 190 191 202
3 191 203 202
3 191 180 203
3 180 192 203
3 192 193 204
3 193 205 204
3 193 194 205
3 194 206 205
3 194 195 206
3 195 207 206
3 195 196 207
3 196 208 207
3 196 197 208
3 197 209 208
3 197 198 209
3 198 210 209
3 198 199 210
3 199 211 210
3 199 200 211
3 200 212 211
3 200 201 212
3 201 213 212
3 201 202 213
3 202 214 213
3 202 203 214
3 203 215 214
3 203 192 215
3 192 204 215
3 204 205 216
3 205 217 216
3 205 206 217
3 206 218 217
3 206 207 218
3 207 219 218
3 207 208 219
3 208 220 219
3 208 209 220
3 209 221 220
3 209 210 221
3 210 222 221
3 210 211 222
3 211 223 222
3 211 212 223
3 212 224 223
3 212 213 224
3 213 225 224
3 213 214 225
3 214 226 225
3 214 215 226
3 215 227 226
3 215 204 227
3 204 216 227
3 216 217 228
3 217 229 228
3 217 218 229
3 218 230 229
3 218 219 230
3 219 231 230
3 219 220 231
3 220 232 231
3 220 221 232
3 221 233 232
3 221 222 233
3 222 234 233
3 222 223 234
3 223 235 234
3 223 224 235
3 224 236 235
3 224 225 236
3 225 237 236
3 225 226 237
3 226 238 237
3 226 227 238
3 227 239 238
3 227 216 239
3 216 228 239
3 228 229 240
3 229 241 240
3 229 230 241
3 230 242 241
3 230 231 242
3 231 243 242
3 231 232 243
3 232 244 243
3 232 233 244
3 233 245 244
3 233 234 245
3 234 246 245
3 234 235 246
3 235 247 246
3 235 236 247
3 236 248 247
3 236 237 248
3 237 249 248
3 237 238 249
3 238 250 249
3 238 239 250
3 239 251 250
3 239 228 251
3 228 240 251
3 240 241 252
3 241 253 252
3 241 242 253
3 242 254 253
3 242 243 254
3 243 255 254
3 243 244 255
3 244 256 255
3 244 245 256
3 245 257 256
3 245 246 257
3 246 258 257
3 246 247 258
3 247 259 258
3 247 248 259
3 248 260 259
3 248 249 260
3 249 261 260
3 249 250 261
3 250 262 261
3 250 251 262
3 251 263 262
3 251 240 263
3 240 252 263
3 252 253 264
3 253 265 264
3 253 254 265
3 254 266 265
3 254 255 266
3 255 267 266
3 255 256 267
3 256 268 267
3 256 257 268
3 257 269 268
3 257 258 269
3 258 270 269
3 258 259 270
3 259 271 270
3 259 260 271
3 260 272 271
3 260 261 272
3 261 273 272
3 261 262 273
3 262 274 273
3 262 263 274
3 263 275 274
3 263 252 275
3 252 264 275
3 264 265 276
3 265 277 276
3 265 266 277
3 266 278 277
3 266 267 278
3 267 279 278
3 267 268 279
3 268 280 279
3 268 269 280
3 269 281 280
3 269 270 281
3 270 282 281
3 270 271 282
3 271 283 282
3 271 272 283
3 272 284 283
3 272 273 284
3 273 285 284
3 273 274 285
3 274 286 285
3 274 275 286
3 275 287 286
3 275 264 287
3 264 276 287
3 276 277 288
3 277 289 288
3 277 278 289
3 278 290 289
3 278 279 290
3 279 291 290
3 279 280 291
3 280 292 291
3 280 281 292
3 281 293 292
3 281 282 293
3 282 294 293
3 282 283 294
3 283 295 294
3 283 284 295
3 284 296 295
3 284 285 296
3 285 297 296
3 285 286 297
3 286 298 297
3 286 287 298
3 287 299 298
3 287 276 299
3 276 288 299
3 0 2 1
3 288 289 290
3 0 3 2
3 288 290 291
3 0 4 3
3 288 291 292
3 0 5 4
3 288 292 293
3 0 6 5
3 288 293 294
3 0 7 6
3 288 294 295
3 0 8 7
3 288 295 296
3 0 9 8
3 288 296 297
3 0 10 9
3 288 297 298
3 0 11 10
3 288 298 299
