<?xml version="1.0"?>
<VTKFile type="PolyData" version="0.1" byte_order="LittleEndian">
  <PolyData>
    <Piece NumberOfPoints="     19" NumberOfVerts="  0" NumberOfLines="     18"
           NumberOfStrips="  0" NumberOfPolys="      0">
      <Points>
        <DataArray type="Float32" NumberOfComponents="3" format="ascii">
                      -5.13049                      -1.29780                      89.25927
                      -5.25094                      -2.47850                      88.58154
                      -5.52416                      -4.79151                      87.14719
                      -5.81523                      -7.08156                      85.67575
                      -6.19290                      -9.93034                      83.81460
                      -6.59085                     -13.42208                      81.69981
                      -6.96391                     -16.97939                      79.69553
                      -7.34788                     -20.53758                      77.69471
                      -7.74023                     -24.09763                      75.69862
                      -8.14193                     -27.65855                      73.70571
                      -8.55458                     -31.21847                      71.71297
                      -8.97734                     -34.77816                      69.72160
                      -9.41087                     -38.33758                      67.73167
                      -9.85586                     -41.89670                      65.74323
                     -10.31061                     -45.45549                      63.75593
                     -10.69694                     -48.42093                      62.10070
                     -11.01037                     -50.79700                      60.78392
                     -11.32487                     -53.20039                      59.51517
                     -11.48741                     -54.38111                      58.84510
        </DataArray>
      </Points>
      <PointData>
        <DataArray type="Float32" Name="Force" NumberOfComponents="3" format="ascii">
                       0.00000                       0.00000                       0.00000
                       0.00000                       0.00000                       0.00000
                       0.00000                       0.00000                       0.00000
                       0.00000                       0.00000                       0.00000
                       0.00000                       0.00000                       0.00000
                       0.00000                       0.00000                       0.00000
                       0.00000                       0.00000                       0.00000
                       0.00000                       0.00000                       0.00000
                       0.00000                       0.00000                       0.00000
                       0.00000                       0.00000                       0.00000
                       0.00000                       0.00000                       0.00000
                       0.00000                       0.00000                       0.00000
                       0.00000                       0.00000                       0.00000
                       0.00000                       0.00000                       0.00000
                       0.00000                       0.00000                       0.00000
                       0.00000                       0.00000                       0.00000
                       0.00000                       0.00000                       0.00000
                       0.00000                       0.00000                       0.00000
                       0.00000                       0.00000                       0.00000
        </DataArray>
        <DataArray type="Float32" Name="Moment" NumberOfComponents="3" format="ascii">
                       0.00000                       0.00000                       0.00000
                       0.00000                       0.00000                       0.00000
                       0.00000                       0.00000                       0.00000
                       0.00000                       0.00000                       0.00000
                       0.00000                       0.00000                       0.00000
                       0.00000                       0.00000                       0.00000
                       0.00000                       0.00000                       0.00000
                       0.00000                       0.00000                       0.00000
                       0.00000                       0.00000                       0.00000
                       0.00000                       0.00000                       0.00000
                       0.00000                       0.00000                       0.00000
                       0.00000                       0.00000                       0.00000
                       0.00000                       0.00000                       0.00000
                       0.00000                       0.00000                       0.00000
                       0.00000                       0.00000                       0.00000
                       0.00000                       0.00000                       0.00000
                       0.00000                       0.00000                       0.00000
                       0.00000                       0.00000                       0.00000
                       0.00000                       0.00000                       0.00000
        </DataArray>
        <DataArray type="Float32" Name="TranslationalVelocity" NumberOfComponents="3" format="ascii">
                       0.00000                       0.00000                       0.00000
                       0.00000                       0.00000                       0.00000
                       0.00000                       0.00000                       0.00000
                       0.00000                       0.00000                       0.00000
                       0.00000                       0.00000                       0.00000
                       0.00000                       0.00000                       0.00000
                       0.00000                       0.00000                       0.00000
                       0.00000                       0.00000                       0.00000
                       0.00000                       0.00000                       0.00000
                       0.00000                       0.00000                       0.00000
                       0.00000                       0.00000                       0.00000
                       0.00000                       0.00000                       0.00000
                       0.00000                       0.00000                       0.00000
                       0.00000                       0.00000                       0.00000
                       0.00000                       0.00000                       0.00000
                       0.00000                       0.00000                       0.00000
                       0.00000                       0.00000                       0.00000
                       0.00000                       0.00000                       0.00000
                       0.00000                       0.00000                       0.00000
        </DataArray>
        <DataArray type="Float32" Name="RotationalVelocity" NumberOfComponents="3" format="ascii">
                       0.00000                       0.00000                       0.00000
                       0.00000                       0.00000                       0.00000
                       0.00000                       0.00000                       0.00000
                       0.00000                       0.00000                       0.00000
                       0.00000                       0.00000                       0.00000
                       0.00000                       0.00000                       0.00000
                       0.00000                       0.00000                       0.00000
                       0.00000                       0.00000                       0.00000
                       0.00000                       0.00000                       0.00000
                       0.00000                       0.00000                       0.00000
                       0.00000                       0.00000                       0.00000
                       0.00000                       0.00000                       0.00000
                       0.00000                       0.00000                       0.00000
                       0.00000                       0.00000                       0.00000
                       0.00000                       0.00000                       0.00000
                       0.00000                       0.00000                       0.00000
                       0.00000                       0.00000                       0.00000
                       0.00000                       0.00000                       0.00000
                       0.00000                       0.00000                       0.00000
        </DataArray>
        <DataArray type="Float32" Name="TranslationalAcceleration" NumberOfComponents="3" format="ascii">
                       0.00000                       0.00000                       0.00000
                       0.00000                       0.00000                       0.00000
                       0.00000                       0.00000                       0.00000
                       0.00000                       0.00000                       0.00000
                       0.00000                       0.00000                       0.00000
                       0.00000                       0.00000                       0.00000
                       0.00000                       0.00000                       0.00000
                       0.00000                       0.00000                       0.00000
                       0.00000                       0.00000                       0.00000
                       0.00000                       0.00000                       0.00000
                       0.00000                       0.00000                       0.00000
                       0.00000                       0.00000                       0.00000
                       0.00000                       0.00000                       0.00000
                       0.00000                       0.00000                       0.00000
                       0.00000                       0.00000                       0.00000
                       0.00000                       0.00000                       0.00000
                       0.00000                       0.00000                       0.00000
                       0.00000                       0.00000                       0.00000
                       0.00000                       0.00000                       0.00000
        </DataArray>
        <DataArray type="Float32" Name="OrientationX" NumberOfComponents="3" format="ascii">
                       0.94930                       0.07833                      -0.30447
                       0.94930                       0.07833                      -0.30447
                       0.94930                       0.07833                      -0.30447
                       0.94930                       0.07833                      -0.30447
                       0.94930                       0.07833                      -0.30447
                       0.95845                       0.06249                      -0.27833
                       0.96445                       0.05103                      -0.25931
                       0.96926                       0.04100                      -0.24258
                       0.97393                       0.03039                      -0.22481
                       0.97827                       0.01945                      -0.20641
                       0.98195                       0.00911                      -0.18893
                       0.98518                      -0.00116                      -0.17151
                       0.98775                      -0.01046                      -0.15567
                       0.98948                      -0.01751                      -0.14362
                       0.99098                      -0.02445                      -0.13174
                       0.99210                      -0.03024                      -0.12178
                       0.99284                      -0.03455                      -0.11437
                       0.99320                      -0.03685                      -0.11040
                       0.99320                      -0.03685                      -0.11040
        </DataArray>
        <DataArray type="Float32" Name="OrientationY" NumberOfComponents="3" format="ascii">
                       0.30211                      -0.49527                       0.81452
                       0.30211                      -0.49527                       0.81452
                       0.30211                      -0.49527                       0.81452
                       0.30211                      -0.49527                       0.81452
                       0.30211                      -0.49527                       0.81452
                       0.27167                      -0.49752                       0.82382
                       0.24955                      -0.49882                       0.83000
                       0.23013                      -0.49975                       0.83504
                       0.20951                      -0.50050                       0.84000
                       0.18820                      -0.50105                       0.84471
                       0.16796                      -0.50134                       0.84879
                       0.14782                      -0.50142                       0.85248
                       0.12952                      -0.50132                       0.85552
                       0.11561                      -0.50112                       0.85762
                       0.10191                      -0.50083                       0.85953
                       0.09043                      -0.50051                       0.86099
                       0.08189                      -0.50023                       0.86201
                       0.07732                      -0.50007                       0.86253
                       0.07732                      -0.50007                       0.86253
        </DataArray>
        <DataArray type="Float32" Name="OrientationZ" NumberOfComponents="3" format="ascii">
                      -0.08699                      -0.86520                      -0.49382
                      -0.08699                      -0.86520                      -0.49382
                      -0.08699                      -0.86520                      -0.49382
                      -0.08699                      -0.86520                      -0.49382
                      -0.08699                      -0.86520                      -0.49382
                      -0.08699                      -0.86520                      -0.49382
                      -0.08699                      -0.86520                      -0.49382
                      -0.08699                      -0.86520                      -0.49382
                      -0.08699                      -0.86520                      -0.49382
                      -0.08699                      -0.86520                      -0.49382
                      -0.08699                      -0.86520                      -0.49382
                      -0.08699                      -0.86520                      -0.49382
                      -0.08699                      -0.86520                      -0.49382
                      -0.08699                      -0.86520                      -0.49382
                      -0.08699                      -0.86520                      -0.49382
                      -0.08699                      -0.86520                      -0.49382
                      -0.08699                      -0.86520                      -0.49382
                      -0.08699                      -0.86520                      -0.49382
                      -0.08699                      -0.86520                      -0.49382
        </DataArray>
      </PointData>
      <Lines>
        <DataArray type="Int32" Name="connectivity" format="ascii">
      0      1
      1      2
      2      3
      3      4
      4      5
      5      6
      6      7
      7      8
      8      9
      9     10
     10     11
     11     12
     12     13
     13     14
     14     15
     15     16
     16     17
     17     18
        </DataArray>
        <DataArray type="Int32" Name="offsets" format="ascii">
      2
      4
      6
      8
     10
     12
     14
     16
     18
     20
     22
     24
     26
     28
     30
     32
     34
     36
        </DataArray>
      </Lines>
    </Piece>
  </PolyData>
</VTKFile>
