<?xml version="1.0"?>
<VTKFile type="PolyData" version="0.1" byte_order="LittleEndian">
  <PolyData>
    <Piece NumberOfPoints="     49" NumberOfVerts="  0" NumberOfLines="     48"
           NumberOfStrips="  0" NumberOfPolys="      0">
      <Points>
        <DataArray type="Float32" NumberOfComponents="3" format="ascii">
                      -5.13049                      -1.29780                      89.25927
                      -5.14788                      -1.47073                      89.16057
                      -5.23524                      -2.33591                      88.66679
                      -5.32312                      -3.20107                      88.17307
                      -5.41153                      -4.06621                      87.67941
                      -5.50046                      -4.93133                      87.18581
                      -5.58992                      -5.79643                      86.69226
                      -5.67990                      -6.66150                      86.19878
                      -5.77041                      -7.52656                      85.70535
                      -5.86156                      -8.39267                      85.21136
                      -5.95300                      -9.25662                      84.71865
                      -6.04508                     -10.12162                      84.22540
                      -6.13769                     -10.98660                      83.73219
                      -6.23083                     -11.85156                      83.23905
                      -6.32460                     -12.71756                      82.74535
                      -6.41867                     -13.58142                      82.25294
                      -6.51338                     -14.44631                      81.75996
                      -6.60862                     -15.31119                      81.26705
                      -6.80078                     -17.04195                      80.28079
                      -6.99487                     -18.77104                      79.29567
                      -7.19112                     -20.50058                      78.31047
                      -7.38947                     -22.23004                      77.32551
                      -7.58992                     -23.95942                      76.34077
                      -7.79254                     -25.68925                      75.35597
                      -7.99713                     -27.41793                      74.37200
                      -8.20388                     -29.14707                      73.38795
                      -8.41274                     -30.87613                      72.40414
                      -8.62370                     -32.60511                      71.42056
                      -8.83682                     -34.33454                      70.43690
                      -9.05191                     -36.06282                      69.45409
                      -9.26917                     -37.79156                      68.47119
                      -9.48853                     -39.52022                      67.48853
                      -9.70999                     -41.24880                      66.50610
                      -9.93369                     -42.97836                      65.52329
                     -10.15922                     -44.70572                      64.54192
                     -10.38698                     -46.43406                      63.56018
                     -10.61685                     -48.16232                      62.57867
                     -10.73257                     -49.02642                      62.08800
                     -10.84882                     -49.89050                      61.59739
                     -10.96559                     -50.75456                      61.10683
                     -11.02417                     -51.18658                      60.86158
                     -11.08303                     -51.61966                      60.61573
                     -11.14173                     -52.05061                      60.37111
                     -11.20071                     -52.48262                      60.12589
                     -11.25981                     -52.91462                      59.88070
                     -11.31905                     -53.34662                      59.63551
                     -11.37842                     -53.77861                      59.39034
                     -11.43792                     -54.21060                      59.14519
                     -11.47370                     -54.46990                      58.99804
        </DataArray>
      </Points>
      <PointData>
        <DataArray type="Float32" Name="RefOrientationX" NumberOfComponents="3" format="ascii">
                       0.94930                       0.07833                      -0.30447
                       0.94908                       0.07858                      -0.30508
                       0.94820                       0.07951                      -0.30758
                       0.94762                       0.07991                      -0.30923
                       0.94735                       0.07984                      -0.31010
                       0.94733                       0.07934                      -0.31026
                       0.94756                       0.07846                      -0.30979
                       0.94801                       0.07722                      -0.30874
                       0.94864                       0.07566                      -0.30717
                       0.94944                       0.07382                      -0.30513
                       0.95039                       0.07173                      -0.30269
                       0.95145                       0.06942                      -0.29988
                       0.95261                       0.06691                      -0.29675
                       0.95385                       0.06423                      -0.29333
                       0.95515                       0.06141                      -0.28968
                       0.95650                       0.05847                      -0.28582
                       0.95788                       0.05542                      -0.28179
                       0.95927                       0.05228                      -0.27761
                       0.96207                       0.04582                      -0.26893
                       0.96482                       0.03922                      -0.25998
                       0.96746                       0.03255                      -0.25092
                       0.96996                       0.02591                      -0.24188
                       0.97229                       0.01935                      -0.23296
                       0.97445                       0.01291                      -0.22422
                       0.97643                       0.00663                      -0.21574
                       0.97823                       0.00053                      -0.20753
                       0.97986                      -0.00539                      -0.19961
                       0.98133                      -0.01113                      -0.19199
                       0.98266                      -0.01668                      -0.18466
                       0.98385                      -0.02205                      -0.17762
                       0.98492                      -0.02724                      -0.17087
                       0.98587                      -0.03227                      -0.16439
                       0.98671                      -0.03712                      -0.15819
                       0.98745                      -0.04180                      -0.15228
                       0.98810                      -0.04628                      -0.14669
                       0.98865                      -0.05054                      -0.14147
                       0.98911                      -0.05454                      -0.13669
                       0.98931                      -0.05643                      -0.13449
                       0.98948                      -0.05823                      -0.13244
                       0.98963                      -0.05993                      -0.13055
                       0.98969                      -0.06074                      -0.12967
                       0.98975                      -0.06153                      -0.12884
                       0.98981                      -0.06228                      -0.12806
                       0.98986                      -0.06300                      -0.12734
                       0.98990                      -0.06370                      -0.12667
                       0.98993                      -0.06435                      -0.12607
                       0.98996                      -0.06497                      -0.12552
                       0.98998                      -0.06555                      -0.12505
                       0.98999                      -0.06588                      -0.12479
        </DataArray>
        <DataArray type="Float32" Name="RefOrientationY" NumberOfComponents="3" format="ascii">
                       0.30211                      -0.49527                       0.81452
                       0.30276                      -0.49524                       0.81430
                       0.30537                      -0.49513                       0.81339
                       0.30698                      -0.49510                       0.81280
                       0.30769                      -0.49515                       0.81250
                       0.30757                      -0.49526                       0.81247
                       0.30672                      -0.49544                       0.81269
                       0.30518                      -0.49567                       0.81313
                       0.30305                      -0.49595                       0.81376
                       0.30037                      -0.49626                       0.81456
                       0.29721                      -0.49660                       0.81551
                       0.29363                      -0.49697                       0.81658
                       0.28967                      -0.49735                       0.81776
                       0.28539                      -0.49774                       0.81903
                       0.28082                      -0.49814                       0.82037
                       0.27603                      -0.49853                       0.82175
                       0.27103                      -0.49892                       0.82318
                       0.26586                      -0.49930                       0.82463
                       0.25515                      -0.50002                       0.82758
                       0.24414                      -0.50067                       0.83050
                       0.23300                      -0.50124                       0.83335
                       0.22190                      -0.50172                       0.83609
                       0.21094                      -0.50210                       0.83869
                       0.20020                      -0.50240                       0.84113
                       0.18977                      -0.50262                       0.84342
                       0.17965                      -0.50276                       0.84555
                       0.16988                      -0.50282                       0.84753
                       0.16047                      -0.50283                       0.84936
                       0.15139                      -0.50277                       0.85106
                       0.14267                      -0.50266                       0.85263
                       0.13427                      -0.50250                       0.85409
                       0.12620                      -0.50231                       0.85543
                       0.11845                      -0.50208                       0.85667
                       0.11104                      -0.50182                       0.85782
                       0.10402                      -0.50154                       0.85886
                       0.09741                      -0.50124                       0.85981
                       0.09132                      -0.50094                       0.86065
                       0.08849                      -0.50079                       0.86104
                       0.08583                      -0.50064                       0.86139
                       0.08336                      -0.50050                       0.86171
                       0.08221                      -0.50043                       0.86186
                       0.08111                      -0.50036                       0.86201
                       0.08007                      -0.50030                       0.86214
                       0.07909                      -0.50024                       0.86227
                       0.07817                      -0.50018                       0.86238
                       0.07733                      -0.50013                       0.86249
                       0.07655                      -0.50007                       0.86259
                       0.07586                      -0.50003                       0.86268
                       0.07548                      -0.50000                       0.86273
        </DataArray>
        <DataArray type="Float32" Name="RefOrientationZ" NumberOfComponents="3" format="ascii">
                      -0.08699                      -0.86520                      -0.49382
                      -0.08709                      -0.86520                      -0.49381
                      -0.08762                      -0.86517                      -0.49376
                      -0.08815                      -0.86515                      -0.49370
                      -0.08867                      -0.86513                      -0.49364
                      -0.08920                      -0.86511                      -0.49358
                      -0.08972                      -0.86509                      -0.49353
                      -0.09025                      -0.86507                      -0.49346
                      -0.09077                      -0.86505                      -0.49340
                      -0.09130                      -0.86503                      -0.49334
                      -0.09182                      -0.86501                      -0.49328
                      -0.09235                      -0.86499                      -0.49322
                      -0.09287                      -0.86497                      -0.49316
                      -0.09340                      -0.86494                      -0.49310
                      -0.09392                      -0.86492                      -0.49304
                      -0.09445                      -0.86490                      -0.49298
                      -0.09497                      -0.86488                      -0.49292
                      -0.09549                      -0.86485                      -0.49286
                      -0.09655                      -0.86480                      -0.49274
                      -0.09759                      -0.86475                      -0.49263
                      -0.09864                      -0.86470                      -0.49251
                      -0.09969                      -0.86464                      -0.49239
                      -0.10074                      -0.86459                      -0.49227
                      -0.10179                      -0.86454                      -0.49215
                      -0.10284                      -0.86448                      -0.49203
                      -0.10389                      -0.86443                      -0.49191
                      -0.10494                      -0.86437                      -0.49178
                      -0.10599                      -0.86432                      -0.49165
                      -0.10703                      -0.86426                      -0.49153
                      -0.10808                      -0.86420                      -0.49140
                      -0.10913                      -0.86415                      -0.49127
                      -0.11018                      -0.86409                      -0.49114
                      -0.11122                      -0.86403                      -0.49101
                      -0.11227                      -0.86396                      -0.49088
                      -0.11332                      -0.86390                      -0.49075
                      -0.11437                      -0.86383                      -0.49063
                      -0.11541                      -0.86376                      -0.49050
                      -0.11594                      -0.86373                      -0.49044
                      -0.11646                      -0.86369                      -0.49038
                      -0.11698                      -0.86366                      -0.49031
                      -0.11724                      -0.86364                      -0.49028
                      -0.11751                      -0.86363                      -0.49025
                      -0.11777                      -0.86361                      -0.49022
                      -0.11803                      -0.86359                      -0.49018
                      -0.11829                      -0.86357                      -0.49015
                      -0.11855                      -0.86356                      -0.49012
                      -0.11881                      -0.86354                      -0.49008
                      -0.11907                      -0.86353                      -0.49005
                      -0.11923                      -0.86352                      -0.49002
        </DataArray>
      </PointData>
      <Lines>
        <DataArray type="Int32" Name="connectivity" format="ascii">
      0      1
      1      2
      2      3
      3      4
      4      5
      5      6
      6      7
      7      8
      8      9
      9     10
     10     11
     11     12
     12     13
     13     14
     14     15
     15     16
     16     17
     17     18
     18     19
     19     20
     20     21
     21     22
     22     23
     23     24
     24     25
     25     26
     26     27
     27     28
     28     29
     29     30
     30     31
     31     32
     32     33
     33     34
     34     35
     35     36
     36     37
     37     38
     38     39
     39     40
     40     41
     41     42
     42     43
     43     44
     44     45
     45     46
     46     47
     47     48
        </DataArray>
        <DataArray type="Int32" Name="offsets" format="ascii">
      2
      4
      6
      8
     10
     12
     14
     16
     18
     20
     22
     24
     26
     28
     30
     32
     34
     36
     38
     40
     42
     44
     46
     48
     50
     52
     54
     56
     58
     60
     62
     64
     66
     68
     70
     72
     74
     76
     78
     80
     82
     84
     86
     88
     90
     92
     94
     96
        </DataArray>
      </Lines>
    </Piece>
  </PolyData>
</VTKFile>
