<?xml version="1.0"?>
<VTKFile type="PolyData" version="0.1" byte_order="LittleEndian">
  <PolyData>
    <Piece NumberOfPoints="     19" NumberOfVerts="  0" NumberOfLines="     18"
           NumberOfStrips="  0" NumberOfPolys="      0">
      <Points>
        <DataArray type="Float32" NumberOfComponents="3" format="ascii">
                      -5.13049                       1.29780                      89.25927
                      -5.25041                       2.48195                      88.58748
                      -5.50831                       4.89653                      87.32838
                      -5.77727                       7.33298                      86.10956
                      -6.12328                      10.39154                      84.61038
                      -6.50482                      13.99194                      82.68308
                      -6.88111                      17.52790                      80.64197
                      -7.26869                      21.06215                      78.59983
                      -7.66532                      24.59388                      76.55487
                      -8.07166                      28.12400                      74.50882
                      -8.48878                      31.65430                      72.46498
                      -8.91607                      35.18407                      70.42199
                      -9.35415                      38.71327                      68.37991
                      -9.80375                      42.24191                      66.33888
                     -10.26311                      45.77013                      64.29883
                     -10.65330                      48.71003                      62.59952
                     -10.97101                      51.05775                      61.23382
                     -11.29809                      53.37776                      59.82123
                     -11.46063                      54.55849                      59.15115
        </DataArray>
      </Points>
      <PointData>
        <DataArray type="Float32" Name="Force" NumberOfComponents="3" format="ascii">
                       0.00000                       0.00000                       0.00000
                       0.00000                       0.00000                       0.00000
                       0.00000                       0.00000                       0.00000
                       0.00000                       0.00000                       0.00000
                       0.00000                       0.00000                       0.00000
                       0.00000                       0.00000                       0.00000
                       0.00000                       0.00000                       0.00000
                       0.00000                       0.00000                       0.00000
                       0.00000                       0.00000                       0.00000
                       0.00000                       0.00000                       0.00000
                       0.00000                       0.00000                       0.00000
                       0.00000                       0.00000                       0.00000
                       0.00000                       0.00000                       0.00000
                       0.00000                       0.00000                       0.00000
                       0.00000                       0.00000                       0.00000
                       0.00000                       0.00000                       0.00000
                       0.00000                       0.00000                       0.00000
                       0.00000                       0.00000                       0.00000
                       0.00000                       0.00000                       0.00000
        </DataArray>
        <DataArray type="Float32" Name="Moment" NumberOfComponents="3" format="ascii">
                       0.00000                       0.00000                       0.00000
                       0.00000                       0.00000                       0.00000
                       0.00000                       0.00000                       0.00000
                       0.00000                       0.00000                       0.00000
                       0.00000                       0.00000                       0.00000
                       0.00000                       0.00000                       0.00000
                       0.00000                       0.00000                       0.00000
                       0.00000                       0.00000                       0.00000
                       0.00000                       0.00000                       0.00000
                       0.00000                       0.00000                       0.00000
                       0.00000                       0.00000                       0.00000
                       0.00000                       0.00000                       0.00000
                       0.00000                       0.00000                       0.00000
                       0.00000                       0.00000                       0.00000
                       0.00000                       0.00000                       0.00000
                       0.00000                       0.00000                       0.00000
                       0.00000                       0.00000                       0.00000
                       0.00000                       0.00000                       0.00000
                       0.00000                       0.00000                       0.00000
        </DataArray>
        <DataArray type="Float32" Name="TranslationalVelocity" NumberOfComponents="3" format="ascii">
                       0.00000                       0.00000                       0.00000
                       0.00000                       0.00000                       0.00000
                       0.00000                       0.00000                       0.00000
                       0.00000                       0.00000                       0.00000
                       0.00000                       0.00000                       0.00000
                       0.00000                       0.00000                       0.00000
                       0.00000                       0.00000                       0.00000
                       0.00000                       0.00000                       0.00000
                       0.00000                       0.00000                       0.00000
                       0.00000                       0.00000                       0.00000
                       0.00000                       0.00000                       0.00000
                       0.00000                       0.00000                       0.00000
                       0.00000                       0.00000                       0.00000
                       0.00000                       0.00000                       0.00000
                       0.00000                       0.00000                       0.00000
                       0.00000                       0.00000                       0.00000
                       0.00000                       0.00000                       0.00000
                       0.00000                       0.00000                       0.00000
                       0.00000                       0.00000                       0.00000
        </DataArray>
        <DataArray type="Float32" Name="RotationalVelocity" NumberOfComponents="3" format="ascii">
                       0.00000                       0.00000                       0.00000
                       0.00000                       0.00000                       0.00000
                       0.00000                       0.00000                       0.00000
                       0.00000                       0.00000                       0.00000
                       0.00000                       0.00000                       0.00000
                       0.00000                       0.00000                       0.00000
                       0.00000                       0.00000                       0.00000
                       0.00000                       0.00000                       0.00000
                       0.00000                       0.00000                       0.00000
                       0.00000                       0.00000                       0.00000
                       0.00000                       0.00000                       0.00000
                       0.00000                       0.00000                       0.00000
                       0.00000                       0.00000                       0.00000
                       0.00000                       0.00000                       0.00000
                       0.00000                       0.00000                       0.00000
                       0.00000                       0.00000                       0.00000
                       0.00000                       0.00000                       0.00000
                       0.00000                       0.00000                       0.00000
                       0.00000                       0.00000                       0.00000
        </DataArray>
        <DataArray type="Float32" Name="TranslationalAcceleration" NumberOfComponents="3" format="ascii">
                       0.00000                       0.00000                       0.00000
                       0.00000                       0.00000                       0.00000
                       0.00000                       0.00000                       0.00000
                       0.00000                       0.00000                       0.00000
                       0.00000                       0.00000                       0.00000
                       0.00000                       0.00000                       0.00000
                       0.00000                       0.00000                       0.00000
                       0.00000                       0.00000                       0.00000
                       0.00000                       0.00000                       0.00000
                       0.00000                       0.00000                       0.00000
                       0.00000                       0.00000                       0.00000
                       0.00000                       0.00000                       0.00000
                       0.00000                       0.00000                       0.00000
                       0.00000                       0.00000                       0.00000
                       0.00000                       0.00000                       0.00000
                       0.00000                       0.00000                       0.00000
                       0.00000                       0.00000                       0.00000
                       0.00000                       0.00000                       0.00000
                       0.00000                       0.00000                       0.00000
        </DataArray>
        <DataArray type="Float32" Name="OrientationX" NumberOfComponents="3" format="ascii">
                       0.98405                       0.15185                       0.09271
                       0.98405                       0.15185                       0.09271
                       0.98405                       0.15185                       0.09271
                       0.98405                       0.15185                       0.09271
                       0.98405                       0.15185                       0.09271
                       0.98850                       0.13653                       0.06508
                       0.99108                       0.12540                       0.04512
                       0.99291                       0.11562                       0.02767
                       0.99440                       0.10524                       0.00922
                       0.99548                       0.09451                      -0.00977
                       0.99605                       0.08433                      -0.02772
                       0.99621                       0.07419                      -0.04550
                       0.99598                       0.06498                      -0.06161
                       0.99559                       0.05798                      -0.07380
                       0.99500                       0.05108                      -0.08579
                       0.99437                       0.04530                      -0.09579
                       0.99381                       0.04100                      -0.10323
                       0.99348                       0.03870                      -0.10720
                       0.99348                       0.03870                      -0.10720
        </DataArray>
        <DataArray type="Float32" Name="OrientationY" NumberOfComponents="3" format="ascii">
                       0.15520                      -0.47788                      -0.86461
                       0.15520                      -0.47788                      -0.86461
                       0.15520                      -0.47788                      -0.86461
                       0.15520                      -0.47788                      -0.86461
                       0.15520                      -0.47788                      -0.86461
                       0.12373                      -0.48248                      -0.86712
                       0.10096                      -0.48549                      -0.86839
                       0.08103                      -0.48791                      -0.86912
                       0.05994                      -0.49026                      -0.86951
                       0.03822                      -0.49244                      -0.86951
                       0.01766                      -0.49428                      -0.86912
                      -0.00273                      -0.49591                      -0.86837
                      -0.02122                      -0.49720                      -0.86738
                      -0.03522                      -0.49806                      -0.86643
                      -0.04900                      -0.49882                      -0.86532
                      -0.06051                      -0.49937                      -0.86427
                      -0.06906                      -0.49975                      -0.86341
                      -0.07364                      -0.49993                      -0.86293
                      -0.07364                      -0.49993                      -0.86293
        </DataArray>
        <DataArray type="Float32" Name="OrientationZ" NumberOfComponents="3" format="ascii">
                      -0.08699                       0.86520                      -0.49382
                      -0.08699                       0.86520                      -0.49382
                      -0.08699                       0.86520                      -0.49382
                      -0.08699                       0.86520                      -0.49382
                      -0.08699                       0.86520                      -0.49382
                      -0.08699                       0.86520                      -0.49382
                      -0.08699                       0.86520                      -0.49382
                      -0.08699                       0.86520                      -0.49382
                      -0.08699                       0.86520                      -0.49382
                      -0.08699                       0.86520                      -0.49382
                      -0.08699                       0.86520                      -0.49382
                      -0.08699                       0.86520                      -0.49382
                      -0.08699                       0.86520                      -0.49382
                      -0.08699                       0.86520                      -0.49382
                      -0.08699                       0.86520                      -0.49382
                      -0.08699                       0.86520                      -0.49382
                      -0.08699                       0.86520                      -0.49382
                      -0.08699                       0.86520                      -0.49382
                      -0.08699                       0.86520                      -0.49382
        </DataArray>
      </PointData>
      <Lines>
        <DataArray type="Int32" Name="connectivity" format="ascii">
      0      1
      1      2
      2      3
      3      4
      4      5
      5      6
      6      7
      7      8
      8      9
      9     10
     10     11
     11     12
     12     13
     13     14
     14     15
     15     16
     16     17
     17     18
        </DataArray>
        <DataArray type="Int32" Name="offsets" format="ascii">
      2
      4
      6
      8
     10
     12
     14
     16
     18
     20
     22
     24
     26
     28
     30
     32
     34
     36
        </DataArray>
      </Lines>
    </Piece>
  </PolyData>
</VTKFile>
