<?xml version="1.0"?>
<VTKFile type="PolyData" version="0.1" byte_order="LittleEndian">
  <PolyData>
    <Piece NumberOfPoints="     20" NumberOfVerts="  0" NumberOfLines="      0"
           NumberOfStrips="  0" NumberOfPolys="      0">
      <Points>
        <DataArray type="Float32" NumberOfComponents="3" format="ascii">
                       0.00000                       0.00000                       2.19000
                       0.00000                       0.00000                       6.57000
                       0.00000                       0.00000                      10.95000
                       0.00000                       0.00000                      15.33000
                       0.00000                       0.00000                      19.71000
                       0.00000                       0.00000                      24.09000
                       0.00000                       0.00000                      28.47000
                       0.00000                       0.00000                      32.85000
                       0.00000                       0.00000                      37.23000
                       0.00000                       0.00000                      41.61000
                       0.00000                       0.00000                      45.99001
                       0.00000                       0.00000                      50.37001
                       0.00000                       0.00000                      54.75001
                       0.00000                       0.00000                      59.13001
                       0.00000                       0.00000                      63.51001
                       0.00000                       0.00000                      67.89001
                       0.00000                       0.00000                      72.27000
                       0.00000                       0.00000                      76.65000
                       0.00000                       0.00000                      81.03000
                       0.00000                       0.00000                      85.41000
        </DataArray>
      </Points>
      <PointData>
        <DataArray type="Float32" Name="RefOrientationX" NumberOfComponents="3" format="ascii">
                       1.00000                       0.00000                       0.00000
                       1.00000                       0.00000                       0.00000
                       1.00000                       0.00000                       0.00000
                       1.00000                       0.00000                       0.00000
                       1.00000                       0.00000                       0.00000
                       1.00000                       0.00000                       0.00000
                       1.00000                       0.00000                       0.00000
                       1.00000                       0.00000                       0.00000
                       1.00000                       0.00000                       0.00000
                       1.00000                       0.00000                       0.00000
                       1.00000                       0.00000                       0.00000
                       1.00000                       0.00000                       0.00000
                       1.00000                       0.00000                       0.00000
                       1.00000                       0.00000                       0.00000
                       1.00000                       0.00000                       0.00000
                       1.00000                       0.00000                       0.00000
                       1.00000                       0.00000                       0.00000
                       1.00000                       0.00000                       0.00000
                       1.00000                       0.00000                       0.00000
                       1.00000                       0.00000                       0.00000
        </DataArray>
        <DataArray type="Float32" Name="RefOrientationY" NumberOfComponents="3" format="ascii">
                       0.00000                       1.00000                       0.00000
                       0.00000                       1.00000                       0.00000
                       0.00000                       1.00000                       0.00000
                       0.00000                       1.00000                       0.00000
                       0.00000                       1.00000                       0.00000
                       0.00000                       1.00000                       0.00000
                       0.00000                       1.00000                       0.00000
                       0.00000                       1.00000                       0.00000
                       0.00000                       1.00000                       0.00000
                       0.00000                       1.00000                       0.00000
                       0.00000                       1.00000                       0.00000
                       0.00000                       1.00000                       0.00000
                       0.00000                       1.00000                       0.00000
                       0.00000                       1.00000                       0.00000
                       0.00000                       1.00000                       0.00000
                       0.00000                       1.00000                       0.00000
                       0.00000                       1.00000                       0.00000
                       0.00000                       1.00000                       0.00000
                       0.00000                       1.00000                       0.00000
                       0.00000                       1.00000                       0.00000
        </DataArray>
        <DataArray type="Float32" Name="RefOrientationZ" NumberOfComponents="3" format="ascii">
                       0.00000                       0.00000                       1.00000
                       0.00000                       0.00000                       1.00000
                       0.00000                       0.00000                       1.00000
                       0.00000                       0.00000                       1.00000
                       0.00000                       0.00000                       1.00000
                       0.00000                       0.00000                       1.00000
                       0.00000                       0.00000                       1.00000
                       0.00000                       0.00000                       1.00000
                       0.00000                       0.00000                       1.00000
                       0.00000                       0.00000                       1.00000
                       0.00000                       0.00000                       1.00000
                       0.00000                       0.00000                       1.00000
                       0.00000                       0.00000                       1.00000
                       0.00000                       0.00000                       1.00000
                       0.00000                       0.00000                       1.00000
                       0.00000                       0.00000                       1.00000
                       0.00000                       0.00000                       1.00000
                       0.00000                       0.00000                       1.00000
                       0.00000                       0.00000                       1.00000
                       0.00000                       0.00000                       1.00000
        </DataArray>
      </PointData>
    </Piece>
  </PolyData>
</VTKFile>
