<?xml version="1.0"?>
<VTKFile type="PolyData" version="0.1" byte_order="LittleEndian">
  <PolyData>
    <Piece NumberOfPoints="     49" NumberOfVerts="  0" NumberOfLines="     48"
           NumberOfStrips="  0" NumberOfPolys="      0">
      <Points>
        <DataArray type="Float32" NumberOfComponents="3" format="ascii">
                      -4.93457                       0.00000                      91.49857
                      -4.92586                       0.00000                      91.69826
                      -4.88261                       0.00000                      92.69731
                      -4.83989                       0.00000                      93.69639
                      -4.79770                       0.00000                      94.69549
                      -4.75604                       0.00000                      95.69462
                      -4.71490                       0.00000                      96.69376
                      -4.67429                       0.00000                      97.69293
                      -4.63421                       0.00000                      98.69212
                      -4.59461                       0.00000                      99.69257
                      -4.55564                       0.00000                     100.69057
                      -4.51714                       0.00000                     101.68984
                      -4.47918                       0.00000                     102.68913
                      -4.44174                       0.00000                     103.68843
                      -4.40478                       0.00000                     104.68900
                      -4.36845                       0.00000                     105.68712
                      -4.33259                       0.00000                     106.68649
                      -4.29727                       0.00000                     107.68590
                      -4.22816                       0.00000                     109.68600
                      -4.16123                       0.00000                     111.68434
                      -4.09639                       0.00000                     113.68340
                      -4.03367                       0.00000                     115.68254
                      -3.97305                       0.00000                     117.68179
                      -3.91454                       0.00000                     119.68173
                      -3.85817                       0.00000                     121.68053
                      -3.80390                       0.00000                     123.68005
                      -3.75173                       0.00000                     125.67966
                      -3.70169                       0.00000                     127.67936
                      -3.65374                       0.00000                     129.67976
                      -3.60793                       0.00000                     131.67905
                      -3.56423                       0.00000                     133.67902
                      -3.52263                       0.00000                     135.67909
                      -3.48315                       0.00000                     137.67924
                      -3.44576                       0.00000                     139.68073
                      -3.41053                       0.00000                     141.67984
                      -3.37738                       0.00000                     143.68028
                      -3.34635                       0.00000                     145.68082
                      -3.33163                       0.00000                     146.68112
                      -3.31744                       0.00000                     147.68144
                      -3.30377                       0.00000                     148.68178
                      -3.29714                       0.00000                     149.18196
                      -3.29062                       0.00000                     149.68338
                      -3.28426                       0.00000                     150.18234
                      -3.27803                       0.00000                     150.68254
                      -3.27192                       0.00000                     151.18275
                      -3.26594                       0.00000                     151.68297
                      -3.26010                       0.00000                     152.18318
                      -3.25439                       0.00000                     152.68340
                      -3.25103                       0.00000                     152.98366
        </DataArray>
      </Points>
      <PointData>
        <DataArray type="Float32" Name="RefOrientationX" NumberOfComponents="3" format="ascii">
                       0.97222                      -0.23019                      -0.04245
                       0.97207                      -0.23085                      -0.04234
                       0.97145                      -0.23354                      -0.04180
                       0.97107                      -0.23521                      -0.04127
                       0.97091                      -0.23595                      -0.04075
                       0.97096                      -0.23584                      -0.04023
                       0.97119                      -0.23497                      -0.03973
                       0.97159                      -0.23341                      -0.03923
                       0.97213                      -0.23123                      -0.03874
                       0.97279                      -0.22849                      -0.03825
                       0.97356                      -0.22527                      -0.03776
                       0.97442                      -0.22161                      -0.03728
                       0.97535                      -0.21757                      -0.03680
                       0.97634                      -0.21319                      -0.03632
                       0.97736                      -0.20852                      -0.03584
                       0.97841                      -0.20362                      -0.03536
                       0.97948                      -0.19851                      -0.03488
                       0.98055                      -0.19324                      -0.03440
                       0.98267                      -0.18231                      -0.03343
                       0.98472                      -0.17108                      -0.03246
                       0.98666                      -0.15973                      -0.03148
                       0.98845                      -0.14842                      -0.03049
                       0.99009                      -0.13727                      -0.02950
                       0.99158                      -0.12635                      -0.02849
                       0.99290                      -0.11574                      -0.02748
                       0.99407                      -0.10547                      -0.02646
                       0.99510                      -0.09555                      -0.02543
                       0.99600                      -0.08600                      -0.02440
                       0.99677                      -0.07680                      -0.02337
                       0.99744                      -0.06796                      -0.02233
                       0.99800                      -0.05945                      -0.02128
                       0.99848                      -0.05128                      -0.02024
                       0.99887                      -0.04344                      -0.01919
                       0.99919                      -0.03594                      -0.01814
                       0.99944                      -0.02884                      -0.01709
                       0.99963                      -0.02216                      -0.01603
                       0.99976                      -0.01600                      -0.01498
                       0.99981                      -0.01314                      -0.01445
                       0.99985                      -0.01046                      -0.01392
                       0.99988                      -0.00797                      -0.01340
                       0.99989                      -0.00680                      -0.01313
                       0.99990                      -0.00568                      -0.01287
                       0.99991                      -0.00463                      -0.01260
                       0.99992                      -0.00364                      -0.01234
                       0.99992                      -0.00272                      -0.01208
                       0.99993                      -0.00187                      -0.01181
                       0.99993                      -0.00109                      -0.01155
                       0.99994                      -0.00038                      -0.01128
                       0.99994                       0.00000                      -0.01112
        </DataArray>
        <DataArray type="Float32" Name="RefOrientationY" NumberOfComponents="3" format="ascii">
                       0.22997                       0.97315                      -0.01004
                       0.23064                       0.97299                      -0.01004
                       0.23333                       0.97235                      -0.01003
                       0.23500                       0.97194                      -0.00998
                       0.23574                       0.97177                      -0.00989
                       0.23564                       0.97179                      -0.00976
                       0.23477                       0.97200                      -0.00960
                       0.23322                       0.97238                      -0.00941
                       0.23105                       0.97290                      -0.00921
                       0.22832                       0.97355                      -0.00898
                       0.22510                       0.97430                      -0.00874
                       0.22145                       0.97514                      -0.00848
                       0.21741                       0.97605                      -0.00821
                       0.21304                       0.97701                      -0.00794
                       0.20838                       0.97802                      -0.00765
                       0.20349                       0.97905                      -0.00737
                       0.19839                       0.98010                      -0.00708
                       0.19312                       0.98115                      -0.00679
                       0.18220                       0.98324                      -0.00621
                       0.17099                       0.98526                      -0.00564
                       0.15965                       0.98716                      -0.00509
                       0.14835                       0.98892                      -0.00457
                       0.13721                       0.99053                      -0.00408
                       0.12630                       0.99199                      -0.00362
                       0.11570                       0.99328                      -0.00319
                       0.10543                       0.99442                      -0.00279
                       0.09552                       0.99542                      -0.00243
                       0.08597                       0.99630                      -0.00210
                       0.07678                       0.99705                      -0.00180
                       0.06794                       0.99769                      -0.00152
                       0.05944                       0.99823                      -0.00127
                       0.05127                       0.99868                      -0.00105
                       0.04343                       0.99906                      -0.00085
                       0.03594                       0.99935                      -0.00066
                       0.02883                       0.99958                      -0.00050
                       0.02216                       0.99975                      -0.00036
                       0.01600                       0.99987                      -0.00024
                       0.01314                       0.99991                      -0.00019
                       0.01046                       0.99995                      -0.00014
                       0.00797                       0.99997                      -0.00010
                       0.00680                       0.99998                      -0.00008
                       0.00568                       0.99998                      -0.00007
                       0.00463                       0.99999                      -0.00005
                       0.00364                       0.99999                      -0.00004
                       0.00272                       1.00000                      -0.00003
                       0.00187                       1.00000                      -0.00002
                       0.00109                       1.00000                      -0.00001
                       0.00038                       1.00000                      -0.00000
                      -0.00000                       1.00000                      -0.00000
        </DataArray>
        <DataArray type="Float32" Name="RefOrientationZ" NumberOfComponents="3" format="ascii">
                       0.04362                       0.00000                       0.99905
                       0.04351                      -0.00000                       0.99905
                       0.04299                      -0.00001                       0.99908
                       0.04246                      -0.00001                       0.99910
                       0.04193                      -0.00001                       0.99912
                       0.04140                      -0.00001                       0.99914
                       0.04087                      -0.00001                       0.99916
                       0.04034                      -0.00000                       0.99919
                       0.03982                      -0.00000                       0.99921
                       0.03929                       0.00000                       0.99923
                       0.03876                       0.00001                       0.99925
                       0.03823                       0.00001                       0.99927
                       0.03770                       0.00001                       0.99929
                       0.03717                       0.00001                       0.99931
                       0.03664                       0.00001                       0.99933
                       0.03612                       0.00001                       0.99935
                       0.03559                       0.00001                       0.99937
                       0.03506                       0.00001                       0.99939
                       0.03400                       0.00001                       0.99942
                       0.03295                       0.00000                       0.99946
                       0.03189                      -0.00000                       0.99949
                       0.03083                      -0.00000                       0.99952
                       0.02978                      -0.00001                       0.99956
                       0.02872                      -0.00001                       0.99959
                       0.02766                      -0.00001                       0.99962
                       0.02661                      -0.00001                       0.99965
                       0.02555                      -0.00001                       0.99967
                       0.02449                      -0.00001                       0.99970
                       0.02343                      -0.00000                       0.99973
                       0.02238                       0.00000                       0.99975
                       0.02132                       0.00001                       0.99977
                       0.02026                       0.00001                       0.99979
                       0.01921                       0.00001                       0.99982
                       0.01815                       0.00001                       0.99984
                       0.01709                       0.00001                       0.99985
                       0.01604                       0.00001                       0.99987
                       0.01498                       0.00000                       0.99989
                       0.01445                      -0.00000                       0.99990
                       0.01392                      -0.00000                       0.99990
                       0.01340                      -0.00001                       0.99991
                       0.01313                      -0.00001                       0.99991
                       0.01287                      -0.00001                       0.99992
                       0.01260                      -0.00001                       0.99992
                       0.01234                      -0.00001                       0.99992
                       0.01208                      -0.00001                       0.99993
                       0.01181                      -0.00001                       0.99993
                       0.01155                      -0.00000                       0.99993
                       0.01128                      -0.00000                       0.99994
                       0.01112                       0.00000                       0.99994
        </DataArray>
      </PointData>
      <Lines>
        <DataArray type="Int32" Name="connectivity" format="ascii">
      0      1
      1      2
      2      3
      3      4
      4      5
      5      6
      6      7
      7      8
      8      9
      9     10
     10     11
     11     12
     12     13
     13     14
     14     15
     15     16
     16     17
     17     18
     18     19
     19     20
     20     21
     21     22
     22     23
     23     24
     24     25
     25     26
     26     27
     27     28
     28     29
     29     30
     30     31
     31     32
     32     33
     33     34
     34     35
     35     36
     36     37
     37     38
     38     39
     39     40
     40     41
     41     42
     42     43
     43     44
     44     45
     45     46
     46     47
     47     48
        </DataArray>
        <DataArray type="Int32" Name="offsets" format="ascii">
      2
      4
      6
      8
     10
     12
     14
     16
     18
     20
     22
     24
     26
     28
     30
     32
     34
     36
     38
     40
     42
     44
     46
     48
     50
     52
     54
     56
     58
     60
     62
     64
     66
     68
     70
     72
     74
     76
     78
     80
     82
     84
     86
     88
     90
     92
     94
     96
        </DataArray>
      </Lines>
    </Piece>
  </PolyData>
</VTKFile>
