<?xml version="1.0"?>
<VTKFile type="PolyData" version="0.1" byte_order="LittleEndian">
  <PolyData>
    <Piece NumberOfPoints="     49" NumberOfVerts="  0" NumberOfLines="     48"
           NumberOfStrips="  0" NumberOfPolys="      0">
      <Points>
        <DataArray type="Float32" NumberOfComponents="3" format="ascii">
                      -5.13049                       1.29780                      89.25927
                      -5.14788                       1.47073                      89.16057
                      -5.23524                       2.33591                      88.66679
                      -5.32312                       3.20107                      88.17307
                      -5.41153                       4.06621                      87.67941
                      -5.50046                       4.93133                      87.18581
                      -5.58992                       5.79643                      86.69226
                      -5.67990                       6.66150                      86.19878
                      -5.77041                       7.52656                      85.70535
                      -5.86156                       8.39267                      85.21136
                      -5.95300                       9.25662                      84.71865
                      -6.04508                      10.12162                      84.22540
                      -6.13769                      10.98660                      83.73219
                      -6.23083                      11.85156                      83.23905
                      -6.32460                      12.71756                      82.74535
                      -6.41867                      13.58142                      82.25294
                      -6.51338                      14.44631                      81.75996
                      -6.60862                      15.31119                      81.26705
                      -6.80078                      17.04195                      80.28079
                      -6.99487                      18.77104                      79.29567
                      -7.19112                      20.50058                      78.31047
                      -7.38947                      22.23004                      77.32551
                      -7.58992                      23.95942                      76.34077
                      -7.79254                      25.68925                      75.35597
                      -7.99713                      27.41793                      74.37200
                      -8.20388                      29.14707                      73.38795
                      -8.41274                      30.87613                      72.40414
                      -8.62370                      32.60511                      71.42056
                      -8.83682                      34.33454                      70.43690
                      -9.05191                      36.06282                      69.45409
                      -9.26917                      37.79156                      68.47119
                      -9.48853                      39.52022                      67.48853
                      -9.70999                      41.24880                      66.50610
                      -9.93369                      42.97836                      65.52329
                     -10.15922                      44.70572                      64.54192
                     -10.38698                      46.43406                      63.56018
                     -10.61685                      48.16232                      62.57867
                     -10.73257                      49.02642                      62.08800
                     -10.84882                      49.89050                      61.59739
                     -10.96559                      50.75456                      61.10683
                     -11.02417                      51.18658                      60.86158
                     -11.08303                      51.61966                      60.61573
                     -11.14173                      52.05061                      60.37111
                     -11.20071                      52.48262                      60.12589
                     -11.25981                      52.91462                      59.88070
                     -11.31905                      53.34662                      59.63551
                     -11.37842                      53.77861                      59.39034
                     -11.43792                      54.21060                      59.14519
                     -11.47370                      54.46990                      58.99804
        </DataArray>
      </Points>
      <PointData>
        <DataArray type="Float32" Name="RefOrientationX" NumberOfComponents="3" format="ascii">
                       0.98405                       0.15185                       0.09271
                       0.98393                       0.15227                       0.09325
                       0.98345                       0.15403                       0.09539
                       0.98313                       0.15530                       0.09662
                       0.98296                       0.15610                       0.09702
                       0.98294                       0.15650                       0.09667
                       0.98303                       0.15651                       0.09564
                       0.98324                       0.15619                       0.09400
                       0.98355                       0.15557                       0.09181
                       0.98394                       0.15468                       0.08912
                       0.98439                       0.15354                       0.08600
                       0.98490                       0.15219                       0.08250
                       0.98545                       0.15066                       0.07865
                       0.98603                       0.14896                       0.07452
                       0.98663                       0.14711                       0.07012
                       0.98724                       0.14516                       0.06552
                       0.98784                       0.14310                       0.06074
                       0.98844                       0.14095                       0.05582
                       0.98959                       0.13648                       0.04564
                       0.99064                       0.13186                       0.03521
                       0.99157                       0.12718                       0.02469
                       0.99237                       0.12251                       0.01421
                       0.99302                       0.11792                       0.00389
                       0.99353                       0.11344                      -0.00621
                       0.99390                       0.10911                      -0.01603
                       0.99415                       0.10494                      -0.02555
                       0.99429                       0.10094                      -0.03474
                       0.99432                       0.09712                      -0.04360
                       0.99426                       0.09348                      -0.05214
                       0.99411                       0.09000                      -0.06036
                       0.99389                       0.08669                      -0.06829
                       0.99361                       0.08355                      -0.07591
                       0.99327                       0.08056                      -0.08324
                       0.99288                       0.07774                      -0.09026
                       0.99245                       0.07512                      -0.09694
                       0.99200                       0.07270                      -0.10323
                       0.99153                       0.07054                      -0.10908
                       0.99129                       0.06957                      -0.11181
                       0.99106                       0.06868                      -0.11439
                       0.99083                       0.06790                      -0.11680
                       0.99072                       0.06754                      -0.11794
                       0.99061                       0.06721                      -0.11903
                       0.99051                       0.06692                      -0.12007
                       0.99041                       0.06665                      -0.12105
                       0.99031                       0.06642                      -0.12198
                       0.99021                       0.06622                      -0.12285
                       0.99013                       0.06606                      -0.12365
                       0.99004                       0.06593                      -0.12438
                       0.98999                       0.06588                      -0.12479
        </DataArray>
        <DataArray type="Float32" Name="RefOrientationY" NumberOfComponents="3" format="ascii">
                       0.15520                      -0.47788                      -0.86461
                       0.15587                      -0.47775                      -0.86456
                       0.15858                      -0.47722                      -0.86436
                       0.16026                      -0.47684                      -0.86426
                       0.16099                      -0.47662                      -0.86424
                       0.16088                      -0.47653                      -0.86432
                       0.15998                      -0.47656                      -0.86446
                       0.15839                      -0.47671                      -0.86467
                       0.15618                      -0.47695                      -0.86494
                       0.15340                      -0.47729                      -0.86525
                       0.15013                      -0.47769                      -0.86560
                       0.14643                      -0.47817                      -0.86598
                       0.14233                      -0.47870                      -0.86637
                       0.13790                      -0.47927                      -0.86677
                       0.13318                      -0.47988                      -0.86717
                       0.12823                      -0.48052                      -0.86756
                       0.12307                      -0.48118                      -0.86794
                       0.11774                      -0.48185                      -0.86830
                       0.10672                      -0.48322                      -0.86897
                       0.09541                      -0.48459                      -0.86952
                       0.08398                      -0.48592                      -0.86996
                       0.07261                      -0.48721                      -0.87026
                       0.06141                      -0.48843                      -0.87044
                       0.05046                      -0.48958                      -0.87050
                       0.03982                      -0.49066                      -0.87044
                       0.02953                      -0.49166                      -0.87028
                       0.01961                      -0.49260                      -0.87003
                       0.01007                      -0.49347                      -0.86970
                       0.00088                      -0.49428                      -0.86930
                      -0.00794                      -0.49503                      -0.86884
                      -0.01642                      -0.49573                      -0.86832
                      -0.02456                      -0.49638                      -0.86776
                      -0.03236                      -0.49698                      -0.86716
                      -0.03982                      -0.49754                      -0.86653
                      -0.04688                      -0.49805                      -0.86588
                      -0.05351                      -0.49852                      -0.86523
                      -0.05962                      -0.49894                      -0.86459
                      -0.06246                      -0.49913                      -0.86428
                      -0.06512                      -0.49930                      -0.86398
                      -0.06759                      -0.49947                      -0.86369
                      -0.06875                      -0.49955                      -0.86356
                      -0.06985                      -0.49962                      -0.86342
                      -0.07089                      -0.49969                      -0.86330
                      -0.07187                      -0.49975                      -0.86318
                      -0.07279                      -0.49982                      -0.86307
                      -0.07363                      -0.49987                      -0.86296
                      -0.07440                      -0.49992                      -0.86287
                      -0.07510                      -0.49997                      -0.86278
                      -0.07548                      -0.50000                      -0.86273
        </DataArray>
        <DataArray type="Float32" Name="RefOrientationZ" NumberOfComponents="3" format="ascii">
                      -0.08699                       0.86520                      -0.49382
                      -0.08709                       0.86520                      -0.49381
                      -0.08762                       0.86518                      -0.49375
                      -0.08814                       0.86516                      -0.49369
                      -0.08867                       0.86514                      -0.49363
                      -0.08919                       0.86512                      -0.49357
                      -0.08972                       0.86510                      -0.49352
                      -0.09025                       0.86507                      -0.49346
                      -0.09077                       0.86505                      -0.49340
                      -0.09130                       0.86503                      -0.49335
                      -0.09182                       0.86500                      -0.49329
                      -0.09235                       0.86498                      -0.49323
                      -0.09287                       0.86496                      -0.49318
                      -0.09340                       0.86493                      -0.49312
                      -0.09392                       0.86491                      -0.49306
                      -0.09445                       0.86489                      -0.49300
                      -0.09497                       0.86486                      -0.49294
                      -0.09550                       0.86484                      -0.49288
                      -0.09655                       0.86479                      -0.49276
                      -0.09760                       0.86475                      -0.49263
                      -0.09864                       0.86470                      -0.49251
                      -0.09969                       0.86465                      -0.49238
                      -0.10074                       0.86460                      -0.49226
                      -0.10179                       0.86455                      -0.49213
                      -0.10284                       0.86449                      -0.49201
                      -0.10389                       0.86444                      -0.49189
                      -0.10494                       0.86438                      -0.49176
                      -0.10598                       0.86432                      -0.49164
                      -0.10703                       0.86426                      -0.49152
                      -0.10808                       0.86420                      -0.49140
                      -0.10913                       0.86414                      -0.49128
                      -0.11018                       0.86408                      -0.49115
                      -0.11123                       0.86401                      -0.49103
                      -0.11227                       0.86395                      -0.49090
                      -0.11332                       0.86389                      -0.49077
                      -0.11437                       0.86383                      -0.49064
                      -0.11541                       0.86376                      -0.49050
                      -0.11593                       0.86373                      -0.49043
                      -0.11646                       0.86370                      -0.49037
                      -0.11698                       0.86367                      -0.49030
                      -0.11724                       0.86365                      -0.49027
                      -0.11750                       0.86363                      -0.49023
                      -0.11777                       0.86362                      -0.49020
                      -0.11803                       0.86360                      -0.49017
                      -0.11829                       0.86358                      -0.49014
                      -0.11855                       0.86356                      -0.49010
                      -0.11881                       0.86355                      -0.49007
                      -0.11907                       0.86353                      -0.49004
                      -0.11923                       0.86352                      -0.49002
        </DataArray>
      </PointData>
      <Lines>
        <DataArray type="Int32" Name="connectivity" format="ascii">
      0      1
      1      2
      2      3
      3      4
      4      5
      5      6
      6      7
      7      8
      8      9
      9     10
     10     11
     11     12
     12     13
     13     14
     14     15
     15     16
     16     17
     17     18
     18     19
     19     20
     20     21
     21     22
     22     23
     23     24
     24     25
     25     26
     26     27
     27     28
     28     29
     29     30
     30     31
     31     32
     32     33
     33     34
     34     35
     35     36
     36     37
     37     38
     38     39
     39     40
     40     41
     41     42
     42     43
     43     44
     44     45
     45     46
     46     47
     47     48
        </DataArray>
        <DataArray type="Int32" Name="offsets" format="ascii">
      2
      4
      6
      8
     10
     12
     14
     16
     18
     20
     22
     24
     26
     28
     30
     32
     34
     36
     38
     40
     42
     44
     46
     48
     50
     52
     54
     56
     58
     60
     62
     64
     66
     68
     70
     72
     74
     76
     78
     80
     82
     84
     86
     88
     90
     92
     94
     96
        </DataArray>
      </Lines>
    </Piece>
  </PolyData>
</VTKFile>
