<?xml version="1.0"?>
<VTKFile type="PolyData" version="0.1" byte_order="LittleEndian">
  <PolyData>
    <Piece NumberOfPoints="     49" NumberOfVerts="  0" NumberOfLines="     48"
           NumberOfStrips="  0" NumberOfPolys="      0">
      <Points>
        <DataArray type="Float32" NumberOfComponents="3" format="ascii">
                      -4.93457                       0.00000                      91.49857
                      -4.92585                       0.00000                      91.69826
                      -4.88223                       0.00000                      92.69730
                      -4.83862                       0.00000                      93.69634
                      -4.79500                       0.00000                      94.69537
                      -4.75138                       0.00000                      95.69441
                      -4.70776                       0.00000                      96.69345
                      -4.66414                       0.00000                      97.69249
                      -4.62052                       0.00000                      98.69153
                      -4.57685                       0.00000                      99.69179
                      -4.53328                       0.00000                     100.68960
                      -4.48966                       0.00000                     101.68864
                      -4.44605                       0.00000                     102.68768
                      -4.40243                       0.00000                     103.68672
                      -4.35875                       0.00000                     104.68698
                      -4.31519                       0.00000                     105.68479
                      -4.27157                       0.00000                     106.68383
                      -4.22795                       0.00000                     107.68287
                      -4.14066                       0.00000                     109.68218
                      -4.05345                       0.00000                     111.67964
                      -3.96621                       0.00000                     113.67771
                      -3.87897                       0.00000                     115.67579
                      -3.79173                       0.00000                     117.67387
                      -3.70447                       0.00000                     119.67256
                      -3.61726                       0.00000                     121.67002
                      -3.53002                       0.00000                     123.66810
                      -3.44278                       0.00000                     125.66617
                      -3.35554                       0.00000                     127.66425
                      -3.26828                       0.00000                     129.66294
                      -3.18107                       0.00000                     131.66040
                      -3.09383                       0.00000                     133.65848
                      -3.00659                       0.00000                     135.65656
                      -2.91935                       0.00000                     137.65463
                      -2.83206                       0.00000                     139.65394
                      -2.74488                       0.00000                     141.65078
                      -2.65764                       0.00000                     143.64886
                      -2.57040                       0.00000                     145.64694
                      -2.52678                       0.00000                     146.64598
                      -2.48317                       0.00000                     147.64501
                      -2.43955                       0.00000                     148.64405
                      -2.41774                       0.00000                     149.14357
                      -2.39587                       0.00000                     149.64432
                      -2.37412                       0.00000                     150.14261
                      -2.35231                       0.00000                     150.64213
                      -2.33050                       0.00000                     151.14165
                      -2.30869                       0.00000                     151.64117
                      -2.28688                       0.00000                     152.14069
                      -2.26507                       0.00000                     152.64021
                      -2.25198                       0.00000                     152.94004
        </DataArray>
      </Points>
      <PointData>
        <DataArray type="Float32" Name="Force" NumberOfComponents="3" format="ascii">
                       0.00000                       0.00000                       0.00000
                       0.00000                       0.00000                       0.00000
                       0.00000                       0.00000                       0.00000
                       0.00000                       0.00000                       0.00000
                       0.00000                       0.00000                       0.00000
                       0.00000                       0.00000                       0.00000
                       0.00000                       0.00000                       0.00000
                       0.00000                       0.00000                       0.00000
                       0.00000                       0.00000                       0.00000
                       0.00000                       0.00000                       0.00000
                       0.00000                       0.00000                       0.00000
                       0.00000                       0.00000                       0.00000
                       0.00000                       0.00000                       0.00000
                       0.00000                       0.00000                       0.00000
                       0.00000                       0.00000                       0.00000
                       0.00000                       0.00000                       0.00000
                       0.00000                       0.00000                       0.00000
                       0.00000                       0.00000                       0.00000
                       0.00000                       0.00000                       0.00000
                       0.00000                       0.00000                       0.00000
                       0.00000                       0.00000                       0.00000
                       0.00000                       0.00000                       0.00000
                       0.00000                       0.00000                       0.00000
                       0.00000                       0.00000                       0.00000
                       0.00000                       0.00000                       0.00000
                       0.00000                       0.00000                       0.00000
                       0.00000                       0.00000                       0.00000
                       0.00000                       0.00000                       0.00000
                       0.00000                       0.00000                       0.00000
                       0.00000                       0.00000                       0.00000
                       0.00000                       0.00000                       0.00000
                       0.00000                       0.00000                       0.00000
                       0.00000                       0.00000                       0.00000
                       0.00000                       0.00000                       0.00000
                       0.00000                       0.00000                       0.00000
                       0.00000                       0.00000                       0.00000
                       0.00000                       0.00000                       0.00000
                       0.00000                       0.00000                       0.00000
                       0.00000                       0.00000                       0.00000
                       0.00000                       0.00000                       0.00000
                       0.00000                       0.00000                       0.00000
                       0.00000                       0.00000                       0.00000
                       0.00000                       0.00000                       0.00000
                       0.00000                       0.00000                       0.00000
                       0.00000                       0.00000                       0.00000
                       0.00000                       0.00000                       0.00000
                       0.00000                       0.00000                       0.00000
                       0.00000                       0.00000                       0.00000
                       0.00000                       0.00000                       0.00000
        </DataArray>
        <DataArray type="Float32" Name="Moment" NumberOfComponents="3" format="ascii">
                       0.00000                       0.00000                       0.00000
                       0.00000                       0.00000                       0.00000
                       0.00000                       0.00000                       0.00000
                       0.00000                       0.00000                       0.00000
                       0.00000                       0.00000                       0.00000
                       0.00000                       0.00000                       0.00000
                       0.00000                       0.00000                       0.00000
                       0.00000                       0.00000                       0.00000
                       0.00000                       0.00000                       0.00000
                       0.00000                       0.00000                       0.00000
                       0.00000                       0.00000                       0.00000
                       0.00000                       0.00000                       0.00000
                       0.00000                       0.00000                       0.00000
                       0.00000                       0.00000                       0.00000
                       0.00000                       0.00000                       0.00000
                       0.00000                       0.00000                       0.00000
                       0.00000                       0.00000                       0.00000
                       0.00000                       0.00000                       0.00000
                       0.00000                       0.00000                       0.00000
                       0.00000                       0.00000                       0.00000
                       0.00000                       0.00000                       0.00000
                       0.00000                       0.00000                       0.00000
                       0.00000                       0.00000                       0.00000
                       0.00000                       0.00000                       0.00000
                       0.00000                       0.00000                       0.00000
                       0.00000                       0.00000                       0.00000
                       0.00000                       0.00000                       0.00000
                       0.00000                       0.00000                       0.00000
                       0.00000                       0.00000                       0.00000
                       0.00000                       0.00000                       0.00000
                       0.00000                       0.00000                       0.00000
                       0.00000                       0.00000                       0.00000
                       0.00000                       0.00000                       0.00000
                       0.00000                       0.00000                       0.00000
                       0.00000                       0.00000                       0.00000
                       0.00000                       0.00000                       0.00000
                       0.00000                       0.00000                       0.00000
                       0.00000                       0.00000                       0.00000
                       0.00000                       0.00000                       0.00000
                       0.00000                       0.00000                       0.00000
                       0.00000                       0.00000                       0.00000
                       0.00000                       0.00000                       0.00000
                       0.00000                       0.00000                       0.00000
                       0.00000                       0.00000                       0.00000
                       0.00000                       0.00000                       0.00000
                       0.00000                       0.00000                       0.00000
                       0.00000                       0.00000                       0.00000
                       0.00000                       0.00000                       0.00000
                       0.00000                       0.00000                       0.00000
        </DataArray>
        <DataArray type="Float32" Name="TranslationalVelocity" NumberOfComponents="3" format="ascii">
                       0.00000                       0.00000                       0.00000
                       0.00000                       0.00000                       0.00000
                       0.00000                       0.00000                       0.00000
                       0.00000                       0.00000                       0.00000
                       0.00000                       0.00000                       0.00000
                       0.00000                       0.00000                       0.00000
                       0.00000                       0.00000                       0.00000
                       0.00000                       0.00000                       0.00000
                       0.00000                       0.00000                       0.00000
                       0.00000                       0.00000                       0.00000
                       0.00000                       0.00000                       0.00000
                       0.00000                       0.00000                       0.00000
                       0.00000                       0.00000                       0.00000
                       0.00000                       0.00000                       0.00000
                       0.00000                       0.00000                       0.00000
                       0.00000                       0.00000                       0.00000
                       0.00000                       0.00000                       0.00000
                       0.00000                       0.00000                       0.00000
                       0.00000                       0.00000                       0.00000
                       0.00000                       0.00000                       0.00000
                       0.00000                       0.00000                       0.00000
                       0.00000                       0.00000                       0.00000
                       0.00000                       0.00000                       0.00000
                       0.00000                       0.00000                       0.00000
                       0.00000                       0.00000                       0.00000
                       0.00000                       0.00000                       0.00000
                       0.00000                       0.00000                       0.00000
                       0.00000                       0.00000                       0.00000
                       0.00000                       0.00000                       0.00000
                       0.00000                       0.00000                       0.00000
                       0.00000                       0.00000                       0.00000
                       0.00000                       0.00000                       0.00000
                       0.00000                       0.00000                       0.00000
                       0.00000                       0.00000                       0.00000
                       0.00000                       0.00000                       0.00000
                       0.00000                       0.00000                       0.00000
                       0.00000                       0.00000                       0.00000
                       0.00000                       0.00000                       0.00000
                       0.00000                       0.00000                       0.00000
                       0.00000                       0.00000                       0.00000
                       0.00000                       0.00000                       0.00000
                       0.00000                       0.00000                       0.00000
                       0.00000                       0.00000                       0.00000
                       0.00000                       0.00000                       0.00000
                       0.00000                       0.00000                       0.00000
                       0.00000                       0.00000                       0.00000
                       0.00000                       0.00000                       0.00000
                       0.00000                       0.00000                       0.00000
                       0.00000                       0.00000                       0.00000
        </DataArray>
        <DataArray type="Float32" Name="RotationalVelocity" NumberOfComponents="3" format="ascii">
                       0.00000                       0.00000                       0.00000
                       0.00000                       0.00000                       0.00000
                       0.00000                       0.00000                       0.00000
                       0.00000                       0.00000                       0.00000
                       0.00000                       0.00000                       0.00000
                       0.00000                       0.00000                       0.00000
                       0.00000                       0.00000                       0.00000
                       0.00000                       0.00000                       0.00000
                       0.00000                       0.00000                       0.00000
                       0.00000                       0.00000                       0.00000
                       0.00000                       0.00000                       0.00000
                       0.00000                       0.00000                       0.00000
                       0.00000                       0.00000                       0.00000
                       0.00000                       0.00000                       0.00000
                       0.00000                       0.00000                       0.00000
                       0.00000                       0.00000                       0.00000
                       0.00000                       0.00000                       0.00000
                       0.00000                       0.00000                       0.00000
                       0.00000                       0.00000                       0.00000
                       0.00000                       0.00000                       0.00000
                       0.00000                       0.00000                       0.00000
                       0.00000                       0.00000                       0.00000
                       0.00000                       0.00000                       0.00000
                       0.00000                       0.00000                       0.00000
                       0.00000                       0.00000                       0.00000
                       0.00000                       0.00000                       0.00000
                       0.00000                       0.00000                       0.00000
                       0.00000                       0.00000                       0.00000
                       0.00000                       0.00000                       0.00000
                       0.00000                       0.00000                       0.00000
                       0.00000                       0.00000                       0.00000
                       0.00000                       0.00000                       0.00000
                       0.00000                       0.00000                       0.00000
                       0.00000                       0.00000                       0.00000
                       0.00000                       0.00000                       0.00000
                       0.00000                       0.00000                       0.00000
                       0.00000                       0.00000                       0.00000
                       0.00000                       0.00000                       0.00000
                       0.00000                       0.00000                       0.00000
                       0.00000                       0.00000                       0.00000
                       0.00000                       0.00000                       0.00000
                       0.00000                       0.00000                       0.00000
                       0.00000                       0.00000                       0.00000
                       0.00000                       0.00000                       0.00000
                       0.00000                       0.00000                       0.00000
                       0.00000                       0.00000                       0.00000
                       0.00000                       0.00000                       0.00000
                       0.00000                       0.00000                       0.00000
                       0.00000                       0.00000                       0.00000
        </DataArray>
        <DataArray type="Float32" Name="TranslationalAcceleration" NumberOfComponents="3" format="ascii">
                       0.00000                       0.00000                       0.00000
                       0.00000                       0.00000                       0.00000
                       0.00000                       0.00000                       0.00000
                       0.00000                       0.00000                       0.00000
                       0.00000                       0.00000                       0.00000
                       0.00000                       0.00000                       0.00000
                       0.00000                       0.00000                       0.00000
                       0.00000                       0.00000                       0.00000
                       0.00000                       0.00000                       0.00000
                       0.00000                       0.00000                       0.00000
                       0.00000                       0.00000                       0.00000
                       0.00000                       0.00000                       0.00000
                       0.00000                       0.00000                       0.00000
                       0.00000                       0.00000                       0.00000
                       0.00000                       0.00000                       0.00000
                       0.00000                       0.00000                       0.00000
                       0.00000                       0.00000                       0.00000
                       0.00000                       0.00000                       0.00000
                       0.00000                       0.00000                       0.00000
                       0.00000                       0.00000                       0.00000
                       0.00000                       0.00000                       0.00000
                       0.00000                       0.00000                       0.00000
                       0.00000                       0.00000                       0.00000
                       0.00000                       0.00000                       0.00000
                       0.00000                       0.00000                       0.00000
                       0.00000                       0.00000                       0.00000
                       0.00000                       0.00000                       0.00000
                       0.00000                       0.00000                       0.00000
                       0.00000                       0.00000                       0.00000
                       0.00000                       0.00000                       0.00000
                       0.00000                       0.00000                       0.00000
                       0.00000                       0.00000                       0.00000
                       0.00000                       0.00000                       0.00000
                       0.00000                       0.00000                       0.00000
                       0.00000                       0.00000                       0.00000
                       0.00000                       0.00000                       0.00000
                       0.00000                       0.00000                       0.00000
                       0.00000                       0.00000                       0.00000
                       0.00000                       0.00000                       0.00000
                       0.00000                       0.00000                       0.00000
                       0.00000                       0.00000                       0.00000
                       0.00000                       0.00000                       0.00000
                       0.00000                       0.00000                       0.00000
                       0.00000                       0.00000                       0.00000
                       0.00000                       0.00000                       0.00000
                       0.00000                       0.00000                       0.00000
                       0.00000                       0.00000                       0.00000
                       0.00000                       0.00000                       0.00000
                       0.00000                       0.00000                       0.00000
        </DataArray>
        <DataArray type="Float32" Name="RotationalAcceleration" NumberOfComponents="3" format="ascii">
                       0.00000                       0.00000                       0.00000
                       0.00000                       0.00000                       0.00000
                       0.00000                       0.00000                       0.00000
                       0.00000                       0.00000                       0.00000
                       0.00000                       0.00000                       0.00000
                       0.00000                       0.00000                       0.00000
                       0.00000                       0.00000                       0.00000
                       0.00000                       0.00000                       0.00000
                       0.00000                       0.00000                       0.00000
                       0.00000                       0.00000                       0.00000
                       0.00000                       0.00000                       0.00000
                       0.00000                       0.00000                       0.00000
                       0.00000                       0.00000                       0.00000
                       0.00000                       0.00000                       0.00000
                       0.00000                       0.00000                       0.00000
                       0.00000                       0.00000                       0.00000
                       0.00000                       0.00000                       0.00000
                       0.00000                       0.00000                       0.00000
                       0.00000                       0.00000                       0.00000
                       0.00000                       0.00000                       0.00000
                       0.00000                       0.00000                       0.00000
                       0.00000                       0.00000                       0.00000
                       0.00000                       0.00000                       0.00000
                       0.00000                       0.00000                       0.00000
                       0.00000                       0.00000                       0.00000
                       0.00000                       0.00000                       0.00000
                       0.00000                       0.00000                       0.00000
                       0.00000                       0.00000                       0.00000
                       0.00000                       0.00000                       0.00000
                       0.00000                       0.00000                       0.00000
                       0.00000                       0.00000                       0.00000
                       0.00000                       0.00000                       0.00000
                       0.00000                       0.00000                       0.00000
                       0.00000                       0.00000                       0.00000
                       0.00000                       0.00000                       0.00000
                       0.00000                       0.00000                       0.00000
                       0.00000                       0.00000                       0.00000
                       0.00000                       0.00000                       0.00000
                       0.00000                       0.00000                       0.00000
                       0.00000                       0.00000                       0.00000
                       0.00000                       0.00000                       0.00000
                       0.00000                       0.00000                       0.00000
                       0.00000                       0.00000                       0.00000
                       0.00000                       0.00000                       0.00000
                       0.00000                       0.00000                       0.00000
                       0.00000                       0.00000                       0.00000
                       0.00000                       0.00000                       0.00000
                       0.00000                       0.00000                       0.00000
                       0.00000                       0.00000                       0.00000
        </DataArray>
        <DataArray type="Float32" Name="OrientationX" NumberOfComponents="3" format="ascii">
                       0.97222                      -0.23019                      -0.04245
                       0.97206                      -0.23085                      -0.04244
                       0.97142                      -0.23354                      -0.04241
                       0.97102                      -0.23521                      -0.04240
                       0.97084                      -0.23595                      -0.04239
                       0.97087                      -0.23584                      -0.04239
                       0.97108                      -0.23497                      -0.04240
                       0.97145                      -0.23341                      -0.04241
                       0.97197                      -0.23123                      -0.04244
                       0.97262                      -0.22849                      -0.04247
                       0.97337                      -0.22527                      -0.04250
                       0.97421                      -0.22161                      -0.04253
                       0.97512                      -0.21757                      -0.04257
                       0.97608                      -0.21319                      -0.04262
                       0.97709                      -0.20852                      -0.04266
                       0.97812                      -0.20362                      -0.04271
                       0.97917                      -0.19851                      -0.04275
                       0.98022                      -0.19324                      -0.04280
                       0.98231                      -0.18231                      -0.04289
                       0.98432                      -0.17108                      -0.04298
                       0.98622                      -0.15973                      -0.04306
                       0.98798                      -0.14842                      -0.04314
                       0.98959                      -0.13727                      -0.04321
                       0.99104                      -0.12635                      -0.04327
                       0.99233                      -0.11574                      -0.04333
                       0.99348                      -0.10547                      -0.04338
                       0.99448                      -0.09555                      -0.04342
                       0.99535                      -0.08600                      -0.04346
                       0.99610                      -0.07680                      -0.04349
                       0.99674                      -0.06796                      -0.04352
                       0.99728                      -0.05945                      -0.04354
                       0.99773                      -0.05128                      -0.04356
                       0.99811                      -0.04344                      -0.04358
                       0.99840                      -0.03594                      -0.04359
                       0.99863                      -0.02884                      -0.04360
                       0.99880                      -0.02216                      -0.04361
                       0.99892                      -0.01600                      -0.04361
                       0.99896                      -0.01314                      -0.04362
                       0.99899                      -0.01046                      -0.04362
                       0.99902                      -0.00797                      -0.04362
                       0.99903                      -0.00680                      -0.04362
                       0.99903                      -0.00568                      -0.04362
                       0.99904                      -0.00463                      -0.04362
                       0.99904                      -0.00364                      -0.04362
                       0.99904                      -0.00272                      -0.04362
                       0.99905                      -0.00187                      -0.04362
                       0.99905                      -0.00109                      -0.04362
                       0.99905                      -0.00038                      -0.04362
                       0.99905                       0.00000                      -0.04362
        </DataArray>
        <DataArray type="Float32" Name="OrientationY" NumberOfComponents="3" format="ascii">
                       0.22997                       0.97315                      -0.01004
                       0.23063                       0.97299                      -0.01007
                       0.23332                       0.97235                      -0.01019
                       0.23499                       0.97194                      -0.01026
                       0.23572                       0.97177                      -0.01029
                       0.23562                       0.97179                      -0.01029
                       0.23475                       0.97200                      -0.01025
                       0.23319                       0.97238                      -0.01018
                       0.23101                       0.97290                      -0.01009
                       0.22828                       0.97355                      -0.00997
                       0.22506                       0.97430                      -0.00983
                       0.22140                       0.97514                      -0.00967
                       0.21736                       0.97605                      -0.00949
                       0.21299                       0.97701                      -0.00930
                       0.20832                       0.97802                      -0.00910
                       0.20343                       0.97905                      -0.00888
                       0.19832                       0.98010                      -0.00866
                       0.19305                       0.98115                      -0.00843
                       0.18213                       0.98324                      -0.00795
                       0.17092                       0.98526                      -0.00746
                       0.15958                       0.98716                      -0.00697
                       0.14828                       0.98892                      -0.00647
                       0.13714                       0.99053                      -0.00599
                       0.12623                       0.99199                      -0.00551
                       0.11563                       0.99328                      -0.00505
                       0.10537                       0.99442                      -0.00460
                       0.09546                       0.99542                      -0.00417
                       0.08592                       0.99630                      -0.00375
                       0.07673                       0.99705                      -0.00335
                       0.06789                       0.99769                      -0.00296
                       0.05940                       0.99823                      -0.00259
                       0.05123                       0.99868                      -0.00224
                       0.04340                       0.99906                      -0.00189
                       0.03591                       0.99935                      -0.00157
                       0.02881                       0.99958                      -0.00126
                       0.02214                       0.99975                      -0.00097
                       0.01598                       0.99987                      -0.00070
                       0.01313                       0.99991                      -0.00057
                       0.01045                       0.99995                      -0.00046
                       0.00796                       0.99997                      -0.00035
                       0.00679                       0.99998                      -0.00030
                       0.00568                       0.99998                      -0.00025
                       0.00463                       0.99999                      -0.00020
                       0.00364                       0.99999                      -0.00016
                       0.00272                       1.00000                      -0.00012
                       0.00186                       1.00000                      -0.00008
                       0.00109                       1.00000                      -0.00005
                       0.00038                       1.00000                      -0.00002
                      -0.00000                       1.00000                      -0.00000
        </DataArray>
        <DataArray type="Float32" Name="OrientationZ" NumberOfComponents="3" format="ascii">
                       0.04362                       0.00000                       0.99905
                       0.04362                       0.00000                       0.99905
                       0.04362                       0.00000                       0.99905
                       0.04362                       0.00000                       0.99905
                       0.04362                       0.00000                       0.99905
                       0.04362                       0.00000                       0.99905
                       0.04362                       0.00000                       0.99905
                       0.04362                       0.00000                       0.99905
                       0.04362                       0.00000                       0.99905
                       0.04362                       0.00000                       0.99905
                       0.04362                       0.00000                       0.99905
                       0.04362                       0.00000                       0.99905
                       0.04362                       0.00000                       0.99905
                       0.04362                       0.00000                       0.99905
                       0.04362                       0.00000                       0.99905
                       0.04362                       0.00000                       0.99905
                       0.04362                       0.00000                       0.99905
                       0.04362                       0.00000                       0.99905
                       0.04362                       0.00000                       0.99905
                       0.04362                       0.00000                       0.99905
                       0.04362                       0.00000                       0.99905
                       0.04362                       0.00000                       0.99905
                       0.04362                       0.00000                       0.99905
                       0.04362                       0.00000                       0.99905
                       0.04362                       0.00000                       0.99905
                       0.04362                       0.00000                       0.99905
                       0.04362                       0.00000                       0.99905
                       0.04362                       0.00000                       0.99905
                       0.04362                       0.00000                       0.99905
                       0.04362                       0.00000                       0.99905
                       0.04362                       0.00000                       0.99905
                       0.04362                       0.00000                       0.99905
                       0.04362                       0.00000                       0.99905
                       0.04362                       0.00000                       0.99905
                       0.04362                       0.00000                       0.99905
                       0.04362                       0.00000                       0.99905
                       0.04362                       0.00000                       0.99905
                       0.04362                       0.00000                       0.99905
                       0.04362                       0.00000                       0.99905
                       0.04362                       0.00000                       0.99905
                       0.04362                       0.00000                       0.99905
                       0.04362                       0.00000                       0.99905
                       0.04362                       0.00000                       0.99905
                       0.04362                       0.00000                       0.99905
                       0.04362                       0.00000                       0.99905
                       0.04362                       0.00000                       0.99905
                       0.04362                       0.00000                       0.99905
                       0.04362                       0.00000                       0.99905
                       0.04362                       0.00000                       0.99905
        </DataArray>
      </PointData>
      <Lines>
        <DataArray type="Int32" Name="connectivity" format="ascii">
      0      1
      1      2
      2      3
      3      4
      4      5
      5      6
      6      7
      7      8
      8      9
      9     10
     10     11
     11     12
     12     13
     13     14
     14     15
     15     16
     16     17
     17     18
     18     19
     19     20
     20     21
     21     22
     22     23
     23     24
     24     25
     25     26
     26     27
     27     28
     28     29
     29     30
     30     31
     31     32
     32     33
     33     34
     34     35
     35     36
     36     37
     37     38
     38     39
     39     40
     40     41
     41     42
     42     43
     43     44
     44     45
     45     46
     46     47
     47     48
        </DataArray>
        <DataArray type="Int32" Name="offsets" format="ascii">
      2
      4
      6
      8
     10
     12
     14
     16
     18
     20
     22
     24
     26
     28
     30
     32
     34
     36
     38
     40
     42
     44
     46
     48
     50
     52
     54
     56
     58
     60
     62
     64
     66
     68
     70
     72
     74
     76
     78
     80
     82
     84
     86
     88
     90
     92
     94
     96
        </DataArray>
      </Lines>
    </Piece>
  </PolyData>
</VTKFile>
