<?xml version="1.0"?>
<VTKFile type="PolyData" version="0.1" byte_order="LittleEndian">
  <PolyData>
    <Piece NumberOfPoints="     49" NumberOfVerts="  0" NumberOfLines="     48"
           NumberOfStrips="  0" NumberOfPolys="      0">
      <Points>
        <DataArray type="Float32" NumberOfComponents="3" format="ascii">
                      -5.13049                      -1.29780                      89.25927
                      -5.14787                      -1.47073                      89.16057
                      -5.23486                      -2.33593                      88.66675
                      -5.32185                      -3.20112                      88.17294
                      -5.40884                      -4.06631                      87.67912
                      -5.49583                      -4.93150                      87.18530
                      -5.58282                      -5.79670                      86.69148
                      -5.66981                      -6.66189                      86.19767
                      -5.75679                      -7.52708                      85.70385
                      -5.84389                      -8.39334                      85.20943
                      -5.93077                      -9.25747                      84.71622
                      -6.01776                     -10.12266                      84.22240
                      -6.10475                     -10.98785                      83.72858
                      -6.19174                     -11.85304                      83.23476
                      -6.27884                     -12.71930                      82.74034
                      -6.36572                     -13.58343                      82.24713
                      -6.45271                     -14.44862                      81.75332
                      -6.53970                     -15.31381                      81.25950
                      -6.71378                     -17.04526                      80.27126
                      -6.88770                     -18.77512                      79.28393
                      -7.06168                     -20.50550                      78.29630
                      -7.23566                     -22.23589                      77.30866
                      -7.40964                     -23.96627                      76.32103
                      -7.58367                     -25.69719                      75.33309
                      -7.75759                     -27.42704                      74.34576
                      -7.93157                     -29.15742                      73.35813
                      -8.10555                     -30.88781                      72.37050
                      -8.27953                     -32.61819                      71.38287
                      -8.45356                     -34.34911                      70.39493
                      -8.62748                     -36.07896                      69.40760
                      -8.80146                     -37.80935                      68.41997
                      -8.97544                     -39.53973                      67.43233
                      -9.14942                     -41.27012                      66.44469
                      -9.32350                     -43.00157                      65.45646
                      -9.49737                     -44.73089                      64.46943
                      -9.67135                     -46.46128                      63.48180
                      -9.84533                     -48.19166                      62.49416
                      -9.93232                     -49.05685                      62.00035
                     -10.01931                     -49.92205                      61.50653
                     -10.10629                     -50.78724                      61.01271
                     -10.14979                     -51.21983                      60.76580
                     -10.19339                     -51.65350                      60.51829
                     -10.23678                     -52.08503                      60.27199
                     -10.28027                     -52.51762                      60.02508
                     -10.32377                     -52.95022                      59.77817
                     -10.36726                     -53.38282                      59.53127
                     -10.41076                     -53.81541                      59.28436
                     -10.45425                     -54.24801                      59.03745
                     -10.48036                     -54.50767                      58.88924
        </DataArray>
      </Points>
      <PointData>
        <DataArray type="Float32" Name="RefOrientationX" NumberOfComponents="3" format="ascii">
                       0.94930                       0.07833                      -0.30447
                       0.94909                       0.07867                      -0.30502
                       0.94825                       0.08004                      -0.30727
                       0.94772                       0.08089                      -0.30867
                       0.94749                       0.08126                      -0.30929
                       0.94752                       0.08121                      -0.30920
                       0.94780                       0.08077                      -0.30847
                       0.94829                       0.07997                      -0.30716
                       0.94897                       0.07886                      -0.30534
                       0.94982                       0.07747                      -0.30305
                       0.95081                       0.07583                      -0.30035
                       0.95192                       0.07397                      -0.29728
                       0.95313                       0.07191                      -0.29389
                       0.95442                       0.06969                      -0.29022
                       0.95577                       0.06732                      -0.28631
                       0.95717                       0.06483                      -0.28219
                       0.95859                       0.06223                      -0.27790
                       0.96004                       0.05956                      -0.27346
                       0.96294                       0.05401                      -0.26426
                       0.96579                       0.04832                      -0.25479
                       0.96854                       0.04258                      -0.24521
                       0.97114                       0.03685                      -0.23564
                       0.97358                       0.03122                      -0.22619
                       0.97585                       0.02570                      -0.21693
                       0.97793                       0.02035                      -0.20792
                       0.97985                       0.01517                      -0.19918
                       0.98159                       0.01017                      -0.19074
                       0.98317                       0.00536                      -0.18259
                       0.98461                       0.00074                      -0.17474
                       0.98592                      -0.00371                      -0.16718
                       0.98710                      -0.00798                      -0.15990
                       0.98817                      -0.01209                      -0.15290
                       0.98913                      -0.01602                      -0.14617
                       0.98999                      -0.01978                      -0.13974
                       0.99076                      -0.02334                      -0.13363
                       0.99143                      -0.02669                      -0.12789
                       0.99201                      -0.02977                      -0.12259
                       0.99227                      -0.03120                      -0.12013
                       0.99250                      -0.03254                      -0.11782
                       0.99271                      -0.03379                      -0.11567
                       0.99281                      -0.03438                      -0.11466
                       0.99290                      -0.03493                      -0.11370
                       0.99299                      -0.03546                      -0.11280
                       0.99306                      -0.03595                      -0.11194
                       0.99314                      -0.03641                      -0.11115
                       0.99320                      -0.03684                      -0.11041
                       0.99326                      -0.03723                      -0.10974
                       0.99332                      -0.03758                      -0.10913
                       0.99335                      -0.03778                      -0.10880
        </DataArray>
        <DataArray type="Float32" Name="RefOrientationY" NumberOfComponents="3" format="ascii">
                       0.30211                      -0.49527                       0.81452
                       0.30276                      -0.49521                       0.81431
                       0.30538                      -0.49500                       0.81346
                       0.30701                      -0.49486                       0.81294
                       0.30773                      -0.49480                       0.81270
                       0.30762                      -0.49480                       0.81273
                       0.30677                      -0.49488                       0.81301
                       0.30525                      -0.49501                       0.81351
                       0.30313                      -0.49518                       0.81419
                       0.30045                      -0.49540                       0.81505
                       0.29731                      -0.49566                       0.81605
                       0.29374                      -0.49594                       0.81717
                       0.28979                      -0.49624                       0.81839
                       0.28551                      -0.49656                       0.81970
                       0.28095                      -0.49689                       0.82108
                       0.27617                      -0.49722                       0.82250
                       0.27117                      -0.49755                       0.82396
                       0.26601                      -0.49788                       0.82545
                       0.25531                      -0.49851                       0.82844
                       0.24431                      -0.49909                       0.83140
                       0.23318                      -0.49961                       0.83427
                       0.22208                      -0.50007                       0.83703
                       0.21112                      -0.50045                       0.83963
                       0.20038                      -0.50077                       0.84207
                       0.18994                      -0.50101                       0.84434
                       0.17982                      -0.50120                       0.84644
                       0.17005                      -0.50132                       0.84839
                       0.16063                      -0.50140                       0.85018
                       0.15155                      -0.50142                       0.85183
                       0.14281                      -0.50141                       0.85334
                       0.13440                      -0.50136                       0.85474
                       0.12632                      -0.50128                       0.85602
                       0.11856                      -0.50117                       0.85719
                       0.11113                      -0.50103                       0.85826
                       0.10409                      -0.50088                       0.85923
                       0.09747                      -0.50071                       0.86011
                       0.09136                      -0.50054                       0.86088
                       0.08853                      -0.50045                       0.86123
                       0.08586                      -0.50037                       0.86154
                       0.08339                      -0.50029                       0.86184
                       0.08223                      -0.50025                       0.86197
                       0.08112                      -0.50021                       0.86210
                       0.08008                      -0.50017                       0.86222
                       0.07910                      -0.50013                       0.86233
                       0.07818                      -0.50010                       0.86243
                       0.07733                      -0.50007                       0.86253
                       0.07656                      -0.50004                       0.86261
                       0.07586                      -0.50001                       0.86269
                       0.07548                      -0.50000                       0.86273
        </DataArray>
        <DataArray type="Float32" Name="RefOrientationZ" NumberOfComponents="3" format="ascii">
                      -0.08699                      -0.86520                      -0.49382
                      -0.08699                      -0.86520                      -0.49382
                      -0.08699                      -0.86520                      -0.49382
                      -0.08699                      -0.86520                      -0.49382
                      -0.08699                      -0.86520                      -0.49382
                      -0.08699                      -0.86520                      -0.49382
                      -0.08699                      -0.86520                      -0.49382
                      -0.08699                      -0.86520                      -0.49382
                      -0.08699                      -0.86520                      -0.49382
                      -0.08699                      -0.86520                      -0.49382
                      -0.08699                      -0.86520                      -0.49382
                      -0.08699                      -0.86520                      -0.49382
                      -0.08699                      -0.86520                      -0.49382
                      -0.08699                      -0.86520                      -0.49382
                      -0.08699                      -0.86520                      -0.49382
                      -0.08699                      -0.86520                      -0.49382
                      -0.08699                      -0.86520                      -0.49382
                      -0.08699                      -0.86520                      -0.49382
                      -0.08699                      -0.86520                      -0.49382
                      -0.08699                      -0.86520                      -0.49382
                      -0.08699                      -0.86520                      -0.49382
                      -0.08699                      -0.86520                      -0.49382
                      -0.08699                      -0.86520                      -0.49382
                      -0.08699                      -0.86520                      -0.49382
                      -0.08699                      -0.86520                      -0.49382
                      -0.08699                      -0.86520                      -0.49382
                      -0.08699                      -0.86520                      -0.49382
                      -0.08699                      -0.86520                      -0.49382
                      -0.08699                      -0.86520                      -0.49382
                      -0.08699                      -0.86520                      -0.49382
                      -0.08699                      -0.86520                      -0.49382
                      -0.08699                      -0.86520                      -0.49382
                      -0.08699                      -0.86520                      -0.49382
                      -0.08699                      -0.86520                      -0.49382
                      -0.08699                      -0.86520                      -0.49382
                      -0.08699                      -0.86520                      -0.49382
                      -0.08699                      -0.86520                      -0.49382
                      -0.08699                      -0.86520                      -0.49382
                      -0.08699                      -0.86520                      -0.49382
                      -0.08699                      -0.86520                      -0.49382
                      -0.08699                      -0.86520                      -0.49382
                      -0.08699                      -0.86520                      -0.49382
                      -0.08699                      -0.86520                      -0.49382
                      -0.08699                      -0.86520                      -0.49382
                      -0.08699                      -0.86520                      -0.49382
                      -0.08699                      -0.86520                      -0.49382
                      -0.08699                      -0.86520                      -0.49382
                      -0.08699                      -0.86520                      -0.49382
                      -0.08699                      -0.86520                      -0.49382
        </DataArray>
      </PointData>
      <Lines>
        <DataArray type="Int32" Name="connectivity" format="ascii">
      0      1
      1      2
      2      3
      3      4
      4      5
      5      6
      6      7
      7      8
      8      9
      9     10
     10     11
     11     12
     12     13
     13     14
     14     15
     15     16
     16     17
     17     18
     18     19
     19     20
     20     21
     21     22
     22     23
     23     24
     24     25
     25     26
     26     27
     27     28
     28     29
     29     30
     30     31
     31     32
     32     33
     33     34
     34     35
     35     36
     36     37
     37     38
     38     39
     39     40
     40     41
     41     42
     42     43
     43     44
     44     45
     45     46
     46     47
     47     48
        </DataArray>
        <DataArray type="Int32" Name="offsets" format="ascii">
      2
      4
      6
      8
     10
     12
     14
     16
     18
     20
     22
     24
     26
     28
     30
     32
     34
     36
     38
     40
     42
     44
     46
     48
     50
     52
     54
     56
     58
     60
     62
     64
     66
     68
     70
     72
     74
     76
     78
     80
     82
     84
     86
     88
     90
     92
     94
     96
        </DataArray>
      </Lines>
    </Piece>
  </PolyData>
</VTKFile>
