<?xml version="1.0"?>
<VTKFile type="PolyData" version="0.1" byte_order="LittleEndian">
  <PolyData>
    <Piece NumberOfPoints="     49" NumberOfVerts="  0" NumberOfLines="     48"
           NumberOfStrips="  0" NumberOfPolys="      0">
      <Points>
        <DataArray type="Float32" NumberOfComponents="3" format="ascii">
                      -5.13049                       1.29780                      89.25927
                      -5.14787                       1.47073                      89.16057
                      -5.23486                       2.33593                      88.66675
                      -5.32185                       3.20112                      88.17294
                      -5.40884                       4.06631                      87.67912
                      -5.49583                       4.93150                      87.18530
                      -5.58282                       5.79670                      86.69148
                      -5.66981                       6.66189                      86.19767
                      -5.75679                       7.52708                      85.70385
                      -5.84389                       8.39334                      85.20943
                      -5.93077                       9.25747                      84.71622
                      -6.01776                      10.12266                      84.22240
                      -6.10475                      10.98785                      83.72858
                      -6.19174                      11.85304                      83.23476
                      -6.27884                      12.71930                      82.74034
                      -6.36572                      13.58343                      82.24713
                      -6.45271                      14.44862                      81.75332
                      -6.53970                      15.31381                      81.25950
                      -6.71378                      17.04526                      80.27126
                      -6.88770                      18.77512                      79.28393
                      -7.06168                      20.50550                      78.29630
                      -7.23566                      22.23589                      77.30866
                      -7.40964                      23.96627                      76.32103
                      -7.58367                      25.69719                      75.33309
                      -7.75759                      27.42704                      74.34576
                      -7.93157                      29.15742                      73.35813
                      -8.10555                      30.88781                      72.37050
                      -8.27953                      32.61819                      71.38287
                      -8.45356                      34.34911                      70.39493
                      -8.62748                      36.07896                      69.40760
                      -8.80146                      37.80935                      68.41997
                      -8.97544                      39.53973                      67.43233
                      -9.14942                      41.27012                      66.44469
                      -9.32350                      43.00157                      65.45646
                      -9.49737                      44.73089                      64.46943
                      -9.67135                      46.46128                      63.48180
                      -9.84533                      48.19166                      62.49416
                      -9.93232                      49.05685                      62.00035
                     -10.01931                      49.92205                      61.50653
                     -10.10629                      50.78724                      61.01271
                     -10.14979                      51.21983                      60.76580
                     -10.19339                      51.65350                      60.51829
                     -10.23678                      52.08503                      60.27199
                     -10.28027                      52.51762                      60.02508
                     -10.32377                      52.95022                      59.77817
                     -10.36726                      53.38282                      59.53127
                     -10.41076                      53.81541                      59.28436
                     -10.45425                      54.24801                      59.03745
                     -10.48036                      54.50767                      58.88924
        </DataArray>
      </Points>
      <PointData>
        <DataArray type="Float32" Name="RefOrientationX" NumberOfComponents="3" format="ascii">
                       0.98405                       0.15185                       0.09271
                       0.98394                       0.15218                       0.09330
                       0.98350                       0.15350                       0.09569
                       0.98323                       0.15432                       0.09717
                       0.98311                       0.15468                       0.09783
                       0.98313                       0.15463                       0.09774
                       0.98327                       0.15420                       0.09696
                       0.98353                       0.15344                       0.09558
                       0.98388                       0.15237                       0.09364
                       0.98431                       0.15102                       0.09121
                       0.98482                       0.14944                       0.08834
                       0.98537                       0.14764                       0.08509
                       0.98597                       0.14565                       0.08151
                       0.98660                       0.14350                       0.07763
                       0.98725                       0.14121                       0.07349
                       0.98790                       0.13880                       0.06915
                       0.98856                       0.13628                       0.06463
                       0.98921                       0.13368                       0.05996
                       0.99046                       0.12830                       0.05030
                       0.99161                       0.12276                       0.04040
                       0.99265                       0.11716                       0.03040
                       0.99355                       0.11157                       0.02045
                       0.99430                       0.10605                       0.01066
                       0.99492                       0.10065                       0.00108
                       0.99541                       0.09539                      -0.00822
                       0.99577                       0.09030                      -0.01720
                       0.99601                       0.08538                      -0.02587
                       0.99616                       0.08063                      -0.03420
                       0.99621                       0.07606                      -0.04222
                       0.99618                       0.07167                      -0.04992
                       0.99608                       0.06743                      -0.05732
                       0.99591                       0.06336                      -0.06442
                       0.99569                       0.05946                      -0.07122
                       0.99542                       0.05572                      -0.07772
                       0.99511                       0.05218                      -0.08388
                       0.99477                       0.04885                      -0.08965
                       0.99443                       0.04577                      -0.09498
                       0.99425                       0.04434                      -0.09745
                       0.99408                       0.04300                      -0.09977
                       0.99392                       0.04176                      -0.10192
                       0.99384                       0.04117                      -0.10293
                       0.99376                       0.04062                      -0.10389
                       0.99368                       0.04009                      -0.10480
                       0.99361                       0.03960                      -0.10565
                       0.99355                       0.03914                      -0.10645
                       0.99348                       0.03871                      -0.10719
                       0.99343                       0.03832                      -0.10786
                       0.99337                       0.03797                      -0.10847
                       0.99335                       0.03778                      -0.10880
        </DataArray>
        <DataArray type="Float32" Name="RefOrientationY" NumberOfComponents="3" format="ascii">
                       0.15520                      -0.47788                      -0.86461
                       0.15588                      -0.47777                      -0.86454
                       0.15860                      -0.47735                      -0.86428
                       0.16028                      -0.47709                      -0.86412
                       0.16103                      -0.47697                      -0.86404
                       0.16092                      -0.47699                      -0.86405
                       0.16004                      -0.47713                      -0.86414
                       0.15846                      -0.47737                      -0.86429
                       0.15626                      -0.47771                      -0.86451
                       0.15349                      -0.47814                      -0.86477
                       0.15023                      -0.47864                      -0.86506
                       0.14653                      -0.47920                      -0.86539
                       0.14245                      -0.47980                      -0.86573
                       0.13803                      -0.48045                      -0.86609
                       0.13331                      -0.48113                      -0.86645
                       0.12837                      -0.48183                      -0.86681
                       0.12322                      -0.48255                      -0.86716
                       0.11789                      -0.48328                      -0.86749
                       0.10688                      -0.48473                      -0.86811
                       0.09557                      -0.48617                      -0.86862
                       0.08416                      -0.48755                      -0.86903
                       0.07279                      -0.48886                      -0.86932
                       0.06159                      -0.49008                      -0.86950
                       0.05064                      -0.49122                      -0.86956
                       0.04000                      -0.49227                      -0.86952
                       0.02971                      -0.49323                      -0.86939
                       0.01978                      -0.49410                      -0.86918
                       0.01023                      -0.49490                      -0.86889
                       0.00103                      -0.49562                      -0.86854
                      -0.00780                      -0.49628                      -0.86813
                      -0.01629                      -0.49687                      -0.86767
                      -0.02444                      -0.49741                      -0.86717
                      -0.03226                      -0.49789                      -0.86664
                      -0.03973                      -0.49832                      -0.86608
                      -0.04680                      -0.49870                      -0.86551
                      -0.05345                      -0.49904                      -0.86493
                      -0.05958                      -0.49933                      -0.86436
                      -0.06242                      -0.49946                      -0.86409
                      -0.06509                      -0.49958                      -0.86382
                      -0.06756                      -0.49968                      -0.86357
                      -0.06872                      -0.49973                      -0.86345
                      -0.06983                      -0.49978                      -0.86333
                      -0.07087                      -0.49982                      -0.86322
                      -0.07186                      -0.49986                      -0.86312
                      -0.07278                      -0.49990                      -0.86302
                      -0.07362                      -0.49993                      -0.86293
                      -0.07440                      -0.49996                      -0.86285
                      -0.07510                      -0.49999                      -0.86277
                      -0.07548                      -0.50000                      -0.86273
        </DataArray>
        <DataArray type="Float32" Name="RefOrientationZ" NumberOfComponents="3" format="ascii">
                      -0.08699                       0.86520                      -0.49382
                      -0.08699                       0.86520                      -0.49382
                      -0.08699                       0.86520                      -0.49382
                      -0.08699                       0.86520                      -0.49382
                      -0.08699                       0.86520                      -0.49382
                      -0.08699                       0.86520                      -0.49382
                      -0.08699                       0.86520                      -0.49382
                      -0.08699                       0.86520                      -0.49382
                      -0.08699                       0.86520                      -0.49382
                      -0.08699                       0.86520                      -0.49382
                      -0.08699                       0.86520                      -0.49382
                      -0.08699                       0.86520                      -0.49382
                      -0.08699                       0.86520                      -0.49382
                      -0.08699                       0.86520                      -0.49382
                      -0.08699                       0.86520                      -0.49382
                      -0.08699                       0.86520                      -0.49382
                      -0.08699                       0.86520                      -0.49382
                      -0.08699                       0.86520                      -0.49382
                      -0.08699                       0.86520                      -0.49382
                      -0.08699                       0.86520                      -0.49382
                      -0.08699                       0.86520                      -0.49382
                      -0.08699                       0.86520                      -0.49382
                      -0.08699                       0.86520                      -0.49382
                      -0.08699                       0.86520                      -0.49382
                      -0.08699                       0.86520                      -0.49382
                      -0.08699                       0.86520                      -0.49382
                      -0.08699                       0.86520                      -0.49382
                      -0.08699                       0.86520                      -0.49382
                      -0.08699                       0.86520                      -0.49382
                      -0.08699                       0.86520                      -0.49382
                      -0.08699                       0.86520                      -0.49382
                      -0.08699                       0.86520                      -0.49382
                      -0.08699                       0.86520                      -0.49382
                      -0.08699                       0.86520                      -0.49382
                      -0.08699                       0.86520                      -0.49382
                      -0.08699                       0.86520                      -0.49382
                      -0.08699                       0.86520                      -0.49382
                      -0.08699                       0.86520                      -0.49382
                      -0.08699                       0.86520                      -0.49382
                      -0.08699                       0.86520                      -0.49382
                      -0.08699                       0.86520                      -0.49382
                      -0.08699                       0.86520                      -0.49382
                      -0.08699                       0.86520                      -0.49382
                      -0.08699                       0.86520                      -0.49382
                      -0.08699                       0.86520                      -0.49382
                      -0.08699                       0.86520                      -0.49382
                      -0.08699                       0.86520                      -0.49382
                      -0.08699                       0.86520                      -0.49382
                      -0.08699                       0.86520                      -0.49382
        </DataArray>
      </PointData>
      <Lines>
        <DataArray type="Int32" Name="connectivity" format="ascii">
      0      1
      1      2
      2      3
      3      4
      4      5
      5      6
      6      7
      7      8
      8      9
      9     10
     10     11
     11     12
     12     13
     13     14
     14     15
     15     16
     16     17
     17     18
     18     19
     19     20
     20     21
     21     22
     22     23
     23     24
     24     25
     25     26
     26     27
     27     28
     28     29
     29     30
     30     31
     31     32
     32     33
     33     34
     34     35
     35     36
     36     37
     37     38
     38     39
     39     40
     40     41
     41     42
     42     43
     43     44
     44     45
     45     46
     46     47
     47     48
        </DataArray>
        <DataArray type="Int32" Name="offsets" format="ascii">
      2
      4
      6
      8
     10
     12
     14
     16
     18
     20
     22
     24
     26
     28
     30
     32
     34
     36
     38
     40
     42
     44
     46
     48
     50
     52
     54
     56
     58
     60
     62
     64
     66
     68
     70
     72
     74
     76
     78
     80
     82
     84
     86
     88
     90
     92
     94
     96
        </DataArray>
      </Lines>
    </Piece>
  </PolyData>
</VTKFile>
