ply
format ascii 1.0
element vertex 300
property float x
property float y
property float z
element face 596
property list uchar int vertex_indices
end_header
0.245261371 -1.0368818 0
1.21642554 -0.51378876 0
1.79593194 0.424805194 0
1.82850218 1.52740467 0
1.30540919 2.49856877 0
0.366815388 3.07807541 0
-0.735784292 3.11064553 0
-1.70694852 2.58755207 0
-2.28645468 1.64895821 0
-2.31902504 0.546359062 0
-1.79593205 -0.424804986 0
-0.857337475 -1.0043118 0
0.122993335 -1.78933585 2.5625
1.08132708 -1.27315366 2.5625
1.6531775 -0.346959829 2.5625
1.6853174 0.741072774 2.5625
1.16913521 1.69940627 2.5625
0.242941454 2.27125645 2.5625
-0.845091283 2.3033967 2.5625
-1.80342507 1.78721392 2.5625
-2.37527537 0.861020327 2.5625
-2.40741515 -0.227011859 2.5625
-1.89123297 -1.18534541 2.5625
-0.965038598 -1.75719607 2.5625
0.0388783216 -2.22378254 5.125
1.03712702 -1.68610096 5.125
1.6327951 -0.721330881 5.125
1.66627383 0.412018657 5.125
1.12859225 1.41026735 5.125
0.163822412 2.00593543 5.125
-0.969527304 2.03941369 5.125
-1.96777606 1.50173211 5.125
-2.5634439 0.536962271 5.125
-2.59692264 -0.596386909 5.125
-2.05924129 -1.59463549 5.125
-1.0944705 -2.19030404 5.125
-0.0188173056 -2.38383198 7.6875
0.860219121 -1.85972261 7.6875
1.36206508 -0.87718612 7.6875
1.35225153 0.300508022 7.6875
0.833407879 1.35779727 7.6875
-0.0554420054 2.01138258 7.6875
-1.07613194 2.08613491 7.6875
-1.95516849 1.56202543 7.6875
-2.45701408 0.579489112 7.6875
-2.44720054 -0.598204732 7.6875
-1.92835701 -1.65549397 7.6875
-1.03950644 -2.30907917 7.6875
-0.0511105061 -2.35840154 10.25
0.344865829 -1.93190622 10.25
0.485628933 -0.989296436 10.25
0.333461493 0.21685648 10.25
-0.0708634555 1.36336434 10.25
-0.61900717 2.14302206 10.25
-1.16409528 2.34692049 10.25
-1.56007171 1.92042458 10.25
-1.70083475 0.977815032 10.25
-1.54866731 -0.228337586 10.25
-1.14434242 -1.3748455 10.25
-0.596198201 -2.15450358 10.25
-0.0968210101 -2.18165135 12.8125
0.284242839 -1.76705074 12.8125
0.426228255 -0.828166604 12.8125
0.291090518 0.383427799 12.8125
-0.0849604309 1.54308653 12.8125
-0.601161957 2.3400805 12.8125
-1.11919844 2.56085539 12.8125
-1.50026226 2.1462543 12.8125
-1.64224768 1.20737028 12.8125
-1.50710988 -0.00422376394 12.8125
-1.13105905 -1.16388249 12.8125
-0.614857078 -1.96087682 12.8125
-0.120383337 -1.97634006 15.375
0.239181489 -1.57757366 15.375
0.377805501 -0.654747844 15.375
0.258344442 0.544866979 15.375
-0.0871920586 1.69983482 15.375
-0.566217899 2.50068331 15.375
-1.05037856 2.73282528 15.375
-1.40994334 2.33405876 15.375
-1.5485673 1.41123319 15.375
-1.42910635 0.211618721 15.375
-1.08356988 -0.943349123 15.375
-0.604543567 -1.74419808 15.375
-0.123191684 -1.80294061 17.9375
0.205175847 -1.42723191 17.9375
0.333543509 -0.541866004 17.9375
0.227515191 0.61592412 17.9375
-0.0844987929 1.73590922 17.9375
-0.518894613 2.51799083 17.9375
-0.959276319 2.75260997 17.9375
-1.28764391 2.37690091 17.9375
-1.41601145 1.49153519 17.9375
-1.30998313 0.33374542 17.9375
-0.99796927 -0.786239684 17.9375
-0.563573062 -1.56832159 17.9375
-0.108866364 -1.69201779 20.5
0.18941772 -1.33823729 20.5
0.307789266 -0.489857495 20.5
0.214530766 0.625798643 20.5
-0.0653692484 1.7097919 20.5
-0.456911802 2.47166777 20.5
-0.855183482 2.70728111 20.5
-1.15346742 2.35350037 20.5
-1.2718389 1.50512075 20.5
-1.17858052 0.389464855 20.5
-0.898680568 -0.694528341 20.5
-0.507137716 -1.45640445 20.5
-0.0834820569 -1.62578428 23.0625
0.187048361 -1.29295421 23.0625
0.296649694 -0.4817366 23.0625
0.215954348 0.590503335 23.0625
-0.0334154218 1.63645959 23.0625
-0.384641171 2.37586951 23.0625
-0.743612349 2.61060858 23.0625
-1.01414275 2.27777767 23.0625
-1.12374401 1.46656036 23.0625
-1.04304874 0.394320726 23.0625
-0.793678939 -0.651635468 23.0625
-0.442452967 -1.39104569 23.0625
-0.0534900576 -1.58337665 25.625
0.194661975 -1.27131259 25.625
0.299225658 -0.500200331 25.625
0.232183158 0.523341179 25.625
0.0114985704 1.52505457 25.625
-0.303695947 2.23653221 25.625
-0.628944337 2.46713352 25.625
-0.877096295 2.15506887 25.625
-0.981660008 1.38395679 25.625
-0.914617479 0.360415578 25.625
-0.69393295 -0.641297817 25.625
-0.378738165 -1.35277569 25.625
-0.0237632021 -1.55461121 28.1875
0.203162029 -1.26210141 28.1875
0.302759945 -0.529749393 28.1875
0.248343453 0.446212053 28.1875
0.0544932783 1.40427458 28.1875
-0.226848438 2.08772635 28.1875
-0.520296633 2.31343675 28.1875
-0.747221828 2.02092671 28.1875
-0.846819699 1.28857458 28.1875
-0.792403221 0.312613487 28.1875
-0.598553121 -0.645448983 28.1875
-0.317211151 -1.32890105 28.1875
-0.000244773924 -1.52303433 30.75
0.206655592 -1.24884224 30.75
0.301401705 -0.553709984 30.75
0.258606344 0.376102209 30.75
0.0897365659 1.29145169 30.75
-0.159959137 1.94707179 30.75
-0.423575073 2.16728926 30.75
-0.630475521 1.89309692 30.75
-0.725221515 1.19796467 30.75
-0.682426214 0.268152833 30.75
-0.51355648 -0.647196651 30.75
-0.263860524 -1.30281711 30.75
0.0131730139 -1.47665918 33.3125
0.201248705 -1.21925139 33.3125
0.290954113 -0.559139729 33.3125
0.25825268 0.326799631 33.3125
0.111906804 1.20117962 33.3125
-0.10887029 1.82971144 33.3125
-0.344921619 2.04397988 33.3125
-0.53299731 1.78657174 33.3125
-0.622702658 1.12646019 33.3125
-0.590001285 0.240521073 33.3125
-0.443655401 -0.633858919 33.3125
-0.222878128 -1.26239109 33.3125
0.0172040984 -1.41780698 35.875
0.187600985 -1.17610526 35.875
0.272438228 -0.549549222 35.875
0.248983786 0.293976068 35.875
0.123522192 1.12844837 35.875
-0.070329085 1.7302717 35.875
-0.280627966 1.9381882 35.875
-0.45102489 1.69648612 35.875
-0.535862029 1.0699302 35.875
-0.512407601 0.226405263 35.875
-0.386946082 -0.608066976 35.875
-0.193094596 -1.20989084 35.875
0.014719367 -1.35333169 38.4375
0.168509305 -1.1263752 38.4375
0.248634785 -0.532096624 38.4375
0.233626306 0.270267785 38.4375
0.127505362 1.06572485 38.4375
-0.0412930176 1.64113259 38.4375
-0.227539539 1.84231114 38.4375
-0.381329477 1.61535454 38.4375
-0.461454958 1.02107596 38.4375
-0.446446478 0.218711913 38.4375
-0.340325534 -0.576745093 38.4375
-0.171526998 -1.15215337 38.4375
0.010215614 -1.29000044 41
0.154428005 -1.07622147 41
0.233526081 -0.512644768 41
0.226315588 0.249719918 41
0.134728581 1.0065974 41
-0.0166942701 1.55518341 41
-0.18737939 1.7484839 41
-0.331591785 1.53470469 41
-0.410689831 0.971128106 41
-0.403479367 0.208763778 41
-0.31189236 -0.548113644 41
-0.160469383 -1.09669971 41
0.00519118458 -1.23482728 43.5625
0.141609341 -1.03355241 43.5625
0.220297456 -0.499771178 43.5625
0.220171154 0.223490179 43.5625
0.1412642 0.942434251 43.5625
0.00471973792 1.4644208 43.5625
-0.152875364 1.64958358 43.5625
-0.289293557 1.44830823 43.5625
-0.367981642 0.914527237 43.5625
-0.36785531 0.19126606 43.5625
-0.288948387 -0.527677894 43.5625
-0.152403802 -1.04966474 43.5625
0.00212909281 -1.19473636 46.125
0.130925611 -1.00555754 46.125
0.208887964 -0.500922918 46.125
0.215126216 0.18395102 46.125
0.147968829 0.865552902 46.125
0.0254105739 1.36124814 46.125
-0.119709209 1.53821516 46.125
-0.248505741 1.34903622 46.125
-0.32646808 0.844401717 46.125
-0.332706332 0.159527957 46.125
-0.265548944 -0.522073805 46.125
-0.142990589 -1.01776934 46.125
0.00282382406 -1.17311335 48.6875
0.12398456 -0.995558023 48.6875
0.200465217 -0.519450784 48.6875
0.211772829 0.127635777 48.6875
0.154877573 0.772315323 48.6875
0.045024462 1.2418468 48.6875
-0.0883514881 1.41041899 48.6875
-0.209512249 1.23286343 48.6875
-0.285992861 0.756756485 48.6875
-0.297300488 0.109670043 48.6875
-0.240405232 -0.535009444 48.6875
-0.130552024 -1.00454104 48.6875
0.00134117901 -1.15940142 51.25
0.114922017 -0.993081093 51.25
0.189381361 -0.544963777 51.25
0.204767928 0.0648778677 51.25
0.156958848 0.673037171 51.25
0.0587645918 1.11655867 51.25
-0.0635038614 1.2766006 51.25
-0.177084714 1.11028004 51.25
-0.251544029 0.662163019 51.25
-0.26693058 0.0523214936 51.25
-0.219121531 -0.55583781 51.25
-0.120927185 -0.999359429 51.25
-0.0100919539 -1.13953137 53.8125
0.0960689038 -0.984161377 53.8125
0.168275863 -0.56359303 53.8125
0.187181115 0.00948262215 53.8125
0.147719026 0.581510425 53.8125
0.0604634285 0.999216199 53.8125
-0.0512056425 1.15067554 53.8125
-0.157366514 0.9953053 53.8125
-0.229573458 0.574737072 53.8125
-0.248478681 0.00166159868 53.8125
-0.209016621 -0.570366085 53.8125
-0.121760942 -0.988072038 53.8125
-0.0384142511 -1.05647492 56.375
0.0523419194 -0.923223376 56.375
0.115888178 -0.561189532 56.375
0.135197371 -0.0673801601 56.375
0.105095595 0.425888896 56.375
0.0336486287 0.78644681 56.375
-0.0599994287 0.917681932 56.375
-0.150755614 0.784430265 56.375
-0.214301869 0.422396541 56.375
-0.233611047 -0.0714127123 56.375
-0.203509286 -0.564681768 56.375
-0.132062241 -0.925239801 56.375
-0.0906671286 -0.917283297 58.9375
-0.019078292 -0.811625421 58.9375
0.0323299319 -0.523646235 58.9375
0.0497827753 -0.130509466 58.9375
0.0286037102 0.262444079 58.9375
-0.0255322829 0.549922943 58.9375
-0.0981195867 0.654897332 58.9375
-0.169708431 0.549239397 58.9375
-0.221116662 0.261260211 58.9375
-0.238569468 -0.131876379 58.9375
-0.217390433 -0.524829924 58.9375
-0.16325438 -0.812309027 58.9375
-0.173869133 -0.632403851 61.5
-0.138670489 -0.580006957 61.5
-0.112903289 -0.436855853 61.5
-0.103471838 -0.241307795 61.5
-0.112903289 -0.0457597971 61.5
-0.138670474 0.0973913074 61.5
-0.173869133 0.149788201 61.5
-0.209067792 0.0973912477 61.5
-0.234834984 -0.0457598567 61.5
-0.244266421 -0.241307825 61.5
-0.234834984 -0.436855823 61.5
-0.209067762 -0.580007017 61.5
3 0 1 12
3 1 13 12
3 1 2 13
3 2 14 13
3 2 3 14
3 3 15 14
3 3 4 15
3 4 16 15
3 4 5 16
3 5 17 16
3 5 6 17
3 6 18 17
3 6 7 18
3 7 19 18
3 7 8 19
3 8 20 19
3 8 9 20
3 9 21 20
3 9 10 21
3 10 22 21
3 10 11 22
3 11 23 22
3 11 0 23
3 0 12 23
3 12 13 24
3 13 25 24
3 13 14 25
3 14 26 25
3 14 15 26
3 15 27 26
3 15 16 27
3 16 28 27
3 16 17 28
3 17 29 28
3 17 18 29
3 18 30 29
3 18 19 30
3 19 31 30
3 19 20 31
3 20 32 31
3 20 21 32
3 21 33 32
3 21 22 33
3 22 34 33
3 22 23 34
3 23 35 34
3 23 12 35
3 12 24 35
3 24 25 36
3 25 37 36
3 25 26 37
3 26 38 37
3 26 27 38
3 27 39 38
3 27 28 39
3 28 40 39
3 28 29 40
3 29 41 40
3 29 30 41
3 30 42 41
3 30 31 42
3 31 43 42
3 31 32 43
3 32 44 43
3 32 33 44
3 33 45 44
3 33 34 45
3 34 46 45
3 34 35 46
3 35 47 46
3 35 24 47
3 24 36 47
3 36 37 48
3 37 49 48
3 37 38 49
3 38 50 49
3 38 39 50
3 39 51 50
3 39 40 51
3 40 52 51
3 40 41 52
3 41 53 52
3 41 42 53
3 42 54 53
3 42 43 54
3 43 55 54
3 43 44 55
3 44 56 55
3 44 45 56
3 45 57 56
3 45 46 57
3 46 58 57
3 46 47 58
3 47 59 58
3 47 36 59
3 36 48 59
3 48 49 60
3 49 61 60
3 49 50 61
3 50 62 61
3 50 51 62
3 51 63 62
3 51 52 63
3 52 64 63
3 52 53 64
3 53 65 64
3 53 54 65
3 54 66 65
3 54 55 66
3 55 67 66
3 55 56 67
3 56 68 67
3 56 57 68
3 57 69 68
3 57 58 69
3 58 70 69
3 58 59 70
3 59 71 70
3 59 48 71
3 48 60 71
3 60 61 72
3 61 73 72
3 61 62 73
3 62 74 73
3 62 63 74
3 63 75 74
3 63 64 75
3 64 76 75
3 64 65 76
3 65 77 76
3 65 66 77
3 66 78 77
3 66 67 78
3 67 79 78
3 67 68 79
3 68 80 79
3 68 69 80
3 69 81 80
3 69 70 81
3 70 82 81
3 70 71 82
3 71 83 82
3 71 60 83
3 60 72 83
3 72 73 84
3 73 85 84
3 73 74 85
3 74 86 85
3 74 75 86
3 75 87 86
3 75 76 87
3 76 88 87
3 76 77 88
3 77 89 88
3 77 78 89
3 78 90 89
3 78 79 90
3 79 91 90
3 79 80 91
3 80 92 91
3 80 81 92
3 81 93 92
3 81 82 93
3 82 94 93
3 82 83 94
3 83 95 94
3 83 72 95
3 72 84 95
3 84 85 96
3 85 97 96
3 85 86 97
3 86 98 97
3 86 87 98
3 87 99 98
3 87 88 99
3 88 100 99
3 88 89 100
3 89 101 100
3 89 90 101
3 90 102 101
3 90 91 102
3 91 103 102
3 91 92 103
3 92 104 103
3 92 93 104
3 93 105 104
3 93 94 105
3 94 106 105
3 94 95 106
3 95 107 106
3 95 84 107
3 84 96 107
3 96 97 108
3 97 109 108
3 97 98 109
3 98 110 109
3 98 99 110
3 99 111 110
3 99 100 111
3 100 112 111
3 100 101 112
3 101 113 112
3 101 102 113
3 102 114 113
3 102 103 114
3 103 115 114
3 103 104 115
3 104 116 115
3 104 105 116
3 105 117 116
3 105 106 117
3 106 118 117
3 106 107 118
3 107 119 118
3 107 96 119
3 96 108 119
3 108 109 120
3 109 121 120
3 109 110 121
3 110 122 121
3 110 111 122
3 111 123 122
3 111 112 123
3 112 124 123
3 112 113 124
3 113 125 124
3 113 114 125
3 114 126 125
3 114 115 126
3 115 127 126
3 115 116 127
3 116 128 127
3 116 117 128
3 117 129 128
3 117 118 129
3 118 130 129
3 118 119 130
3 119 131 130
3 119 108 131
3 108 120 131
3 120 121 132
3 121 133 132
3 121 122 133
3 122 134 133
3 122 123 134
3 123 135 134
3 123 124 135
3 124 136 135
3 124 125 136
3 125 137 136
3 125 126 137
3 126 138 137
3 126 127 138
3 127 139 138
3 127 128 139
3 128 140 139
3 128 129 140
3 129 141 140
3 129 130 141
3 130 142 141
3 130 131 142
3 131 143 142
3 131 120 143
3 120 132 143
3 132 133 144
3 133 145 144
3 133 134 145
3 134 146 145
3 134 135 146
3 135 147 146
3 135 136 147
3 136 148 147
3 136 137 148
3 137 149 148
3 137 138 149
3 138 150 149
3 138 139 150
3 139 151 150
3 139 140 151
3 140 152 151
3 140 141 152
3 141 153 152
3 141 142 153
3 142 154 153
3 142 143 154
3 143 155 154
3 143 132 155
3 132 144 155
3 144 145 156
3 145 157 156
3 145 146 157
3 146 158 157
3 146 147 158
3 147 159 158
3 147 148 159
3 148 160 159
3 148 149 160
3 149 161 160
3 149 150 161
3 150 162 161
3 150 151 162
3 151 163 162
3 151 152 163
3 152 164 163
3 152 153 164
3 153 165 164
3 153 154 165
3 154 166 165
3 154 155 166
3 155 167 166
3 155 144 167
3 144 156 167
3 156 157 168
3 157 169 168
3 157 158 169
3 158 170 169
3 158 159 170
3 159 171 170
3 159 160 171
3 160 172 171
3 160 161 172
3 161 173 172
3 161 162 173
3 162 174 173
3 162 163 174
3 163 175 174
3 163 164 175
3 164 176 175
3 164 165 176
3 165 177 176
3 165 166 177
3 166 178 177
3 166 167 178
3 167 179 178
3 167 156 179
3 156 168 179
3 168 169 180
3 169 181 180
3 169 170 181
3 170 182 181
3 170 171 182
3 171 183 182
3 171 172 183
3 172 184 183
3 172 173 184
3 173 185 184
3 173 174 185
3 174 186 185
3 174 175 186
3 175 187 186
3 175 176 187
3 176 188 187
3 176 177 188
3 177 189 188
3 177 178 189
3 178 190 189
3 178 179 190
3 179 191 190
3 179 168 191
3 168 180 191
3 180 181 192
3 181 193 192
3 181 182 193
3 182 194 193
3 182 183 194
3 183 195 194
3 183 184 195
3 184 196 195
3 184 185 196
3 185 197 196
3 185 186 197
3 186 198 197
3 186 187 198
3 187 199 198
3 187 188 199
3 188 200 199
3 188 189 200
3 189 201 200
3 189 190 201
3 190 202 201
3 190 191 202
3 191 203 202
3 191 180 203
3 180 192 203
3 192 193 204
3 193 205 204
3 193 194 205
3 194 206 205
3 194 195 206
3 195 207 206
3 195 196 207
3 196 208 207
3 196 197 208
3 197 209 208
3 197 198 209
3 198 210 209
3 198 199 210
3 199 211 210
3 199 200 211
3 200 212 211
3 200 201 212
3 201 213 212
3 201 202 213
3 202 214 213
3 202 203 214
3 203 215 214
3 203 192 215
3 192 204 215
3 204 205 216
3 205 217 216
3 205 206 217
3 206 218 217
3 206 207 218
3 207 219 218
3 207 208 219
3 208 220 219
3 208 209 220
3 209 221 220
3 209 210 221
3 210 222 221
3 210 211 222
3 211 223 222
3 211 212 223
3 212 224 223
3 212 213 224
3 213 225 224
3 213 214 225
3 214 226 225
3 214 215 226
3 215 227 226
3 215 204 227
3 204 216 227
3 216 217 228
3 217 229 228
3 217 218 229
3 218 230 229
3 218 219 230
3 219 231 230
3 219 220 231
3 220 232 231
3 220 221 232
3 221 233 232
3 221 222 233
3 222 234 233
3 222 223 234
3 223 235 234
3 223 224 235
3 224 236 235
3 224 225 236
3 225 237 236
3 225 226 237
3 226 238 237
3 226 227 238
3 227 239 238
3 227 216 239
3 216 228 239
3 228 229 240
3 229 241 240
3 229 230 241
3 230 242 241
3 230 231 242
3 231 243 242
3 231 232 243
3 232 244 243
3 232 233 244
3 233 245 244
3 233 234 245
3 234 246 245
3 234 235 246
3 235 247 246
3 235 236 247
3 236 248 247
3 236 237 248
3 237 249 248
3 237 238 249
3 238 250 249
3 238 239 250
3 239 251 250
3 239 228 251
3 228 240 251
3 240 241 252
3 241 253 252
3 241 242 253
3 242 254 253
3 242 243 254
3 243 255 254
3 243 244 255
3 244 256 255
3 244 245 256
3 245 257 256
3 245 246 257
3 246 258 257
3 246 247 258
3 247 259 258
3 247 248 259
3 248 260 259
3 248 249 260
3 249 261 260
3 249 250 261
3 250 262 261
3 250 251 262
3 251 263 262
3 251 240 263
3 240 252 263
3 252 253 264
3 253 265 264
3 253 254 265
3 254 266 265
3 254 255 266
3 255 267 266
3 255 256 267
3 256 268 267
3 256 257 268
3 257 269 268
3 257 258 269
3 258 270 269
3 258 259 270
3 259 271 270
3 259 260 271
3 260 272 271
3 260 261 272
3 261 273 272
3 261 262 273
3 262 274 273
3 262 263 274
3 263 275 274
3 263 252 275
3 252 264 275
3 264 265 276
3 265 277 276
3 265 266 277
3 266 278 277
3 266 267 278
3 267 279 278
3 267 268 279
3 268 280 279
3 268 269 280
3 269 281 280
3 269 270 281
3 270 282 281
3 270 271 282
3 271 283 282
3 271 272 283
3 272 284 283
3 272 273 284
3 273 285 284
3 273 274 285
3 274 286 285
3 274 275 286
3 275 287 286
3 275 264 287
3 264 276 287
3 276 277 288
3 277 289 288
3 277 278 289
3 278 290 289
3 278 279 290
3 279 291 290
3 279 280 291
3 280 292 291
3 280 281 292
3 281 293 292
3 281 282 293
3 282 294 293
3 282 283 294
3 283 295 294
3 283 284 295
3 284 296 295
3 284 285 296
3 285 297 296
3 285 286 297
3 286 298 297
3 286 287 298
3 287 299 298
3 287 276 299
3 276 288 299
3 0 2 1
3 288 289 290
3 0 3 2
3 288 290 291
3 0 4 3
3 288 291 292
3 0 5 4
3 288 292 293
3 0 6 5
3 288 293 294
3 0 7 6
3 288 294 295
3 0 8 7
3 288 295 296
3 0 9 8
3 288 296 297
3 0 10 9
3 288 297 298
3 0 11 10
3 288 298 299
