ply
format ascii 1.0
element vertex 300
property float x
property float y
property float z
element face 596
property list uchar int vertex_indices
end_header
0.249282211 -1.05388057 0
1.23636782 -0.522211909 0
1.82537472 0.43176949 0
1.8584789 1.55244517 0
1.32681036 2.53953052 0
0.37282902 3.12853765 0
-0.747846842 3.16164207 0
-1.73493242 2.6299727 0
-2.32393932 1.67599142 0
-2.35704327 0.55531615 0
-1.82537484 -0.431769282 0
-0.871392906 -1.02077663 0
0.386722714 -1.54090238 2.5625
1.32798982 -1.03391266 2.5625
1.88965631 -0.124213159 2.5625
1.92122388 0.944443047 2.5625
1.41423416 1.88571 2.5625
0.504534781 2.44737649 2.5625
-0.564121604 2.47894382 2.5625
-1.50538874 1.97195363 2.5625
-2.06705523 1.06225443 2.5625
-2.09862256 -0.00640130043 2.5625
-1.59163308 -0.947668314 2.5625
-0.681932807 -1.50933504 2.5625
0.432491273 -1.8292172 5.125
1.38923979 -1.31388879 5.125
1.96014404 -0.389227092 5.125
1.99223089 0.69700557 5.125
1.47690248 1.653754 5.125
0.552241027 2.22465849 5.125
-0.533991933 2.2567451 5.125
-1.49074054 1.74141645 5.125
-2.06164455 0.816754878 5.125
-2.0937314 -0.269477487 5.125
-1.57840312 -1.22622585 5.125
-0.653740823 -1.79713058 5.125
0.405883968 -1.93419027 7.6875
1.23496997 -1.43986309 7.6875
1.70829916 -0.513158083 7.6875
1.69904315 0.597614884 7.6875
1.20968235 1.59482467 7.6875
0.371340394 2.21127033 7.6875
-0.5913499 2.28177547 7.6875
-1.42043602 1.78744781 7.6875
-1.89376485 0.860743046 7.6875
-1.88450897 -0.250029504 7.6875
-1.39514816 -1.24723935 7.6875
-0.556805551 -1.86368537 7.6875
0.337242603 -1.9178853 10.25
0.707418859 -1.51917839 10.25
0.839010537 -0.637984931 10.25
0.696757555 0.489580274 10.25
0.318776697 1.56138694 10.25
-0.193652451 2.29024553 10.25
-0.703224957 2.48085833 10.25
-1.07340133 2.08215141 10.25
-1.20499289 1.20095837 10.25
-1.06273997 0.0733932257 10.25
-0.68475914 -0.998413324 10.25
-0.172329605 -1.72727227 10.25
0.221747577 -1.79163671 12.8125
0.576919258 -1.40520692 12.8125
0.709257245 -0.530117035 12.8125
0.583301663 0.59915328 12.8125
0.232802182 1.68001699 12.8125
-0.24832496 2.42285752 12.8125
-0.731162488 2.62863135 12.8125
-1.08633423 2.24220109 12.8125
-1.21867216 1.36711144 12.8125
-1.09271657 0.237841487 12.8125
-0.742217183 -0.843022108 12.8125
-0.261089563 -1.58586311 12.8125
0.123807304 -1.64921451 15.375
0.459479898 -1.27694523 15.375
0.588892579 -0.415439218 15.375
0.477369517 0.70446378 15.375
0.154793113 1.78268647 15.375
-0.292402446 2.53032041 15.375
-0.744391739 2.74703717 15.375
-1.0800643 2.37476754 15.375
-1.20947695 1.5132618 15.375
-1.09795392 0.393359065 15.375
-0.775377631 -0.684863567 15.375
-0.328181624 -1.43249798 15.375
0.0668952018 -1.52944338 17.9375
0.374969482 -1.17695355 17.9375
0.495403945 -0.346303761 17.9375
0.395928204 0.739934325 17.9375
0.103196844 1.79070389 17.9375
-0.304353118 2.52445221 17.9375
-0.717518985 2.74457169 17.9375
-1.02559328 2.39208174 17.9375
-1.14602757 1.56143224 17.9375
-1.04655194 0.475194454 17.9375
-0.753820658 -0.575574994 17.9375
-0.346270382 -1.30932391 17.9375
0.0477197319 -1.45892549 20.5
0.329611838 -1.12458658 20.5
0.441478431 -0.322829008 20.5
0.353344828 0.731517196 20.5
0.0888265669 1.75594032 20.5
-0.281199068 2.47594738 20.5
-0.657584071 2.69861317 20.5
-0.939476132 2.36427379 20.5
-1.05134261 1.56251669 20.5
-0.963209093 0.508170843 20.5
-0.698690891 -0.516252339 20.5
-0.328664958 -1.23626006 20.5
0.054595083 -1.42322433 23.0625
0.312458634 -1.10597801 23.0625
0.416928172 -0.332743406 23.0625
0.340011179 0.689291835 23.0625
0.102317438 1.68627417 23.0625
-0.232463107 2.39106345 23.0625
-0.574626446 2.61481142 23.0625
-0.832490027 2.29756474 23.0625
-0.936959565 1.52433002 23.0625
-0.860042512 0.502295017 23.0625
-0.622348845 -0.494687259 23.0625
-0.287567973 -1.19947672 23.0625
0.0755529106 -1.40502572 25.625
0.314190507 -1.10492659 25.625
0.414745063 -0.363379717 25.625
0.350273073 0.620917916 25.625
0.138049811 1.58422446 25.625
-0.165059745 2.26842308 25.625
-0.477837652 2.4901824 25.625
-0.716475248 2.19008303 25.625
-0.817029715 1.4485364 25.625
-0.752557755 0.464239091 25.625
-0.540334582 -0.499067366 25.625
-0.237224773 -1.18326628 25.625
0.100215994 -1.39736235 28.1875
0.320224375 -1.11376846 28.1875
0.416786492 -0.403738886 28.1875
0.364028573 0.542474627 28.1875
0.176087141 1.4713347 28.1875
-0.0966790989 2.13395429 28.1875
-0.38118273 2.35278487 28.1875
-0.601191103 2.06919074 28.1875
-0.697753191 1.35916138 28.1875
-0.644995272 0.412948161 28.1875
-0.4570539 -0.515911877 28.1875
-0.184287414 -1.178532 28.1875
0.117265821 -1.38749838 30.75
0.319150835 -1.11995268 30.75
0.411600232 -0.441670746 30.75
0.369842261 0.465602487 30.75
0.205065936 1.35876369 30.75
-0.0385770239 1.99849129 30.75
-0.295802832 2.21337056 30.75
-0.497687846 1.94582462 30.75
-0.590137184 1.26754284 30.75
-0.548379242 0.360269874 30.75
-0.383602977 -0.532891273 30.75
-0.139959767 -1.17261922 30.75
0.118786871 -1.36615992 33.3125
0.303016126 -1.11401653 33.3125
0.390886903 -0.46740514 33.3125
0.358854294 0.400415421 33.3125
0.215501413 1.25691307 33.3125
-0.000760454684 1.87259042 33.3125
-0.231984183 2.08247662 33.3125
-0.416213483 1.83033311 33.3125
-0.50408417 1.18372166 33.3125
-0.472051591 0.315901399 33.3125
-0.328698754 -0.540596247 33.3125
-0.112436667 -1.15627384 33.3125
0.10673748 -1.33389449 35.875
0.273864567 -1.09683084 35.875
0.357073903 -0.482297897 35.875
0.33406949 0.345040798 35.875
0.211015448 1.16350031 35.875
0.0208839625 1.75377512 35.875
-0.185379431 1.95770192 35.875
-0.352506518 1.7206378 35.875
-0.435715795 1.10610509 35.875
-0.412711442 0.278766632 35.875
-0.289657414 -0.539692819 35.875
-0.0995257646 -1.12996817 35.875
0.0864966214 -1.29460168 38.4375
0.237161264 -1.07225728 38.4375
0.31565845 -0.490055501 38.4375
0.300954968 0.296003401 38.4375
0.196990594 1.07529533 38.4375
0.0316224806 1.63900995 38.4375
-0.150839165 1.83610034 38.4375
-0.301503807 1.61375546 38.4375
-0.380001009 1.03155386 38.4375
-0.365297496 0.24549526 38.4375
-0.261333138 -0.533796668 38.4375
-0.0959648937 -1.09751165 38.4375
0.0650069565 -1.25207245 41
0.205801547 -1.04335999 41
0.283025056 -0.493139833 41
0.27598542 0.251157105 41
0.186569035 0.990096927 41
0.0387348235 1.52568161 41
-0.12790513 1.71440113 41
-0.268699735 1.50568855 41
-0.345923185 0.955468416 41
-0.338883579 0.211171627 41
-0.249467164 -0.527768135 41
-0.101632856 -1.06335306 41
0.0462429896 -1.21031618 43.5625
0.178683326 -1.01491022 43.5625
0.255077004 -0.496693552 43.5625
0.254954338 0.205478191 43.5625
0.178348258 0.903458536 43.5625
0.0457852855 1.41022444 43.5625
-0.107214488 1.58998799 43.5625
-0.239654854 1.39458179 43.5625
-0.316048473 0.876365244 43.5625
-0.315925807 0.17419368 43.5625
-0.239319772 -0.523786545 43.5625
-0.106756665 -1.03055263 43.5625
0.0351302922 -1.17322755 46.125
0.159222424 -0.990958631 46.125
0.234337151 -0.504756272 46.125
0.240347549 0.155102074 46.125
0.175643131 0.811807752 46.125
0.0575614162 1.28939724 46.125
-0.0822577626 1.45990062 46.125
-0.206349909 1.27763152 46.125
-0.281464607 0.791429281 46.125
-0.28747499 0.131571054 46.125
-0.222770587 -0.525134623 46.125
-0.104688779 -1.00272441 46.125
0.0350935683 -1.14369845 48.6875
0.150729597 -0.97423929 48.6875
0.223722875 -0.519841731 48.6875
0.234514877 0.0977389216 48.6875
0.180213943 0.713022232 48.6875
0.0753699318 1.16114378 48.6875
-0.0519243106 1.32202959 48.6875
-0.167560369 1.15257025 48.6875
-0.240553617 0.698172927 48.6875
-0.251345605 0.0805923939 48.6875
-0.197044685 -0.534690917 48.6875
-0.0922005773 -0.982812762 48.6875
0.0387925953 -1.12087965 51.25
0.146002501 -0.963888526 51.25
0.216285318 -0.540906906 51.25
0.230808794 0.034727633 51.25
0.185681432 0.608774245 51.25
0.0929950476 1.02741766 51.25
-0.0224151686 1.17848277 51.25
-0.129625082 1.02149129 51.25
-0.199907869 0.598509967 51.25
-0.214431375 0.0228755474 51.25
-0.169304013 -0.551171005 51.25
-0.0766175315 -0.969814777 51.25
0.0362896733 -1.10292161 53.8125
0.135262772 -0.958071113 53.8125
0.202580854 -0.565977931 53.8125
0.220206112 -0.0317031145 53.8125
0.183415845 0.501594722 53.8125
0.102068022 0.891019046 53.8125
-0.00204036012 1.0322237 53.8125
-0.101013467 0.887373149 53.8125
-0.168331534 0.495280087 53.8125
-0.185956776 -0.0389946103 53.8125
-0.149166524 -0.572292447 53.8125
-0.0678186193 -0.96171701 53.8125
0.0184216052 -1.04840875 56.375
0.101903707 -0.925837278 56.375
0.160356775 -0.592820287 56.375
0.178118318 -0.138589531 56.375
0.150429219 0.315144181 56.375
0.0847086757 0.646803498 56.375
-0.00143352896 0.767520308 56.375
-0.0849156454 0.644948602 56.375
-0.143368691 0.311931729 56.375
-0.16113025 -0.142298907 56.375
-0.133441135 -0.596032619 56.375
-0.0677205399 -0.927692056 56.375
-0.0240985919 -0.976221442 58.9375
0.0408224687 -0.880404472 58.9375
0.0874425396 -0.619247675 58.9375
0.103269815 -0.262727618 58.9375
0.084063381 0.0936263204 58.9375
0.0349695981 0.354329467 58.9375
-0.0308569279 0.449526489 58.9375
-0.0957780033 0.353709579 58.9375
-0.142398059 0.0925527811 58.9375
-0.158225328 -0.263967186 58.9375
-0.139018893 -0.620321095 58.9375
-0.0899250656 -0.88102442 58.9375
-0.100561634 -0.817820549 61.5
-0.0691084117 -0.770999074 61.5
-0.0460830554 -0.643080413 61.5
-0.0376551896 -0.468340278 61.5
-0.0460830554 -0.293600202 61.5
-0.0691084117 -0.165681541 61.5
-0.100561641 -0.118860066 61.5
-0.132014871 -0.16568163 61.5
-0.155040219 -0.293600231 61.5
-0.163468078 -0.468340307 61.5
-0.155040219 -0.643080354 61.5
-0.132014841 -0.770999074 61.5
3 0 1 12
3 1 13 12
3 1 2 13
3 2 14 13
3 2 3 14
3 3 15 14
3 3 4 15
3 4 16 15
3 4 5 16
3 5 17 16
3 5 6 17
3 6 18 17
3 6 7 18
3 7 19 18
3 7 8 19
3 8 20 19
3 8 9 20
3 9 21 20
3 9 10 21
3 10 22 21
3 10 11 22
3 11 23 22
3 11 0 23
3 0 12 23
3 12 13 24
3 13 25 24
3 13 14 25
3 14 26 25
3 14 15 26
3 15 27 26
3 15 16 27
3 16 28 27
3 16 17 28
3 17 29 28
3 17 18 29
3 18 30 29
3 18 19 30
3 19 31 30
3 19 20 31
3 20 32 31
3 20 21 32
3 21 33 32
3 21 22 33
3 22 34 33
3 22 23 34
3 23 35 34
3 23 12 35
3 12 24 35
3 24 25 36
3 25 37 36
3 25 26 37
3 26 38 37
3 26 27 38
3 27 39 38
3 27 28 39
3 28 40 39
3 28 29 40
3 29 41 40
3 29 30 41
3 30 42 41
3 30 31 42
3 31 43 42
3 31 32 43
3 32 44 43
3 32 33 44
3 33 45 44
3 33 34 45
3 34 46 45
3 34 35 46
3 35 47 46
3 35 24 47
3 24 36 47
3 36 37 48
3 37 49 48
3 37 38 49
3 38 50 49
3 38 39 50
3 39 51 50
3 39 40 51
3 40 52 51
3 40 41 52
3 41 53 52
3 41 42 53
3 42 54 53
3 42 43 54
3 43 55 54
3 43 44 55
3 44 56 55
3 44 45 56
3 45 57 56
3 45 46 57
3 46 58 57
3 46 47 58
3 47 59 58
3 47 36 59
3 36 48 59
3 48 49 60
3 49 61 60
3 49 50 61
3 50 62 61
3 50 51 62
3 51 63 62
3 51 52 63
3 52 64 63
3 52 53 64
3 53 65 64
3 53 54 65
3 54 66 65
3 54 55 66
3 55 67 66
3 55 56 67
3 56 68 67
3 56 57 68
3 57 69 68
3 57 58 69
3 58 70 69
3 58 59 70
3 59 71 70
3 59 48 71
3 48 60 71
3 60 61 72
3 61 73 72
3 61 62 73
3 62 74 73
3 62 63 74
3 63 75 74
3 63 64 75
3 64 76 75
3 64 65 76
3 65 77 76
3 65 66 77
3 66 78 77
3 66 67 78
3 67 79 78
3 67 68 79
3 68 80 79
3 68 69 80
3 69 81 80
3 69 70 81
3 70 82 81
3 70 71 82
3 71 83 82
3 71 60 83
3 60 72 83
3 72 73 84
3 73 85 84
3 73 74 85
3 74 86 85
3 74 75 86
3 75 87 86
3 75 76 87
3 76 88 87
3 76 77 88
3 77 89 88
3 77 78 89
3 78 90 89
3 78 79 90
3 79 91 90
3 79 80 91
3 80 92 91
3 80 81 92
3 81 93 92
3 81 82 93
3 82 94 93
3 82 83 94
3 83 95 94
3 83 72 95
3 72 84 95
3 84 85 96
3 85 97 96
3 85 86 97
3 86 98 97
3 86 87 98
3 87 99 98
3 87 88 99
3 88 100 99
3 88 89 100
3 89 101 100
3 89 90 101
3 90 102 101
3 90 91 102
3 91 103 102
3 91 92 103
3 92 104 103
3 92 93 104
3 93 105 104
3 93 94 105
3 94 106 105
3 94 95 106
3 95 107 106
3 95 84 107
3 84 96 107
3 96 97 108
3 97 109 108
3 97 98 109
3 98 110 109
3 98 99 110
3 99 111 110
3 99 100 111
3 100 112 111
3 100 101 112
3 101 113 112
3 101 102 113
3 102 114 113
3 102 103 114
3 103 115 114
3 103 104 115
3 104 116 115
3 104 105 116
3 105 117 116
3 105 106 117
3 106 118 117
3 106 107 118
3 107 119 118
3 107 96 119
3 96 108 119
3 108 109 120
3 109 121 120
3 109 110 121
3 110 122 121
3 110 111 122
3 111 123 122
3 111 112 123
3 112 124 123
3 112 113 124
3 113 125 124
3 113 114 125
3 114 126 125
3 114 115 126
3 115 127 126
3 115 116 127
3 116 128 127
3 116 117 128
3 117 129 128
3 117 118 129
3 118 130 129
3 118 119 130
3 119 131 130
3 119 108 131
3 108 120 131
3 120 121 132
3 121 133 132
3 121 122 133
3 122 134 133
3 122 123 134
3 123 135 134
3 123 124 135
3 124 136 135
3 124 125 136
3 125 137 136
3 125 126 137
3 126 138 137
3 126 127 138
3 127 139 138
3 127 128 139
3 128 140 139
3 128 129 140
3 129 141 140
3 129 130 141
3 130 142 141
3 130 131 142
3 131 143 142
3 131 120 143
3 120 132 143
3 132 133 144
3 133 145 144
3 133 134 145
3 134 146 145
3 134 135 146
3 135 147 146
3 135 136 147
3 136 148 147
3 136 137 148
3 137 149 148
3 137 138 149
3 138 150 149
3 138 139 150
3 139 151 150
3 139 140 151
3 140 152 151
3 140 141 152
3 141 153 152
3 141 142 153
3 142 154 153
3 142 143 154
3 143 155 154
3 143 132 155
3 132 144 155
3 144 145 156
3 145 157 156
3 145 146 157
3 146 158 157
3 146 147 158
3 147 159 158
3 147 148 159
3 148 160 159
3 148 149 160
3 149 161 160
3 149 150 161
3 150 162 161
3 150 151 162
3 151 163 162
3 151 152 163
3 152 164 163
3 152 153 164
3 153 165 164
3 153 154 165
3 154 166 165
3 154 155 166
3 155 167 166
3 155 144 167
3 144 156 167
3 156 157 168
3 157 169 168
3 157 158 169
3 158 170 169
3 158 159 170
3 159 171 170
3 159 160 171
3 160 172 171
3 160 161 172
3 161 173 172
3 161 162 173
3 162 174 173
3 162 163 174
3 163 175 174
3 163 164 175
3 164 176 175
3 164 165 176
3 165 177 176
3 165 166 177
3 166 178 177
3 166 167 178
3 167 179 178
3 167 156 179
3 156 168 179
3 168 169 180
3 169 181 180
3 169 170 181
3 170 182 181
3 170 171 182
3 171 183 182
3 171 172 183
3 172 184 183
3 172 173 184
3 173 185 184
3 173 174 185
3 174 186 185
3 174 175 186
3 175 187 186
3 175 176 187
3 176 188 187
3 176 177 188
3 177 189 188
3 177 178 189
3 178 190 189
3 178 179 190
3 179 191 190
3 179 168 191
3 168 180 191
3 180 181 192
3 181 193 192
3 181 182 193
3 182 194 193
3 182 183 194
3 183 195 194
3 183 184 195
3 184 196 195
3 184 185 196
3 185 197 196
3 185 186 197
3 186 198 197
3 186 187 198
3 187 199 198
3 187 188 199
3 188 200 199
3 188 189 200
3 189 201 200
3 189 190 201
3 190 202 201
3 190 191 202
3 191 203 202
3 191 180 203
3 180 192 203
3 192 193 204
3 193 205 204
3 193 194 205
3 194 206 205
3 194 195 206
3 195 207 206
3 195 196 207
3 196 208 207
3 196 197 208
3 197 209 208
3 197 198 209
3 198 210 209
3 198 199 210
3 199 211 210
3 199 200 211
3 200 212 211
3 200 201 212
3 201 213 212
3 201 202 213
3 202 214 213
3 202 203 214
3 203 215 214
3 203 192 215
3 192 204 215
3 204 205 216
3 205 217 216
3 205 206 217
3 206 218 217
3 206 207 218
3 207 219 218
3 207 208 219
3 208 220 219
3 208 209 220
3 209 221 220
3 209 210 221
3 210 222 221
3 210 211 222
3 211 223 222
3 211 212 223
3 212 224 223
3 212 213 224
3 213 225 224
3 213 214 225
3 214 226 225
3 214 215 226
3 215 227 226
3 215 204 227
3 204 216 227
3 216 217 228
3 217 229 228
3 217 218 229
3 218 230 229
3 218 219 230
3 219 231 230
3 219 220 231
3 220 232 231
3 220 221 232
3 221 233 232
3 221 222 233
3 222 234 233
3 222 223 234
3 223 235 234
3 223 224 235
3 224 236 235
3 224 225 236
3 225 237 236
3 225 226 237
3 226 238 237
3 226 227 238
3 227 239 238
3 227 216 239
3 216 228 239
3 228 229 240
3 229 241 240
3 229 230 241
3 230 242 241
3 230 231 242
3 231 243 242
3 231 232 243
3 232 244 243
3 232 233 244
3 233 245 244
3 233 234 245
3 234 246 245
3 234 235 246
3 235 247 246
3 235 236 247
3 236 248 247
3 236 237 248
3 237 249 248
3 237 238 249
3 238 250 249
3 238 239 250
3 239 251 250
3 239 228 251
3 228 240 251
3 240 241 252
3 241 253 252
3 241 242 253
3 242 254 253
3 242 243 254
3 243 255 254
3 243 244 255
3 244 256 255
3 244 245 256
3 245 257 256
3 245 246 257
3 246 258 257
3 246 247 258
3 247 259 258
3 247 248 259
3 248 260 259
3 248 249 260
3 249 261 260
3 249 250 261
3 250 262 261
3 250 251 262
3 251 263 262
3 251 240 263
3 240 252 263
3 252 253 264
3 253 265 264
3 253 254 265
3 254 266 265
3 254 255 266
3 255 267 266
3 255 256 267
3 256 268 267
3 256 257 268
3 257 269 268
3 257 258 269
3 258 270 269
3 258 259 270
3 259 271 270
3 259 260 271
3 260 272 271
3 260 261 272
3 261 273 272
3 261 262 273
3 262 274 273
3 262 263 274
3 263 275 274
3 263 252 275
3 252 264 275
3 264 265 276
3 265 277 276
3 265 266 277
3 266 278 277
3 266 267 278
3 267 279 278
3 267 268 279
3 268 280 279
3 268 269 280
3 269 281 280
3 269 270 281
3 270 282 281
3 270 271 282
3 271 283 282
3 271 272 283
3 272 284 283
3 272 273 284
3 273 285 284
3 273 274 285
3 274 286 285
3 274 275 286
3 275 287 286
3 275 264 287
3 264 276 287
3 276 277 288
3 277 289 288
3 277 278 289
3 278 290 289
3 278 279 290
3 279 291 290
3 279 280 291
3 280 292 291
3 280 281 292
3 281 293 292
3 281 282 293
3 282 294 293
3 282 283 294
3 283 295 294
3 283 284 295
3 284 296 295
3 284 285 296
3 285 297 296
3 285 286 297
3 286 298 297
3 286 287 298
3 287 299 298
3 287 276 299
3 276 288 299
3 0 2 1
3 288 289 290
3 0 3 2
3 288 290 291
3 0 4 3
3 288 291 292
3 0 5 4
3 288 292 293
3 0 6 5
3 288 293 294
3 0 7 6
3 288 294 295
3 0 8 7
3 288 295 296
3 0 9 8
3 288 296 297
3 0 10 9
3 288 297 298
3 0 11 10
3 288 298 299
